<?xml version="1.0" encoding="iso-8859-1"?>
<!-- Generator: Adobe Illustrator 18.0.0, SVG Export Plug-In . SVG Version: 6.00 Build 0)  -->
<!DOCTYPE svg PUBLIC "-//W3C//DTD SVG 1.1//EN" "http://www.w3.org/Graphics/SVG/1.1/DTD/svg11.dtd">
<svg version="1.1" id="Calque_1" xmlns="http://www.w3.org/2000/svg" xmlns:xlink="http://www.w3.org/1999/xlink" x="0px" y="0px"
	 viewBox="0 0 56.69 56.69" style="enable-background:new 0 0 56.69 56.69;" xml:space="preserve">
<path style="fill:none;stroke:#000000;stroke-width:2.8516;stroke-miterlimit:10;" d="M35.127,23.853
	c0.189-1.949-2.268-3.189-4.194-2.84c-2.374,0.431-4.288,2.335-5.272,4.538c-0.984,2.203-1.164,4.679-1.129,7.091
	c0.016,1.101,0.236,2.44,1.266,2.828c0.652,0.246,2.901,0.371,3.53,0.07c4.745-2.272,6.504-13.334,6.504-14.305
	c0-2.236-0.688,15.882-2.958,22.811c-0.882,2.693-2.266,5.626-4.963,6.496c-2.566,0.828-5.556-0.788-6.591-3.277
	c-1.036-2.489-0.256-5.52,1.596-7.479"/>
</svg>
