<?xml version="1.0" encoding="iso-8859-1"?>
<!-- Generator: Adobe Illustrator 18.0.0, SVG Export Plug-In . SVG Version: 6.00 Build 0)  -->
<!DOCTYPE svg PUBLIC "-//W3C//DTD SVG 1.1//EN" "http://www.w3.org/Graphics/SVG/1.1/DTD/svg11.dtd">
<svg version="1.1" id="Calque_1" xmlns="http://www.w3.org/2000/svg" xmlns:xlink="http://www.w3.org/1999/xlink" x="0px" y="0px"
	 viewBox="0 0 56.69 56.69" style="enable-background:new 0 0 56.69 56.69;" xml:space="preserve">
<g>
	<path style="fill:none;stroke:#000000;stroke-width:2.8516;stroke-miterlimit:10;" d="M18.213,20.161
		c0.165,5.674-0.322,11.366-1.448,16.929c0.714-3.41,1.866-6.728,3.419-9.846c1.381-2.773,3.324-5.583,6.288-6.482
		c0.35-0.106,0.757-0.175,1.058,0.033c0.243,0.168,0.348,0.471,0.418,0.758c0.421,1.737,0.077,3.556-0.267,5.31
		c-0.592,3.011-1.183,6.974-1.775,9.985"/>
	<path style="fill:none;stroke:#000000;stroke-width:2.8516;stroke-miterlimit:10;" d="M27.303,29.463
		c1.142-2.692,2.734-5.193,4.691-7.366c0.392-0.436,0.822-0.873,1.378-1.061c1.27-0.428,2.631,0.694,2.992,1.985
		c0.361,1.29,0.025,2.659-0.257,3.969c-0.526,2.443-0.859,4.928-0.997,7.423c-0.028,0.514-0.033,1.077,0.285,1.482
		c0.55,0.699,1.69,0.476,2.409-0.048c0.719-0.524,1.288-1.284,2.122-1.594"/>
</g>
</svg>
