<?xml version="1.0" encoding="iso-8859-1"?>
<!-- Generator: Adobe Illustrator 18.0.0, SVG Export Plug-In . SVG Version: 6.00 Build 0)  -->
<!DOCTYPE svg PUBLIC "-//W3C//DTD SVG 1.1//EN" "http://www.w3.org/Graphics/SVG/1.1/DTD/svg11.dtd">
<svg version="1.1" id="Calque_1" xmlns="http://www.w3.org/2000/svg" xmlns:xlink="http://www.w3.org/1999/xlink" x="0px" y="0px"
	 viewBox="0 0 56.69 56.69" style="enable-background:new 0 0 56.69 56.69;" xml:space="preserve">
<path style="fill:none;stroke:#000000;stroke-width:2.8516;stroke-miterlimit:10;" d="M26.802,22.39
	c-3.111,1.054-4.645,4.529-5.388,7.728c-0.44,1.895-0.58,4.238,0.963,5.422c1.723,1.323,4.247,0.202,5.855-1.26
	c2.429-2.208,4.158-5.175,4.881-8.377c0.267-1.182,0.386-2.479-0.174-3.553c-0.856-1.64-2.989-2.171-4.83-1.986
	c-0.747,0.075-1.545,0.274-2.019,0.856c-0.474,0.582-0.385,1.638,0.317,1.903c0.356,0.135,0.753,0.038,1.121-0.06
	c2.681-0.711,5.362-1.422,8.043-2.133"/>
</svg>
