<?xml version="1.0" encoding="iso-8859-1"?>
<!-- Generator: Adobe Illustrator 18.0.0, SVG Export Plug-In . SVG Version: 6.00 Build 0)  -->
<!DOCTYPE svg PUBLIC "-//W3C//DTD SVG 1.1//EN" "http://www.w3.org/Graphics/SVG/1.1/DTD/svg11.dtd">
<svg version="1.1" id="Calque_1" xmlns="http://www.w3.org/2000/svg" xmlns:xlink="http://www.w3.org/1999/xlink" x="0px" y="0px"
	 viewBox="0 0 56.69 56.69" style="enable-background:new 0 0 56.69 56.69;" xml:space="preserve">
<path style="fill:none;stroke:#000000;stroke-width:2.8516;stroke-miterlimit:10;" d="M32.242,23.105
	c0.404-1.056-0.372-2.301-1.435-2.686s-2.27-0.078-3.246,0.493c-3.026,1.769-4.101,5.546-4.915,8.956
	c-0.289,1.212-0.58,2.467-0.353,3.692s1.118,2.419,2.353,2.586c1.172,0.159,2.257-0.612,3.12-1.421
	c3.623-3.398,8.703-12.897,5.903-13.255c0,0-3.973,19.027-4.665,28.739c-0.052,0.725-0.082,1.524,0.365,2.098
	c0.915,1.174,2.778,0.419,4.012-0.413"/>
</svg>
