<?xml version="1.0" encoding="iso-8859-1"?>
<!-- Generator: Adobe Illustrator 18.0.0, SVG Export Plug-In . SVG Version: 6.00 Build 0)  -->
<!DOCTYPE svg PUBLIC "-//W3C//DTD SVG 1.1//EN" "http://www.w3.org/Graphics/SVG/1.1/DTD/svg11.dtd">
<svg version="1.1" id="Calque_1" xmlns="http://www.w3.org/2000/svg" xmlns:xlink="http://www.w3.org/1999/xlink" x="0px" y="0px"
	 viewBox="0 0 56.69 56.69" style="enable-background:new 0 0 56.69 56.69;" xml:space="preserve">
<path style="fill:none;stroke:#000000;stroke-width:2.9971;stroke-miterlimit:10;" d="M15.79,21.659
	c0.046-0.308,1.222-0.946,2.971-0.456c2.357,0.66,2.328,3.686,2.635,6.114c0.307,2.429,0.204,4.943,1.029,7.323
	c0.09,0.261-0.01,0.614,0.234,0.742c0.285,0.149,0.602-0.123,0.806-0.373c3.349-4.1,5.841-8.897,7.271-13.995
	c-0.398,3.961-0.616,7.94-0.654,11.921c-0.009,0.931,0.061,2.007,0.812,2.557c1.144,0.838,2.691-0.246,3.622-1.315
	c1.985-2.279,3.683-4.808,5.042-7.508c1.107-2.2,1.971-4.904,0.746-7.041"/>
</svg>
