<?xml version="1.0" encoding="iso-8859-1"?>
<!-- Generator: Adobe Illustrator 18.0.0, SVG Export Plug-In . SVG Version: 6.00 Build 0)  -->
<!DOCTYPE svg PUBLIC "-//W3C//DTD SVG 1.1//EN" "http://www.w3.org/Graphics/SVG/1.1/DTD/svg11.dtd">
<svg version="1.1" id="Calque_1" xmlns="http://www.w3.org/2000/svg" xmlns:xlink="http://www.w3.org/1999/xlink" x="0px" y="0px"
	 viewBox="0 0 56.69 56.69" style="enable-background:new 0 0 56.69 56.69;" xml:space="preserve">
<g>
	<path style="fill:none;stroke:#000000;stroke-width:3.075;stroke-miterlimit:10;" d="M23.077,21.634
		c-0.358-0.3,0.043-0.882,0.476-1.057c1.222-0.493,2.667,0.114,3.54,1.101c0.873,0.987,1.302,2.278,1.71,3.532
		c0.612,1.883,1.225,3.766,1.837,5.649c0.442,1.36,0.954,2.816,2.129,3.631c1.314,0.912,3.069,0.758,4.652,0.523"/>
	<path style="fill:none;stroke:#000000;stroke-width:3.075;stroke-miterlimit:10;" d="M36.95,20.631
		c-2.416-0.628-4.798,1.319-5.978,3.519c-1.18,2.199-1.648,4.743-2.967,6.862c-1.879,3.019-5.279,4.23-8.736,5.067"/>
</g>
</svg>
