<?xml version="1.0" encoding="iso-8859-1"?>
<!-- Generator: Adobe Illustrator 18.0.0, SVG Export Plug-In . SVG Version: 6.00 Build 0)  -->
<!DOCTYPE svg PUBLIC "-//W3C//DTD SVG 1.1//EN" "http://www.w3.org/Graphics/SVG/1.1/DTD/svg11.dtd">
<svg version="1.1" id="Calque_1" xmlns="http://www.w3.org/2000/svg" xmlns:xlink="http://www.w3.org/1999/xlink" x="0px" y="0px"
	 viewBox="0 0 56.69 56.69" style="enable-background:new 0 0 56.69 56.69;" xml:space="preserve">
<path style="fill:none;stroke:#000000;stroke-width:3.0977;stroke-miterlimit:10;" d="M22.547,22.074
	c0.251-1.279,2.239-1.418,3.135-0.472c0.896,0.946,0.984,2.376,1.021,3.679c0.06,2.088,0.12,4.176,0.18,6.264
	c0.037,1.277,0.18,2.757,1.246,3.462c1.328,0.878,3.093-0.064,4.281-1.123c3.686-3.286,7.106-12.308,6.623-12.878
	c-0.545-0.641-1.484,8.125-2.259,12.192c-0.928,4.87-2.861,9.547-5.642,13.652c-1.706,2.518-3.945,4.956-6.918,5.599
	s-6.618-1.39-6.603-4.431"/>
</svg>
