<?xml version="1.0" encoding="utf-8"?>
<!-- Generator: Adobe Illustrator 19.0.0, SVG Export Plug-In . SVG Version: 6.00 Build 0)  -->
<svg version="1.1" id="Layer_1" xmlns="http://www.w3.org/2000/svg" xmlns:xlink="http://www.w3.org/1999/xlink" x="0px" y="0px"
	 viewBox="-41 190.3 512 461.5" style="enable-background:new -41 190.3 512 461.5;" xml:space="preserve">
<style type="text/css">
	.st0{fill:#EBE76B;}
	.st1{fill:#5ABDB2;}
	.st2{fill:#6381C0;}
</style>
<g>
	<path class="st0" d="M458.2,279.3c-24.1-54-75.3-88.9-130.4-88.9c-55.8,0-91.7,24.8-112.5,51.3c-20.8-26.5-56.7-51.3-112.5-51.3
		c-55.1,0-106.3,34.9-130.4,88.9c-24.9,55.8-13.9,118,29.4,166.3c104.9,116.9,197.6,199.8,198.5,200.6c4.3,3.8,9.7,5.7,15,5.7
		c5.4,0,10.7-1.9,15-5.7c0.9-0.8,93.6-83.7,198.5-200.6C472.1,397.2,483.1,335.1,458.2,279.3z M395.2,415.4
		c-78.5,87.5-149.9,155.5-179.9,183.3c-30-27.9-101.4-95.9-179.9-183.3C3.9,380.2-4.1,337.3,13.7,297.6
		c16.6-37.2,52.4-62.2,89.2-62.2c72.7,0,89,54,90.6,60c2.5,10.1,11.5,17.2,21.9,17.2c10.4,0,19.4-7.1,21.9-17.2
		c0.6-2.5,15.5-60,90.6-60c36.8,0,72.6,25,89.2,62.2C434.7,337.3,426.8,380.2,395.2,415.4z"/>
	<path class="st1" d="M327.6,260c-12.4-1.7-23.7,7-25.4,19.3c-1.7,12.3,7,23.7,19.3,25.4c1.2,0.2,28.9,4.4,31.6,44.1
		c0.8,11.9,10.7,21.1,22.5,21.1c0.5,0,1,0,1.5,0c12.4-0.8,21.8-11.6,21-24C394,285,350.2,263.1,327.6,260z"/>
	<path class="st2" d="M348.3,379.6c-5.9,0-11.7,2.4-16,6.6c-4.2,4.2-6.6,10-6.6,15.9c0,5.9,2.4,11.7,6.6,16c4.2,4.2,10,6.6,16,6.6
		c5.9,0,11.7-2.4,16-6.6c4.2-4.2,6.6-10,6.6-16c0-6-2.4-11.8-6.6-15.9C360,382.1,354.2,379.6,348.3,379.6z"/>
</g>
</svg>
