<?xml version="1.0" encoding="utf-8"?>
<!-- Generator: Adobe Illustrator 19.0.0, SVG Export Plug-In . SVG Version: 6.00 Build 0)  -->
<svg version="1.1" id="g" xmlns="http://www.w3.org/2000/svg" xmlns:xlink="http://www.w3.org/1999/xlink" x="0px" y="0px"
	 viewBox="0 0 595.3 841.9" style="enable-background:new 0 0 595.3 841.9;" xml:space="preserve">
<style type="text/css">
	.st0{fill:none;stroke:#6381C0;stroke-width:4;stroke-miterlimit:10;}
	.st1{fill:none;stroke:#5ABDB2;stroke-width:4;stroke-miterlimit:10;}
	.st2{fill:none;stroke:#A2C856;stroke-width:4;stroke-miterlimit:10;}
	.st3{fill:none;stroke:#EBE76B;stroke-width:4;stroke-miterlimit:10;}
	.st4{fill:none;stroke:#F5FDC6;stroke-width:4;stroke-miterlimit:10;}
</style>
<g id="blue">
		<path class="st0" d="M41.8,20.4c-0.5,0-0.9,0.1-1.3,0.4c-1,0.6-0.8,1.7-1.2,2.8c-0.3,1-0.8,2.3-1.4,3.9c-0.5,1.4-0.4,2.1-3,2.2
			s-4.9,0-6.8,0.1c-0.3,0-0.4,0-0.6,0c-0.3,0-0.5,0-0.8,0c-1.4,0-2.1-0.4-1.4-2.9c0.4-1.4,0.9-2.7,1.3-3.7c0.4-1.5-0.7-2.5-1.9-2.5
			c-0.7,0-1.4,0.4-1.7,1.2c-0.5,1.5-1.2,3.6-1.9,6.2c-0.6,2.2-1.3,2.1-2.8,2.2c-4.1,0.4-7.2,1-9.1,1.7c-2,0.8-1.3,3.7,0.7,3.7
			c0.2,0,0.4,0,0.6-0.1c1.2-0.5,3.1-0.9,5.5-1.2c0.5-0.1,0.9-0.1,1.3-0.1c1.4,0,2.1,0.5,1.1,2.9L18,38.1c-0.5,1.5-1.3,3.7-2.4,6.6
			c-0.6,1.3-1.7,2.1-3.5,2.1c-1.1,0.1-2.2,0.1-3.2,0.1c-1.4,0-2.8-0.1-4-0.2c-0.1,0-0.2,0-0.2,0c-0.9,0-1.7,0.7-1.7,1.7
			c-0.1,1,0.6,1.9,1.7,1.9c1.5,0.1,3.3,0.3,5.1,0.3c1.9,0.1,2.7,1.2,2.1,3c-1.3,3.5-2.2,6.7-2.4,9.4c-0.1,1,0.5,1.9,1.5,2.1
			c0.1,0,0.2,0,0.3,0c0.9,0,1.7-0.6,1.8-1.6c0.4-3.2,1.7-7.2,3.6-11.8c0.4-0.9,1.2-1.3,2.6-1.4c2.2-0.1,4.8-0.4,7.7-0.8
			c0.7-0.1,1.2-0.2,1.6-0.2c1.3,0,1.5,0.6,0.7,3c-1.2,3.5-2.2,7.1-3,10.2c-0.1,0.9,0.4,2.1,1.4,2.2c0.1,0,0.2,0,0.3,0
			c0.8,0,1.8-0.5,1.9-1.4c1-3.7,2.2-8,3.7-12.6c0.4-1.4,1.3-2.2,2.8-2.3c3.3-0.4,6-0.6,7.8-0.8c1,0,1.8-0.9,1.8-1.9
			c-0.1-1-0.9-1.7-1.8-1.7c-0.1,0-0.1,0-0.2,0c-1.4,0.1-3.1,0.3-5,0.4c-0.4,0-0.8,0.1-1.1,0.1c-2,0-1.8-0.8-1.1-2.9l3-8
			c0-0.1,0.6-0.1,2.2-0.1c3-0.1,4.9-0.1,6-0.3c1,0,1.8-0.9,1.8-1.9c-0.1-1-0.9-1.7-1.8-1.7c-0.1,0-0.1,0-0.2,0c-0.8,0-1.8,0-3.2,0
			c-3,0-2.7,0-2.1-2.8c0.4-1.5,0.8-2.8,0.9-4C43.5,21.5,42.9,20.5,41.8,20.4L41.8,20.4z M22,46.1c-1.8,0-2.5-1.1-1.8-3
			c1.2-2.8,1.7-5,2.4-7.2c0.9-2.6,1.4-2.2,2.8-2.3c1.9-0.1,4.2-0.1,7.1-0.3c0.4,0,0.7-0.1,1.1-0.1c1.3,0,1.9,0.4,1.1,2.9L32.3,43
			c-0.5,1.3-0.5,1.8-3,2.2c-2.7,0.4-5.1,0.5-7.1,0.8C22.2,46.1,22.1,46.1,22,46.1L22,46.1z"/><path class="st0" d="M70.9,3.6c-0.8,0-1.6,0.1-2.4,0.3c-3.6,1-7.2,4.1-9.3,7.8C57.1,16,55.6,22,54.7,30.1c-1.5,13.2,0.9,39.6,6,49
			c2.2,4,5.4,5.9,8.6,5.9c1.3,0,2.5-0.3,3.7-0.9c4-1.9,6.9-6.4,7.6-11.2c0.1-1-0.5-1.9-1.5-2.1c-0.1,0-0.2,0-0.3,0
			c-0.9,0-1.7,0.6-1.8,1.6c-0.3,1.9-0.9,3.6-1.9,5c-1.3,1.8-3.5,4-5.9,4c-1.7,0-3.5-1.1-5.1-4.1c-2.4-4.2-4.1-11.8-5.3-22.6
			c-2.1-19.7-0.3-33.6,3.9-41.1c1.7-3.2,4-5.3,6.9-6c0.4-0.1,0.8-0.2,1.2-0.2c4.8,0,7.8,8.2,6.7,13.5c-0.1,1,0.4,2.1,1.4,2.2
			c0.1,0,0.2,0,0.3,0c0.9,0,1.8-0.5,1.9-1.4c0.8-3.7,0.1-7.8-2.1-12.3C77.3,5.5,74.3,3.6,70.9,3.6L70.9,3.6z"/><path class="st0" d="M102.4,4c-0.8,0-1.6,0.1-2.5,0.3c-3.7,0.9-7.7,4.2-9.6,7.7c-8.4,16.5-3.1,47.6,0.1,58.9
			c1.5,5.3,3.3,9.1,5.3,11.6c1.7,1.9,3.7,3,5.9,3c1.3,0,2.7-0.4,4.2-1.4c2.8-1.8,5-5.4,6.4-10.9c2.2-8.4,3.1-20.1,2.1-42.8
			c-0.3-11.6-1.2-15.4-1.9-17.6C110.5,7.6,107.3,4,102.4,4L102.4,4z M101.5,81.7c-1,0-1.9-0.6-3-1.7c-1.7-1.9-3.1-5.4-4.5-10.2
			c-3.2-11.3-8.2-41-0.4-56c1.4-2.7,4.5-5.4,7.1-5.9c0.6-0.1,1.1-0.2,1.6-0.2c3.1,0,5.2,2.3,6.5,6.4c1,2.8,1.5,6.3,1.8,10.3
			c0.4,16.1,0.5,25.8,0.1,32.3c-0.6,12.5-3,21.9-7.1,24.4C102.9,81.5,102.1,81.7,101.5,81.7L101.5,81.7z"/><path class="st0" d="M125.3,6.5L125.3,6.5c-1.1,0-1.9,0.8-1.9,1.7v0.3c0,4.8-0.1,11.4-0.3,20.1c-0.3,8.6-0.4,14.3-0.4,17
			c-0.1,14.8,0.3,27.3,1.2,37.3c0,0.5,0.3,0.9,0.6,1.3c0.3,0.3,0.6,0.4,0.9,0.4c0.2,0,0.5,0,0.7,0c0.8,0,1.3-0.2,2.2-0.3
			c0.4,0,0.6-0.3,1-0.6c7.7-8.9,13.9-21.2,16.3-33.4c3-14.5,0.5-26.4-7.3-35.7C134.1,9.3,130.8,6.6,125.3,6.5L125.3,6.5z
			 M128.4,77.4c-0.8,0-1.4-0.8-1.5-2.5c-0.4-8.4-0.6-18.1-0.5-29.4c0-3,0.1-8.4,0.3-16.5c0.1-6.3,0.3-11.4,0.3-15.4
			c0-2,0.5-2.7,1.2-2.7c0.5,0,1.1,0.3,1.8,0.7c1.8,1,3.6,2.7,5.5,5c13,15.7,7.7,40.9-4.9,59.3C129.9,76.9,129.1,77.4,128.4,77.4
			L128.4,77.4z"/><path class="st0" d="M161.6,3.7c-1.7,0-3.2,0.1-4.1,0.6c-1.5,1-2.1,3.2-2.4,5.8c-0.5,4.2-0.1,9.9,0.4,16.7
			c0.5,6.3,0.6,5.7,0.4,11.3c-0.1,3-0.4,6.4-0.5,10.7c-0.4,8.5-0.6,19.7-0.1,27.5c0.1,2.4,0.4,4.2,0.8,5.7c0.4,1.7,0.9,3.2,2.3,3.7
			c1.8,0.8,4.4,1.2,7.8,1.2c0.5,0,1,0,1.5,0c1.7-0.1,7.1-0.6,8.7-0.6c1,0,1.8-0.8,1.8-1.8s-0.8-1.8-1.8-1.8c-0.9,0-2.3,0-4.2,0.1
			c-2.6,0.2-5.1,0.5-7.4,0.5c-1,0-2-0.1-2.9-0.2c-1.4-0.3-1.9-1.2-1.9-2.4c0,0.4-0.1,1.2-0.2,1.2c0-0.1-0.1-0.4-0.1-0.6
			c-0.3-1.2-0.5-2.8-0.6-5c-0.5-7.1-0.4-17.1,0.3-29.7c0.1-2.6,1-2.6,2.7-2.6c1.8,0,3.2,0,4.5-0.1c1,0,1.8-0.9,1.8-1.9
			c-0.1-1-0.9-1.7-1.8-1.7c-0.1,0-0.1,0-0.2,0c-1,0.1-2.4,0.1-4,0.1c-1.8,0-2.7-0.3-2.6-2.8c0.3-5.3,0-4.9-0.4-10.8
			c-0.5-6.8-0.9-12.1-0.4-16.1c0-0.4,0.1-0.6,0.1-0.9c0.1-1.2,0.4-1.7,0.4-1.8c0-0.1,0-0.1,0.1-0.3h0.4c0.4-0.1,1-0.1,1.9-0.1
			c0.8,0,2.7,0,5.9,0.1c4.2,0.1,7.3,0.1,9,0.1c0.4,0,0.8,0,1.2,0c0.6,0,1.2-0.1,1.7-0.7c0.4-0.3,0.5-0.8,0.5-1.3
			c-0.1-1-0.9-1.7-1.8-1.7c-0.1,0-0.1,0-0.2,0c-0.5,0-3.9-0.1-10.2-0.3C164.6,3.7,162.5,3.7,161.6,3.7L161.6,3.7z"/><path class="st0" d="M188.3,7.2c-0.9,0-1.8,0.5-1.9,1.4c-0.4,1.4,0.1,4.1,1,8.6c0.8,3.7,1.8,8.5,3.1,14l2.3,9.6l2.3,9.3
			c0.6,2.4,1,4,1.2,4.9c0.1,0.6,1.4,5.8,3.7,15.4l2.2,9l0.8,3c0.1,0.4,0.3,0.6,0.3,0.9l0.3,0.3c0,0.1,0,0.3,0.1,0.4l0.5,0.5
			c0.4,0.2,0.7,0.4,1,0.4c0.2,0,0.5-0.1,0.8-0.2c1.2-0.5,3.3-13.8,4.8-19.8c1.2-4.9,2.4-11.8,4-21c1.4-9,2.4-15,3.1-18.1
			c0.3-1.2,0.8-3.6,1.7-7.2c0.8-3.1,1.3-5.5,1.5-7.5c0.1-1-0.5-1.9-1.5-2.1c-0.1,0-0.2,0-0.3,0c-0.9,0-1.7,0.6-1.8,1.6
			c-0.3,1.8-0.8,4.1-1.5,7.1c-0.9,3.7-1.4,6.2-1.7,7.3c-0.6,3.2-1.7,9.3-3.1,18.3c-1.5,9-2.8,15.9-4,20.8c-0.3,1.3-0.5,2.6-0.8,3.7
			c-0.5,2.9-1,4-1.4,4c-0.5,0-1-1.2-1.4-2.4l-3.6-15c-0.1-0.9-0.5-2.6-1.2-5l-2.3-9.1l-2.3-9.6c-1.4-5.8-2.4-10.5-3.1-14
			c-0.4-2.1-0.8-3.7-0.9-4.9c-0.1-1.2-0.3-1.9-0.1-2.2c0.1-1-0.4-2.1-1.4-2.2C188.5,7.2,188.4,7.2,188.3,7.2L188.3,7.2z"/><path class="st0" d="M241.5,6H235c-1.9,0.1-3.5,0.3-4.5,0.9s-1.4,2.3-1.8,4c-0.3,1.7-0.5,3.7-0.6,6.4c-0.5,9.1-0.5,22.8-0.3,38.2
			C228,63.2,228,67,228,67.2c0,0.1,0,1.3,0,3.3c-0.1,2.1-0.1,3.9-0.1,5.3c0,2.2,0,3.9,0.1,5.1c0,0.8,0,1.4,0.1,1.9
			c0.1,0.6,0.4,1.4,1,1.9c0.1,0.1,0.3,0.3,0.4,0.3c0.7,0.5,1.3,0.5,1.9,0.5c0.2,0,0.4,0,0.7,0c0.4,0,0.8,0,1.2,0
			c1.4,0.1,3.3,0.1,5.9,0.1c1.7,0,3.6,0,5.9-0.1c2.3-0.1,3.6-0.1,3.9-0.1c1,0,1.8-0.8,1.8-1.8s-0.8-1.8-1.8-1.8c-0.3,0-1.5,0-3.9,0
			c-2.4,0.1-4.4,0.1-6,0.1H235c-1.2,0-1.8-0.1-2.4-0.1c-0.3,0-0.5,0-0.8,0c0-0.4,0-0.8-0.1-1.2c-0.1-1.2-0.1-2.8-0.1-4.9
			c0-1.4,0-3.2,0.1-5.3c0-2.1,0-3.2,0-3.3c0-0.6,0-3.6-0.1-9.1c-0.1-4.5-0.1-8.4-0.1-12c0-1.5,0.8-2.6,2.2-2.6
			c0.6,0,1.4-0.1,2.2-0.1c1.9,0,3.1,0,3.5-0.1c1,0,1.8-0.9,1.8-1.9c-0.1-1-0.9-1.7-1.8-1.7c-0.1,0-0.1,0-0.2,0c-0.6,0-3,0-5,0.1
			c-0.1,0-0.2,0-0.3,0c-1.5,0-2.3-0.9-2.3-2.5v-1.5c0.1-7.7,0.3-13.8,0.5-18.3c0.1-2.6,0.4-4.6,0.6-6c0,0,0.5-1.2,1.4-1.8
			c0.4,0,0.9,0,1.4,0c0.7-0.1,1.6-0.1,2.6-0.1s2.2,0,3.5,0.1c3.1,0.1,9.8,0.4,10.8,0.4c0.5,0,0.9-0.1,1.3-0.5
			c0.4-0.4,0.5-0.8,0.5-1.3c0-1-0.8-1.8-1.8-1.8c-0.1,0-0.4,0-0.6,0C249.7,6.4,244.1,6.1,241.5,6L241.5,6z"/><path class="st0" d="M262.9,5.8c-1.6,0-2.9,1.5-2.3,3.7c0.1,0.3,0.1,0.5,0.3,0.6l0.1,0.4c0.1,0.1,0.1,0.1,0.1,0.3
			c0.4,3.7,0.6,8.4,0.6,14.1c0,4.6-0.1,11.6-0.4,20.8c-0.4,9.3-0.5,16.2-0.5,20.8c0,0.4,0,2.1-0.1,4.9c-0.1,5.8-0.1,8.9,0.8,12.3
			c0.1,0.9,1.1,1.4,2,1.4c0.1,0,0.2,0,0.3,0c0.9-0.1,1.4-1.3,1.3-2.2c-0.5-2.4-0.8-5.8-0.8-8c0-1,0-2.4,0.1-4.2c0-1.8,0-3.2,0-4.2
			c0-4.6,0.1-11.6,0.5-20.8c0.3-9.3,0.4-16.2,0.4-20.8c0-2.2,0-4.2-0.1-6c0-2.1-0.1-5.2,0.4-5.2c0.1,0,0.3,0.2,0.5,0.6
			c0.3,0.4,0.6,1.2,1,1.9c3.2,6,4.2,7.6,8,12.1c1.7,2.3,1.5,1.8,0.3,3.7c-2.1,3-3.7,5.5-5.3,7.7c-1.1,1.5,0.1,3.1,1.4,3.1
			c0.5,0,1-0.2,1.4-0.7c1.4-1.8,2.7-3.9,4.4-6.3c0.8-1.3,1.3-1.9,1.7-1.9c0.4,0,0.9,0.6,1.9,1.8c1.7,2.2,3.1,4,4.1,5.5
			c0.4,0.6,1,0.9,1.5,0.9c1.3,0,2.6-1.5,1.6-2.9c-1.3-1.9-3.3-4.5-5.7-7.6c-1.5-2.1-1.8-1.3-0.4-3.6l1-1.7c2.4-4,4.8-7.5,6.7-10.2
			c1.1-1.5,2.4-2.4,3-2.4c0.2,0,0.3,0.1,0.3,0.3c0,0.6,0.1,1.2,0.1,1.8c0,0.8,0.1,3.6,0.5,8.5c0.1,4.2,0.4,10.3,0.8,18.3
			c0.5,16.1,1.2,28.7,2.7,40.1c0,0.9,0.9,1.6,1.8,1.6c0.1,0,0.2,0,0.3,0c1,0,1.7-1,1.5-2.1c-1.4-11.4-2.1-23.8-2.7-39.7
			c-0.1-5.7-0.4-11.8-0.8-18.4c-0.5-9.8-0.5-11.2-0.9-13.6c-0.1-0.8-0.1-1.4-0.3-1.8c0-0.7,0-0.9,0-1.1l-0.3-0.5
			c-0.3-0.4-0.5-0.6-0.9-0.8C294.4,6.1,294,6,293.7,6c-1.1,0-1.8,0.9-2.2,1.7c-0.1,0.3-0.3,0.5-0.4,0.6C291,8.5,291,8.7,291,8.7
			c0,0.1,0,0.1-0.1,0.1c-3.1,3.5-6.7,8.6-10.9,15.6c-0.8,1.3-1.2,1.9-1.6,1.9s-0.8-0.8-1.8-2c-2.3-2.8-3.5-4.6-6-9.9
			c-1.2-2.1-2.2-3.7-3.2-5.1c-0.8-0.9-1.2-1.4-1.5-1.8c-0.1-0.3-0.4-0.5-0.5-0.6C264.5,6.1,263.7,5.8,262.9,5.8L262.9,5.8z"/><path class="st0" d="M313.6,4.7c-1.2,0-2.4,0.2-3.7,0.5c-0.5,0.1-0.9,0.5-1,0.9c-0.1,0.3-0.3,0.6-0.3,0.9
			c-0.1,1.3,0.6,2.1,0.4,3.3c-0.6,3.9-0.8,8.5-0.8,10.9c0,2.8,0.6,12.2,0.8,13.2c0.4,2.7,0.4,10.9,0.1,24.8
			c-0.4,13.9-0.5,22.1-0.5,24.8c0,0,0.4,1.5,0.4,2.7v-1.4c0.1,0.9,1,1.4,1.9,1.4c0.1,0,0.2,0,0.3,0c0.4-0.1,1.2-0.3,2.6-0.5
			c2.6-0.4,4.5-1,6.2-1.7c3.1-1.4,5.8-3.5,8-6.2c4.5-5.4,6.4-11.7,5.9-18.8c-0.6-7.1-6.4-16.1-12.2-19c-0.3-0.1-0.4-0.4-0.1-0.4
			c0.1-0.1,0.1-0.1,0.3-0.3c2.4-2.3,3.9-5.4,4.2-9.1c0.6-6.8,0-12.6-1.7-17.5C322.3,8.1,318.8,4.7,313.6,4.7L313.6,4.7z M314.4,82.3
			c-1.3,0-2.2-0.9-2-2.4c0-3.5,0.1-7.8,0.3-13.2c0.4-13.9,0.5-18.5,0-32.4c0-0.5-0.1-2.6-0.3-6.2c-0.3-3.5-0.4-5.9-0.4-7.2
			c0-2.6,0.1-8.5,1.2-12.1V8.5c0,0,0.3-0.1,0.9-0.1c0.5,0,1.1,0.1,1.8,0.4c1.9,0.6,3.7,2.4,5,5.9c1.5,4.4,2.1,9.6,1.5,15.9
			c-0.3,2.7-1.3,4.9-3.2,6.6c-0.6,0.6-1.7,1.3-3,1.9c-0.4,0.1-0.8,0.4-1.2,0.5l-0.4,0.1c-0.1,0.1-0.1,0.1-0.3,0.1l-0.1,0.1
			c-0.1,0-0.1,0-0.3,0.1l-0.4,0.4c-0.4,0.5-0.4,1-0.3,1.7c0.7,1.6,1.9,2,3.4,2c0.4,0,0.7,0,1.1,0c0.9-0.1,1.4-0.1,1.5-0.1
			c0.2-0.1,0.3-0.1,0.4-0.1s0.2,0,0.2,0.1c2.2,1.2,4.8,3.9,7.5,8.2c6,9.6,1.5,24.3-9.1,29.1c-0.6,0.3-1.7,0.5-3.2,0.9
			C314.9,82.3,314.6,82.3,314.4,82.3L314.4,82.3z"/><path class="st0" d="M354.2,6h-6.4c-1.9,0.1-3.5,0.3-4.5,0.9s-1.4,2.3-1.8,4c-0.3,1.7-0.5,3.7-0.6,6.4c-0.5,9.1-0.5,22.8-0.3,38.2
			c0.1,7.7,0.1,11.6,0.1,11.7s0,1.3,0,3.3c-0.1,2.1-0.1,3.9-0.1,5.3c0,2.2,0,3.9,0.1,5.1c0,0.8,0,1.4,0.1,1.9c0.1,0.6,0.4,1.4,1,1.9
			c0.1,0.1,0.3,0.3,0.4,0.3c0.7,0.5,1.3,0.5,1.9,0.5c0.2,0,0.4,0,0.7,0c0.4,0,0.8,0,1.2,0c1.4,0.1,3.3,0.1,5.9,0.1
			c1.7,0,3.6,0,5.9-0.1s3.6-0.1,3.9-0.1c1,0,1.8-0.8,1.8-1.8s-0.8-1.8-1.8-1.8c-0.3,0-1.5,0-3.9,0c-2.4,0.1-4.4,0.1-6,0.1h-4.1
			c-1.2,0-1.8-0.1-2.4-0.1c-0.3,0-0.5,0-0.8,0c0-0.4,0-0.8-0.1-1.2c-0.1-1.2-0.1-2.8-0.1-4.9c0-1.4,0-3.2,0.1-5.3c0-2.1,0-3.2,0-3.3
			c0-0.6,0-3.6-0.1-9.1c-0.1-4.5-0.1-8.4-0.1-12c0-1.5,0.8-2.6,2.2-2.6c0.6,0,1.4-0.1,2.2-0.1c1.9,0,3.1,0,3.5-0.1
			c1,0,1.8-0.9,1.8-1.9c-0.1-1-0.9-1.7-1.8-1.7c-0.1,0-0.1,0-0.2,0c-0.6,0-3,0-5,0.1c-0.1,0-0.2,0-0.3,0c-1.5,0-2.3-0.9-2.3-2.5
			v-1.5c0.1-7.7,0.3-13.8,0.5-18.3c0.1-2.6,0.4-4.6,0.6-6c0,0,0.5-1.2,1.4-1.8c0.4,0,0.9,0,1.4,0c0.7-0.1,1.6-0.1,2.6-0.1
			s2.2,0,3.5,0.1c3.1,0.1,9.8,0.4,10.8,0.4c0.5,0,0.9-0.1,1.3-0.5s0.5-0.8,0.5-1.3c0-1-0.8-1.8-1.8-1.8C364.1,6.4,357.2,6.1,354.2,6
			L354.2,6z"/><path class="st0" d="M379.2,5.3c-3.1,0-6.2,0.6-9.1,1.9c-1.9,0.9-1,3.5,0.7,3.5c0.3,0,0.5-0.1,0.8-0.2c0.1,0,0.3-0.1,0.4-0.1
			c0.5-0.2,1-0.3,1.4-0.3c0.9,0,1.5,0.6,1.6,2.5c0.9,18.6,0.3,26-0.1,45.9c-0.3,10.4-0.4,18.6-0.4,24.6c0,1,0.8,1.8,1.8,1.8
			s1.8-0.8,1.8-1.8c0-2.3,0.3-14.3,0.8-35.7c0-1.5,0.6-2.6,2.1-3.1l0.4-0.1c0.6-0.2,1.1-0.3,1.6-0.3c0.7,0,1.3,0.2,1.9,0.9
			c3.3,3.1,4.8,8,5.3,15.2c0.1,0.9,0.3,2.6,0.4,5.1c0.1,2.7,0.3,4.6,0.4,6c0.3,2.7,1,7.2,2.4,9.9c1.2,2.6,2.9,3.7,4.5,3.7
			s3.3-1,4.7-2.8c1.1-1.4-0.1-3-1.4-3c-0.5,0-1,0.2-1.4,0.7c-0.1,0.1-0.3,0.3-0.4,0.4c-0.5,0.5-1,0.8-1.7,0.9
			c-0.1-0.1-0.1-0.3-0.3-0.4c-0.3-0.3-0.5-0.6-0.8-1c-0.6-1.2-1-2.7-1.4-4.4c-0.6-3.5-0.8-4.9-1-10c-0.1-2.6-0.3-4.4-0.4-5.4
			c-0.6-6.9-2.2-12.2-4.8-15.8c-1-1.4-0.9-2.4,0.5-3.2c0.8-0.4,1.5-0.8,2.3-1.3c5-3.1,8-7.2,8.9-12.2c1.5-8.2-2.4-14.9-9.5-18.5
			C387.6,6.4,383.4,5.3,379.2,5.3L379.2,5.3z M380.8,40.1c-1.1,0-1.9-0.9-1.9-2.3c0.3-9.9,0.1-18.6-0.1-26.1
			c-0.1-1.6,0.6-2.7,2.2-2.7c0.1,0,0.2,0,0.3,0c2.8,0.3,5.5,1,8.2,2.6c5.7,3.1,8.7,8.2,7.6,14.5c-1.4,7.2-6.7,10.4-15.2,13.6
			C381.6,40,381.1,40.1,380.8,40.1L380.8,40.1z"/><path class="st0" d="M88.1,105.6c-1.7,0-3.1,1.4-3.1,3.1c0,0,0.2,1.8-0.2,3.4c-0.9,4.9-1.2,11.4-1.1,20.5c0,10.3,0,13.3,0.6,25.1
			c0.3,6,0.5,9.1,0.5,9.4c0.2,1.7,0,7.3-0.2,16.7c-0.2,7.4,0.2,13.3,0.9,17.6c0.2,0.8,0.6,1.4,1.4,1.9c0.6,0.5,1.2,0.6,1.9,0.6
			c1.5,0,2.2-0.5,3.1-0.6c0.5,0,0.9-0.2,1.2-0.3c11.1-5.6,21.6-29.6,23.6-52C119.1,125.7,110.9,105.6,88.1,105.6L88.1,105.6z
			 M92.9,194.7c-1.1,0-2-1-2-2.7c-0.2-2.3-0.2-5.1,0-8c0.2-9.7,0.3-15.4,0.2-17.1c0-0.5-0.2-3.7-0.5-9.6c-0.3-5.9-0.5-10.2-0.5-12.8
			c-0.2-2.6-0.2-6.5-0.3-11.4c-0.2-7.9,0.2-13.6,0.8-18.2c0.2-1.5,1.2-2.5,2.5-2.5c0.3,0,0.7,0.1,1,0.2c12.7,3.1,18.4,16.7,16.5,38
			c-1.7,17.9-8.6,35.3-15.7,43.2C94.2,194.4,93.5,194.7,92.9,194.7L92.9,194.7z"/><path class="st0" d="M135,106.9c-3.1,0-5.9,2.5-7.7,6.4c-1.9,4-3.1,8.9-3.9,15c-2.9,26.5-4,50.6-2.9,72.4c0,1.7,1.5,2.9,3.2,2.9
			s2.9-1.5,2.9-3.2c-0.6-13.6-0.5-27.8,0.5-42.7c0.2-1.9,1.1-3.1,2.8-3.2c1.4-0.3,2.9-0.3,4.6-0.5c2.3-0.2,4-0.5,5.6-0.6
			c0.1,0,0.3,0,0.4,0c1.8,0,2.8,0.9,2.8,2.6c0,0.9-0.2,2-0.2,3.1c-0.6,24.1-0.5,36.9,6.2,44.3c0.6,0.7,1.5,1.1,2.4,1.1
			c0.7,0,1.4-0.2,1.9-0.8c1.2-1.1,1.5-3.1,0.3-4.3c-4.8-5.4-5.2-16.8-4.6-40.1c0.6-23.6,0-38-6.8-47.2
			C140,108.4,137.4,106.9,135,106.9L135,106.9z M130.4,148c-1.6,0-2.5-1-2.4-3.1c0.9-11.4,2-22.8,4.8-29c0.9-1.9,1.4-2.8,2.1-2.8
			c0.6,0,1.4,0.8,2.7,2.5c4.9,6.6,5.6,18.2,5.7,28.1c0,2-1.1,3.1-3.1,3.1h2.5c-1.2,0.2-4.2,0.5-8.6,0.9c-1.2,0-2.2,0.2-3.2,0.3
			C130.7,148,130.6,148,130.4,148L130.4,148z"/><path class="st0" d="M177.2,148.8c0.1,0,0.2,0,0.2,0c0,0.1-0.1,0.2-0.1,0.3C177.3,149,177.2,148.9,177.2,148.8 M198.5,104.8
			c-1,0-2,0.5-2.7,1.4c-1.9,2.8-5.6,10.3-11.3,22.8l-6.3,14.3c-0.2,0.4-0.4,0.5-0.6,0.5c-0.5,0-1.2-0.6-1.7-1.8
			c-0.3-1.1-0.8-2.2-1.2-3.5l-2.9-7.7l-2.3-6.6c-2.3-6-3.2-10.3-4.3-14.8c-0.4-1.6-1.6-2.5-3.1-2.5c-0.2,0-0.4,0-0.6,0.1
			c-1.9,0.3-2.6,2-2.5,3.7c0.8,3.4,1.9,7.1,3.1,11c2.5,7.9,3.9,11.7,7.4,20.7c1.7,4.5,2.9,7.9,3.7,9.9c0,0,1.4,2.5,1.2,4
			c-0.9,7.9-0.9,17.9-0.3,30.1c0.2,6.6,0.3,11.3,0.3,13.7c0,1.7,1.4,3.1,3.1,3.1c1.7,0,3.1-1.4,3.1-3.1c0-2.9-0.2-7.7-0.5-14.7
			c-0.3-6.8-0.5-12.8-0.3-18c0.2-10.5,0.6-13,4.2-21.6c2.9-7.3,13.9-31.6,17.1-36.1c0.8-1.4,0.5-3.4-0.9-4.3
			C199.6,105,199,104.8,198.5,104.8L198.5,104.8z"/><path class="st0" d="M268.1,108.9c-2.5,0-5,0.8-7.4,2.6c-6.8,4.8-10.8,15.3-9.6,25.6c0.1,1.6,1.5,2.6,3.2,2.6c0.1,0,0.2,0,0.4,0
			c1.7-0.2,2.8-1.7,2.6-3.5c-0.5-4.2,0-8,1.4-11.7c2.3-6,6-9.4,9.4-9.4c0.7,0,1.4,0.1,2,0.4c2.5,1.1,4.6,4,6.5,8.8
			c3.9,9.3-1.1,18.8-10.8,23.3c0,0-1.4,0.3-2.3,0.5c-0.3,0-0.8,0.2-1.1,0.2c-1.1,0.2-2,0.6-2.8,1.1c-3.1,2.3-1.9,6.6,1.4,7.3
			c0.6,0,1.4,0,2.2-0.2c0,0,0.2,0,0.6,0c0.5,0,1.4,0.1,2.2,0.3c1.1,0.3,2.5,0.9,4,1.5c4.9,2.5,8.3,7.7,8.9,13.9
			c1.9,16.7-4.3,26.1-11.9,27.9c-0.9,0.2-1.8,0.3-2.7,0.3c-6.2,0-11.6-5.2-12.2-15c0-1.7-1.5-2.9-3.2-2.9s-2.9,1.5-2.9,3.2
			c0.7,12.6,8.7,20.7,18.3,20.7c1.3,0,2.7-0.2,4.1-0.5c11.3-2.5,18.7-15.4,16.7-34.4c-1.1-8.2-5.2-15.3-12.7-18.8
			c-0.9-0.5,0-1.7,1.9-3.1c8.5-6.6,12.3-17.3,8.2-27.8C278.9,113.2,273.6,108.9,268.1,108.9L268.1,108.9z"/><path class="st0" d="M310.7,104.3c-2.7,0-5.7,1.2-8.8,3.9c-8.8,7.7-13.9,21.1-15.3,40.1c-0.2,3.5,0,9.1,0.8,16.5
			c1.4,14.8,5.2,31.5,12.5,38.1c2.3,2.2,5,3.3,7.8,3.3c2.9,0,6.1-1.2,9.2-3.8c6.6-5.4,9.1-18.1,9.9-34.3c0.5-11.6,0.2-16.7,0-26.4
			c-0.2-4.8-0.2-8-0.9-13.4c-0.3-5.4-1.7-10.6-3.9-15.1C319.3,107.9,315.4,104.3,310.7,104.3L310.7,104.3z M307.7,200
			c-1.4,0-2.6-0.5-3.7-1.5c-2.6-2.6-5.1-7.4-7.1-14.5c-3.1-11.9-4.6-28.7-4.2-35.3c1.2-17.3,5.6-29.2,13.1-35.8
			c1.9-1.6,3.5-2.4,4.9-2.4c2.2,0,4,1.9,5.6,5.6c2.9,5.7,4.2,22.5,4.2,24.2c0.3,12.2,0.3,21.3,0,27.6c-0.6,15.9-3.1,26.4-7.4,29.6
			C311.1,199.2,309.3,200,307.7,200L307.7,200z"/>
</g>
<g id="cactus">
		<path class="st1" d="M41.8,20.4c-0.5,0-0.9,0.1-1.3,0.4c-1,0.6-0.8,1.7-1.2,2.8c-0.3,1-0.8,2.3-1.4,3.9c-0.5,1.4-0.4,2.1-3,2.2
			s-4.9,0-6.8,0.1c-0.3,0-0.4,0-0.6,0c-0.3,0-0.5,0-0.8,0c-1.4,0-2.1-0.4-1.4-2.9c0.4-1.4,0.9-2.7,1.3-3.7c0.4-1.5-0.7-2.5-1.9-2.5
			c-0.7,0-1.4,0.4-1.7,1.2c-0.5,1.5-1.2,3.6-1.9,6.2c-0.6,2.2-1.3,2.1-2.8,2.2c-4.1,0.4-7.2,1-9.1,1.7c-2,0.8-1.3,3.7,0.7,3.7
			c0.2,0,0.4,0,0.6-0.1c1.2-0.5,3.1-0.9,5.5-1.2c0.5-0.1,0.9-0.1,1.3-0.1c1.4,0,2.1,0.5,1.1,2.9L18,38.1c-0.5,1.5-1.3,3.7-2.4,6.6
			c-0.6,1.3-1.7,2.1-3.5,2.1c-1.1,0.1-2.2,0.1-3.2,0.1c-1.4,0-2.8-0.1-4-0.2c-0.1,0-0.2,0-0.2,0c-0.9,0-1.7,0.7-1.7,1.7
			c-0.1,1,0.6,1.9,1.7,1.9c1.5,0.1,3.3,0.3,5.1,0.3c1.9,0.1,2.7,1.2,2.1,3c-1.3,3.5-2.2,6.7-2.4,9.4c-0.1,1,0.5,1.9,1.5,2.1
			c0.1,0,0.2,0,0.3,0c0.9,0,1.7-0.6,1.8-1.6c0.4-3.2,1.7-7.2,3.6-11.8c0.4-0.9,1.2-1.3,2.6-1.4c2.2-0.1,4.8-0.4,7.7-0.8
			c0.7-0.1,1.2-0.2,1.6-0.2c1.3,0,1.5,0.6,0.7,3c-1.2,3.5-2.2,7.1-3,10.2c-0.1,0.9,0.4,2.1,1.4,2.2c0.1,0,0.2,0,0.3,0
			c0.8,0,1.8-0.5,1.9-1.4c1-3.7,2.2-8,3.7-12.6c0.4-1.4,1.3-2.2,2.8-2.3c3.3-0.4,6-0.6,7.8-0.8c1,0,1.8-0.9,1.8-1.9
			c-0.1-1-0.9-1.7-1.8-1.7c-0.1,0-0.1,0-0.2,0c-1.4,0.1-3.1,0.3-5,0.4c-0.4,0-0.8,0.1-1.1,0.1c-2,0-1.8-0.8-1.1-2.9l3-8
			c0-0.1,0.6-0.1,2.2-0.1c3-0.1,4.9-0.1,6-0.3c1,0,1.8-0.9,1.8-1.9c-0.1-1-0.9-1.7-1.8-1.7c-0.1,0-0.1,0-0.2,0c-0.8,0-1.8,0-3.2,0
			c-3,0-2.7,0-2.1-2.8c0.4-1.5,0.8-2.8,0.9-4C43.5,21.5,42.9,20.5,41.8,20.4L41.8,20.4z M22,46.1c-1.8,0-2.5-1.1-1.8-3
			c1.2-2.8,1.7-5,2.4-7.2c0.9-2.6,1.4-2.2,2.8-2.3c1.9-0.1,4.2-0.1,7.1-0.3c0.4,0,0.7-0.1,1.1-0.1c1.3,0,1.9,0.4,1.1,2.9L32.3,43
			c-0.5,1.3-0.5,1.8-3,2.2c-2.7,0.4-5.1,0.5-7.1,0.8C22.2,46.1,22.1,46.1,22,46.1L22,46.1z"/><path class="st1" d="M70.9,3.6c-0.8,0-1.6,0.1-2.4,0.3c-3.6,1-7.2,4.1-9.3,7.8C57.1,16,55.6,22,54.7,30.1c-1.5,13.2,0.9,39.6,6,49
			c2.2,4,5.4,5.9,8.6,5.9c1.3,0,2.5-0.3,3.7-0.9c4-1.9,6.9-6.4,7.6-11.2c0.1-1-0.5-1.9-1.5-2.1c-0.1,0-0.2,0-0.3,0
			c-0.9,0-1.7,0.6-1.8,1.6c-0.3,1.9-0.9,3.6-1.9,5c-1.3,1.8-3.5,4-5.9,4c-1.7,0-3.5-1.1-5.1-4.1c-2.4-4.2-4.1-11.8-5.3-22.6
			c-2.1-19.7-0.3-33.6,3.9-41.1c1.7-3.2,4-5.3,6.9-6c0.4-0.1,0.8-0.2,1.2-0.2c4.8,0,7.8,8.2,6.7,13.5c-0.1,1,0.4,2.1,1.4,2.2
			c0.1,0,0.2,0,0.3,0c0.9,0,1.8-0.5,1.9-1.4c0.8-3.7,0.1-7.8-2.1-12.3C77.3,5.5,74.3,3.6,70.9,3.6L70.9,3.6z"/><path class="st1" d="M102.4,4c-0.8,0-1.6,0.1-2.5,0.3c-3.7,0.9-7.7,4.2-9.6,7.7c-8.4,16.5-3.1,47.6,0.1,58.9
			c1.5,5.3,3.3,9.1,5.3,11.6c1.7,1.9,3.7,3,5.9,3c1.3,0,2.7-0.4,4.2-1.4c2.8-1.8,5-5.4,6.4-10.9c2.2-8.4,3.1-20.1,2.1-42.8
			c-0.3-11.6-1.2-15.4-1.9-17.6C110.5,7.6,107.3,4,102.4,4L102.4,4z M101.5,81.7c-1,0-1.9-0.6-3-1.7c-1.7-1.9-3.1-5.4-4.5-10.2
			c-3.2-11.3-8.2-41-0.4-56c1.4-2.7,4.5-5.4,7.1-5.9c0.6-0.1,1.1-0.2,1.6-0.2c3.1,0,5.2,2.3,6.5,6.4c1,2.8,1.5,6.3,1.8,10.3
			c0.4,16.1,0.5,25.8,0.1,32.3c-0.6,12.5-3,21.9-7.1,24.4C102.9,81.5,102.1,81.7,101.5,81.7L101.5,81.7z"/><path class="st1" d="M125.3,6.5L125.3,6.5c-1.1,0-1.9,0.8-1.9,1.7v0.3c0,4.8-0.1,11.4-0.3,20.1c-0.3,8.6-0.4,14.3-0.4,17
			c-0.1,14.8,0.3,27.3,1.2,37.3c0,0.5,0.3,0.9,0.6,1.3c0.3,0.3,0.6,0.4,0.9,0.4c0.2,0,0.5,0,0.7,0c0.8,0,1.3-0.2,2.2-0.3
			c0.4,0,0.6-0.3,1-0.6c7.7-8.9,13.9-21.2,16.3-33.4c3-14.5,0.5-26.4-7.3-35.7C134.1,9.3,130.8,6.6,125.3,6.5L125.3,6.5z
			 M128.4,77.4c-0.8,0-1.4-0.8-1.5-2.5c-0.4-8.4-0.6-18.1-0.5-29.4c0-3,0.1-8.4,0.3-16.5c0.1-6.3,0.3-11.4,0.3-15.4
			c0-2,0.5-2.7,1.2-2.7c0.5,0,1.1,0.3,1.8,0.7c1.8,1,3.6,2.7,5.5,5c13,15.7,7.7,40.9-4.9,59.3C129.9,76.9,129.1,77.4,128.4,77.4
			L128.4,77.4z"/><path class="st1" d="M161.6,3.7c-1.7,0-3.2,0.1-4.1,0.6c-1.5,1-2.1,3.2-2.4,5.8c-0.5,4.2-0.1,9.9,0.4,16.7
			c0.5,6.3,0.6,5.7,0.4,11.3c-0.1,3-0.4,6.4-0.5,10.7c-0.4,8.5-0.6,19.7-0.1,27.5c0.1,2.4,0.4,4.2,0.8,5.7c0.4,1.7,0.9,3.2,2.3,3.7
			c1.8,0.8,4.4,1.2,7.8,1.2c0.5,0,1,0,1.5,0c1.7-0.1,7.1-0.6,8.7-0.6c1,0,1.8-0.8,1.8-1.8s-0.8-1.8-1.8-1.8c-0.9,0-2.3,0-4.2,0.1
			c-2.6,0.2-5.1,0.5-7.4,0.5c-1,0-2-0.1-2.9-0.2c-1.4-0.3-1.9-1.2-1.9-2.4c0,0.4-0.1,1.2-0.2,1.2c0-0.1-0.1-0.4-0.1-0.6
			c-0.3-1.2-0.5-2.8-0.6-5c-0.5-7.1-0.4-17.1,0.3-29.7c0.1-2.6,1-2.6,2.7-2.6c1.8,0,3.2,0,4.5-0.1c1,0,1.8-0.9,1.8-1.9
			c-0.1-1-0.9-1.7-1.8-1.7c-0.1,0-0.1,0-0.2,0c-1,0.1-2.4,0.1-4,0.1c-1.8,0-2.7-0.3-2.6-2.8c0.3-5.3,0-4.9-0.4-10.8
			c-0.5-6.8-0.9-12.1-0.4-16.1c0-0.4,0.1-0.6,0.1-0.9c0.1-1.2,0.4-1.7,0.4-1.8c0-0.1,0-0.1,0.1-0.3h0.4c0.4-0.1,1-0.1,1.9-0.1
			c0.8,0,2.7,0,5.9,0.1c4.2,0.1,7.3,0.1,9,0.1c0.4,0,0.8,0,1.2,0c0.6,0,1.2-0.1,1.7-0.7c0.4-0.3,0.5-0.8,0.5-1.3
			c-0.1-1-0.9-1.7-1.8-1.7c-0.1,0-0.1,0-0.2,0c-0.5,0-3.9-0.1-10.2-0.3C164.6,3.7,162.5,3.7,161.6,3.7L161.6,3.7z"/><path class="st1" d="M188.3,7.2c-0.9,0-1.8,0.5-1.9,1.4c-0.4,1.4,0.1,4.1,1,8.6c0.8,3.7,1.8,8.5,3.1,14l2.3,9.6l2.3,9.3
			c0.6,2.4,1,4,1.2,4.9c0.1,0.6,1.4,5.8,3.7,15.4l2.2,9l0.8,3c0.1,0.4,0.3,0.6,0.3,0.9l0.3,0.3c0,0.1,0,0.3,0.1,0.4l0.5,0.5
			c0.4,0.2,0.7,0.4,1,0.4c0.2,0,0.5-0.1,0.8-0.2c1.2-0.5,3.3-13.8,4.8-19.8c1.2-4.9,2.4-11.8,4-21c1.4-9,2.4-15,3.1-18.1
			c0.3-1.2,0.8-3.6,1.7-7.2c0.8-3.1,1.3-5.5,1.5-7.5c0.1-1-0.5-1.9-1.5-2.1c-0.1,0-0.2,0-0.3,0c-0.9,0-1.7,0.6-1.8,1.6
			c-0.3,1.8-0.8,4.1-1.5,7.1c-0.9,3.7-1.4,6.2-1.7,7.3c-0.6,3.2-1.7,9.3-3.1,18.3c-1.5,9-2.8,15.9-4,20.8c-0.3,1.3-0.5,2.6-0.8,3.7
			c-0.5,2.9-1,4-1.4,4c-0.5,0-1-1.2-1.4-2.4l-3.6-15c-0.1-0.9-0.5-2.6-1.2-5l-2.3-9.1l-2.3-9.6c-1.4-5.8-2.4-10.5-3.1-14
			c-0.4-2.1-0.8-3.7-0.9-4.9c-0.1-1.2-0.3-1.9-0.1-2.2c0.1-1-0.4-2.1-1.4-2.2C188.5,7.2,188.4,7.2,188.3,7.2L188.3,7.2z"/><path class="st1" d="M241.5,6H235c-1.9,0.1-3.5,0.3-4.5,0.9s-1.4,2.3-1.8,4c-0.3,1.7-0.5,3.7-0.6,6.4c-0.5,9.1-0.5,22.8-0.3,38.2
			C228,63.2,228,67,228,67.2c0,0.1,0,1.3,0,3.3c-0.1,2.1-0.1,3.9-0.1,5.3c0,2.2,0,3.9,0.1,5.1c0,0.8,0,1.4,0.1,1.9
			c0.1,0.6,0.4,1.4,1,1.9c0.1,0.1,0.3,0.3,0.4,0.3c0.7,0.5,1.3,0.5,1.9,0.5c0.2,0,0.4,0,0.7,0c0.4,0,0.8,0,1.2,0
			c1.4,0.1,3.3,0.1,5.9,0.1c1.7,0,3.6,0,5.9-0.1c2.3-0.1,3.6-0.1,3.9-0.1c1,0,1.8-0.8,1.8-1.8s-0.8-1.8-1.8-1.8c-0.3,0-1.5,0-3.9,0
			c-2.4,0.1-4.4,0.1-6,0.1H235c-1.2,0-1.8-0.1-2.4-0.1c-0.3,0-0.5,0-0.8,0c0-0.4,0-0.8-0.1-1.2c-0.1-1.2-0.1-2.8-0.1-4.9
			c0-1.4,0-3.2,0.1-5.3c0-2.1,0-3.2,0-3.3c0-0.6,0-3.6-0.1-9.1c-0.1-4.5-0.1-8.4-0.1-12c0-1.5,0.8-2.6,2.2-2.6
			c0.6,0,1.4-0.1,2.2-0.1c1.9,0,3.1,0,3.5-0.1c1,0,1.8-0.9,1.8-1.9c-0.1-1-0.9-1.7-1.8-1.7c-0.1,0-0.1,0-0.2,0c-0.6,0-3,0-5,0.1
			c-0.1,0-0.2,0-0.3,0c-1.5,0-2.3-0.9-2.3-2.5v-1.5c0.1-7.7,0.3-13.8,0.5-18.3c0.1-2.6,0.4-4.6,0.6-6c0,0,0.5-1.2,1.4-1.8
			c0.4,0,0.9,0,1.4,0c0.7-0.1,1.6-0.1,2.6-0.1s2.2,0,3.5,0.1c3.1,0.1,9.8,0.4,10.8,0.4c0.5,0,0.9-0.1,1.3-0.5
			c0.4-0.4,0.5-0.8,0.5-1.3c0-1-0.8-1.8-1.8-1.8c-0.1,0-0.4,0-0.6,0C249.7,6.4,244.1,6.1,241.5,6L241.5,6z"/><path class="st1" d="M262.9,5.8c-1.6,0-2.9,1.5-2.3,3.7c0.1,0.3,0.1,0.5,0.3,0.6l0.1,0.4c0.1,0.1,0.1,0.1,0.1,0.3
			c0.4,3.7,0.6,8.4,0.6,14.1c0,4.6-0.1,11.6-0.4,20.8c-0.4,9.3-0.5,16.2-0.5,20.8c0,0.4,0,2.1-0.1,4.9c-0.1,5.8-0.1,8.9,0.8,12.3
			c0.1,0.9,1.1,1.4,2,1.4c0.1,0,0.2,0,0.3,0c0.9-0.1,1.4-1.3,1.3-2.2c-0.5-2.4-0.8-5.8-0.8-8c0-1,0-2.4,0.1-4.2c0-1.8,0-3.2,0-4.2
			c0-4.6,0.1-11.6,0.5-20.8c0.3-9.3,0.4-16.2,0.4-20.8c0-2.2,0-4.2-0.1-6c0-2.1-0.1-5.2,0.4-5.2c0.1,0,0.3,0.2,0.5,0.6
			c0.3,0.4,0.6,1.2,1,1.9c3.2,6,4.2,7.6,8,12.1c1.7,2.3,1.5,1.8,0.3,3.7c-2.1,3-3.7,5.5-5.3,7.7c-1.1,1.5,0.1,3.1,1.4,3.1
			c0.5,0,1-0.2,1.4-0.7c1.4-1.8,2.7-3.9,4.4-6.3c0.8-1.3,1.3-1.9,1.7-1.9c0.4,0,0.9,0.6,1.9,1.8c1.7,2.2,3.1,4,4.1,5.5
			c0.4,0.6,1,0.9,1.5,0.9c1.3,0,2.6-1.5,1.6-2.9c-1.3-1.9-3.3-4.5-5.7-7.6c-1.5-2.1-1.8-1.3-0.4-3.6l1-1.7c2.4-4,4.8-7.5,6.7-10.2
			c1.1-1.5,2.4-2.4,3-2.4c0.2,0,0.3,0.1,0.3,0.3c0,0.6,0.1,1.2,0.1,1.8c0,0.8,0.1,3.6,0.5,8.5c0.1,4.2,0.4,10.3,0.8,18.3
			c0.5,16.1,1.2,28.7,2.7,40.1c0,0.9,0.9,1.6,1.8,1.6c0.1,0,0.2,0,0.3,0c1,0,1.7-1,1.5-2.1c-1.4-11.4-2.1-23.8-2.7-39.7
			c-0.1-5.7-0.4-11.8-0.8-18.4c-0.5-9.8-0.5-11.2-0.9-13.6c-0.1-0.8-0.1-1.4-0.3-1.8c0-0.7,0-0.9,0-1.1l-0.3-0.5
			c-0.3-0.4-0.5-0.6-0.9-0.8C294.4,6.1,294,6,293.7,6c-1.1,0-1.8,0.9-2.2,1.7c-0.1,0.3-0.3,0.5-0.4,0.6C291,8.5,291,8.7,291,8.7
			c0,0.1,0,0.1-0.1,0.1c-3.1,3.5-6.7,8.6-10.9,15.6c-0.8,1.3-1.2,1.9-1.6,1.9s-0.8-0.8-1.8-2c-2.3-2.8-3.5-4.6-6-9.9
			c-1.2-2.1-2.2-3.7-3.2-5.1c-0.8-0.9-1.2-1.4-1.5-1.8c-0.1-0.3-0.4-0.5-0.5-0.6C264.5,6.1,263.7,5.8,262.9,5.8L262.9,5.8z"/><path class="st1" d="M313.6,4.7c-1.2,0-2.4,0.2-3.7,0.5c-0.5,0.1-0.9,0.5-1,0.9c-0.1,0.3-0.3,0.6-0.3,0.9
			c-0.1,1.3,0.6,2.1,0.4,3.3c-0.6,3.9-0.8,8.5-0.8,10.9c0,2.8,0.6,12.2,0.8,13.2c0.4,2.7,0.4,10.9,0.1,24.8
			c-0.4,13.9-0.5,22.1-0.5,24.8c0,0,0.4,1.5,0.4,2.7v-1.4c0.1,0.9,1,1.4,1.9,1.4c0.1,0,0.2,0,0.3,0c0.4-0.1,1.2-0.3,2.6-0.5
			c2.6-0.4,4.5-1,6.2-1.7c3.1-1.4,5.8-3.5,8-6.2c4.5-5.4,6.4-11.7,5.9-18.8c-0.6-7.1-6.4-16.1-12.2-19c-0.3-0.1-0.4-0.4-0.1-0.4
			c0.1-0.1,0.1-0.1,0.3-0.3c2.4-2.3,3.9-5.4,4.2-9.1c0.6-6.8,0-12.6-1.7-17.5C322.3,8.1,318.8,4.7,313.6,4.7L313.6,4.7z M314.4,82.3
			c-1.3,0-2.2-0.9-2-2.4c0-3.5,0.1-7.8,0.3-13.2c0.4-13.9,0.5-18.5,0-32.4c0-0.5-0.1-2.6-0.3-6.2c-0.3-3.5-0.4-5.9-0.4-7.2
			c0-2.6,0.1-8.5,1.2-12.1V8.5c0,0,0.3-0.1,0.9-0.1c0.5,0,1.1,0.1,1.8,0.4c1.9,0.6,3.7,2.4,5,5.9c1.5,4.4,2.1,9.6,1.5,15.9
			c-0.3,2.7-1.3,4.9-3.2,6.6c-0.6,0.6-1.7,1.3-3,1.9c-0.4,0.1-0.8,0.4-1.2,0.5l-0.4,0.1c-0.1,0.1-0.1,0.1-0.3,0.1l-0.1,0.1
			c-0.1,0-0.1,0-0.3,0.1l-0.4,0.4c-0.4,0.5-0.4,1-0.3,1.7c0.7,1.6,1.9,2,3.4,2c0.4,0,0.7,0,1.1,0c0.9-0.1,1.4-0.1,1.5-0.1
			c0.2-0.1,0.3-0.1,0.4-0.1s0.2,0,0.2,0.1c2.2,1.2,4.8,3.9,7.5,8.2c6,9.6,1.5,24.3-9.1,29.1c-0.6,0.3-1.7,0.5-3.2,0.9
			C314.9,82.3,314.6,82.3,314.4,82.3L314.4,82.3z"/><path class="st1" d="M354.2,6h-6.4c-1.9,0.1-3.5,0.3-4.5,0.9s-1.4,2.3-1.8,4c-0.3,1.7-0.5,3.7-0.6,6.4c-0.5,9.1-0.5,22.8-0.3,38.2
			c0.1,7.7,0.1,11.6,0.1,11.7s0,1.3,0,3.3c-0.1,2.1-0.1,3.9-0.1,5.3c0,2.2,0,3.9,0.1,5.1c0,0.8,0,1.4,0.1,1.9c0.1,0.6,0.4,1.4,1,1.9
			c0.1,0.1,0.3,0.3,0.4,0.3c0.7,0.5,1.3,0.5,1.9,0.5c0.2,0,0.4,0,0.7,0c0.4,0,0.8,0,1.2,0c1.4,0.1,3.3,0.1,5.9,0.1
			c1.7,0,3.6,0,5.9-0.1s3.6-0.1,3.9-0.1c1,0,1.8-0.8,1.8-1.8s-0.8-1.8-1.8-1.8c-0.3,0-1.5,0-3.9,0c-2.4,0.1-4.4,0.1-6,0.1h-4.1
			c-1.2,0-1.8-0.1-2.4-0.1c-0.3,0-0.5,0-0.8,0c0-0.4,0-0.8-0.1-1.2c-0.1-1.2-0.1-2.8-0.1-4.9c0-1.4,0-3.2,0.1-5.3c0-2.1,0-3.2,0-3.3
			c0-0.6,0-3.6-0.1-9.1c-0.1-4.5-0.1-8.4-0.1-12c0-1.5,0.8-2.6,2.2-2.6c0.6,0,1.4-0.1,2.2-0.1c1.9,0,3.1,0,3.5-0.1
			c1,0,1.8-0.9,1.8-1.9c-0.1-1-0.9-1.7-1.8-1.7c-0.1,0-0.1,0-0.2,0c-0.6,0-3,0-5,0.1c-0.1,0-0.2,0-0.3,0c-1.5,0-2.3-0.9-2.3-2.5
			v-1.5c0.1-7.7,0.3-13.8,0.5-18.3c0.1-2.6,0.4-4.6,0.6-6c0,0,0.5-1.2,1.4-1.8c0.4,0,0.9,0,1.4,0c0.7-0.1,1.6-0.1,2.6-0.1
			s2.2,0,3.5,0.1c3.1,0.1,9.8,0.4,10.8,0.4c0.5,0,0.9-0.1,1.3-0.5s0.5-0.8,0.5-1.3c0-1-0.8-1.8-1.8-1.8C364.1,6.4,357.2,6.1,354.2,6
			L354.2,6z"/><path class="st1" d="M379.2,5.3c-3.1,0-6.2,0.6-9.1,1.9c-1.9,0.9-1,3.5,0.7,3.5c0.3,0,0.5-0.1,0.8-0.2c0.1,0,0.3-0.1,0.4-0.1
			c0.5-0.2,1-0.3,1.4-0.3c0.9,0,1.5,0.6,1.6,2.5c0.9,18.6,0.3,26-0.1,45.9c-0.3,10.4-0.4,18.6-0.4,24.6c0,1,0.8,1.8,1.8,1.8
			s1.8-0.8,1.8-1.8c0-2.3,0.3-14.3,0.8-35.7c0-1.5,0.6-2.6,2.1-3.1l0.4-0.1c0.6-0.2,1.1-0.3,1.6-0.3c0.7,0,1.3,0.2,1.9,0.9
			c3.3,3.1,4.8,8,5.3,15.2c0.1,0.9,0.3,2.6,0.4,5.1c0.1,2.7,0.3,4.6,0.4,6c0.3,2.7,1,7.2,2.4,9.9c1.2,2.6,2.9,3.7,4.5,3.7
			s3.3-1,4.7-2.8c1.1-1.4-0.1-3-1.4-3c-0.5,0-1,0.2-1.4,0.7c-0.1,0.1-0.3,0.3-0.4,0.4c-0.5,0.5-1,0.8-1.7,0.9
			c-0.1-0.1-0.1-0.3-0.3-0.4c-0.3-0.3-0.5-0.6-0.8-1c-0.6-1.2-1-2.7-1.4-4.4c-0.6-3.5-0.8-4.9-1-10c-0.1-2.6-0.3-4.4-0.4-5.4
			c-0.6-6.9-2.2-12.2-4.8-15.8c-1-1.4-0.9-2.4,0.5-3.2c0.8-0.4,1.5-0.8,2.3-1.3c5-3.1,8-7.2,8.9-12.2c1.5-8.2-2.4-14.9-9.5-18.5
			C387.6,6.4,383.4,5.3,379.2,5.3L379.2,5.3z M380.8,40.1c-1.1,0-1.9-0.9-1.9-2.3c0.3-9.9,0.1-18.6-0.1-26.1
			c-0.1-1.6,0.6-2.7,2.2-2.7c0.1,0,0.2,0,0.3,0c2.8,0.3,5.5,1,8.2,2.6c5.7,3.1,8.7,8.2,7.6,14.5c-1.4,7.2-6.7,10.4-15.2,13.6
			C381.6,40,381.1,40.1,380.8,40.1L380.8,40.1z"/><path class="st1" d="M88.1,105.6c-1.7,0-3.1,1.4-3.1,3.1c0,0,0.2,1.8-0.2,3.4c-0.9,4.9-1.2,11.4-1.1,20.5c0,10.3,0,13.3,0.6,25.1
			c0.3,6,0.5,9.1,0.5,9.4c0.2,1.7,0,7.3-0.2,16.7c-0.2,7.4,0.2,13.3,0.9,17.6c0.2,0.8,0.6,1.4,1.4,1.9c0.6,0.5,1.2,0.6,1.9,0.6
			c1.5,0,2.2-0.5,3.1-0.6c0.5,0,0.9-0.2,1.2-0.3c11.1-5.6,21.6-29.6,23.6-52C119.1,125.7,110.9,105.6,88.1,105.6L88.1,105.6z
			 M92.9,194.7c-1.1,0-2-1-2-2.7c-0.2-2.3-0.2-5.1,0-8c0.2-9.7,0.3-15.4,0.2-17.1c0-0.5-0.2-3.7-0.5-9.6c-0.3-5.9-0.5-10.2-0.5-12.8
			c-0.2-2.6-0.2-6.5-0.3-11.4c-0.2-7.9,0.2-13.6,0.8-18.2c0.2-1.5,1.2-2.5,2.5-2.5c0.3,0,0.7,0.1,1,0.2c12.7,3.1,18.4,16.7,16.5,38
			c-1.7,17.9-8.6,35.3-15.7,43.2C94.2,194.4,93.5,194.7,92.9,194.7L92.9,194.7z"/><path class="st1" d="M135,106.9c-3.1,0-5.9,2.5-7.7,6.4c-1.9,4-3.1,8.9-3.9,15c-2.9,26.5-4,50.6-2.9,72.4c0,1.7,1.5,2.9,3.2,2.9
			s2.9-1.5,2.9-3.2c-0.6-13.6-0.5-27.8,0.5-42.7c0.2-1.9,1.1-3.1,2.8-3.2c1.4-0.3,2.9-0.3,4.6-0.5c2.3-0.2,4-0.5,5.6-0.6
			c0.1,0,0.3,0,0.4,0c1.8,0,2.8,0.9,2.8,2.6c0,0.9-0.2,2-0.2,3.1c-0.6,24.1-0.5,36.9,6.2,44.3c0.6,0.7,1.5,1.1,2.4,1.1
			c0.7,0,1.4-0.2,1.9-0.8c1.2-1.1,1.5-3.1,0.3-4.3c-4.8-5.4-5.2-16.8-4.6-40.1c0.6-23.6,0-38-6.8-47.2
			C140,108.4,137.4,106.9,135,106.9L135,106.9z M130.4,148c-1.6,0-2.5-1-2.4-3.1c0.9-11.4,2-22.8,4.8-29c0.9-1.9,1.4-2.8,2.1-2.8
			c0.6,0,1.4,0.8,2.7,2.5c4.9,6.6,5.6,18.2,5.7,28.1c0,2-1.1,3.1-3.1,3.1h2.5c-1.2,0.2-4.2,0.5-8.6,0.9c-1.2,0-2.2,0.2-3.2,0.3
			C130.7,148,130.6,148,130.4,148L130.4,148z"/><path class="st1" d="M177.2,148.8c0.1,0,0.2,0,0.2,0c0,0.1-0.1,0.2-0.1,0.3C177.3,149,177.2,148.9,177.2,148.8 M198.5,104.8
			c-1,0-2,0.5-2.7,1.4c-1.9,2.8-5.6,10.3-11.3,22.8l-6.3,14.3c-0.2,0.4-0.4,0.5-0.6,0.5c-0.5,0-1.2-0.6-1.7-1.8
			c-0.3-1.1-0.8-2.2-1.2-3.5l-2.9-7.7l-2.3-6.6c-2.3-6-3.2-10.3-4.3-14.8c-0.4-1.6-1.6-2.5-3.1-2.5c-0.2,0-0.4,0-0.6,0.1
			c-1.9,0.3-2.6,2-2.5,3.7c0.8,3.4,1.9,7.1,3.1,11c2.5,7.9,3.9,11.7,7.4,20.7c1.7,4.5,2.9,7.9,3.7,9.9c0,0,1.4,2.5,1.2,4
			c-0.9,7.9-0.9,17.9-0.3,30.1c0.2,6.6,0.3,11.3,0.3,13.7c0,1.7,1.4,3.1,3.1,3.1c1.7,0,3.1-1.4,3.1-3.1c0-2.9-0.2-7.7-0.5-14.7
			c-0.3-6.8-0.5-12.8-0.3-18c0.2-10.5,0.6-13,4.2-21.6c2.9-7.3,13.9-31.6,17.1-36.1c0.8-1.4,0.5-3.4-0.9-4.3
			C199.6,105,199,104.8,198.5,104.8L198.5,104.8z"/><path class="st1" d="M268.1,108.9c-2.5,0-5,0.8-7.4,2.6c-6.8,4.8-10.8,15.3-9.6,25.6c0.1,1.6,1.5,2.6,3.2,2.6c0.1,0,0.2,0,0.4,0
			c1.7-0.2,2.8-1.7,2.6-3.5c-0.5-4.2,0-8,1.4-11.7c2.3-6,6-9.4,9.4-9.4c0.7,0,1.4,0.1,2,0.4c2.5,1.1,4.6,4,6.5,8.8
			c3.9,9.3-1.1,18.8-10.8,23.3c0,0-1.4,0.3-2.3,0.5c-0.3,0-0.8,0.2-1.1,0.2c-1.1,0.2-2,0.6-2.8,1.1c-3.1,2.3-1.9,6.6,1.4,7.3
			c0.6,0,1.4,0,2.2-0.2c0,0,0.2,0,0.6,0c0.5,0,1.4,0.1,2.2,0.3c1.1,0.3,2.5,0.9,4,1.5c4.9,2.5,8.3,7.7,8.9,13.9
			c1.9,16.7-4.3,26.1-11.9,27.9c-0.9,0.2-1.8,0.3-2.7,0.3c-6.2,0-11.6-5.2-12.2-15c0-1.7-1.5-2.9-3.2-2.9s-2.9,1.5-2.9,3.2
			c0.7,12.6,8.7,20.7,18.3,20.7c1.3,0,2.7-0.2,4.1-0.5c11.3-2.5,18.7-15.4,16.7-34.4c-1.1-8.2-5.2-15.3-12.7-18.8
			c-0.9-0.5,0-1.7,1.9-3.1c8.5-6.6,12.3-17.3,8.2-27.8C278.9,113.2,273.6,108.9,268.1,108.9L268.1,108.9z"/><path class="st1" d="M310.7,104.3c-2.7,0-5.7,1.2-8.8,3.9c-8.8,7.7-13.9,21.1-15.3,40.1c-0.2,3.5,0,9.1,0.8,16.5
			c1.4,14.8,5.2,31.5,12.5,38.1c2.3,2.2,5,3.3,7.8,3.3c2.9,0,6.1-1.2,9.2-3.8c6.6-5.4,9.1-18.1,9.9-34.3c0.5-11.6,0.2-16.7,0-26.4
			c-0.2-4.8-0.2-8-0.9-13.4c-0.3-5.4-1.7-10.6-3.9-15.1C319.3,107.9,315.4,104.3,310.7,104.3L310.7,104.3z M307.7,200
			c-1.4,0-2.6-0.5-3.7-1.5c-2.6-2.6-5.1-7.4-7.1-14.5c-3.1-11.9-4.6-28.7-4.2-35.3c1.2-17.3,5.6-29.2,13.1-35.8
			c1.9-1.6,3.5-2.4,4.9-2.4c2.2,0,4,1.9,5.6,5.6c2.9,5.7,4.2,22.5,4.2,24.2c0.3,12.2,0.3,21.3,0,27.6c-0.6,15.9-3.1,26.4-7.4,29.6
			C311.1,199.2,309.3,200,307.7,200L307.7,200z"/>
</g>
<g id="green">
		<path class="st2" d="M41.8,20.4c-0.5,0-0.9,0.1-1.3,0.4c-1,0.6-0.8,1.7-1.2,2.8c-0.3,1-0.8,2.3-1.4,3.9c-0.5,1.4-0.4,2.1-3,2.2
			s-4.9,0-6.8,0.1c-0.3,0-0.4,0-0.6,0c-0.3,0-0.5,0-0.8,0c-1.4,0-2.1-0.4-1.4-2.9c0.4-1.4,0.9-2.7,1.3-3.7c0.4-1.5-0.7-2.5-1.9-2.5
			c-0.7,0-1.4,0.4-1.7,1.2c-0.5,1.5-1.2,3.6-1.9,6.2c-0.6,2.2-1.3,2.1-2.8,2.2c-4.1,0.4-7.2,1-9.1,1.7c-2,0.8-1.3,3.7,0.7,3.7
			c0.2,0,0.4,0,0.6-0.1c1.2-0.5,3.1-0.9,5.5-1.2c0.5-0.1,0.9-0.1,1.3-0.1c1.4,0,2.1,0.5,1.1,2.9L18,38.1c-0.5,1.5-1.3,3.7-2.4,6.6
			c-0.6,1.3-1.7,2.1-3.5,2.1c-1.1,0.1-2.2,0.1-3.2,0.1c-1.4,0-2.8-0.1-4-0.2c-0.1,0-0.2,0-0.2,0c-0.9,0-1.7,0.7-1.7,1.7
			c-0.1,1,0.6,1.9,1.7,1.9c1.5,0.1,3.3,0.3,5.1,0.3c1.9,0.1,2.7,1.2,2.1,3c-1.3,3.5-2.2,6.7-2.4,9.4c-0.1,1,0.5,1.9,1.5,2.1
			c0.1,0,0.2,0,0.3,0c0.9,0,1.7-0.6,1.8-1.6c0.4-3.2,1.7-7.2,3.6-11.8c0.4-0.9,1.2-1.3,2.6-1.4c2.2-0.1,4.8-0.4,7.7-0.8
			c0.7-0.1,1.2-0.2,1.6-0.2c1.3,0,1.5,0.6,0.7,3c-1.2,3.5-2.2,7.1-3,10.2c-0.1,0.9,0.4,2.1,1.4,2.2c0.1,0,0.2,0,0.3,0
			c0.8,0,1.8-0.5,1.9-1.4c1-3.7,2.2-8,3.7-12.6c0.4-1.4,1.3-2.2,2.8-2.3c3.3-0.4,6-0.6,7.8-0.8c1,0,1.8-0.9,1.8-1.9
			c-0.1-1-0.9-1.7-1.8-1.7c-0.1,0-0.1,0-0.2,0c-1.4,0.1-3.1,0.3-5,0.4c-0.4,0-0.8,0.1-1.1,0.1c-2,0-1.8-0.8-1.1-2.9l3-8
			c0-0.1,0.6-0.1,2.2-0.1c3-0.1,4.9-0.1,6-0.3c1,0,1.8-0.9,1.8-1.9c-0.1-1-0.9-1.7-1.8-1.7c-0.1,0-0.1,0-0.2,0c-0.8,0-1.8,0-3.2,0
			c-3,0-2.7,0-2.1-2.8c0.4-1.5,0.8-2.8,0.9-4C43.5,21.5,42.9,20.5,41.8,20.4L41.8,20.4z M22,46.1c-1.8,0-2.5-1.1-1.8-3
			c1.2-2.8,1.7-5,2.4-7.2c0.9-2.6,1.4-2.2,2.8-2.3c1.9-0.1,4.2-0.1,7.1-0.3c0.4,0,0.7-0.1,1.1-0.1c1.3,0,1.9,0.4,1.1,2.9L32.3,43
			c-0.5,1.3-0.5,1.8-3,2.2c-2.7,0.4-5.1,0.5-7.1,0.8C22.2,46.1,22.1,46.1,22,46.1L22,46.1z"/><path class="st2" d="M70.9,3.6c-0.8,0-1.6,0.1-2.4,0.3c-3.6,1-7.2,4.1-9.3,7.8C57.1,16,55.6,22,54.7,30.1c-1.5,13.2,0.9,39.6,6,49
			c2.2,4,5.4,5.9,8.6,5.9c1.3,0,2.5-0.3,3.7-0.9c4-1.9,6.9-6.4,7.6-11.2c0.1-1-0.5-1.9-1.5-2.1c-0.1,0-0.2,0-0.3,0
			c-0.9,0-1.7,0.6-1.8,1.6c-0.3,1.9-0.9,3.6-1.9,5c-1.3,1.8-3.5,4-5.9,4c-1.7,0-3.5-1.1-5.1-4.1c-2.4-4.2-4.1-11.8-5.3-22.6
			c-2.1-19.7-0.3-33.6,3.9-41.1c1.7-3.2,4-5.3,6.9-6c0.4-0.1,0.8-0.2,1.2-0.2c4.8,0,7.8,8.2,6.7,13.5c-0.1,1,0.4,2.1,1.4,2.2
			c0.1,0,0.2,0,0.3,0c0.9,0,1.8-0.5,1.9-1.4c0.8-3.7,0.1-7.8-2.1-12.3C77.3,5.5,74.3,3.6,70.9,3.6L70.9,3.6z"/><path class="st2" d="M102.4,4c-0.8,0-1.6,0.1-2.5,0.3c-3.7,0.9-7.7,4.2-9.6,7.7c-8.4,16.5-3.1,47.6,0.1,58.9
			c1.5,5.3,3.3,9.1,5.3,11.6c1.7,1.9,3.7,3,5.9,3c1.3,0,2.7-0.4,4.2-1.4c2.8-1.8,5-5.4,6.4-10.9c2.2-8.4,3.1-20.1,2.1-42.8
			c-0.3-11.6-1.2-15.4-1.9-17.6C110.5,7.6,107.3,4,102.4,4L102.4,4z M101.5,81.7c-1,0-1.9-0.6-3-1.7c-1.7-1.9-3.1-5.4-4.5-10.2
			c-3.2-11.3-8.2-41-0.4-56c1.4-2.7,4.5-5.4,7.1-5.9c0.6-0.1,1.1-0.2,1.6-0.2c3.1,0,5.2,2.3,6.5,6.4c1,2.8,1.5,6.3,1.8,10.3
			c0.4,16.1,0.5,25.8,0.1,32.3c-0.6,12.5-3,21.9-7.1,24.4C102.9,81.5,102.1,81.7,101.5,81.7L101.5,81.7z"/><path class="st2" d="M125.3,6.5L125.3,6.5c-1.1,0-1.9,0.8-1.9,1.7v0.3c0,4.8-0.1,11.4-0.3,20.1c-0.3,8.6-0.4,14.3-0.4,17
			c-0.1,14.8,0.3,27.3,1.2,37.3c0,0.5,0.3,0.9,0.6,1.3c0.3,0.3,0.6,0.4,0.9,0.4c0.2,0,0.5,0,0.7,0c0.8,0,1.3-0.2,2.2-0.3
			c0.4,0,0.6-0.3,1-0.6c7.7-8.9,13.9-21.2,16.3-33.4c3-14.5,0.5-26.4-7.3-35.7C134.1,9.3,130.8,6.6,125.3,6.5L125.3,6.5z
			 M128.4,77.4c-0.8,0-1.4-0.8-1.5-2.5c-0.4-8.4-0.6-18.1-0.5-29.4c0-3,0.1-8.4,0.3-16.5c0.1-6.3,0.3-11.4,0.3-15.4
			c0-2,0.5-2.7,1.2-2.7c0.5,0,1.1,0.3,1.8,0.7c1.8,1,3.6,2.7,5.5,5c13,15.7,7.7,40.9-4.9,59.3C129.9,76.9,129.1,77.4,128.4,77.4
			L128.4,77.4z"/><path class="st2" d="M161.6,3.7c-1.7,0-3.2,0.1-4.1,0.6c-1.5,1-2.1,3.2-2.4,5.8c-0.5,4.2-0.1,9.9,0.4,16.7
			c0.5,6.3,0.6,5.7,0.4,11.3c-0.1,3-0.4,6.4-0.5,10.7c-0.4,8.5-0.6,19.7-0.1,27.5c0.1,2.4,0.4,4.2,0.8,5.7c0.4,1.7,0.9,3.2,2.3,3.7
			c1.8,0.8,4.4,1.2,7.8,1.2c0.5,0,1,0,1.5,0c1.7-0.1,7.1-0.6,8.7-0.6c1,0,1.8-0.8,1.8-1.8s-0.8-1.8-1.8-1.8c-0.9,0-2.3,0-4.2,0.1
			c-2.6,0.2-5.1,0.5-7.4,0.5c-1,0-2-0.1-2.9-0.2c-1.4-0.3-1.9-1.2-1.9-2.4c0,0.4-0.1,1.2-0.2,1.2c0-0.1-0.1-0.4-0.1-0.6
			c-0.3-1.2-0.5-2.8-0.6-5c-0.5-7.1-0.4-17.1,0.3-29.7c0.1-2.6,1-2.6,2.7-2.6c1.8,0,3.2,0,4.5-0.1c1,0,1.8-0.9,1.8-1.9
			c-0.1-1-0.9-1.7-1.8-1.7c-0.1,0-0.1,0-0.2,0c-1,0.1-2.4,0.1-4,0.1c-1.8,0-2.7-0.3-2.6-2.8c0.3-5.3,0-4.9-0.4-10.8
			c-0.5-6.8-0.9-12.1-0.4-16.1c0-0.4,0.1-0.6,0.1-0.9c0.1-1.2,0.4-1.7,0.4-1.8c0-0.1,0-0.1,0.1-0.3h0.4c0.4-0.1,1-0.1,1.9-0.1
			c0.8,0,2.7,0,5.9,0.1c4.2,0.1,7.3,0.1,9,0.1c0.4,0,0.8,0,1.2,0c0.6,0,1.2-0.1,1.7-0.7c0.4-0.3,0.5-0.8,0.5-1.3
			c-0.1-1-0.9-1.7-1.8-1.7c-0.1,0-0.1,0-0.2,0c-0.5,0-3.9-0.1-10.2-0.3C164.6,3.7,162.5,3.7,161.6,3.7L161.6,3.7z"/><path class="st2" d="M188.3,7.2c-0.9,0-1.8,0.5-1.9,1.4c-0.4,1.4,0.1,4.1,1,8.6c0.8,3.7,1.8,8.5,3.1,14l2.3,9.6l2.3,9.3
			c0.6,2.4,1,4,1.2,4.9c0.1,0.6,1.4,5.8,3.7,15.4l2.2,9l0.8,3c0.1,0.4,0.3,0.6,0.3,0.9l0.3,0.3c0,0.1,0,0.3,0.1,0.4l0.5,0.5
			c0.4,0.2,0.7,0.4,1,0.4c0.2,0,0.5-0.1,0.8-0.2c1.2-0.5,3.3-13.8,4.8-19.8c1.2-4.9,2.4-11.8,4-21c1.4-9,2.4-15,3.1-18.1
			c0.3-1.2,0.8-3.6,1.7-7.2c0.8-3.1,1.3-5.5,1.5-7.5c0.1-1-0.5-1.9-1.5-2.1c-0.1,0-0.2,0-0.3,0c-0.9,0-1.7,0.6-1.8,1.6
			c-0.3,1.8-0.8,4.1-1.5,7.1c-0.9,3.7-1.4,6.2-1.7,7.3c-0.6,3.2-1.7,9.3-3.1,18.3c-1.5,9-2.8,15.9-4,20.8c-0.3,1.3-0.5,2.6-0.8,3.7
			c-0.5,2.9-1,4-1.4,4c-0.5,0-1-1.2-1.4-2.4l-3.6-15c-0.1-0.9-0.5-2.6-1.2-5l-2.3-9.1l-2.3-9.6c-1.4-5.8-2.4-10.5-3.1-14
			c-0.4-2.1-0.8-3.7-0.9-4.9c-0.1-1.2-0.3-1.9-0.1-2.2c0.1-1-0.4-2.1-1.4-2.2C188.5,7.2,188.4,7.2,188.3,7.2L188.3,7.2z"/><path class="st2" d="M241.5,6H235c-1.9,0.1-3.5,0.3-4.5,0.9s-1.4,2.3-1.8,4c-0.3,1.7-0.5,3.7-0.6,6.4c-0.5,9.1-0.5,22.8-0.3,38.2
			C228,63.2,228,67,228,67.2c0,0.1,0,1.3,0,3.3c-0.1,2.1-0.1,3.9-0.1,5.3c0,2.2,0,3.9,0.1,5.1c0,0.8,0,1.4,0.1,1.9
			c0.1,0.6,0.4,1.4,1,1.9c0.1,0.1,0.3,0.3,0.4,0.3c0.7,0.5,1.3,0.5,1.9,0.5c0.2,0,0.4,0,0.7,0c0.4,0,0.8,0,1.2,0
			c1.4,0.1,3.3,0.1,5.9,0.1c1.7,0,3.6,0,5.9-0.1c2.3-0.1,3.6-0.1,3.9-0.1c1,0,1.8-0.8,1.8-1.8s-0.8-1.8-1.8-1.8c-0.3,0-1.5,0-3.9,0
			c-2.4,0.1-4.4,0.1-6,0.1H235c-1.2,0-1.8-0.1-2.4-0.1c-0.3,0-0.5,0-0.8,0c0-0.4,0-0.8-0.1-1.2c-0.1-1.2-0.1-2.8-0.1-4.9
			c0-1.4,0-3.2,0.1-5.3c0-2.1,0-3.2,0-3.3c0-0.6,0-3.6-0.1-9.1c-0.1-4.5-0.1-8.4-0.1-12c0-1.5,0.8-2.6,2.2-2.6
			c0.6,0,1.4-0.1,2.2-0.1c1.9,0,3.1,0,3.5-0.1c1,0,1.8-0.9,1.8-1.9c-0.1-1-0.9-1.7-1.8-1.7c-0.1,0-0.1,0-0.2,0c-0.6,0-3,0-5,0.1
			c-0.1,0-0.2,0-0.3,0c-1.5,0-2.3-0.9-2.3-2.5v-1.5c0.1-7.7,0.3-13.8,0.5-18.3c0.1-2.6,0.4-4.6,0.6-6c0,0,0.5-1.2,1.4-1.8
			c0.4,0,0.9,0,1.4,0c0.7-0.1,1.6-0.1,2.6-0.1s2.2,0,3.5,0.1c3.1,0.1,9.8,0.4,10.8,0.4c0.5,0,0.9-0.1,1.3-0.5
			c0.4-0.4,0.5-0.8,0.5-1.3c0-1-0.8-1.8-1.8-1.8c-0.1,0-0.4,0-0.6,0C249.7,6.4,244.1,6.1,241.5,6L241.5,6z"/><path class="st2" d="M262.9,5.8c-1.6,0-2.9,1.5-2.3,3.7c0.1,0.3,0.1,0.5,0.3,0.6l0.1,0.4c0.1,0.1,0.1,0.1,0.1,0.3
			c0.4,3.7,0.6,8.4,0.6,14.1c0,4.6-0.1,11.6-0.4,20.8c-0.4,9.3-0.5,16.2-0.5,20.8c0,0.4,0,2.1-0.1,4.9c-0.1,5.8-0.1,8.9,0.8,12.3
			c0.1,0.9,1.1,1.4,2,1.4c0.1,0,0.2,0,0.3,0c0.9-0.1,1.4-1.3,1.3-2.2c-0.5-2.4-0.8-5.8-0.8-8c0-1,0-2.4,0.1-4.2c0-1.8,0-3.2,0-4.2
			c0-4.6,0.1-11.6,0.5-20.8c0.3-9.3,0.4-16.2,0.4-20.8c0-2.2,0-4.2-0.1-6c0-2.1-0.1-5.2,0.4-5.2c0.1,0,0.3,0.2,0.5,0.6
			c0.3,0.4,0.6,1.2,1,1.9c3.2,6,4.2,7.6,8,12.1c1.7,2.3,1.5,1.8,0.3,3.7c-2.1,3-3.7,5.5-5.3,7.7c-1.1,1.5,0.1,3.1,1.4,3.1
			c0.5,0,1-0.2,1.4-0.7c1.4-1.8,2.7-3.9,4.4-6.3c0.8-1.3,1.3-1.9,1.7-1.9c0.4,0,0.9,0.6,1.9,1.8c1.7,2.2,3.1,4,4.1,5.5
			c0.4,0.6,1,0.9,1.5,0.9c1.3,0,2.6-1.5,1.6-2.9c-1.3-1.9-3.3-4.5-5.7-7.6c-1.5-2.1-1.8-1.3-0.4-3.6l1-1.7c2.4-4,4.8-7.5,6.7-10.2
			c1.1-1.5,2.4-2.4,3-2.4c0.2,0,0.3,0.1,0.3,0.3c0,0.6,0.1,1.2,0.1,1.8c0,0.8,0.1,3.6,0.5,8.5c0.1,4.2,0.4,10.3,0.8,18.3
			c0.5,16.1,1.2,28.7,2.7,40.1c0,0.9,0.9,1.6,1.8,1.6c0.1,0,0.2,0,0.3,0c1,0,1.7-1,1.5-2.1c-1.4-11.4-2.1-23.8-2.7-39.7
			c-0.1-5.7-0.4-11.8-0.8-18.4c-0.5-9.8-0.5-11.2-0.9-13.6c-0.1-0.8-0.1-1.4-0.3-1.8c0-0.7,0-0.9,0-1.1l-0.3-0.5
			c-0.3-0.4-0.5-0.6-0.9-0.8C294.4,6.1,294,6,293.7,6c-1.1,0-1.8,0.9-2.2,1.7c-0.1,0.3-0.3,0.5-0.4,0.6C291,8.5,291,8.7,291,8.7
			c0,0.1,0,0.1-0.1,0.1c-3.1,3.5-6.7,8.6-10.9,15.6c-0.8,1.3-1.2,1.9-1.6,1.9s-0.8-0.8-1.8-2c-2.3-2.8-3.5-4.6-6-9.9
			c-1.2-2.1-2.2-3.7-3.2-5.1c-0.8-0.9-1.2-1.4-1.5-1.8c-0.1-0.3-0.4-0.5-0.5-0.6C264.5,6.1,263.7,5.8,262.9,5.8L262.9,5.8z"/><path class="st2" d="M313.6,4.7c-1.2,0-2.4,0.2-3.7,0.5c-0.5,0.1-0.9,0.5-1,0.9c-0.1,0.3-0.3,0.6-0.3,0.9
			c-0.1,1.3,0.6,2.1,0.4,3.3c-0.6,3.9-0.8,8.5-0.8,10.9c0,2.8,0.6,12.2,0.8,13.2c0.4,2.7,0.4,10.9,0.1,24.8
			c-0.4,13.9-0.5,22.1-0.5,24.8c0,0,0.4,1.5,0.4,2.7v-1.4c0.1,0.9,1,1.4,1.9,1.4c0.1,0,0.2,0,0.3,0c0.4-0.1,1.2-0.3,2.6-0.5
			c2.6-0.4,4.5-1,6.2-1.7c3.1-1.4,5.8-3.5,8-6.2c4.5-5.4,6.4-11.7,5.9-18.8c-0.6-7.1-6.4-16.1-12.2-19c-0.3-0.1-0.4-0.4-0.1-0.4
			c0.1-0.1,0.1-0.1,0.3-0.3c2.4-2.3,3.9-5.4,4.2-9.1c0.6-6.8,0-12.6-1.7-17.5C322.3,8.1,318.8,4.7,313.6,4.7L313.6,4.7z M314.4,82.3
			c-1.3,0-2.2-0.9-2-2.4c0-3.5,0.1-7.8,0.3-13.2c0.4-13.9,0.5-18.5,0-32.4c0-0.5-0.1-2.6-0.3-6.2c-0.3-3.5-0.4-5.9-0.4-7.2
			c0-2.6,0.1-8.5,1.2-12.1V8.5c0,0,0.3-0.1,0.9-0.1c0.5,0,1.1,0.1,1.8,0.4c1.9,0.6,3.7,2.4,5,5.9c1.5,4.4,2.1,9.6,1.5,15.9
			c-0.3,2.7-1.3,4.9-3.2,6.6c-0.6,0.6-1.7,1.3-3,1.9c-0.4,0.1-0.8,0.4-1.2,0.5l-0.4,0.1c-0.1,0.1-0.1,0.1-0.3,0.1l-0.1,0.1
			c-0.1,0-0.1,0-0.3,0.1l-0.4,0.4c-0.4,0.5-0.4,1-0.3,1.7c0.7,1.6,1.9,2,3.4,2c0.4,0,0.7,0,1.1,0c0.9-0.1,1.4-0.1,1.5-0.1
			c0.2-0.1,0.3-0.1,0.4-0.1s0.2,0,0.2,0.1c2.2,1.2,4.8,3.9,7.5,8.2c6,9.6,1.5,24.3-9.1,29.1c-0.6,0.3-1.7,0.5-3.2,0.9
			C314.9,82.3,314.6,82.3,314.4,82.3L314.4,82.3z"/><path class="st2" d="M354.2,6h-6.4c-1.9,0.1-3.5,0.3-4.5,0.9s-1.4,2.3-1.8,4c-0.3,1.7-0.5,3.7-0.6,6.4c-0.5,9.1-0.5,22.8-0.3,38.2
			c0.1,7.7,0.1,11.6,0.1,11.7s0,1.3,0,3.3c-0.1,2.1-0.1,3.9-0.1,5.3c0,2.2,0,3.9,0.1,5.1c0,0.8,0,1.4,0.1,1.9c0.1,0.6,0.4,1.4,1,1.9
			c0.1,0.1,0.3,0.3,0.4,0.3c0.7,0.5,1.3,0.5,1.9,0.5c0.2,0,0.4,0,0.7,0c0.4,0,0.8,0,1.2,0c1.4,0.1,3.3,0.1,5.9,0.1
			c1.7,0,3.6,0,5.9-0.1s3.6-0.1,3.9-0.1c1,0,1.8-0.8,1.8-1.8s-0.8-1.8-1.8-1.8c-0.3,0-1.5,0-3.9,0c-2.4,0.1-4.4,0.1-6,0.1h-4.1
			c-1.2,0-1.8-0.1-2.4-0.1c-0.3,0-0.5,0-0.8,0c0-0.4,0-0.8-0.1-1.2c-0.1-1.2-0.1-2.8-0.1-4.9c0-1.4,0-3.2,0.1-5.3c0-2.1,0-3.2,0-3.3
			c0-0.6,0-3.6-0.1-9.1c-0.1-4.5-0.1-8.4-0.1-12c0-1.5,0.8-2.6,2.2-2.6c0.6,0,1.4-0.1,2.2-0.1c1.9,0,3.1,0,3.5-0.1
			c1,0,1.8-0.9,1.8-1.9c-0.1-1-0.9-1.7-1.8-1.7c-0.1,0-0.1,0-0.2,0c-0.6,0-3,0-5,0.1c-0.1,0-0.2,0-0.3,0c-1.5,0-2.3-0.9-2.3-2.5
			v-1.5c0.1-7.7,0.3-13.8,0.5-18.3c0.1-2.6,0.4-4.6,0.6-6c0,0,0.5-1.2,1.4-1.8c0.4,0,0.9,0,1.4,0c0.7-0.1,1.6-0.1,2.6-0.1
			s2.2,0,3.5,0.1c3.1,0.1,9.8,0.4,10.8,0.4c0.5,0,0.9-0.1,1.3-0.5s0.5-0.8,0.5-1.3c0-1-0.8-1.8-1.8-1.8C364.1,6.4,357.2,6.1,354.2,6
			L354.2,6z"/><path class="st2" d="M379.2,5.3c-3.1,0-6.2,0.6-9.1,1.9c-1.9,0.9-1,3.5,0.7,3.5c0.3,0,0.5-0.1,0.8-0.2c0.1,0,0.3-0.1,0.4-0.1
			c0.5-0.2,1-0.3,1.4-0.3c0.9,0,1.5,0.6,1.6,2.5c0.9,18.6,0.3,26-0.1,45.9c-0.3,10.4-0.4,18.6-0.4,24.6c0,1,0.8,1.8,1.8,1.8
			s1.8-0.8,1.8-1.8c0-2.3,0.3-14.3,0.8-35.7c0-1.5,0.6-2.6,2.1-3.1l0.4-0.1c0.6-0.2,1.1-0.3,1.6-0.3c0.7,0,1.3,0.2,1.9,0.9
			c3.3,3.1,4.8,8,5.3,15.2c0.1,0.9,0.3,2.6,0.4,5.1c0.1,2.7,0.3,4.6,0.4,6c0.3,2.7,1,7.2,2.4,9.9c1.2,2.6,2.9,3.7,4.5,3.7
			s3.3-1,4.7-2.8c1.1-1.4-0.1-3-1.4-3c-0.5,0-1,0.2-1.4,0.7c-0.1,0.1-0.3,0.3-0.4,0.4c-0.5,0.5-1,0.8-1.7,0.9
			c-0.1-0.1-0.1-0.3-0.3-0.4c-0.3-0.3-0.5-0.6-0.8-1c-0.6-1.2-1-2.7-1.4-4.4c-0.6-3.5-0.8-4.9-1-10c-0.1-2.6-0.3-4.4-0.4-5.4
			c-0.6-6.9-2.2-12.2-4.8-15.8c-1-1.4-0.9-2.4,0.5-3.2c0.8-0.4,1.5-0.8,2.3-1.3c5-3.1,8-7.2,8.9-12.2c1.5-8.2-2.4-14.9-9.5-18.5
			C387.6,6.4,383.4,5.3,379.2,5.3L379.2,5.3z M380.8,40.1c-1.1,0-1.9-0.9-1.9-2.3c0.3-9.9,0.1-18.6-0.1-26.1
			c-0.1-1.6,0.6-2.7,2.2-2.7c0.1,0,0.2,0,0.3,0c2.8,0.3,5.5,1,8.2,2.6c5.7,3.1,8.7,8.2,7.6,14.5c-1.4,7.2-6.7,10.4-15.2,13.6
			C381.6,40,381.1,40.1,380.8,40.1L380.8,40.1z"/><path class="st2" d="M88.1,105.6c-1.7,0-3.1,1.4-3.1,3.1c0,0,0.2,1.8-0.2,3.4c-0.9,4.9-1.2,11.4-1.1,20.5c0,10.3,0,13.3,0.6,25.1
			c0.3,6,0.5,9.1,0.5,9.4c0.2,1.7,0,7.3-0.2,16.7c-0.2,7.4,0.2,13.3,0.9,17.6c0.2,0.8,0.6,1.4,1.4,1.9c0.6,0.5,1.2,0.6,1.9,0.6
			c1.5,0,2.2-0.5,3.1-0.6c0.5,0,0.9-0.2,1.2-0.3c11.1-5.6,21.6-29.6,23.6-52C119.1,125.7,110.9,105.6,88.1,105.6L88.1,105.6z
			 M92.9,194.7c-1.1,0-2-1-2-2.7c-0.2-2.3-0.2-5.1,0-8c0.2-9.7,0.3-15.4,0.2-17.1c0-0.5-0.2-3.7-0.5-9.6c-0.3-5.9-0.5-10.2-0.5-12.8
			c-0.2-2.6-0.2-6.5-0.3-11.4c-0.2-7.9,0.2-13.6,0.8-18.2c0.2-1.5,1.2-2.5,2.5-2.5c0.3,0,0.7,0.1,1,0.2c12.7,3.1,18.4,16.7,16.5,38
			c-1.7,17.9-8.6,35.3-15.7,43.2C94.2,194.4,93.5,194.7,92.9,194.7L92.9,194.7z"/><path class="st2" d="M135,106.9c-3.1,0-5.9,2.5-7.7,6.4c-1.9,4-3.1,8.9-3.9,15c-2.9,26.5-4,50.6-2.9,72.4c0,1.7,1.5,2.9,3.2,2.9
			s2.9-1.5,2.9-3.2c-0.6-13.6-0.5-27.8,0.5-42.7c0.2-1.9,1.1-3.1,2.8-3.2c1.4-0.3,2.9-0.3,4.6-0.5c2.3-0.2,4-0.5,5.6-0.6
			c0.1,0,0.3,0,0.4,0c1.8,0,2.8,0.9,2.8,2.6c0,0.9-0.2,2-0.2,3.1c-0.6,24.1-0.5,36.9,6.2,44.3c0.6,0.7,1.5,1.1,2.4,1.1
			c0.7,0,1.4-0.2,1.9-0.8c1.2-1.1,1.5-3.1,0.3-4.3c-4.8-5.4-5.2-16.8-4.6-40.1c0.6-23.6,0-38-6.8-47.2
			C140,108.4,137.4,106.9,135,106.9L135,106.9z M130.4,148c-1.6,0-2.5-1-2.4-3.1c0.9-11.4,2-22.8,4.8-29c0.9-1.9,1.4-2.8,2.1-2.8
			c0.6,0,1.4,0.8,2.7,2.5c4.9,6.6,5.6,18.2,5.7,28.1c0,2-1.1,3.1-3.1,3.1h2.5c-1.2,0.2-4.2,0.5-8.6,0.9c-1.2,0-2.2,0.2-3.2,0.3
			C130.7,148,130.6,148,130.4,148L130.4,148z"/><path class="st2" d="M177.2,148.8c0.1,0,0.2,0,0.2,0c0,0.1-0.1,0.2-0.1,0.3C177.3,149,177.2,148.9,177.2,148.8 M198.5,104.8
			c-1,0-2,0.5-2.7,1.4c-1.9,2.8-5.6,10.3-11.3,22.8l-6.3,14.3c-0.2,0.4-0.4,0.5-0.6,0.5c-0.5,0-1.2-0.6-1.7-1.8
			c-0.3-1.1-0.8-2.2-1.2-3.5l-2.9-7.7l-2.3-6.6c-2.3-6-3.2-10.3-4.3-14.8c-0.4-1.6-1.6-2.5-3.1-2.5c-0.2,0-0.4,0-0.6,0.1
			c-1.9,0.3-2.6,2-2.5,3.7c0.8,3.4,1.9,7.1,3.1,11c2.5,7.9,3.9,11.7,7.4,20.7c1.7,4.5,2.9,7.9,3.7,9.9c0,0,1.4,2.5,1.2,4
			c-0.9,7.9-0.9,17.9-0.3,30.1c0.2,6.6,0.3,11.3,0.3,13.7c0,1.7,1.4,3.1,3.1,3.1c1.7,0,3.1-1.4,3.1-3.1c0-2.9-0.2-7.7-0.5-14.7
			c-0.3-6.8-0.5-12.8-0.3-18c0.2-10.5,0.6-13,4.2-21.6c2.9-7.3,13.9-31.6,17.1-36.1c0.8-1.4,0.5-3.4-0.9-4.3
			C199.6,105,199,104.8,198.5,104.8L198.5,104.8z"/><path class="st2" d="M268.1,108.9c-2.5,0-5,0.8-7.4,2.6c-6.8,4.8-10.8,15.3-9.6,25.6c0.1,1.6,1.5,2.6,3.2,2.6c0.1,0,0.2,0,0.4,0
			c1.7-0.2,2.8-1.7,2.6-3.5c-0.5-4.2,0-8,1.4-11.7c2.3-6,6-9.4,9.4-9.4c0.7,0,1.4,0.1,2,0.4c2.5,1.1,4.6,4,6.5,8.8
			c3.9,9.3-1.1,18.8-10.8,23.3c0,0-1.4,0.3-2.3,0.5c-0.3,0-0.8,0.2-1.1,0.2c-1.1,0.2-2,0.6-2.8,1.1c-3.1,2.3-1.9,6.6,1.4,7.3
			c0.6,0,1.4,0,2.2-0.2c0,0,0.2,0,0.6,0c0.5,0,1.4,0.1,2.2,0.3c1.1,0.3,2.5,0.9,4,1.5c4.9,2.5,8.3,7.7,8.9,13.9
			c1.9,16.7-4.3,26.1-11.9,27.9c-0.9,0.2-1.8,0.3-2.7,0.3c-6.2,0-11.6-5.2-12.2-15c0-1.7-1.5-2.9-3.2-2.9s-2.9,1.5-2.9,3.2
			c0.7,12.6,8.7,20.7,18.3,20.7c1.3,0,2.7-0.2,4.1-0.5c11.3-2.5,18.7-15.4,16.7-34.4c-1.1-8.2-5.2-15.3-12.7-18.8
			c-0.9-0.5,0-1.7,1.9-3.1c8.5-6.6,12.3-17.3,8.2-27.8C278.9,113.2,273.6,108.9,268.1,108.9L268.1,108.9z"/><path class="st2" d="M310.7,104.3c-2.7,0-5.7,1.2-8.8,3.9c-8.8,7.7-13.9,21.1-15.3,40.1c-0.2,3.5,0,9.1,0.8,16.5
			c1.4,14.8,5.2,31.5,12.5,38.1c2.3,2.2,5,3.3,7.8,3.3c2.9,0,6.1-1.2,9.2-3.8c6.6-5.4,9.1-18.1,9.9-34.3c0.5-11.6,0.2-16.7,0-26.4
			c-0.2-4.8-0.2-8-0.9-13.4c-0.3-5.4-1.7-10.6-3.9-15.1C319.3,107.9,315.4,104.3,310.7,104.3L310.7,104.3z M307.7,200
			c-1.4,0-2.6-0.5-3.7-1.5c-2.6-2.6-5.1-7.4-7.1-14.5c-3.1-11.9-4.6-28.7-4.2-35.3c1.2-17.3,5.6-29.2,13.1-35.8
			c1.9-1.6,3.5-2.4,4.9-2.4c2.2,0,4,1.9,5.6,5.6c2.9,5.7,4.2,22.5,4.2,24.2c0.3,12.2,0.3,21.3,0,27.6c-0.6,15.9-3.1,26.4-7.4,29.6
			C311.1,199.2,309.3,200,307.7,200L307.7,200z"/>
</g>
<g id="yellow">
		<path class="st3" d="M41.8,20.4c-0.5,0-0.9,0.1-1.3,0.4c-1,0.6-0.8,1.7-1.2,2.8c-0.3,1-0.8,2.3-1.4,3.9c-0.5,1.4-0.4,2.1-3,2.2
			s-4.9,0-6.8,0.1c-0.3,0-0.4,0-0.6,0c-0.3,0-0.5,0-0.8,0c-1.4,0-2.1-0.4-1.4-2.9c0.4-1.4,0.9-2.7,1.3-3.7c0.4-1.5-0.7-2.5-1.9-2.5
			c-0.7,0-1.4,0.4-1.7,1.2c-0.5,1.5-1.2,3.6-1.9,6.2c-0.6,2.2-1.3,2.1-2.8,2.2c-4.1,0.4-7.2,1-9.1,1.7c-2,0.8-1.3,3.7,0.7,3.7
			c0.2,0,0.4,0,0.6-0.1c1.2-0.5,3.1-0.9,5.5-1.2c0.5-0.1,0.9-0.1,1.3-0.1c1.4,0,2.1,0.5,1.1,2.9L18,38.1c-0.5,1.5-1.3,3.7-2.4,6.6
			c-0.6,1.3-1.7,2.1-3.5,2.1c-1.1,0.1-2.2,0.1-3.2,0.1c-1.4,0-2.8-0.1-4-0.2c-0.1,0-0.2,0-0.2,0c-0.9,0-1.7,0.7-1.7,1.7
			c-0.1,1,0.6,1.9,1.7,1.9c1.5,0.1,3.3,0.3,5.1,0.3c1.9,0.1,2.7,1.2,2.1,3c-1.3,3.5-2.2,6.7-2.4,9.4c-0.1,1,0.5,1.9,1.5,2.1
			c0.1,0,0.2,0,0.3,0c0.9,0,1.7-0.6,1.8-1.6c0.4-3.2,1.7-7.2,3.6-11.8c0.4-0.9,1.2-1.3,2.6-1.4c2.2-0.1,4.8-0.4,7.7-0.8
			c0.7-0.1,1.2-0.2,1.6-0.2c1.3,0,1.5,0.6,0.7,3c-1.2,3.5-2.2,7.1-3,10.2c-0.1,0.9,0.4,2.1,1.4,2.2c0.1,0,0.2,0,0.3,0
			c0.8,0,1.8-0.5,1.9-1.4c1-3.7,2.2-8,3.7-12.6c0.4-1.4,1.3-2.2,2.8-2.3c3.3-0.4,6-0.6,7.8-0.8c1,0,1.8-0.9,1.8-1.9
			c-0.1-1-0.9-1.7-1.8-1.7c-0.1,0-0.1,0-0.2,0c-1.4,0.1-3.1,0.3-5,0.4c-0.4,0-0.8,0.1-1.1,0.1c-2,0-1.8-0.8-1.1-2.9l3-8
			c0-0.1,0.6-0.1,2.2-0.1c3-0.1,4.9-0.1,6-0.3c1,0,1.8-0.9,1.8-1.9c-0.1-1-0.9-1.7-1.8-1.7c-0.1,0-0.1,0-0.2,0c-0.8,0-1.8,0-3.2,0
			c-3,0-2.7,0-2.1-2.8c0.4-1.5,0.8-2.8,0.9-4C43.5,21.5,42.9,20.5,41.8,20.4L41.8,20.4z M22,46.1c-1.8,0-2.5-1.1-1.8-3
			c1.2-2.8,1.7-5,2.4-7.2c0.9-2.6,1.4-2.2,2.8-2.3c1.9-0.1,4.2-0.1,7.1-0.3c0.4,0,0.7-0.1,1.1-0.1c1.3,0,1.9,0.4,1.1,2.9L32.3,43
			c-0.5,1.3-0.5,1.8-3,2.2c-2.7,0.4-5.1,0.5-7.1,0.8C22.2,46.1,22.1,46.1,22,46.1L22,46.1z"/><path class="st3" d="M70.9,3.6c-0.8,0-1.6,0.1-2.4,0.3c-3.6,1-7.2,4.1-9.3,7.8C57.1,16,55.6,22,54.7,30.1c-1.5,13.2,0.9,39.6,6,49
			c2.2,4,5.4,5.9,8.6,5.9c1.3,0,2.5-0.3,3.7-0.9c4-1.9,6.9-6.4,7.6-11.2c0.1-1-0.5-1.9-1.5-2.1c-0.1,0-0.2,0-0.3,0
			c-0.9,0-1.7,0.6-1.8,1.6c-0.3,1.9-0.9,3.6-1.9,5c-1.3,1.8-3.5,4-5.9,4c-1.7,0-3.5-1.1-5.1-4.1c-2.4-4.2-4.1-11.8-5.3-22.6
			c-2.1-19.7-0.3-33.6,3.9-41.1c1.7-3.2,4-5.3,6.9-6c0.4-0.1,0.8-0.2,1.2-0.2c4.8,0,7.8,8.2,6.7,13.5c-0.1,1,0.4,2.1,1.4,2.2
			c0.1,0,0.2,0,0.3,0c0.9,0,1.8-0.5,1.9-1.4c0.8-3.7,0.1-7.8-2.1-12.3C77.3,5.5,74.3,3.6,70.9,3.6L70.9,3.6z"/><path class="st3" d="M102.4,4c-0.8,0-1.6,0.1-2.5,0.3c-3.7,0.9-7.7,4.2-9.6,7.7c-8.4,16.5-3.1,47.6,0.1,58.9
			c1.5,5.3,3.3,9.1,5.3,11.6c1.7,1.9,3.7,3,5.9,3c1.3,0,2.7-0.4,4.2-1.4c2.8-1.8,5-5.4,6.4-10.9c2.2-8.4,3.1-20.1,2.1-42.8
			c-0.3-11.6-1.2-15.4-1.9-17.6C110.5,7.6,107.3,4,102.4,4L102.4,4z M101.5,81.7c-1,0-1.9-0.6-3-1.7c-1.7-1.9-3.1-5.4-4.5-10.2
			c-3.2-11.3-8.2-41-0.4-56c1.4-2.7,4.5-5.4,7.1-5.9c0.6-0.1,1.1-0.2,1.6-0.2c3.1,0,5.2,2.3,6.5,6.4c1,2.8,1.5,6.3,1.8,10.3
			c0.4,16.1,0.5,25.8,0.1,32.3c-0.6,12.5-3,21.9-7.1,24.4C102.9,81.5,102.1,81.7,101.5,81.7L101.5,81.7z"/><path class="st3" d="M125.3,6.5L125.3,6.5c-1.1,0-1.9,0.8-1.9,1.7v0.3c0,4.8-0.1,11.4-0.3,20.1c-0.3,8.6-0.4,14.3-0.4,17
			c-0.1,14.8,0.3,27.3,1.2,37.3c0,0.5,0.3,0.9,0.6,1.3c0.3,0.3,0.6,0.4,0.9,0.4c0.2,0,0.5,0,0.7,0c0.8,0,1.3-0.2,2.2-0.3
			c0.4,0,0.6-0.3,1-0.6c7.7-8.9,13.9-21.2,16.3-33.4c3-14.5,0.5-26.4-7.3-35.7C134.1,9.3,130.8,6.6,125.3,6.5L125.3,6.5z
			 M128.4,77.4c-0.8,0-1.4-0.8-1.5-2.5c-0.4-8.4-0.6-18.1-0.5-29.4c0-3,0.1-8.4,0.3-16.5c0.1-6.3,0.3-11.4,0.3-15.4
			c0-2,0.5-2.7,1.2-2.7c0.5,0,1.1,0.3,1.8,0.7c1.8,1,3.6,2.7,5.5,5c13,15.7,7.7,40.9-4.9,59.3C129.9,76.9,129.1,77.4,128.4,77.4
			L128.4,77.4z"/><path class="st3" d="M161.6,3.7c-1.7,0-3.2,0.1-4.1,0.6c-1.5,1-2.1,3.2-2.4,5.8c-0.5,4.2-0.1,9.9,0.4,16.7
			c0.5,6.3,0.6,5.7,0.4,11.3c-0.1,3-0.4,6.4-0.5,10.7c-0.4,8.5-0.6,19.7-0.1,27.5c0.1,2.4,0.4,4.2,0.8,5.7c0.4,1.7,0.9,3.2,2.3,3.7
			c1.8,0.8,4.4,1.2,7.8,1.2c0.5,0,1,0,1.5,0c1.7-0.1,7.1-0.6,8.7-0.6c1,0,1.8-0.8,1.8-1.8s-0.8-1.8-1.8-1.8c-0.9,0-2.3,0-4.2,0.1
			c-2.6,0.2-5.1,0.5-7.4,0.5c-1,0-2-0.1-2.9-0.2c-1.4-0.3-1.9-1.2-1.9-2.4c0,0.4-0.1,1.2-0.2,1.2c0-0.1-0.1-0.4-0.1-0.6
			c-0.3-1.2-0.5-2.8-0.6-5c-0.5-7.1-0.4-17.1,0.3-29.7c0.1-2.6,1-2.6,2.7-2.6c1.8,0,3.2,0,4.5-0.1c1,0,1.8-0.9,1.8-1.9
			c-0.1-1-0.9-1.7-1.8-1.7c-0.1,0-0.1,0-0.2,0c-1,0.1-2.4,0.1-4,0.1c-1.8,0-2.7-0.3-2.6-2.8c0.3-5.3,0-4.9-0.4-10.8
			c-0.5-6.8-0.9-12.1-0.4-16.1c0-0.4,0.1-0.6,0.1-0.9c0.1-1.2,0.4-1.7,0.4-1.8c0-0.1,0-0.1,0.1-0.3h0.4c0.4-0.1,1-0.1,1.9-0.1
			c0.8,0,2.7,0,5.9,0.1c4.2,0.1,7.3,0.1,9,0.1c0.4,0,0.8,0,1.2,0c0.6,0,1.2-0.1,1.7-0.7c0.4-0.3,0.5-0.8,0.5-1.3
			c-0.1-1-0.9-1.7-1.8-1.7c-0.1,0-0.1,0-0.2,0c-0.5,0-3.9-0.1-10.2-0.3C164.6,3.7,162.5,3.7,161.6,3.7L161.6,3.7z"/><path class="st3" d="M188.3,7.2c-0.9,0-1.8,0.5-1.9,1.4c-0.4,1.4,0.1,4.1,1,8.6c0.8,3.7,1.8,8.5,3.1,14l2.3,9.6l2.3,9.3
			c0.6,2.4,1,4,1.2,4.9c0.1,0.6,1.4,5.8,3.7,15.4l2.2,9l0.8,3c0.1,0.4,0.3,0.6,0.3,0.9l0.3,0.3c0,0.1,0,0.3,0.1,0.4l0.5,0.5
			c0.4,0.2,0.7,0.4,1,0.4c0.2,0,0.5-0.1,0.8-0.2c1.2-0.5,3.3-13.8,4.8-19.8c1.2-4.9,2.4-11.8,4-21c1.4-9,2.4-15,3.1-18.1
			c0.3-1.2,0.8-3.6,1.7-7.2c0.8-3.1,1.3-5.5,1.5-7.5c0.1-1-0.5-1.9-1.5-2.1c-0.1,0-0.2,0-0.3,0c-0.9,0-1.7,0.6-1.8,1.6
			c-0.3,1.8-0.8,4.1-1.5,7.1c-0.9,3.7-1.4,6.2-1.7,7.3c-0.6,3.2-1.7,9.3-3.1,18.3c-1.5,9-2.8,15.9-4,20.8c-0.3,1.3-0.5,2.6-0.8,3.7
			c-0.5,2.9-1,4-1.4,4c-0.5,0-1-1.2-1.4-2.4l-3.6-15c-0.1-0.9-0.5-2.6-1.2-5l-2.3-9.1l-2.3-9.6c-1.4-5.8-2.4-10.5-3.1-14
			c-0.4-2.1-0.8-3.7-0.9-4.9c-0.1-1.2-0.3-1.9-0.1-2.2c0.1-1-0.4-2.1-1.4-2.2C188.5,7.2,188.4,7.2,188.3,7.2L188.3,7.2z"/><path class="st3" d="M241.5,6H235c-1.9,0.1-3.5,0.3-4.5,0.9s-1.4,2.3-1.8,4c-0.3,1.7-0.5,3.7-0.6,6.4c-0.5,9.1-0.5,22.8-0.3,38.2
			C228,63.2,228,67,228,67.2c0,0.1,0,1.3,0,3.3c-0.1,2.1-0.1,3.9-0.1,5.3c0,2.2,0,3.9,0.1,5.1c0,0.8,0,1.4,0.1,1.9
			c0.1,0.6,0.4,1.4,1,1.9c0.1,0.1,0.3,0.3,0.4,0.3c0.7,0.5,1.3,0.5,1.9,0.5c0.2,0,0.4,0,0.7,0c0.4,0,0.8,0,1.2,0
			c1.4,0.1,3.3,0.1,5.9,0.1c1.7,0,3.6,0,5.9-0.1c2.3-0.1,3.6-0.1,3.9-0.1c1,0,1.8-0.8,1.8-1.8s-0.8-1.8-1.8-1.8c-0.3,0-1.5,0-3.9,0
			c-2.4,0.1-4.4,0.1-6,0.1H235c-1.2,0-1.8-0.1-2.4-0.1c-0.3,0-0.5,0-0.8,0c0-0.4,0-0.8-0.1-1.2c-0.1-1.2-0.1-2.8-0.1-4.9
			c0-1.4,0-3.2,0.1-5.3c0-2.1,0-3.2,0-3.3c0-0.6,0-3.6-0.1-9.1c-0.1-4.5-0.1-8.4-0.1-12c0-1.5,0.8-2.6,2.2-2.6
			c0.6,0,1.4-0.1,2.2-0.1c1.9,0,3.1,0,3.5-0.1c1,0,1.8-0.9,1.8-1.9c-0.1-1-0.9-1.7-1.8-1.7c-0.1,0-0.1,0-0.2,0c-0.6,0-3,0-5,0.1
			c-0.1,0-0.2,0-0.3,0c-1.5,0-2.3-0.9-2.3-2.5v-1.5c0.1-7.7,0.3-13.8,0.5-18.3c0.1-2.6,0.4-4.6,0.6-6c0,0,0.5-1.2,1.4-1.8
			c0.4,0,0.9,0,1.4,0c0.7-0.1,1.6-0.1,2.6-0.1s2.2,0,3.5,0.1c3.1,0.1,9.8,0.4,10.8,0.4c0.5,0,0.9-0.1,1.3-0.5
			c0.4-0.4,0.5-0.8,0.5-1.3c0-1-0.8-1.8-1.8-1.8c-0.1,0-0.4,0-0.6,0C249.7,6.4,244.1,6.1,241.5,6L241.5,6z"/><path class="st3" d="M262.9,5.8c-1.6,0-2.9,1.5-2.3,3.7c0.1,0.3,0.1,0.5,0.3,0.6l0.1,0.4c0.1,0.1,0.1,0.1,0.1,0.3
			c0.4,3.7,0.6,8.4,0.6,14.1c0,4.6-0.1,11.6-0.4,20.8c-0.4,9.3-0.5,16.2-0.5,20.8c0,0.4,0,2.1-0.1,4.9c-0.1,5.8-0.1,8.9,0.8,12.3
			c0.1,0.9,1.1,1.4,2,1.4c0.1,0,0.2,0,0.3,0c0.9-0.1,1.4-1.3,1.3-2.2c-0.5-2.4-0.8-5.8-0.8-8c0-1,0-2.4,0.1-4.2c0-1.8,0-3.2,0-4.2
			c0-4.6,0.1-11.6,0.5-20.8c0.3-9.3,0.4-16.2,0.4-20.8c0-2.2,0-4.2-0.1-6c0-2.1-0.1-5.2,0.4-5.2c0.1,0,0.3,0.2,0.5,0.6
			c0.3,0.4,0.6,1.2,1,1.9c3.2,6,4.2,7.6,8,12.1c1.7,2.3,1.5,1.8,0.3,3.7c-2.1,3-3.7,5.5-5.3,7.7c-1.1,1.5,0.1,3.1,1.4,3.1
			c0.5,0,1-0.2,1.4-0.7c1.4-1.8,2.7-3.9,4.4-6.3c0.8-1.3,1.3-1.9,1.7-1.9c0.4,0,0.9,0.6,1.9,1.8c1.7,2.2,3.1,4,4.1,5.5
			c0.4,0.6,1,0.9,1.5,0.9c1.3,0,2.6-1.5,1.6-2.9c-1.3-1.9-3.3-4.5-5.7-7.6c-1.5-2.1-1.8-1.3-0.4-3.6l1-1.7c2.4-4,4.8-7.5,6.7-10.2
			c1.1-1.5,2.4-2.4,3-2.4c0.2,0,0.3,0.1,0.3,0.3c0,0.6,0.1,1.2,0.1,1.8c0,0.8,0.1,3.6,0.5,8.5c0.1,4.2,0.4,10.3,0.8,18.3
			c0.5,16.1,1.2,28.7,2.7,40.1c0,0.9,0.9,1.6,1.8,1.6c0.1,0,0.2,0,0.3,0c1,0,1.7-1,1.5-2.1c-1.4-11.4-2.1-23.8-2.7-39.7
			c-0.1-5.7-0.4-11.8-0.8-18.4c-0.5-9.8-0.5-11.2-0.9-13.6c-0.1-0.8-0.1-1.4-0.3-1.8c0-0.7,0-0.9,0-1.1l-0.3-0.5
			c-0.3-0.4-0.5-0.6-0.9-0.8C294.4,6.1,294,6,293.7,6c-1.1,0-1.8,0.9-2.2,1.7c-0.1,0.3-0.3,0.5-0.4,0.6C291,8.5,291,8.7,291,8.7
			c0,0.1,0,0.1-0.1,0.1c-3.1,3.5-6.7,8.6-10.9,15.6c-0.8,1.3-1.2,1.9-1.6,1.9s-0.8-0.8-1.8-2c-2.3-2.8-3.5-4.6-6-9.9
			c-1.2-2.1-2.2-3.7-3.2-5.1c-0.8-0.9-1.2-1.4-1.5-1.8c-0.1-0.3-0.4-0.5-0.5-0.6C264.5,6.1,263.7,5.8,262.9,5.8L262.9,5.8z"/><path class="st3" d="M313.6,4.7c-1.2,0-2.4,0.2-3.7,0.5c-0.5,0.1-0.9,0.5-1,0.9c-0.1,0.3-0.3,0.6-0.3,0.9
			c-0.1,1.3,0.6,2.1,0.4,3.3c-0.6,3.9-0.8,8.5-0.8,10.9c0,2.8,0.6,12.2,0.8,13.2c0.4,2.7,0.4,10.9,0.1,24.8
			c-0.4,13.9-0.5,22.1-0.5,24.8c0,0,0.4,1.5,0.4,2.7v-1.4c0.1,0.9,1,1.4,1.9,1.4c0.1,0,0.2,0,0.3,0c0.4-0.1,1.2-0.3,2.6-0.5
			c2.6-0.4,4.5-1,6.2-1.7c3.1-1.4,5.8-3.5,8-6.2c4.5-5.4,6.4-11.7,5.9-18.8c-0.6-7.1-6.4-16.1-12.2-19c-0.3-0.1-0.4-0.4-0.1-0.4
			c0.1-0.1,0.1-0.1,0.3-0.3c2.4-2.3,3.9-5.4,4.2-9.1c0.6-6.8,0-12.6-1.7-17.5C322.3,8.1,318.8,4.7,313.6,4.7L313.6,4.7z M314.4,82.3
			c-1.3,0-2.2-0.9-2-2.4c0-3.5,0.1-7.8,0.3-13.2c0.4-13.9,0.5-18.5,0-32.4c0-0.5-0.1-2.6-0.3-6.2c-0.3-3.5-0.4-5.9-0.4-7.2
			c0-2.6,0.1-8.5,1.2-12.1V8.5c0,0,0.3-0.1,0.9-0.1c0.5,0,1.1,0.1,1.8,0.4c1.9,0.6,3.7,2.4,5,5.9c1.5,4.4,2.1,9.6,1.5,15.9
			c-0.3,2.7-1.3,4.9-3.2,6.6c-0.6,0.6-1.7,1.3-3,1.9c-0.4,0.1-0.8,0.4-1.2,0.5l-0.4,0.1c-0.1,0.1-0.1,0.1-0.3,0.1l-0.1,0.1
			c-0.1,0-0.1,0-0.3,0.1l-0.4,0.4c-0.4,0.5-0.4,1-0.3,1.7c0.7,1.6,1.9,2,3.4,2c0.4,0,0.7,0,1.1,0c0.9-0.1,1.4-0.1,1.5-0.1
			c0.2-0.1,0.3-0.1,0.4-0.1s0.2,0,0.2,0.1c2.2,1.2,4.8,3.9,7.5,8.2c6,9.6,1.5,24.3-9.1,29.1c-0.6,0.3-1.7,0.5-3.2,0.9
			C314.9,82.3,314.6,82.3,314.4,82.3L314.4,82.3z"/><path class="st3" d="M354.2,6h-6.4c-1.9,0.1-3.5,0.3-4.5,0.9s-1.4,2.3-1.8,4c-0.3,1.7-0.5,3.7-0.6,6.4c-0.5,9.1-0.5,22.8-0.3,38.2
			c0.1,7.7,0.1,11.6,0.1,11.7s0,1.3,0,3.3c-0.1,2.1-0.1,3.9-0.1,5.3c0,2.2,0,3.9,0.1,5.1c0,0.8,0,1.4,0.1,1.9c0.1,0.6,0.4,1.4,1,1.9
			c0.1,0.1,0.3,0.3,0.4,0.3c0.7,0.5,1.3,0.5,1.9,0.5c0.2,0,0.4,0,0.7,0c0.4,0,0.8,0,1.2,0c1.4,0.1,3.3,0.1,5.9,0.1
			c1.7,0,3.6,0,5.9-0.1s3.6-0.1,3.9-0.1c1,0,1.8-0.8,1.8-1.8s-0.8-1.8-1.8-1.8c-0.3,0-1.5,0-3.9,0c-2.4,0.1-4.4,0.1-6,0.1h-4.1
			c-1.2,0-1.8-0.1-2.4-0.1c-0.3,0-0.5,0-0.8,0c0-0.4,0-0.8-0.1-1.2c-0.1-1.2-0.1-2.8-0.1-4.9c0-1.4,0-3.2,0.1-5.3c0-2.1,0-3.2,0-3.3
			c0-0.6,0-3.6-0.1-9.1c-0.1-4.5-0.1-8.4-0.1-12c0-1.5,0.8-2.6,2.2-2.6c0.6,0,1.4-0.1,2.2-0.1c1.9,0,3.1,0,3.5-0.1
			c1,0,1.8-0.9,1.8-1.9c-0.1-1-0.9-1.7-1.8-1.7c-0.1,0-0.1,0-0.2,0c-0.6,0-3,0-5,0.1c-0.1,0-0.2,0-0.3,0c-1.5,0-2.3-0.9-2.3-2.5
			v-1.5c0.1-7.7,0.3-13.8,0.5-18.3c0.1-2.6,0.4-4.6,0.6-6c0,0,0.5-1.2,1.4-1.8c0.4,0,0.9,0,1.4,0c0.7-0.1,1.6-0.1,2.6-0.1
			s2.2,0,3.5,0.1c3.1,0.1,9.8,0.4,10.8,0.4c0.5,0,0.9-0.1,1.3-0.5s0.5-0.8,0.5-1.3c0-1-0.8-1.8-1.8-1.8C364.1,6.4,357.2,6.1,354.2,6
			L354.2,6z"/><path class="st3" d="M379.2,5.3c-3.1,0-6.2,0.6-9.1,1.9c-1.9,0.9-1,3.5,0.7,3.5c0.3,0,0.5-0.1,0.8-0.2c0.1,0,0.3-0.1,0.4-0.1
			c0.5-0.2,1-0.3,1.4-0.3c0.9,0,1.5,0.6,1.6,2.5c0.9,18.6,0.3,26-0.1,45.9c-0.3,10.4-0.4,18.6-0.4,24.6c0,1,0.8,1.8,1.8,1.8
			s1.8-0.8,1.8-1.8c0-2.3,0.3-14.3,0.8-35.7c0-1.5,0.6-2.6,2.1-3.1l0.4-0.1c0.6-0.2,1.1-0.3,1.6-0.3c0.7,0,1.3,0.2,1.9,0.9
			c3.3,3.1,4.8,8,5.3,15.2c0.1,0.9,0.3,2.6,0.4,5.1c0.1,2.7,0.3,4.6,0.4,6c0.3,2.7,1,7.2,2.4,9.9c1.2,2.6,2.9,3.7,4.5,3.7
			s3.3-1,4.7-2.8c1.1-1.4-0.1-3-1.4-3c-0.5,0-1,0.2-1.4,0.7c-0.1,0.1-0.3,0.3-0.4,0.4c-0.5,0.5-1,0.8-1.7,0.9
			c-0.1-0.1-0.1-0.3-0.3-0.4c-0.3-0.3-0.5-0.6-0.8-1c-0.6-1.2-1-2.7-1.4-4.4c-0.6-3.5-0.8-4.9-1-10c-0.1-2.6-0.3-4.4-0.4-5.4
			c-0.6-6.9-2.2-12.2-4.8-15.8c-1-1.4-0.9-2.4,0.5-3.2c0.8-0.4,1.5-0.8,2.3-1.3c5-3.1,8-7.2,8.9-12.2c1.5-8.2-2.4-14.9-9.5-18.5
			C387.6,6.4,383.4,5.3,379.2,5.3L379.2,5.3z M380.8,40.1c-1.1,0-1.9-0.9-1.9-2.3c0.3-9.9,0.1-18.6-0.1-26.1
			c-0.1-1.6,0.6-2.7,2.2-2.7c0.1,0,0.2,0,0.3,0c2.8,0.3,5.5,1,8.2,2.6c5.7,3.1,8.7,8.2,7.6,14.5c-1.4,7.2-6.7,10.4-15.2,13.6
			C381.6,40,381.1,40.1,380.8,40.1L380.8,40.1z"/><path class="st3" d="M88.1,105.6c-1.7,0-3.1,1.4-3.1,3.1c0,0,0.2,1.8-0.2,3.4c-0.9,4.9-1.2,11.4-1.1,20.5c0,10.3,0,13.3,0.6,25.1
			c0.3,6,0.5,9.1,0.5,9.4c0.2,1.7,0,7.3-0.2,16.7c-0.2,7.4,0.2,13.3,0.9,17.6c0.2,0.8,0.6,1.4,1.4,1.9c0.6,0.5,1.2,0.6,1.9,0.6
			c1.5,0,2.2-0.5,3.1-0.6c0.5,0,0.9-0.2,1.2-0.3c11.1-5.6,21.6-29.6,23.6-52C119.1,125.7,110.9,105.6,88.1,105.6L88.1,105.6z
			 M92.9,194.7c-1.1,0-2-1-2-2.7c-0.2-2.3-0.2-5.1,0-8c0.2-9.7,0.3-15.4,0.2-17.1c0-0.5-0.2-3.7-0.5-9.6c-0.3-5.9-0.5-10.2-0.5-12.8
			c-0.2-2.6-0.2-6.5-0.3-11.4c-0.2-7.9,0.2-13.6,0.8-18.2c0.2-1.5,1.2-2.5,2.5-2.5c0.3,0,0.7,0.1,1,0.2c12.7,3.1,18.4,16.7,16.5,38
			c-1.7,17.9-8.6,35.3-15.7,43.2C94.2,194.4,93.5,194.7,92.9,194.7L92.9,194.7z"/><path class="st3" d="M135,106.9c-3.1,0-5.9,2.5-7.7,6.4c-1.9,4-3.1,8.9-3.9,15c-2.9,26.5-4,50.6-2.9,72.4c0,1.7,1.5,2.9,3.2,2.9
			s2.9-1.5,2.9-3.2c-0.6-13.6-0.5-27.8,0.5-42.7c0.2-1.9,1.1-3.1,2.8-3.2c1.4-0.3,2.9-0.3,4.6-0.5c2.3-0.2,4-0.5,5.6-0.6
			c0.1,0,0.3,0,0.4,0c1.8,0,2.8,0.9,2.8,2.6c0,0.9-0.2,2-0.2,3.1c-0.6,24.1-0.5,36.9,6.2,44.3c0.6,0.7,1.5,1.1,2.4,1.1
			c0.7,0,1.4-0.2,1.9-0.8c1.2-1.1,1.5-3.1,0.3-4.3c-4.8-5.4-5.2-16.8-4.6-40.1c0.6-23.6,0-38-6.8-47.2
			C140,108.4,137.4,106.9,135,106.9L135,106.9z M130.4,148c-1.6,0-2.5-1-2.4-3.1c0.9-11.4,2-22.8,4.8-29c0.9-1.9,1.4-2.8,2.1-2.8
			c0.6,0,1.4,0.8,2.7,2.5c4.9,6.6,5.6,18.2,5.7,28.1c0,2-1.1,3.1-3.1,3.1h2.5c-1.2,0.2-4.2,0.5-8.6,0.9c-1.2,0-2.2,0.2-3.2,0.3
			C130.7,148,130.6,148,130.4,148L130.4,148z"/><path class="st3" d="M177.2,148.8c0.1,0,0.2,0,0.2,0c0,0.1-0.1,0.2-0.1,0.3C177.3,149,177.2,148.9,177.2,148.8 M198.5,104.8
			c-1,0-2,0.5-2.7,1.4c-1.9,2.8-5.6,10.3-11.3,22.8l-6.3,14.3c-0.2,0.4-0.4,0.5-0.6,0.5c-0.5,0-1.2-0.6-1.7-1.8
			c-0.3-1.1-0.8-2.2-1.2-3.5l-2.9-7.7l-2.3-6.6c-2.3-6-3.2-10.3-4.3-14.8c-0.4-1.6-1.6-2.5-3.1-2.5c-0.2,0-0.4,0-0.6,0.1
			c-1.9,0.3-2.6,2-2.5,3.7c0.8,3.4,1.9,7.1,3.1,11c2.5,7.9,3.9,11.7,7.4,20.7c1.7,4.5,2.9,7.9,3.7,9.9c0,0,1.4,2.5,1.2,4
			c-0.9,7.9-0.9,17.9-0.3,30.1c0.2,6.6,0.3,11.3,0.3,13.7c0,1.7,1.4,3.1,3.1,3.1c1.7,0,3.1-1.4,3.1-3.1c0-2.9-0.2-7.7-0.5-14.7
			c-0.3-6.8-0.5-12.8-0.3-18c0.2-10.5,0.6-13,4.2-21.6c2.9-7.3,13.9-31.6,17.1-36.1c0.8-1.4,0.5-3.4-0.9-4.3
			C199.6,105,199,104.8,198.5,104.8L198.5,104.8z"/><path class="st3" d="M268.1,108.9c-2.5,0-5,0.8-7.4,2.6c-6.8,4.8-10.8,15.3-9.6,25.6c0.1,1.6,1.5,2.6,3.2,2.6c0.1,0,0.2,0,0.4,0
			c1.7-0.2,2.8-1.7,2.6-3.5c-0.5-4.2,0-8,1.4-11.7c2.3-6,6-9.4,9.4-9.4c0.7,0,1.4,0.1,2,0.4c2.5,1.1,4.6,4,6.5,8.8
			c3.9,9.3-1.1,18.8-10.8,23.3c0,0-1.4,0.3-2.3,0.5c-0.3,0-0.8,0.2-1.1,0.2c-1.1,0.2-2,0.6-2.8,1.1c-3.1,2.3-1.9,6.6,1.4,7.3
			c0.6,0,1.4,0,2.2-0.2c0,0,0.2,0,0.6,0c0.5,0,1.4,0.1,2.2,0.3c1.1,0.3,2.5,0.9,4,1.5c4.9,2.5,8.3,7.7,8.9,13.9
			c1.9,16.7-4.3,26.1-11.9,27.9c-0.9,0.2-1.8,0.3-2.7,0.3c-6.2,0-11.6-5.2-12.2-15c0-1.7-1.5-2.9-3.2-2.9s-2.9,1.5-2.9,3.2
			c0.7,12.6,8.7,20.7,18.3,20.7c1.3,0,2.7-0.2,4.1-0.5c11.3-2.5,18.7-15.4,16.7-34.4c-1.1-8.2-5.2-15.3-12.7-18.8
			c-0.9-0.5,0-1.7,1.9-3.1c8.5-6.6,12.3-17.3,8.2-27.8C278.9,113.2,273.6,108.9,268.1,108.9L268.1,108.9z"/><path class="st3" d="M310.7,104.3c-2.7,0-5.7,1.2-8.8,3.9c-8.8,7.7-13.9,21.1-15.3,40.1c-0.2,3.5,0,9.1,0.8,16.5
			c1.4,14.8,5.2,31.5,12.5,38.1c2.3,2.2,5,3.3,7.8,3.3c2.9,0,6.1-1.2,9.2-3.8c6.6-5.4,9.1-18.1,9.9-34.3c0.5-11.6,0.2-16.7,0-26.4
			c-0.2-4.8-0.2-8-0.9-13.4c-0.3-5.4-1.7-10.6-3.9-15.1C319.3,107.9,315.4,104.3,310.7,104.3L310.7,104.3z M307.7,200
			c-1.4,0-2.6-0.5-3.7-1.5c-2.6-2.6-5.1-7.4-7.1-14.5c-3.1-11.9-4.6-28.7-4.2-35.3c1.2-17.3,5.6-29.2,13.1-35.8
			c1.9-1.6,3.5-2.4,4.9-2.4c2.2,0,4,1.9,5.6,5.6c2.9,5.7,4.2,22.5,4.2,24.2c0.3,12.2,0.3,21.3,0,27.6c-0.6,15.9-3.1,26.4-7.4,29.6
			C311.1,199.2,309.3,200,307.7,200L307.7,200z"/>
</g>
<g id="yellow-light">
		<path class="st4" d="M41.8,20.4c-0.5,0-0.9,0.1-1.3,0.4c-1,0.6-0.8,1.7-1.2,2.8c-0.3,1-0.8,2.3-1.4,3.9c-0.5,1.4-0.4,2.1-3,2.2
			s-4.9,0-6.8,0.1c-0.3,0-0.4,0-0.6,0c-0.3,0-0.5,0-0.8,0c-1.4,0-2.1-0.4-1.4-2.9c0.4-1.4,0.9-2.7,1.3-3.7c0.4-1.5-0.7-2.5-1.9-2.5
			c-0.7,0-1.4,0.4-1.7,1.2c-0.5,1.5-1.2,3.6-1.9,6.2c-0.6,2.2-1.3,2.1-2.8,2.2c-4.1,0.4-7.2,1-9.1,1.7c-2,0.8-1.3,3.7,0.7,3.7
			c0.2,0,0.4,0,0.6-0.1c1.2-0.5,3.1-0.9,5.5-1.2c0.5-0.1,0.9-0.1,1.3-0.1c1.4,0,2.1,0.5,1.1,2.9L18,38.1c-0.5,1.5-1.3,3.7-2.4,6.6
			c-0.6,1.3-1.7,2.1-3.5,2.1c-1.1,0.1-2.2,0.1-3.2,0.1c-1.4,0-2.8-0.1-4-0.2c-0.1,0-0.2,0-0.2,0c-0.9,0-1.7,0.7-1.7,1.7
			c-0.1,1,0.6,1.9,1.7,1.9c1.5,0.1,3.3,0.3,5.1,0.3c1.9,0.1,2.7,1.2,2.1,3c-1.3,3.5-2.2,6.7-2.4,9.4c-0.1,1,0.5,1.9,1.5,2.1
			c0.1,0,0.2,0,0.3,0c0.9,0,1.7-0.6,1.8-1.6c0.4-3.2,1.7-7.2,3.6-11.8c0.4-0.9,1.2-1.3,2.6-1.4c2.2-0.1,4.8-0.4,7.7-0.8
			c0.7-0.1,1.2-0.2,1.6-0.2c1.3,0,1.5,0.6,0.7,3c-1.2,3.5-2.2,7.1-3,10.2c-0.1,0.9,0.4,2.1,1.4,2.2c0.1,0,0.2,0,0.3,0
			c0.8,0,1.8-0.5,1.9-1.4c1-3.7,2.2-8,3.7-12.6c0.4-1.4,1.3-2.2,2.8-2.3c3.3-0.4,6-0.6,7.8-0.8c1,0,1.8-0.9,1.8-1.9
			c-0.1-1-0.9-1.7-1.8-1.7c-0.1,0-0.1,0-0.2,0c-1.4,0.1-3.1,0.3-5,0.4c-0.4,0-0.8,0.1-1.1,0.1c-2,0-1.8-0.8-1.1-2.9l3-8
			c0-0.1,0.6-0.1,2.2-0.1c3-0.1,4.9-0.1,6-0.3c1,0,1.8-0.9,1.8-1.9c-0.1-1-0.9-1.7-1.8-1.7c-0.1,0-0.1,0-0.2,0c-0.8,0-1.8,0-3.2,0
			c-3,0-2.7,0-2.1-2.8c0.4-1.5,0.8-2.8,0.9-4C43.5,21.5,42.9,20.5,41.8,20.4L41.8,20.4z M22,46.1c-1.8,0-2.5-1.1-1.8-3
			c1.2-2.8,1.7-5,2.4-7.2c0.9-2.6,1.4-2.2,2.8-2.3c1.9-0.1,4.2-0.1,7.1-0.3c0.4,0,0.7-0.1,1.1-0.1c1.3,0,1.9,0.4,1.1,2.9L32.3,43
			c-0.5,1.3-0.5,1.8-3,2.2c-2.7,0.4-5.1,0.5-7.1,0.8C22.2,46.1,22.1,46.1,22,46.1L22,46.1z"/><path class="st4" d="M70.9,3.6c-0.8,0-1.6,0.1-2.4,0.3c-3.6,1-7.2,4.1-9.3,7.8C57.1,16,55.6,22,54.7,30.1c-1.5,13.2,0.9,39.6,6,49
			c2.2,4,5.4,5.9,8.6,5.9c1.3,0,2.5-0.3,3.7-0.9c4-1.9,6.9-6.4,7.6-11.2c0.1-1-0.5-1.9-1.5-2.1c-0.1,0-0.2,0-0.3,0
			c-0.9,0-1.7,0.6-1.8,1.6c-0.3,1.9-0.9,3.6-1.9,5c-1.3,1.8-3.5,4-5.9,4c-1.7,0-3.5-1.1-5.1-4.1c-2.4-4.2-4.1-11.8-5.3-22.6
			c-2.1-19.7-0.3-33.6,3.9-41.1c1.7-3.2,4-5.3,6.9-6c0.4-0.1,0.8-0.2,1.2-0.2c4.8,0,7.8,8.2,6.7,13.5c-0.1,1,0.4,2.1,1.4,2.2
			c0.1,0,0.2,0,0.3,0c0.9,0,1.8-0.5,1.9-1.4c0.8-3.7,0.1-7.8-2.1-12.3C77.3,5.5,74.3,3.6,70.9,3.6L70.9,3.6z"/><path class="st4" d="M102.4,4c-0.8,0-1.6,0.1-2.5,0.3c-3.7,0.9-7.7,4.2-9.6,7.7c-8.4,16.5-3.1,47.6,0.1,58.9
			c1.5,5.3,3.3,9.1,5.3,11.6c1.7,1.9,3.7,3,5.9,3c1.3,0,2.7-0.4,4.2-1.4c2.8-1.8,5-5.4,6.4-10.9c2.2-8.4,3.1-20.1,2.1-42.8
			c-0.3-11.6-1.2-15.4-1.9-17.6C110.5,7.6,107.3,4,102.4,4L102.4,4z M101.5,81.7c-1,0-1.9-0.6-3-1.7c-1.7-1.9-3.1-5.4-4.5-10.2
			c-3.2-11.3-8.2-41-0.4-56c1.4-2.7,4.5-5.4,7.1-5.9c0.6-0.1,1.1-0.2,1.6-0.2c3.1,0,5.2,2.3,6.5,6.4c1,2.8,1.5,6.3,1.8,10.3
			c0.4,16.1,0.5,25.8,0.1,32.3c-0.6,12.5-3,21.9-7.1,24.4C102.9,81.5,102.1,81.7,101.5,81.7L101.5,81.7z"/><path class="st4" d="M125.3,6.5L125.3,6.5c-1.1,0-1.9,0.8-1.9,1.7v0.3c0,4.8-0.1,11.4-0.3,20.1c-0.3,8.6-0.4,14.3-0.4,17
			c-0.1,14.8,0.3,27.3,1.2,37.3c0,0.5,0.3,0.9,0.6,1.3c0.3,0.3,0.6,0.4,0.9,0.4c0.2,0,0.5,0,0.7,0c0.8,0,1.3-0.2,2.2-0.3
			c0.4,0,0.6-0.3,1-0.6c7.7-8.9,13.9-21.2,16.3-33.4c3-14.5,0.5-26.4-7.3-35.7C134.1,9.3,130.8,6.6,125.3,6.5L125.3,6.5z
			 M128.4,77.4c-0.8,0-1.4-0.8-1.5-2.5c-0.4-8.4-0.6-18.1-0.5-29.4c0-3,0.1-8.4,0.3-16.5c0.1-6.3,0.3-11.4,0.3-15.4
			c0-2,0.5-2.7,1.2-2.7c0.5,0,1.1,0.3,1.8,0.7c1.8,1,3.6,2.7,5.5,5c13,15.7,7.7,40.9-4.9,59.3C129.9,76.9,129.1,77.4,128.4,77.4
			L128.4,77.4z"/><path class="st4" d="M161.6,3.7c-1.7,0-3.2,0.1-4.1,0.6c-1.5,1-2.1,3.2-2.4,5.8c-0.5,4.2-0.1,9.9,0.4,16.7
			c0.5,6.3,0.6,5.7,0.4,11.3c-0.1,3-0.4,6.4-0.5,10.7c-0.4,8.5-0.6,19.7-0.1,27.5c0.1,2.4,0.4,4.2,0.8,5.7c0.4,1.7,0.9,3.2,2.3,3.7
			c1.8,0.8,4.4,1.2,7.8,1.2c0.5,0,1,0,1.5,0c1.7-0.1,7.1-0.6,8.7-0.6c1,0,1.8-0.8,1.8-1.8s-0.8-1.8-1.8-1.8c-0.9,0-2.3,0-4.2,0.1
			c-2.6,0.2-5.1,0.5-7.4,0.5c-1,0-2-0.1-2.9-0.2c-1.4-0.3-1.9-1.2-1.9-2.4c0,0.4-0.1,1.2-0.2,1.2c0-0.1-0.1-0.4-0.1-0.6
			c-0.3-1.2-0.5-2.8-0.6-5c-0.5-7.1-0.4-17.1,0.3-29.7c0.1-2.6,1-2.6,2.7-2.6c1.8,0,3.2,0,4.5-0.1c1,0,1.8-0.9,1.8-1.9
			c-0.1-1-0.9-1.7-1.8-1.7c-0.1,0-0.1,0-0.2,0c-1,0.1-2.4,0.1-4,0.1c-1.8,0-2.7-0.3-2.6-2.8c0.3-5.3,0-4.9-0.4-10.8
			c-0.5-6.8-0.9-12.1-0.4-16.1c0-0.4,0.1-0.6,0.1-0.9c0.1-1.2,0.4-1.7,0.4-1.8c0-0.1,0-0.1,0.1-0.3h0.4c0.4-0.1,1-0.1,1.9-0.1
			c0.8,0,2.7,0,5.9,0.1c4.2,0.1,7.3,0.1,9,0.1c0.4,0,0.8,0,1.2,0c0.6,0,1.2-0.1,1.7-0.7c0.4-0.3,0.5-0.8,0.5-1.3
			c-0.1-1-0.9-1.7-1.8-1.7c-0.1,0-0.1,0-0.2,0c-0.5,0-3.9-0.1-10.2-0.3C164.6,3.7,162.5,3.7,161.6,3.7L161.6,3.7z"/><path class="st4" d="M188.3,7.2c-0.9,0-1.8,0.5-1.9,1.4c-0.4,1.4,0.1,4.1,1,8.6c0.8,3.7,1.8,8.5,3.1,14l2.3,9.6l2.3,9.3
			c0.6,2.4,1,4,1.2,4.9c0.1,0.6,1.4,5.8,3.7,15.4l2.2,9l0.8,3c0.1,0.4,0.3,0.6,0.3,0.9l0.3,0.3c0,0.1,0,0.3,0.1,0.4l0.5,0.5
			c0.4,0.2,0.7,0.4,1,0.4c0.2,0,0.5-0.1,0.8-0.2c1.2-0.5,3.3-13.8,4.8-19.8c1.2-4.9,2.4-11.8,4-21c1.4-9,2.4-15,3.1-18.1
			c0.3-1.2,0.8-3.6,1.7-7.2c0.8-3.1,1.3-5.5,1.5-7.5c0.1-1-0.5-1.9-1.5-2.1c-0.1,0-0.2,0-0.3,0c-0.9,0-1.7,0.6-1.8,1.6
			c-0.3,1.8-0.8,4.1-1.5,7.1c-0.9,3.7-1.4,6.2-1.7,7.3c-0.6,3.2-1.7,9.3-3.1,18.3c-1.5,9-2.8,15.9-4,20.8c-0.3,1.3-0.5,2.6-0.8,3.7
			c-0.5,2.9-1,4-1.4,4c-0.5,0-1-1.2-1.4-2.4l-3.6-15c-0.1-0.9-0.5-2.6-1.2-5l-2.3-9.1l-2.3-9.6c-1.4-5.8-2.4-10.5-3.1-14
			c-0.4-2.1-0.8-3.7-0.9-4.9c-0.1-1.2-0.3-1.9-0.1-2.2c0.1-1-0.4-2.1-1.4-2.2C188.5,7.2,188.4,7.2,188.3,7.2L188.3,7.2z"/><path class="st4" d="M241.5,6H235c-1.9,0.1-3.5,0.3-4.5,0.9s-1.4,2.3-1.8,4c-0.3,1.7-0.5,3.7-0.6,6.4c-0.5,9.1-0.5,22.8-0.3,38.2
			C228,63.2,228,67,228,67.2c0,0.1,0,1.3,0,3.3c-0.1,2.1-0.1,3.9-0.1,5.3c0,2.2,0,3.9,0.1,5.1c0,0.8,0,1.4,0.1,1.9
			c0.1,0.6,0.4,1.4,1,1.9c0.1,0.1,0.3,0.3,0.4,0.3c0.7,0.5,1.3,0.5,1.9,0.5c0.2,0,0.4,0,0.7,0c0.4,0,0.8,0,1.2,0
			c1.4,0.1,3.3,0.1,5.9,0.1c1.7,0,3.6,0,5.9-0.1c2.3-0.1,3.6-0.1,3.9-0.1c1,0,1.8-0.8,1.8-1.8s-0.8-1.8-1.8-1.8c-0.3,0-1.5,0-3.9,0
			c-2.4,0.1-4.4,0.1-6,0.1H235c-1.2,0-1.8-0.1-2.4-0.1c-0.3,0-0.5,0-0.8,0c0-0.4,0-0.8-0.1-1.2c-0.1-1.2-0.1-2.8-0.1-4.9
			c0-1.4,0-3.2,0.1-5.3c0-2.1,0-3.2,0-3.3c0-0.6,0-3.6-0.1-9.1c-0.1-4.5-0.1-8.4-0.1-12c0-1.5,0.8-2.6,2.2-2.6
			c0.6,0,1.4-0.1,2.2-0.1c1.9,0,3.1,0,3.5-0.1c1,0,1.8-0.9,1.8-1.9c-0.1-1-0.9-1.7-1.8-1.7c-0.1,0-0.1,0-0.2,0c-0.6,0-3,0-5,0.1
			c-0.1,0-0.2,0-0.3,0c-1.5,0-2.3-0.9-2.3-2.5v-1.5c0.1-7.7,0.3-13.8,0.5-18.3c0.1-2.6,0.4-4.6,0.6-6c0,0,0.5-1.2,1.4-1.8
			c0.4,0,0.9,0,1.4,0c0.7-0.1,1.6-0.1,2.6-0.1s2.2,0,3.5,0.1c3.1,0.1,9.8,0.4,10.8,0.4c0.5,0,0.9-0.1,1.3-0.5
			c0.4-0.4,0.5-0.8,0.5-1.3c0-1-0.8-1.8-1.8-1.8c-0.1,0-0.4,0-0.6,0C249.7,6.4,244.1,6.1,241.5,6L241.5,6z"/><path class="st4" d="M262.9,5.8c-1.6,0-2.9,1.5-2.3,3.7c0.1,0.3,0.1,0.5,0.3,0.6l0.1,0.4c0.1,0.1,0.1,0.1,0.1,0.3
			c0.4,3.7,0.6,8.4,0.6,14.1c0,4.6-0.1,11.6-0.4,20.8c-0.4,9.3-0.5,16.2-0.5,20.8c0,0.4,0,2.1-0.1,4.9c-0.1,5.8-0.1,8.9,0.8,12.3
			c0.1,0.9,1.1,1.4,2,1.4c0.1,0,0.2,0,0.3,0c0.9-0.1,1.4-1.3,1.3-2.2c-0.5-2.4-0.8-5.8-0.8-8c0-1,0-2.4,0.1-4.2c0-1.8,0-3.2,0-4.2
			c0-4.6,0.1-11.6,0.5-20.8c0.3-9.3,0.4-16.2,0.4-20.8c0-2.2,0-4.2-0.1-6c0-2.1-0.1-5.2,0.4-5.2c0.1,0,0.3,0.2,0.5,0.6
			c0.3,0.4,0.6,1.2,1,1.9c3.2,6,4.2,7.6,8,12.1c1.7,2.3,1.5,1.8,0.3,3.7c-2.1,3-3.7,5.5-5.3,7.7c-1.1,1.5,0.1,3.1,1.4,3.1
			c0.5,0,1-0.2,1.4-0.7c1.4-1.8,2.7-3.9,4.4-6.3c0.8-1.3,1.3-1.9,1.7-1.9c0.4,0,0.9,0.6,1.9,1.8c1.7,2.2,3.1,4,4.1,5.5
			c0.4,0.6,1,0.9,1.5,0.9c1.3,0,2.6-1.5,1.6-2.9c-1.3-1.9-3.3-4.5-5.7-7.6c-1.5-2.1-1.8-1.3-0.4-3.6l1-1.7c2.4-4,4.8-7.5,6.7-10.2
			c1.1-1.5,2.4-2.4,3-2.4c0.2,0,0.3,0.1,0.3,0.3c0,0.6,0.1,1.2,0.1,1.8c0,0.8,0.1,3.6,0.5,8.5c0.1,4.2,0.4,10.3,0.8,18.3
			c0.5,16.1,1.2,28.7,2.7,40.1c0,0.9,0.9,1.6,1.8,1.6c0.1,0,0.2,0,0.3,0c1,0,1.7-1,1.5-2.1c-1.4-11.4-2.1-23.8-2.7-39.7
			c-0.1-5.7-0.4-11.8-0.8-18.4c-0.5-9.8-0.5-11.2-0.9-13.6c-0.1-0.8-0.1-1.4-0.3-1.8c0-0.7,0-0.9,0-1.1l-0.3-0.5
			c-0.3-0.4-0.5-0.6-0.9-0.8C294.4,6.1,294,6,293.7,6c-1.1,0-1.8,0.9-2.2,1.7c-0.1,0.3-0.3,0.5-0.4,0.6C291,8.5,291,8.7,291,8.7
			c0,0.1,0,0.1-0.1,0.1c-3.1,3.5-6.7,8.6-10.9,15.6c-0.8,1.3-1.2,1.9-1.6,1.9s-0.8-0.8-1.8-2c-2.3-2.8-3.5-4.6-6-9.9
			c-1.2-2.1-2.2-3.7-3.2-5.1c-0.8-0.9-1.2-1.4-1.5-1.8c-0.1-0.3-0.4-0.5-0.5-0.6C264.5,6.1,263.7,5.8,262.9,5.8L262.9,5.8z"/><path class="st4" d="M313.6,4.7c-1.2,0-2.4,0.2-3.7,0.5c-0.5,0.1-0.9,0.5-1,0.9c-0.1,0.3-0.3,0.6-0.3,0.9
			c-0.1,1.3,0.6,2.1,0.4,3.3c-0.6,3.9-0.8,8.5-0.8,10.9c0,2.8,0.6,12.2,0.8,13.2c0.4,2.7,0.4,10.9,0.1,24.8
			c-0.4,13.9-0.5,22.1-0.5,24.8c0,0,0.4,1.5,0.4,2.7v-1.4c0.1,0.9,1,1.4,1.9,1.4c0.1,0,0.2,0,0.3,0c0.4-0.1,1.2-0.3,2.6-0.5
			c2.6-0.4,4.5-1,6.2-1.7c3.1-1.4,5.8-3.5,8-6.2c4.5-5.4,6.4-11.7,5.9-18.8c-0.6-7.1-6.4-16.1-12.2-19c-0.3-0.1-0.4-0.4-0.1-0.4
			c0.1-0.1,0.1-0.1,0.3-0.3c2.4-2.3,3.9-5.4,4.2-9.1c0.6-6.8,0-12.6-1.7-17.5C322.3,8.1,318.8,4.7,313.6,4.7L313.6,4.7z M314.4,82.3
			c-1.3,0-2.2-0.9-2-2.4c0-3.5,0.1-7.8,0.3-13.2c0.4-13.9,0.5-18.5,0-32.4c0-0.5-0.1-2.6-0.3-6.2c-0.3-3.5-0.4-5.9-0.4-7.2
			c0-2.6,0.1-8.5,1.2-12.1V8.5c0,0,0.3-0.1,0.9-0.1c0.5,0,1.1,0.1,1.8,0.4c1.9,0.6,3.7,2.4,5,5.9c1.5,4.4,2.1,9.6,1.5,15.9
			c-0.3,2.7-1.3,4.9-3.2,6.6c-0.6,0.6-1.7,1.3-3,1.9c-0.4,0.1-0.8,0.4-1.2,0.5l-0.4,0.1c-0.1,0.1-0.1,0.1-0.3,0.1l-0.1,0.1
			c-0.1,0-0.1,0-0.3,0.1l-0.4,0.4c-0.4,0.5-0.4,1-0.3,1.7c0.7,1.6,1.9,2,3.4,2c0.4,0,0.7,0,1.1,0c0.9-0.1,1.4-0.1,1.5-0.1
			c0.2-0.1,0.3-0.1,0.4-0.1s0.2,0,0.2,0.1c2.2,1.2,4.8,3.9,7.5,8.2c6,9.6,1.5,24.3-9.1,29.1c-0.6,0.3-1.7,0.5-3.2,0.9
			C314.9,82.3,314.6,82.3,314.4,82.3L314.4,82.3z"/><path class="st4" d="M354.2,6h-6.4c-1.9,0.1-3.5,0.3-4.5,0.9s-1.4,2.3-1.8,4c-0.3,1.7-0.5,3.7-0.6,6.4c-0.5,9.1-0.5,22.8-0.3,38.2
			c0.1,7.7,0.1,11.6,0.1,11.7s0,1.3,0,3.3c-0.1,2.1-0.1,3.9-0.1,5.3c0,2.2,0,3.9,0.1,5.1c0,0.8,0,1.4,0.1,1.9c0.1,0.6,0.4,1.4,1,1.9
			c0.1,0.1,0.3,0.3,0.4,0.3c0.7,0.5,1.3,0.5,1.9,0.5c0.2,0,0.4,0,0.7,0c0.4,0,0.8,0,1.2,0c1.4,0.1,3.3,0.1,5.9,0.1
			c1.7,0,3.6,0,5.9-0.1s3.6-0.1,3.9-0.1c1,0,1.8-0.8,1.8-1.8s-0.8-1.8-1.8-1.8c-0.3,0-1.5,0-3.9,0c-2.4,0.1-4.4,0.1-6,0.1h-4.1
			c-1.2,0-1.8-0.1-2.4-0.1c-0.3,0-0.5,0-0.8,0c0-0.4,0-0.8-0.1-1.2c-0.1-1.2-0.1-2.8-0.1-4.9c0-1.4,0-3.2,0.1-5.3c0-2.1,0-3.2,0-3.3
			c0-0.6,0-3.6-0.1-9.1c-0.1-4.5-0.1-8.4-0.1-12c0-1.5,0.8-2.6,2.2-2.6c0.6,0,1.4-0.1,2.2-0.1c1.9,0,3.1,0,3.5-0.1
			c1,0,1.8-0.9,1.8-1.9c-0.1-1-0.9-1.7-1.8-1.7c-0.1,0-0.1,0-0.2,0c-0.6,0-3,0-5,0.1c-0.1,0-0.2,0-0.3,0c-1.5,0-2.3-0.9-2.3-2.5
			v-1.5c0.1-7.7,0.3-13.8,0.5-18.3c0.1-2.6,0.4-4.6,0.6-6c0,0,0.5-1.2,1.4-1.8c0.4,0,0.9,0,1.4,0c0.7-0.1,1.6-0.1,2.6-0.1
			s2.2,0,3.5,0.1c3.1,0.1,9.8,0.4,10.8,0.4c0.5,0,0.9-0.1,1.3-0.5s0.5-0.8,0.5-1.3c0-1-0.8-1.8-1.8-1.8C364.1,6.4,357.2,6.1,354.2,6
			L354.2,6z"/><path class="st4" d="M379.2,5.3c-3.1,0-6.2,0.6-9.1,1.9c-1.9,0.9-1,3.5,0.7,3.5c0.3,0,0.5-0.1,0.8-0.2c0.1,0,0.3-0.1,0.4-0.1
			c0.5-0.2,1-0.3,1.4-0.3c0.9,0,1.5,0.6,1.6,2.5c0.9,18.6,0.3,26-0.1,45.9c-0.3,10.4-0.4,18.6-0.4,24.6c0,1,0.8,1.8,1.8,1.8
			s1.8-0.8,1.8-1.8c0-2.3,0.3-14.3,0.8-35.7c0-1.5,0.6-2.6,2.1-3.1l0.4-0.1c0.6-0.2,1.1-0.3,1.6-0.3c0.7,0,1.3,0.2,1.9,0.9
			c3.3,3.1,4.8,8,5.3,15.2c0.1,0.9,0.3,2.6,0.4,5.1c0.1,2.7,0.3,4.6,0.4,6c0.3,2.7,1,7.2,2.4,9.9c1.2,2.6,2.9,3.7,4.5,3.7
			s3.3-1,4.7-2.8c1.1-1.4-0.1-3-1.4-3c-0.5,0-1,0.2-1.4,0.7c-0.1,0.1-0.3,0.3-0.4,0.4c-0.5,0.5-1,0.8-1.7,0.9
			c-0.1-0.1-0.1-0.3-0.3-0.4c-0.3-0.3-0.5-0.6-0.8-1c-0.6-1.2-1-2.7-1.4-4.4c-0.6-3.5-0.8-4.9-1-10c-0.1-2.6-0.3-4.4-0.4-5.4
			c-0.6-6.9-2.2-12.2-4.8-15.8c-1-1.4-0.9-2.4,0.5-3.2c0.8-0.4,1.5-0.8,2.3-1.3c5-3.1,8-7.2,8.9-12.2c1.5-8.2-2.4-14.9-9.5-18.5
			C387.6,6.4,383.4,5.3,379.2,5.3L379.2,5.3z M380.8,40.1c-1.1,0-1.9-0.9-1.9-2.3c0.3-9.9,0.1-18.6-0.1-26.1
			c-0.1-1.6,0.6-2.7,2.2-2.7c0.1,0,0.2,0,0.3,0c2.8,0.3,5.5,1,8.2,2.6c5.7,3.1,8.7,8.2,7.6,14.5c-1.4,7.2-6.7,10.4-15.2,13.6
			C381.6,40,381.1,40.1,380.8,40.1L380.8,40.1z"/><path class="st4" d="M88.1,105.6c-1.7,0-3.1,1.4-3.1,3.1c0,0,0.2,1.8-0.2,3.4c-0.9,4.9-1.2,11.4-1.1,20.5c0,10.3,0,13.3,0.6,25.1
			c0.3,6,0.5,9.1,0.5,9.4c0.2,1.7,0,7.3-0.2,16.7c-0.2,7.4,0.2,13.3,0.9,17.6c0.2,0.8,0.6,1.4,1.4,1.9c0.6,0.5,1.2,0.6,1.9,0.6
			c1.5,0,2.2-0.5,3.1-0.6c0.5,0,0.9-0.2,1.2-0.3c11.1-5.6,21.6-29.6,23.6-52C119.1,125.7,110.9,105.6,88.1,105.6L88.1,105.6z
			 M92.9,194.7c-1.1,0-2-1-2-2.7c-0.2-2.3-0.2-5.1,0-8c0.2-9.7,0.3-15.4,0.2-17.1c0-0.5-0.2-3.7-0.5-9.6c-0.3-5.9-0.5-10.2-0.5-12.8
			c-0.2-2.6-0.2-6.5-0.3-11.4c-0.2-7.9,0.2-13.6,0.8-18.2c0.2-1.5,1.2-2.5,2.5-2.5c0.3,0,0.7,0.1,1,0.2c12.7,3.1,18.4,16.7,16.5,38
			c-1.7,17.9-8.6,35.3-15.7,43.2C94.2,194.4,93.5,194.7,92.9,194.7L92.9,194.7z"/><path class="st4" d="M135,106.9c-3.1,0-5.9,2.5-7.7,6.4c-1.9,4-3.1,8.9-3.9,15c-2.9,26.5-4,50.6-2.9,72.4c0,1.7,1.5,2.9,3.2,2.9
			s2.9-1.5,2.9-3.2c-0.6-13.6-0.5-27.8,0.5-42.7c0.2-1.9,1.1-3.1,2.8-3.2c1.4-0.3,2.9-0.3,4.6-0.5c2.3-0.2,4-0.5,5.6-0.6
			c0.1,0,0.3,0,0.4,0c1.8,0,2.8,0.9,2.8,2.6c0,0.9-0.2,2-0.2,3.1c-0.6,24.1-0.5,36.9,6.2,44.3c0.6,0.7,1.5,1.1,2.4,1.1
			c0.7,0,1.4-0.2,1.9-0.8c1.2-1.1,1.5-3.1,0.3-4.3c-4.8-5.4-5.2-16.8-4.6-40.1c0.6-23.6,0-38-6.8-47.2
			C140,108.4,137.4,106.9,135,106.9L135,106.9z M130.4,148c-1.6,0-2.5-1-2.4-3.1c0.9-11.4,2-22.8,4.8-29c0.9-1.9,1.4-2.8,2.1-2.8
			c0.6,0,1.4,0.8,2.7,2.5c4.9,6.6,5.6,18.2,5.7,28.1c0,2-1.1,3.1-3.1,3.1h2.5c-1.2,0.2-4.2,0.5-8.6,0.9c-1.2,0-2.2,0.2-3.2,0.3
			C130.7,148,130.6,148,130.4,148L130.4,148z"/><path class="st4" d="M177.2,148.8c0.1,0,0.2,0,0.2,0c0,0.1-0.1,0.2-0.1,0.3C177.3,149,177.2,148.9,177.2,148.8 M198.5,104.8
			c-1,0-2,0.5-2.7,1.4c-1.9,2.8-5.6,10.3-11.3,22.8l-6.3,14.3c-0.2,0.4-0.4,0.5-0.6,0.5c-0.5,0-1.2-0.6-1.7-1.8
			c-0.3-1.1-0.8-2.2-1.2-3.5l-2.9-7.7l-2.3-6.6c-2.3-6-3.2-10.3-4.3-14.8c-0.4-1.6-1.6-2.5-3.1-2.5c-0.2,0-0.4,0-0.6,0.1
			c-1.9,0.3-2.6,2-2.5,3.7c0.8,3.4,1.9,7.1,3.1,11c2.5,7.9,3.9,11.7,7.4,20.7c1.7,4.5,2.9,7.9,3.7,9.9c0,0,1.4,2.5,1.2,4
			c-0.9,7.9-0.9,17.9-0.3,30.1c0.2,6.6,0.3,11.3,0.3,13.7c0,1.7,1.4,3.1,3.1,3.1c1.7,0,3.1-1.4,3.1-3.1c0-2.9-0.2-7.7-0.5-14.7
			c-0.3-6.8-0.5-12.8-0.3-18c0.2-10.5,0.6-13,4.2-21.6c2.9-7.3,13.9-31.6,17.1-36.1c0.8-1.4,0.5-3.4-0.9-4.3
			C199.6,105,199,104.8,198.5,104.8L198.5,104.8z"/><path class="st4" d="M268.1,108.9c-2.5,0-5,0.8-7.4,2.6c-6.8,4.8-10.8,15.3-9.6,25.6c0.1,1.6,1.5,2.6,3.2,2.6c0.1,0,0.2,0,0.4,0
			c1.7-0.2,2.8-1.7,2.6-3.5c-0.5-4.2,0-8,1.4-11.7c2.3-6,6-9.4,9.4-9.4c0.7,0,1.4,0.1,2,0.4c2.5,1.1,4.6,4,6.5,8.8
			c3.9,9.3-1.1,18.8-10.8,23.3c0,0-1.4,0.3-2.3,0.5c-0.3,0-0.8,0.2-1.1,0.2c-1.1,0.2-2,0.6-2.8,1.1c-3.1,2.3-1.9,6.6,1.4,7.3
			c0.6,0,1.4,0,2.2-0.2c0,0,0.2,0,0.6,0c0.5,0,1.4,0.1,2.2,0.3c1.1,0.3,2.5,0.9,4,1.5c4.9,2.5,8.3,7.7,8.9,13.9
			c1.9,16.7-4.3,26.1-11.9,27.9c-0.9,0.2-1.8,0.3-2.7,0.3c-6.2,0-11.6-5.2-12.2-15c0-1.7-1.5-2.9-3.2-2.9s-2.9,1.5-2.9,3.2
			c0.7,12.6,8.7,20.7,18.3,20.7c1.3,0,2.7-0.2,4.1-0.5c11.3-2.5,18.7-15.4,16.7-34.4c-1.1-8.2-5.2-15.3-12.7-18.8
			c-0.9-0.5,0-1.7,1.9-3.1c8.5-6.6,12.3-17.3,8.2-27.8C278.9,113.2,273.6,108.9,268.1,108.9L268.1,108.9z"/><path class="st4" d="M310.7,104.3c-2.7,0-5.7,1.2-8.8,3.9c-8.8,7.7-13.9,21.1-15.3,40.1c-0.2,3.5,0,9.1,0.8,16.5
			c1.4,14.8,5.2,31.5,12.5,38.1c2.3,2.2,5,3.3,7.8,3.3c2.9,0,6.1-1.2,9.2-3.8c6.6-5.4,9.1-18.1,9.9-34.3c0.5-11.6,0.2-16.7,0-26.4
			c-0.2-4.8-0.2-8-0.9-13.4c-0.3-5.4-1.7-10.6-3.9-15.1C319.3,107.9,315.4,104.3,310.7,104.3L310.7,104.3z M307.7,200
			c-1.4,0-2.6-0.5-3.7-1.5c-2.6-2.6-5.1-7.4-7.1-14.5c-3.1-11.9-4.6-28.7-4.2-35.3c1.2-17.3,5.6-29.2,13.1-35.8
			c1.9-1.6,3.5-2.4,4.9-2.4c2.2,0,4,1.9,5.6,5.6c2.9,5.7,4.2,22.5,4.2,24.2c0.3,12.2,0.3,21.3,0,27.6c-0.6,15.9-3.1,26.4-7.4,29.6
			C311.1,199.2,309.3,200,307.7,200L307.7,200z"/>
</g>
</svg>
