<?xml version="1.0" standalone="no"?>
<!DOCTYPE svg PUBLIC "-//W3C//DTD SVG 1.1//EN" "http://www.w3.org/Graphics/SVG/1.1/DTD/svg11.dtd" >
<svg>
<metadata>
Created by FontForge 20090622 at Thu Mar 30 17:58:05 2017
 By deploy user
Copyright &#194;&#169; 1981, 1990 Linotype AG
</metadata>
<defs>
<font id="SnellRoundhand" horiz-adv-x="444" >
  <font-face 
    font-family="Snell Roundhand"
    font-weight="500"
    font-style="italic"
    font-stretch="normal"
    units-per-em="1000"
    panose-1="2 0 6 3 8 0 0 9 0 4"
    ascent="800"
    descent="-200"
    x-height="344"
    cap-height="682"
    bbox="-810 -430 2908 1118.08"
    underline-thickness="50"
    underline-position="-75"
    slope="-40"
    unicode-range="U+000D-U+F7565"
  />
<missing-glyph horiz-adv-x="500" 
d="M442 8v496h-384v-496h384zM50 512h400v-512h-400v512z" />
    <glyph glyph-name=".notdef" horiz-adv-x="500" 
d="M442 8v496h-384v-496h384zM50 512h400v-512h-400v512z" />
    <glyph glyph-name=".null" horiz-adv-x="0" 
 />
    <glyph glyph-name="controlCR" unicode="&#xd;" horiz-adv-x="500" 
 />
    <glyph glyph-name="space" unicode=" " horiz-adv-x="250" 
 />
    <glyph glyph-name="exclam" unicode="!" horiz-adv-x="333" 
d="M160 143l92.5 152t77.5 159q17 44 30 60t33 16q14 0 23.5 -10t9.5 -24q0 -20 -14.5 -37.5t-27.5 -31.5q-60 -68 -114.5 -139.5t-103.5 -148.5zM107 74q15 0 26 -11t11 -26t-11 -26t-26 -11t-26 11t-11 26t11 26t26 11z" />
    <glyph glyph-name="quotedbl" unicode="&#x22;" horiz-adv-x="333" 
d="M308 621q-24 -31 -40.5 -50.5l-30 -36.5t-27 -37t-31.5 -51l-10 6q18 31 28.5 53t18.5 42.5t16 44.5l21 60q3 8 8.5 17.5t13 17t17 10.5t20.5 -3q10 -6 13 -15.5t1 -20t-7.5 -20.5t-10.5 -17zM465 621q-24 -31 -40.5 -50.5l-30 -36.5t-27 -37t-31.5 -51l-10 6
q18 31 28.5 53t18.5 42.5t16 44.5l21 60q3 8 8.5 17.5t13 17t17 10.5t20.5 -3q10 -6 13 -15.5t1 -20t-7.5 -20.5t-10.5 -17z" />
    <glyph glyph-name="numbersign" unicode="#" horiz-adv-x="500" 
d="M212 13l-61 -13l128 192h-108l-119 -179l-61 -13l128 192h-113l9 14h112l92 140h-113l9 14h112l108 164l58 8l-114 -172h108l108 164l58 8l-114 -172h127l-9 -14h-126l-92 -140h127l-9 -14h-126zM379 346h-108l-92 -140h108z" />
    <glyph glyph-name="dollar" unicode="$" horiz-adv-x="500" 
d="M527 521q-11 3 -21.5 4t-24.5 1q-26 0 -47.5 -10t-37 -27t-24 -40.5t-8.5 -50.5q0 -25 9 -44.5t21 -39.5zM218 22q14 -6 29.5 -8t29.5 -2q31 0 56.5 9.5t44 27.5t28.5 42.5t10 54.5q0 27 -13.5 58t-32.5 55zM586 595l-41 -64q35 -9 61 -32.5t26 -64.5q0 -32 -17 -52
t-40 -20q-10 0 -19 3q16 14 22 35t6 41q0 31 -12.5 49.5t-35.5 27.5l-136 -212l1 -1l26.5 -37.5t20 -32t12.5 -31.5t4 -34q0 -39 -17 -70.5t-44 -53.5t-60.5 -34t-66.5 -12q-21 0 -37 1.5t-30 6.5l-31 -48l-8 5l29 46q-44 15 -71.5 46t-27.5 71q0 45 24 72.5t64 27.5
q10 0 26 -3q-32 -20 -46 -47.5t-14 -57.5q0 -32 15 -57t40 -37l155 240q-20 25 -34 57t-14 57q0 33 12.5 62t36 50t55.5 33.5t71 12.5q14 0 24 -1.5t20 -3.5l43 67z" />
    <glyph glyph-name="percent" unicode="%" horiz-adv-x="778" 
d="M731 298q45 0 65 -25.5t20 -57.5q0 -30 -19 -67.5t-50 -70.5t-70.5 -55t-80.5 -22q-44 0 -67.5 22.5t-23.5 69.5q0 39 21.5 76.5t54.5 66t73 46t77 17.5zM729 286q-31 0 -63 -24.5t-58 -60.5t-42.5 -76t-16.5 -72q0 -22 13 -31.5t33 -9.5q32 0 63.5 26t57 62.5t41 77
t15.5 69.5q0 21 -11 30t-32 9zM639 462q-16 -14 -39.5 -25t-50.5 -11q-20 0 -37 10.5t-28 25.5l-2 -2q1 -25 -8.5 -52t-26 -52.5t-39.5 -49t-48.5 -41t-52 -27.5t-51.5 -10q-41 0 -64.5 23.5t-23.5 65.5q0 38 21 76.5t54 69t73 50t77 19.5q40 0 58.5 -14.5t30.5 -32.5
t26 -32.5t44 -14.5q23 0 43.5 8.5t36 20.5t26.5 24.5t16 19.5q15 23 23.5 29t20.5 6q11 0 11 -14q0 -3 -10 -16.5t-25.5 -32.5l-34 -41l-35.5 -42l-30 -35l-18 -21l-69.5 -82.5l-72 -86.5l-68.5 -82l-58 -69l-40 -47.5t-16 -17.5q-5 0 -5 5q0 1 27.5 36l78.5 99l124 155.5
l164 205.5zM212 285q0 -19 8.5 -32t30.5 -13q33 0 66.5 26t60.5 63t43.5 77.5t16.5 70.5q0 20 -10.5 31.5t-31.5 11.5q-31 0 -64 -23.5t-59.5 -58.5t-43.5 -76t-17 -77z" />
    <glyph glyph-name="ampersand" unicode="&#x26;" horiz-adv-x="611" 
d="M740 121q-42 -63 -105 -96t-131 -33q-19 0 -42 3t-46.5 9.5t-45.5 17t-40 24.5q-10 -9 -23 -18.5t-29.5 -17.5t-36 -13t-43.5 -5q-33 0 -59.5 10.5t-45 28.5t-28.5 42.5t-10 52.5q0 33 12.5 62t33.5 54t47.5 44t54.5 31q0 32 13.5 70.5t37.5 72t56 56t69 22.5
q27 0 45 -15.5t18 -44.5q0 -26 -21.5 -48.5t-51.5 -42t-61.5 -34.5t-50.5 -26q1 -68 29 -130t75 -110q37 33 67 71l57.5 70.5t55 54t58.5 21.5q26 0 43.5 -14t17.5 -37q0 -8 -4.5 -18t-11.5 -17q-8 17 -26 28.5t-44 11.5q-19 0 -35.5 -7.5t-31 -20t-28.5 -28.5t-28 -34
q-45 -53 -82 -88q30 -30 72 -51t86 -21q31 0 61 9t57 25t50 37t40 46zM402 483q0 43 -36 43q-22 0 -46.5 -20.5t-41.5 -59.5q-15 -35 -18 -61.5t-3 -46.5q29 13 55.5 27t46.5 31t31.5 38.5t11.5 48.5zM109 142q0 -24 7.5 -47t21 -40.5t32.5 -28t43 -10.5q37 0 63 11t45 26
q-55 46 -86.5 113.5t-31.5 139.5q-23 -10 -40.5 -27.5t-29.5 -39.5t-18 -47t-6 -50z" />
    <glyph glyph-name="quotesingle" unicode="'" horiz-adv-x="222" 
d="M308 621q-24 -31 -40.5 -50.5l-30 -36.5t-27 -37t-31.5 -51l-10 6q18 31 28.5 53t18.5 42.5t16 44.5l21 60q3 8 8.5 17.5t13 17t17 10.5t20.5 -3q10 -6 13 -15.5t1 -20t-7.5 -20.5t-10.5 -17z" />
    <glyph glyph-name="parenleft" unicode="(" horiz-adv-x="389" 
d="M661 686q-117 -60 -220.5 -154.5t-185.5 -212.5q-44 -63 -81.5 -135t-65 -149t-43 -158t-15.5 -163h-12q1 114 12.5 200.5t34.5 160t58.5 140t84.5 139.5q75 111 185 196.5t248 145.5v-10z" />
    <glyph glyph-name="parenright" unicode=")" horiz-adv-x="389" 
d="M-229 -276q117 60 220.5 154.5t185.5 212.5q44 63 81.5 135t65 149t43 158t15.5 163h12q-1 -114 -12.5 -200.5t-34.5 -160t-58.5 -140t-84.5 -139.5q-75 -111 -185 -196.5t-248 -145.5v10z" />
    <glyph glyph-name="asterisk" unicode="*" horiz-adv-x="333" 
d="M204 538q0 11 8 16.5t20 7.5l95 14q-23 20 -40 33l-28.5 22.5t-17 16t-5.5 13.5q0 8 4.5 13.5t12.5 5.5q6 0 16 -9.5t21.5 -23.5l23.5 -30l23 -30l9 52l6 32q3 18 8 29.5t17 11.5q8 0 11.5 -6.5t3.5 -14.5q0 -7 -4 -19t-10 -26.5l-13 -31t-12 -31.5l31.5 11.5l33.5 12.5
l28.5 10.5t16.5 4.5q7 0 12 -5.5t5 -13.5q0 -7 -5.5 -11.5t-19 -8t-37.5 -7t-62 -8.5q12 -12 27.5 -24l30 -23.5t24 -21.5t9.5 -19q0 -7 -4.5 -10.5t-9.5 -3.5q-7 0 -19 11t-24.5 26l-24.5 30t-19 23q-5 -37 -9 -61t-8 -37.5t-9 -18.5t-11 -5q-16 0 -16 16q0 6 4.5 19
l10.5 29l12 32.5t9 29.5l-29 -11.5l-31 -12.5t-28 -10t-20 -4t-12 4.5t-5 11.5z" />
    <glyph glyph-name="plus" unicode="+" horiz-adv-x="546" 
d="M382 336l66 8l-109 -165h142l-9 -14h-141l-101 -152l-69 -13l110 165h-143l9 14h142z" />
    <glyph glyph-name="comma" unicode="," horiz-adv-x="250" 
d="M-32 -118q23 4 47.5 13.5t45.5 24.5t35 35.5t16 46.5q-3 -2 -12 -2q-11 0 -22.5 8t-11.5 25q0 18 10.5 29.5t28.5 11.5q19 0 29 -14.5t10 -31.5q0 -30 -15.5 -56t-41 -46t-57 -33t-62.5 -17v6z" />
    <glyph glyph-name="hyphen" unicode="-" horiz-adv-x="333" 
d="M316 186l-12 -28h-230l11 28h231z" />
    <glyph glyph-name="period" unicode="." horiz-adv-x="250" 
d="M103 74q15 0 26 -11t11 -26t-11 -26t-26 -11t-26 11t-11 26t11 26t26 11z" />
    <glyph glyph-name="slash" unicode="/" horiz-adv-x="278" 
d="M108 -16l283 728h37l-283 -728h-37z" />
    <glyph glyph-name="zero" unicode="0" horiz-adv-x="500" 
d="M110 122q0 45 16 92.5t43.5 93t63.5 86t77 71t83.5 48t82.5 17.5q32 0 54.5 -10t36.5 -28t20.5 -42.5t6.5 -53.5q0 -41 -16.5 -87t-44 -91t-64.5 -85.5t-78 -72t-83.5 -50t-82.5 -18.5q-59 0 -87 36.5t-28 93.5zM170 118q0 -22 3.5 -42t12 -35t22 -24t34.5 -9
q49 0 100.5 34.5t94 90.5t70 127t27.5 143q0 22 -4.5 42t-15 35.5t-26.5 24.5t-40 9q-44 0 -93 -36t-90 -93t-68 -127.5t-27 -139.5z" />
    <glyph glyph-name="one" unicode="1" horiz-adv-x="370" 
d="M400 438l-2 2q-21 -14 -46 -27.5t-52.5 -25.5t-55.5 -22t-54 -17l-4 11q91 21 173 68.5t153 102.5l4 -4l-78 -118l-91 -139.5l-88 -140t-69 -120.5l-82 -16z" />
    <glyph glyph-name="two" unicode="2" horiz-adv-x="500" 
d="M504 164q-15 -29 -34.5 -59.5t-44.5 -55.5t-56 -41t-68 -16q-20 0 -40.5 10.5l-42.5 21.5t-45 21t-49 10q-29 0 -48.5 -9.5t-31.5 -21.5t-19.5 -22t-12.5 -10t-5.5 3t-0.5 7q0 16 69.5 59.5t212.5 108.5q68 31 111 60t67 58.5t33 58.5t9 60q0 51 -26.5 83t-77.5 32
q-22 0 -45.5 -8t-42.5 -23.5t-31.5 -37.5t-12.5 -50q0 -26 16.5 -46.5t42.5 -20.5q12 0 19.5 3t18.5 8l4 -3q-11 -20 -30 -32t-43 -12q-31 0 -49.5 20.5t-18.5 55.5q0 26 12.5 54.5t36.5 52.5t59 39.5t80 15.5q39 0 67.5 -11t47.5 -28.5t28 -40t9 -45.5q0 -49 -22.5 -86.5
t-60 -67t-86 -53t-99.5 -45l-100.5 -43.5t-89.5 -49l2 -4q15 8 31 15t35 7q17 0 40.5 -8.5t48.5 -18.5l47 -19t39 -9q23 0 44.5 14t39.5 34t32.5 43.5t23.5 41.5z" />
    <glyph glyph-name="three" unicode="3" horiz-adv-x="500" 
d="M272 280q24 3 53.5 5.5t59 7t57 13.5t49 24.5t34.5 39.5t13 59q0 39 -20.5 66t-62.5 27q-19 0 -38.5 -6t-34.5 -17.5t-24.5 -28t-9.5 -37.5q0 -22 11.5 -40.5t35.5 -18.5q11 0 18 1.5t17 6.5q-1 -19 -19.5 -31.5t-41.5 -12.5q-29 0 -45 19t-16 45q0 27 13 51.5t35 43.5
t51.5 30t63.5 11q33 0 56.5 -8.5t39.5 -23.5t23.5 -35t7.5 -42q0 -36 -20 -61.5t-52 -42.5t-72 -27.5t-80 -15.5v-2q49 -3 79.5 -29.5t30.5 -78.5q0 -40 -22 -73.5t-58.5 -57t-83 -36.5t-95.5 -13q-33 0 -64 8.5t-55 25t-38.5 40t-14.5 53.5q0 40 23.5 69.5t65.5 29.5
q14 0 29 -6t25 -16l-1 -4q-8 2 -14 2q-30 0 -52 -24t-22 -69q0 -49 34 -73t85 -24q38 0 73.5 12t63 34t44.5 53.5t17 70.5q0 45 -25 69.5t-70 24.5q-14 0 -28.5 -1t-28.5 -3v16z" />
    <glyph glyph-name="four" unicode="4" horiz-adv-x="500" 
d="M414 199h122l-7 -12h-122l-113 -177l-70 -10l123 187h-269l498 422h26l-492 -406v-4h244l205 311l57 6z" />
    <glyph glyph-name="five" unicode="5" horiz-adv-x="500" 
d="M478 530q17 -19 38.5 -28.5t41.5 -9.5q25 0 44.5 8t35.5 20l3 -4q-8 -12 -22 -24t-30 -22t-33 -16t-32 -6q-23 0 -40 7l-42 18l-172 -172l2 -2q20 8 39.5 13.5t46.5 5.5q60 0 94 -28.5t34 -85.5q0 -40 -21.5 -78.5t-57 -68t-80 -47.5t-91.5 -18q-31 0 -60.5 8t-53 24.5
t-37.5 41.5t-14 58q0 41 25 69.5t66 28.5q34 0 58 -26l-1 -4q-5 1 -9.5 1.5t-9.5 0.5q-33 0 -54 -24.5t-21 -61.5q0 -49 29.5 -76.5t79.5 -27.5q43 0 78.5 17t60.5 46t39 66.5t14 77.5q0 42 -21.5 66.5t-65.5 24.5q-29 0 -56 -9.5t-52 -23.5l-5 4z" />
    <glyph glyph-name="six" unicode="6" horiz-adv-x="500" 
d="M468 300q0 16 -2 32t-9 29t-19 21t-32 8q-31 0 -68.5 -25t-70 -65.5t-54.5 -93t-22 -107.5q0 -16 2.5 -33t9 -30.5t19 -22.5t33.5 -9q39 0 77 29t68 73t49 96t19 98zM251 301q16 19 35 38t41 34t47 24t52 9q51 0 76.5 -28.5t25.5 -80.5q0 -46 -26 -99t-67 -99
t-91.5 -76.5t-98.5 -30.5q-28 0 -48.5 11.5t-34 30.5t-19.5 43.5t-6 49.5q0 61 26 126t70 127t101.5 117.5t121.5 97.5t129.5 66.5t125.5 24.5q35 0 60 -7.5t40.5 -19.5t23 -28t7.5 -33q0 -22 -11 -37.5t-23 -24.5l1.5 12t0.5 12q0 15 -5.5 34.5t-19 36t-35.5 28t-56 11.5
q-73 0 -141 -37.5t-125.5 -93t-103 -120t-75.5 -118.5h2z" />
    <glyph glyph-name="seven" unicode="7" horiz-adv-x="500" 
d="M88 -106l555 619l-2 2q-29 -25 -58 -40t-70 -15q-20 0 -38 6.5t-36 14.5q-17 8 -34 14.5t-37 6.5q-25 0 -43 -14t-31 -31t-22 -31t-16 -14q-6 0 -6 8q0 4 8 13.5t18 20l20 20.5t13 15q10 14 21 35l20 38l8 -3q-8 -17 -17.5 -33.5t-19.5 -30.5l2 -2q26 20 47 32.5t56 12.5
q19 0 34.5 -6.5t31.5 -14.5q17 -8 34 -14.5t38 -6.5q31 0 55.5 13.5t44.5 34.5l6 -4l-494 -636z" />
    <glyph glyph-name="eight" unicode="8" horiz-adv-x="500" 
d="M492 304q61 14 91.5 54t30.5 102q0 66 -31.5 107t-83.5 41q-51 0 -83 -38.5t-32 -101.5q0 -44 13.5 -80.5t29 -71t29 -69.5t13.5 -77q0 -39 -15 -71.5t-41.5 -56t-61.5 -37t-75 -13.5q-34 0 -63.5 12t-51.5 33t-34.5 50.5t-12.5 63.5q0 47 20.5 84t54.5 63t76.5 40
t86.5 14q-9 24 -15.5 48t-6.5 50q0 38 15.5 69.5t42 54t60 34.5t69.5 12q69 0 107 -40.5t38 -108.5q0 -35 -14.5 -64t-38.5 -51t-54 -37.5t-61 -23.5zM168 163q0 -30 9 -58t26.5 -49.5t43 -34.5t57.5 -13q34 0 55.5 12.5t34 33.5t17 48t4.5 55q0 50 -19.5 95l-39.5 88
q-93 -1 -140.5 -42.5t-47.5 -134.5z" />
    <glyph glyph-name="nine" unicode="9" horiz-adv-x="500" 
d="M488 437q0 38 -14 63.5t-49 25.5q-40 0 -77 -29t-65.5 -72.5t-45.5 -93.5t-17 -92q0 -95 59 -95q30 0 66.5 22.5t68 62.5t53 93.5t21.5 114.5zM437 245q-15 -22 -34.5 -43t-43 -37.5t-50.5 -26.5t-56 -10q-46 0 -69.5 29.5t-23.5 77.5q0 52 28 106t70 97.5t90.5 71.5
t89.5 28q57 0 83.5 -33t26.5 -84q0 -63 -26.5 -134.5t-72 -142t-106 -136t-129 -115t-141.5 -79.5t-142 -30q-36 0 -67.5 8.5t-54.5 23.5t-36 36t-13 46q0 22 11 40t36 26q-2 -8 -2.5 -14.5t-0.5 -17.5q0 -29 12 -53.5t32.5 -42t49 -27t61.5 -9.5q52 0 102 21t97 56.5
t89.5 81.5t78.5 95.5t65 99t48 91.5h-2z" />
    <glyph glyph-name="colon" unicode=":" horiz-adv-x="250" 
d="M66 38q0 17 10.5 27.5t27.5 10.5q14 0 25 -12t11 -26t-11.5 -25t-25.5 -11q-16 0 -26.5 10t-10.5 26zM246 307q0 17 11.5 27t27.5 10q15 0 25 -12t10 -26q0 -16 -11 -26t-26 -10q-17 0 -27 10t-10 27z" />
    <glyph glyph-name="semicolon" unicode=";" horiz-adv-x="250" 
d="M-32 -118q23 4 47.5 13.5t45.5 24.5t35 35.5t16 46.5q-3 -2 -12 -2q-11 0 -22.5 8t-11.5 25q0 18 10.5 29.5t28.5 11.5q19 0 29 -14.5t10 -31.5q0 -30 -15.5 -56t-41 -46t-57 -33t-62.5 -17v6zM246 307q0 16 11.5 26.5t27.5 10.5q13 0 24 -10.5t11 -23.5
q0 -15 -10.5 -27.5t-26.5 -12.5q-17 0 -27 10t-10 27z" />
    <glyph glyph-name="less" unicode="&#x3c;" horiz-adv-x="600" 
d="M628 360q-45 -23 -102 -49l-114 -50.5l-108.5 -45t-86.5 -32.5l280 -137l-31 -24l-293 144v8l120 46.5l124 51.5l115 50.5t93 44.5z" />
    <glyph glyph-name="equal" unicode="=" horiz-adv-x="600" 
d="M574 244h-344l7 11h344zM488 112h-344l7 11h344z" />
    <glyph glyph-name="greater" unicode="&#x3e;" horiz-adv-x="600" 
d="M589 200v-12l-492 -201l-4 8l451 184l-333 148l27 31z" />
    <glyph glyph-name="question" unicode="?" 
d="M148 132q18 29 44.5 48t55.5 34l58.5 29.5t53.5 34.5q35 29 50 64.5t15 79.5q0 48 -26 76t-73 28q-26 0 -53 -11t-49 -30.5t-36 -45t-14 -55.5q0 -14 2.5 -29t9.5 -27t19 -20t31 -8q21 0 42.5 10t37.5 30l7 -5q-14 -20 -38 -33.5t-51 -13.5q-42 0 -66 24.5t-24 66.5
q0 33 18 62t46.5 50.5t63 34t68.5 12.5q60 0 99.5 -30t39.5 -93q0 -29 -13 -54.5t-35 -47.5t-49.5 -40t-56.5 -32l-46.5 -21.5t-49.5 -25.5t-43.5 -30.5t-28.5 -34.5zM107 74q15 0 26 -11t11 -26t-11 -26t-26 -11t-26 11t-11 26t11 26t26 11z" />
    <glyph glyph-name="at" unicode="@" horiz-adv-x="800" 
d="M816 299q-22 -35 -61 -72t-83 -67t-89 -49t-79 -19q-24 0 -35 11.5t-11 28.5q0 11 3.5 22t8.5 23l-2 1q-11 -12 -27 -26.5t-34 -28t-37.5 -22.5t-37.5 -9q-30 0 -42.5 18.5t-12.5 42.5q0 22 10 48t26.5 52t38.5 50t46.5 42.5t49.5 29.5t48 11q34 0 48.5 -17t19.5 -38h2
l27 48h53l-58 -81.5t-49 -73t-34 -59.5t-13 -40q0 -21 22 -21q26 0 56 14.5t61 39.5t61 58.5t56 71.5q33 49 40.5 102t-13 96.5t-69 71.5t-126.5 28q-70 0 -130.5 -20.5t-111 -56.5t-90.5 -84.5t-70 -105.5q-24 -46 -35.5 -95t-10 -95t16 -86.5t42.5 -71t69 -48.5t96 -18
q91 0 178.5 32.5t163.5 84.5t137.5 117t100.5 131l7 -4q-33 -59 -92 -124.5t-137 -120.5t-171 -90.5t-193 -35.5q-70 0 -121.5 18.5t-86.5 50t-53.5 73t-23 86.5t4.5 90.5t29 86.5q38 76 93 131.5t121 92t140 54.5t152 18q72 0 128.5 -23t88 -63.5t32.5 -94.5t-38 -116z
M330 153q0 -20 7.5 -28.5t19.5 -8.5q21 0 52 22.5t59.5 56t49 72.5t20.5 71q0 19 -12.5 26.5t-28.5 7.5q-24 0 -53 -20.5t-54.5 -52t-42.5 -70.5t-17 -76z" />
    <glyph glyph-name="A" unicode="A" horiz-adv-x="944" 
d="M597 311q-49 -62 -101 -119.5t-104.5 -102t-104.5 -71t-100 -26.5q-33 0 -52.5 7.5t-30 18t-14 22t-3.5 20.5q0 17 10 29t28 12q16 0 25 -11t9 -26q0 -9 -5 -18t-14 -11q9 -14 25 -18.5t33 -4.5q43 0 90.5 25t96 65.5t96.5 92t92 105.5l47.5 59l64.5 76t78.5 83.5
t90.5 80.5t100 68t106 45l3 -4q-34 -31 -71 -77t-72.5 -99.5t-67.5 -112.5t-56.5 -117.5t-39 -112.5t-14.5 -99q0 -31 10.5 -52.5t42.5 -21.5q19 0 43.5 14t51.5 37t53.5 51l50.5 55.5t43 52l30 39.5l7 -3l-72 -91t-77 -87.5t-78.5 -65.5t-75.5 -26q-24 0 -40.5 8.5
t-27.5 23.5t-16 34t-5 40q0 57 16 109.5t36 103.5h-137zM739 323q45 93 106.5 182t145.5 169l-2 2q-53 -26 -103.5 -64t-98.5 -84t-93.5 -98t-88.5 -107h134z" />
    <glyph glyph-name="B" unicode="B" horiz-adv-x="889" 
d="M464 449q3 -21 4 -35.5t1 -30.5q0 -45 -12.5 -85t-35.5 -71t-56.5 -49t-75.5 -18q-37 0 -65.5 13.5t-48 36t-29.5 52t-10 62.5q0 44 17 90t48 89t75.5 81t100 66.5t120 45t136.5 16.5q58 0 107 -11t85 -31q40 22 73.5 32.5t65.5 15.5v-12q-32 -5 -62 -14.5t-62 -30.5
q32 -26 48.5 -54.5t16.5 -70.5q0 -38 -17 -69t-44 -53.5t-61 -37.5t-68 -21v-2q29 -1 54 -9.5t43.5 -24t29 -39t10.5 -55.5q0 -49 -23 -91.5t-58 -74t-78 -49.5t-84 -18q-57 0 -91.5 24.5t-34.5 62.5q0 25 15.5 43t41.5 18q16 0 28 -12q-17 -3 -24 -19.5t-7 -41.5
q0 -27 20 -45t51 -18q46 0 80.5 19.5t57.5 51.5t34.5 73t11.5 84q0 32 -11 53.5t-30 34.5t-44.5 18t-54.5 5v12q45 0 81.5 15t62.5 42t40.5 64t14.5 80q0 23 -9 45t-25 39q-48 -42 -90.5 -107t-85 -138l-87 -146t-96 -132t-112.5 -96t-136 -37q-52 0 -82 22t-30 53
q0 20 11.5 31.5t28.5 11.5t25.5 -10.5t8.5 -26.5q0 -14 -9.5 -23.5t-23.5 -9.5q2 -10 10 -17t18.5 -11.5t21.5 -6t19 -1.5q50 0 88 19t71.5 54.5t66 86l70.5 113.5l74.5 122.5t69.5 106.5t72.5 89t82.5 68q-32 26 -78 35.5t-97 9.5q-93 0 -176 -31.5t-145 -83t-98.5 -118
t-36.5 -137.5q0 -27 7 -55.5t21.5 -51t36.5 -37t52 -14.5q37 0 68 16t53 44t34.5 67.5t12.5 85.5q0 16 -1 31.5t-3 31.5z" />
    <glyph glyph-name="C" unicode="C" horiz-adv-x="667" 
d="M546 556q-1 -6 -1 -12v-12q0 -21 7.5 -35t19.5 -22.5t27.5 -12t31.5 -3.5q27 0 55 13.5t51 37t37.5 54.5t14.5 65q0 42 -23 56.5t-62 14.5q-45 0 -99 -21.5t-109.5 -59.5t-107 -90t-92 -113t-64.5 -128t-24 -136q0 -28 7 -56t22 -50.5t39 -36t58 -13.5q49 0 93.5 22.5
t78 58.5t53.5 80.5t20 88.5q0 40 -23.5 61t-63.5 21l-1 12q63 0 93.5 -25t30.5 -85q0 -35 -18.5 -78t-54.5 -80.5t-89.5 -62.5t-122.5 -25q-52 0 -87.5 18t-57.5 45t-31.5 58.5t-9.5 58.5q0 63 27 128.5t71.5 126.5t102.5 114.5t119.5 93t123 62.5t112.5 23q63 0 94 -26
t31 -76q0 -35 -16.5 -65t-44 -51.5t-62.5 -34t-72 -12.5q-39 0 -67 18.5t-30 63.5v13q0 8 1 14h12z" />
    <glyph glyph-name="D" unicode="D" horiz-adv-x="889" 
d="M994 730q-50 -9 -95.5 -32t-82.5 -58q23 -22 39 -50t26 -58.5t14.5 -62.5t4.5 -62q0 -90 -39 -167.5t-102.5 -134t-143.5 -89t-162 -32.5q-31 0 -55 1.5t-43.5 4t-36 6t-33.5 7.5q-14 -2 -26.5 -4.5t-25 -4.5t-28 -3t-35.5 -1q-24 0 -37 4.5t-13 16.5t10.5 16.5t27.5 4.5
q12 0 23.5 -1.5t26 -4.5l32.5 -6.5t44 -7.5q51 13 93.5 53t81 95t75.5 121l76.5 131.5t84 125.5t97.5 104q-42 35 -93.5 49.5t-94.5 14.5q-81 0 -157.5 -28t-136 -78t-95.5 -118t-36 -148q0 -32 6 -60.5t21 -50.5t39 -34.5t60 -12.5q45 0 82.5 21.5t64 58t41.5 85t15 101.5
v34h12v-29q0 -62 -17 -114.5t-48 -91t-73 -60t-92 -21.5q-38 0 -66.5 14.5t-47 38.5t-28 56t-9.5 67q0 62 35.5 129t97.5 123.5t146.5 93t182.5 36.5q58 0 109 -17.5t93 -49.5q42 32 89 55.5t100 31.5zM436 -4q70 0 128 21t104.5 56.5t80.5 83.5t57 101.5t34.5 110
t11.5 109.5q0 40 -11 80.5t-36 67.5q-41 -46 -75.5 -104l-68.5 -120l-70 -123t-78 -114t-93.5 -94.5t-117.5 -62.5v-2q31 -6 62.5 -8t71.5 -2z" />
    <glyph glyph-name="E" unicode="E" horiz-adv-x="667" 
d="M335 185q31 43 72.5 69t95.5 26t81 -27.5t27 -67.5q0 -36 -27 -71.5t-69 -64.5t-93.5 -47t-101.5 -18q-55 0 -97.5 12t-72 34t-45 52t-15.5 66q0 50 19.5 86t51 63t73 48t84.5 40q17 8 27 14.5t15.5 17.5t7.5 28.5t2 46.5q0 44 14 83.5t42.5 70t72 48.5t101.5 18
q24 0 48 -5.5t43.5 -18t32 -32t12.5 -46.5q0 -33 -15 -59t-39 -44t-53 -27t-57 -9q-14 0 -27 2t-18 4l1 11q13 -5 44 -5q30 0 52.5 14t37.5 34t22.5 42t7.5 39q0 46 -27 67t-75 21q-44 0 -74 -19.5t-48 -49t-26 -64t-8 -63.5q0 -38 -16 -64t-51 -42l-77.5 -36t-68.5 -43.5
t-48.5 -62t-18.5 -92.5q0 -31 13 -61t36 -52.5t55.5 -36.5t71.5 -14q36 0 76 11t73.5 33t55.5 55.5t22 78.5q0 44 -18 67t-58 23q-21 0 -41 -7.5t-38 -20t-33.5 -28.5t-26.5 -32z" />
    <glyph glyph-name="F" unicode="F" horiz-adv-x="778" 
d="M563 323l2 12h43l59.5 91t67 86.5t81 72t99.5 45.5v2q-26 0 -53 0.5t-58.5 1.5t-70 1.5t-87.5 0.5q-99 0 -180 -17t-138.5 -48t-89.5 -72.5t-34 -91.5q-2 -48 34.5 -76.5t99.5 -28.5q41 0 84 13.5t78 38t57.5 58.5t22.5 74q0 17 -3 30.5t-6 24.5l10 2q11 -28 11 -58
q0 -36 -21 -71t-56 -62.5t-81.5 -44.5t-96.5 -17q-67 0 -106 30t-39 84q0 55 37.5 105.5t108.5 89.5t174.5 62t235.5 23q88 0 153.5 -2t97.5 -2q23 0 41.5 2t33.5 2q20 0 34 -2.5t14 -17.5q0 -13 -5 -20t-24.5 -10t-57.5 -3.5t-103 -0.5q-58 -21 -97 -55.5t-67.5 -75
t-51 -83t-49.5 -79.5q12 2 30.5 3t36.5 3t33 5t19 9q9 12 21.5 24t33.5 12q13 0 25 -4q-41 -35 -77 -75.5t-65 -86.5l-6 3q10 28 24 53.5l28 51.5q-13 -2 -28.5 -3.5l-30.5 -3t-28 -2.5t-21 -2q-36 -60 -77.5 -119t-92.5 -106.5t-114 -77t-142 -29.5q-27 0 -57.5 7t-56.5 22
t-43 38t-17 55q0 20 11.5 37t33.5 17q16 0 24.5 -10t8.5 -25q0 -14 -7 -24.5t-21 -10.5q-6 0 -10 1q0 -3 2.5 -18.5t15.5 -32.5t41.5 -30.5t79.5 -13.5q65 0 119 32.5t98 80.5t79.5 104l64.5 102h-39z" />
    <glyph glyph-name="G" unicode="G" horiz-adv-x="611" 
d="M460 793q-23 -20 -35 -47.5t-12 -52.5q0 -21 6 -41t16 -32q65 40 139 66t152 26q18 0 37.5 -3t35.5 -10.5t26.5 -21.5t10.5 -35q0 -33 -19 -55.5t-49 -36.5t-67 -20t-73 -6q-46 0 -96 13.5t-88 51.5q-29 -20 -59.5 -53.5t-56 -72.5t-42 -80t-16.5 -76q0 -21 3.5 -39.5
t13 -32t25.5 -21.5t40 -8q28 0 57 11t54 26.5t43 31.5t22 26l18.5 39t19.5 31.5t26.5 21.5t38.5 8q6 0 11.5 -3t5.5 -12q0 -11 -20 -34t-41 -50q-31 -55 -70.5 -112t-88.5 -102.5t-109 -74.5t-131 -29q-34 0 -63.5 9.5t-51.5 27t-34.5 42t-12.5 53.5q0 26 12.5 46t40.5 20
q14 0 24.5 -10.5t10.5 -24.5q0 -16 -9.5 -26t-25.5 -9q-3 0 -8.5 0.5t-8.5 2.5q-2 -7 -2 -13v-10q0 -22 11 -40t29 -30.5t41.5 -19t49.5 -6.5q54 0 99.5 26t83.5 65t69.5 84.5l56.5 84.5l-2 2q-35 -29 -79 -48.5t-92 -19.5q-56 0 -88.5 33t-32.5 89q0 44 21.5 88t54 83.5
t71.5 73t73 55.5q-25 36 -25 79q0 33 15.5 61t37.5 47zM796 651q0 18 -8.5 27.5t-22 14.5t-28.5 6t-29 1q-33 0 -67.5 -9t-68 -23t-64.5 -32.5t-56 -38.5q25 -29 71.5 -45t105.5 -16q32 0 62 7.5t53 22t37.5 36t14.5 49.5z" />
    <glyph glyph-name="H" unicode="H" horiz-adv-x="833" 
d="M468 532q11 -19 11 -45q0 -33 -16 -59.5t-41.5 -46t-56.5 -30t-61 -10.5q-62 0 -96.5 31t-34.5 75q0 49 28 88t76.5 68t113.5 49t139.5 32.5t154.5 18t157 5.5q27 0 45 7t35 7q5 0 10 -2t5 -8q0 -12 -13 -14t-39 -2q-78 0 -165.5 -86t-191.5 -263h144q23 34 53.5 74.5
t67 81.5t77.5 78.5t85 66.5t89 46.5t89 17.5q21 0 39 -12.5t18 -34.5q0 -14 -9 -23.5t-23 -9.5q-12 0 -19.5 9t-14.5 19.5t-16 19t-24 8.5q-35 0 -82 -31.5t-97 -83t-98.5 -118t-87 -136t-62 -137.5t-23.5 -123q0 -23 8.5 -41t25.5 -18q32 0 70 25.5t76 64.5t73 86t61 90
l9 -4q-10 -18 -28 -45.5t-41.5 -58.5t-51.5 -62t-58.5 -56t-61.5 -40.5t-62 -15.5q-23 0 -39 7.5t-26 20.5t-14.5 30t-4.5 36q0 35 9.5 70.5t23.5 68.5t31.5 63l32.5 55h-144l-68.5 -108t-86 -112t-104.5 -87.5t-123 -35.5q-15 0 -33 3.5t-33.5 11.5t-26 21t-10.5 32
q0 17 12 28t29 11q15 0 24 -9t9 -23q0 -16 -8.5 -24t-22.5 -8q5 -15 23.5 -23t41.5 -8q32 0 61.5 16t57 42t53.5 61t50 72l47 75l44 71l73 112.5t80.5 104.5t98 84t125.5 52v2q-137 0 -249 -19t-192 -53t-124 -82t-44 -106q0 -15 5 -30t15 -26.5t26 -19t37 -7.5
q26 0 53.5 9.5t50.5 27t38 42t15 53.5q0 16 -3 26t-8 20z" />
    <glyph glyph-name="I" unicode="I" horiz-adv-x="611" 
d="M-15 108q0 21 13 36.5t36 15.5q17 0 27 -9.5t10 -25.5t-10.5 -27t-26.5 -8q-4 -18 2.5 -34.5t23 -30t41 -21.5t55.5 -8q48 0 91 20t80.5 51.5t69 71t58 79t47.5 75t36 58.5l55.5 82t69.5 92.5t81.5 83.5t89.5 55v2q-45 0 -104 -3t-121.5 -11.5t-123 -24.5t-108 -43
t-76.5 -66t-29 -93q0 -42 23.5 -65t63.5 -23q28 0 55.5 11t49.5 30t35.5 43t13.5 49q0 23 -5 38l11 2q2 -6 4 -18t2 -20q0 -30 -13.5 -56.5t-37 -46.5t-54 -32t-64.5 -12q-59 0 -95.5 29.5t-36.5 86.5q0 44 26.5 79t71.5 62t103 46t121 30.5t127 16t119 3.5q66 0 105 9t50 9
q7 0 12 -1.5t5 -9.5q0 -10 -18 -13.5t-71 -3.5q-25 0 -56.5 -24.5t-67.5 -68.5t-76.5 -106.5t-83.5 -137.5q-42 -74 -89 -137.5t-100 -110t-114.5 -73t-133.5 -26.5q-28 0 -57.5 7t-54.5 22t-41 38.5t-16 56.5z" />
    <glyph glyph-name="J" unicode="J" horiz-adv-x="611" 
d="M510 501q4 -10 5.5 -21t1.5 -20q0 -31 -14.5 -58t-37.5 -46.5t-53 -31t-62 -11.5q-64 0 -99.5 31t-35.5 81q0 54 33 93.5t86 67.5t119.5 45.5t132.5 27.5t125.5 13.5t99.5 3.5q41 0 74.5 10t53.5 10q5 0 11 -2.5t6 -9.5t-9 -11.5t-22.5 -6t-30 -2t-30.5 -0.5
q-30 0 -67 -34.5t-77 -90t-81.5 -124l-81 -136l-74.5 -128t-62 -98.5l2 -2q59 18 102 37t78 44t65 58t61 78l8 -5q-31 -46 -62 -80.5t-68.5 -61t-85.5 -47t-113 -38.5q-39 -59 -85 -118.5t-100.5 -107.5t-117.5 -78t-135 -30q-29 0 -57 8t-50 23.5t-35.5 37.5t-13.5 50
q0 44 21.5 73.5t59.5 49t89.5 31.5t111 21.5t124.5 18t129 21.5q32 50 65.5 109.5l70 121l75.5 122t82.5 113t91 94.5t100.5 66v2q-42 0 -100.5 -4t-122 -14t-126 -27.5t-112 -45.5t-80 -67.5t-30.5 -92.5q0 -35 21 -61.5t66 -26.5q30 0 58 10.5t49.5 29t34.5 43.5t13 53
q0 17 -6 39zM-32 -286q62 0 118.5 33t104.5 81t86 101.5t63 93.5q-59 -12 -117.5 -20t-111.5 -16.5t-98.5 -20t-79 -30t-52.5 -47t-19 -70.5q0 -56 30.5 -80.5t75.5 -24.5z" />
    <glyph glyph-name="K" unicode="K" horiz-adv-x="889" 
d="M1014 262q-15 -20 -38.5 -48t-51.5 -58t-60 -59.5t-64 -52.5t-63 -37.5t-58 -14.5q-29 0 -52 16t-23 48q0 26 14 57.5t30.5 64t30 64t13.5 58.5q0 29 -16 40t-31 11q-5 0 -11 -1t-11 -1q-14 0 -14 9q0 5 4 6.5t6 1.5q8 0 18.5 -1.5t19.5 -1.5q48 0 90 25.5t80.5 63t76 82
t76.5 82t81.5 63t91.5 25.5q40 0 65 -14.5t25 -40.5q0 -17 -11 -30t-26 -13t-17 8q8 6 11 15t3 20q0 19 -13 31t-38 12q-30 0 -58.5 -24t-60 -60.5l-67.5 -79t-80 -80t-97.5 -63.5t-121.5 -30v-2q33 -17 47 -42t14 -65q0 -25 -11 -54t-24 -57.5l-24 -53.5t-11 -42
q0 -20 8.5 -27.5t22.5 -7.5q23 0 52 14.5t60 37.5t62 52t59 58t50.5 55.5t35.5 44.5zM463 498q9 -22 9 -47q0 -22 -12 -47t-35 -46t-56 -34.5t-75 -13.5q-25 0 -48 8.5t-40.5 23.5t-28 36t-10.5 47q0 43 26 79.5t73 66t111.5 52t140.5 37.5t162 22.5t175 7.5q18 0 34.5 3.5
l29.5 6.5l28 8.5t17 3.5t10.5 -2.5t4.5 -7.5q0 -9 -13.5 -11.5t-38.5 -2.5q-60 0 -109.5 -34t-92 -87.5t-81 -118l-76.5 -124.5l-70 -107t-85.5 -108t-100.5 -83.5t-116 -33.5q-16 0 -34 3.5t-33.5 11.5t-25.5 21.5t-10 32.5q0 17 11 28.5t28 11.5q15 0 24 -10t9 -24
q0 -10 -7 -20t-18 -10q0 -14 18.5 -23.5t43.5 -9.5q30 0 59 15t56 40.5t52.5 59.5t49.5 70.5t46.5 74.5l43.5 72l80 124.5t78 100.5t85 74t100 45v2q-40 0 -102.5 -5t-132.5 -16t-140.5 -30.5t-127.5 -49.5t-92.5 -72.5t-35.5 -100.5q0 -40 24 -63t56 -23q33 0 61.5 11.5
t50.5 30t34.5 42t12.5 47.5q0 11 -2.5 22.5t-4.5 19.5z" />
    <glyph glyph-name="L" unicode="L" horiz-adv-x="556" 
d="M681 259l-85.5 -78.5l-106 -96.5l-103.5 -98t-79 -83q-11 -29 -29 -50t-35 -21q-13 0 -13 11q0 7 4 12t8.5 10t8 11.5t3.5 15.5q0 32 -11 56.5t-30.5 41.5t-46 25.5t-56.5 8.5q-10 0 -28.5 -5.5t-41.5 -13.5t-48.5 -14.5t-48.5 -6.5q-12 0 -20.5 4t-8.5 12t12 13.5
t31 9.5t41.5 6t44.5 3.5t40 2t27 1.5q50 16 92 57.5t81 98.5t78 124.5l82 135.5q-31 5 -59 17.5t-49.5 32.5t-34 46.5t-12.5 58.5q0 21 8.5 40.5t22.5 33.5t34 22.5t42 8.5q19 0 36.5 -4.5t29.5 -10.5l-4 -11q-12 6 -28 10t-35 4q-21 0 -38.5 -8t-29.5 -21.5t-19 -30
t-7 -33.5q0 -28 12.5 -53t33.5 -44.5t48.5 -31.5t57.5 -14q28 43 67.5 87t86.5 80t99 58.5t106 22.5q38 0 60.5 -17t22.5 -53q0 -33 -26 -68t-71.5 -64.5t-107.5 -48t-133 -18.5q-17 0 -29 0.5t-25 1.5l-74.5 -119.5t-82 -117t-98 -101.5t-122.5 -73l2 -2q8 1 17.5 2t22.5 1
q68 0 101.5 -33t40.5 -81q40 45 86 89l94 87l95.5 85.5l91.5 82.5zM800 700q-45 0 -89 -24.5t-82 -61t-69.5 -79t-52.5 -78.5q11 -1 23 -1.5t28 -0.5q45 0 97.5 12t98 35.5t76 58t30.5 80.5q0 29 -15.5 44t-44.5 15z" />
    <glyph glyph-name="M" unicode="M" horiz-adv-x="1000" 
d="M1123 269q-31 -69 -75 -120t-98 -84t-117 -49t-131 -16q-21 0 -35 -1.5t-23 -3l-15 -2.5t-12 -1q-9 0 -15 2.5t-6 8.5q0 8 8.5 9.5t13.5 1.5q14 0 27 -2l27 -4q60 29 102 83.5t75 122t61.5 141.5t63 140.5t79.5 120t110 80.5l-2 2q-43 -7 -92 -38t-98.5 -77.5t-98 -104
t-92.5 -118.5l-69.5 -98t-73.5 -97.5t-81 -91.5t-94 -81l-7 10q35 55 56.5 118t40 128l37.5 129t48.5 122t73.5 107t111 83l-2 2q-66 -22 -121 -63.5t-102 -94t-87 -113l-77 -120.5l-71 -116t-70 -98.5t-77 -68t-92 -25.5q-13 0 -25.5 2t-23 8t-17 16t-6.5 26q0 15 10 25
t25 10q13 0 21 -10t8 -23q0 -8 -3.5 -17t-11.5 -11q1 -6 12 -10t21 -4q44 0 82 27.5t74.5 73t72.5 104l75 121.5q46 73 92 137t99 114.5t116.5 85.5t144.5 51l1 -9q-62 -19 -103 -60.5t-70.5 -97.5t-51 -122l-44 -133.5t-49.5 -132.5t-68 -120l2 -2q37 32 74.5 75.5t73.5 91
l69.5 95l62.5 87.5q78 107 143 172t120 100.5t100.5 47.5t84.5 12q15 0 29 -4.5t14 -14.5q0 -8 -6 -10t-14 -2q-14 0 -29.5 3.5t-30.5 3.5q-23 0 -46.5 -20t-47 -52t-45.5 -71.5t-40.5 -78t-32 -71.5l-21.5 -52q-16 -43 -37 -91.5t-52 -95t-75.5 -87.5t-108.5 -69v-2
q152 0 257.5 66t166.5 197z" />
    <glyph glyph-name="N" unicode="N" horiz-adv-x="722" 
d="M1004 549q19 11 27.5 33.5t8.5 42.5t-13.5 32.5t-35.5 12.5q-33 0 -68 -22t-68 -54t-61 -69t-48 -67q-63 -98 -122.5 -218t-115.5 -248h-7q12 59 12 115q0 50 -6 99t-13 99q-7 49 -13 98t-6 99q0 18 0.5 35.5t0.5 36.5h-2l-45.5 -98.5t-60 -123.5t-74 -129t-86 -115.5
t-95.5 -83.5t-104 -32q-12 0 -25.5 3t-25 9t-19 16t-7.5 24q0 16 11 26.5t27 10.5q13 0 21.5 -8.5t8.5 -21.5q0 -7 -2.5 -14.5t-10.5 -9.5q1 -5 10 -12t28 -7q46 0 91.5 30.5t89 80.5t84 115.5t77 134.5t68.5 137.5l57 125.5q2 10 5.5 23.5t10.5 26t17.5 21.5t24.5 9
q-3 -10 -8 -20.5t-9 -25.5t-7 -36.5t-3 -55.5q0 -41 6 -81.5t13 -83.5t13 -89t6 -98q0 -29 -4 -60t-14 -67l2 -2l41 89.5l48.5 99.5t52.5 98t51 85q35 53 70 96.5t70 75.5t69 49.5t66 17.5q34 0 54.5 -18.5t20.5 -46.5q0 -18 -7.5 -33t-19.5 -27.5t-27 -21.5t-30 -14v6z" />
    <glyph glyph-name="O" unicode="O" horiz-adv-x="778" 
d="M686 583q0 17 -3 32t-11 26.5t-23.5 18.5t-39.5 7h-12q-6 0 -12 -2q-14 -15 -28 -36.5t-25 -47.5t-18 -55t-7 -59q0 -155 124 -232q48 77 76.5 166t28.5 180q0 19 -2 40t-9 38.5t-21.5 29t-39.5 11.5q-18 0 -35.5 -5.5t-28.5 -13.5l2 -2h14q25 0 41 -8t25 -21.5t12.5 -31
t3.5 -35.5h-12zM232 146q0 -24 6.5 -48.5t20 -44.5t34 -32.5t47.5 -12.5q37 0 79 21.5t81.5 54t72.5 70.5t52 71q-66 39 -100 99.5t-34 134.5q0 22 4 47.5t13 51.5t23 52.5t35 49.5l-2 2q-63 -19 -122.5 -71.5t-106 -124.5t-75 -155.5t-28.5 -164.5zM903 263
q-15 -16 -34.5 -29t-40.5 -22t-42 -14t-40 -5q-32 0 -55 6t-43 14q-24 -35 -60.5 -74t-79.5 -71.5t-90 -54t-92 -21.5q-79 0 -118.5 45.5t-39.5 122.5q0 62 20.5 122.5t54.5 116t77.5 103.5t89.5 85t90.5 60.5t80.5 29.5q15 14 37.5 24.5t48.5 10.5q61 0 89 -39t28 -115
q0 -40 -12 -85.5t-30.5 -90.5t-41.5 -86t-46 -73q20 -9 42.5 -13.5t50.5 -4.5q40 0 79 18t71 47z" />
    <glyph glyph-name="P" unicode="P" horiz-adv-x="778" 
d="M979 723l-48.5 -17.5t-45.5 -21.5q44 -25 63 -61t19 -84q0 -38 -19.5 -72t-49.5 -60t-66.5 -41.5t-69.5 -15.5q-35 0 -53.5 14.5t-18.5 37.5q0 14 9.5 24.5t24.5 10.5q7 0 15 -4.5t11 -11.5q-5 -6 -8.5 -12t-3.5 -14q0 -17 10 -25t26 -8q26 0 50.5 19t44.5 50t32 69.5
t12 77.5q0 36 -10.5 59t-32.5 38q-52 -30 -95 -84t-83.5 -119.5l-81.5 -136t-88.5 -134t-105.5 -114.5t-133 -77v-2q44 -7 82.5 -9.5t83.5 -2.5q149 0 258 69.5t188 191.5l8 -4q-45 -68 -91.5 -118.5t-101.5 -84t-120.5 -50t-149.5 -16.5q-40 0 -87.5 6t-85.5 14
q-9 0 -54 -10t-123 -10q-50 0 -71 8t-21 21t12 21t42 8q24 0 47 -2t48.5 -5.5t54 -9l63.5 -12.5q44 10 88 56t89.5 111.5t93 142t98 148t105.5 128.5t116 84q-21 10 -51 13.5t-54 3.5q-54 0 -114.5 -13.5t-119.5 -38t-112.5 -60.5t-94.5 -80.5t-65 -98t-24 -113.5
q0 -48 22.5 -74t66.5 -26q38 0 71 19.5t57.5 50t38.5 68t14 72.5v38h12v-38q0 -37 -15 -76.5t-41 -72t-62.5 -53t-78.5 -20.5q-26 0 -47.5 10t-37 27t-24 39.5t-8.5 48.5q0 46 21.5 93.5t59.5 92.5t91 84.5t116 69t134.5 46.5t145.5 17q38 0 65 -5.5t50 -15.5q50 22 106 36z
" />
    <glyph glyph-name="Q" unicode="Q" horiz-adv-x="722" 
d="M614 408q-36 -39 -77.5 -60.5t-94.5 -21.5q-62 0 -100.5 36.5t-38.5 95.5q0 46 26 91.5t70.5 81.5t102 58.5t120.5 22.5q38 0 69 -8.5t54 -27t35.5 -47t12.5 -68.5q0 -51 -25.5 -102.5t-67 -101t-94.5 -94.5t-109 -83.5t-110.5 -69t-97.5 -49.5q45 -14 95.5 -24.5
t109.5 -10.5q64 0 116.5 25t95 62.5t76.5 80l61 76.5l6 -4q-35 -49 -79 -101t-96.5 -94.5t-113 -69.5t-128.5 -27q-29 0 -58.5 6.5t-56.5 16t-49.5 19.5t-36.5 17q-49 -22 -93.5 -31.5t-89.5 -9.5q-33 0 -55.5 9t-22.5 27q0 31 40.5 44t105.5 13q38 0 81 -5.5t79 -13.5
q37 19 85 46.5t98.5 63.5t98.5 79t86 92.5t61.5 105t23.5 114.5q0 28 -8.5 52.5t-25 42.5t-40 28t-53.5 10q-48 0 -95.5 -20.5t-86 -55.5t-62 -80.5t-23.5 -96.5t27 -80t80 -29q30 0 53 5.5t42.5 16t36 24.5t34.5 31zM6 33q0 -29 67 -29q18 0 39.5 4t42 9.5t37.5 11.5t26 10
q-32 14 -69 22t-74 8q-9 0 -21 -1.5t-22.5 -5.5t-18 -11t-7.5 -18z" />
    <glyph glyph-name="R" unicode="R" horiz-adv-x="889" 
d="M476 434q0 -42 -15 -82.5t-41.5 -72.5t-63 -51.5t-80.5 -19.5q-63 0 -100.5 37t-37.5 100q0 50 22 97t60 88t89 74.5t109 57.5t120.5 37t122.5 13q43 0 88.5 -7t78.5 -24l23 9t27.5 9.5t28.5 8t26 4.5l1 -6q-24 -3 -47.5 -12t-43.5 -20q76 -43 76 -124q0 -53 -20.5 -90.5
t-54 -61t-76.5 -34t-88 -10.5v-2q31 -13 46.5 -34.5t15.5 -55.5q0 -22 -9.5 -54t-21.5 -66q-12 -33 -22 -63.5t-10 -50.5q0 -32 29 -32q30 0 69.5 20.5t83.5 63.5q77 75 145 183l9 -4q-23 -36 -54.5 -80.5t-76.5 -90.5q-99 -104 -183 -104q-35 0 -55.5 17t-20.5 51
q0 22 11.5 53t25.5 64t25 66t11 58q0 38 -20.5 50t-53.5 17l4 10q11 -2 21 -3t21 -1q44 0 80 16.5t61.5 45t39.5 66.5t14 81q0 25 -9.5 48t-28.5 37q-51 -30 -97.5 -91.5t-93 -137l-95 -154.5t-102.5 -144.5t-115 -107t-133 -41.5q-16 0 -33 4t-30.5 12.5t-22.5 22t-9 31.5
t11 29t30 11q14 0 22.5 -9t8.5 -22q0 -12 -7 -23t-21 -10q3 -13 21 -23.5t41 -10.5q52 0 97.5 40.5t90 104.5t89 142t95 153t109 138t129.5 97q-33 17 -74 23t-80 6q-50 0 -105.5 -11t-109 -32t-102.5 -52t-86 -71.5t-59 -89t-22 -105.5q0 -55 27 -87t76 -32q43 0 77.5 20
t59 51t37.5 69t13 74h12z" />
    <glyph glyph-name="S" unicode="S" horiz-adv-x="556" 
d="M32 257q23 0 34.5 -10.5t11.5 -27.5q0 -15 -9 -25.5t-24 -10.5q-5 0 -11.5 2.5t-9.5 7.5q-11 -12 -14.5 -29t-3.5 -36q0 -26 12.5 -50t36 -42t56.5 -29t73 -11q68 0 115 31t76 79.5t42 107.5t14 114q1 89 17.5 160t47 120.5t76 76.5t104.5 27q53 0 86 -25.5t33 -66.5
q0 -32 -22.5 -48t-53.5 -16q11 17 16.5 33t5.5 40q0 36 -21 53.5t-50 17.5q-39 0 -66.5 -15.5t-46.5 -42.5t-30.5 -63t-18.5 -76.5t-10.5 -83.5t-6.5 -85q-7 -103 -36.5 -170.5t-72.5 -107.5t-96 -56t-109 -16q-45 0 -82.5 14.5t-64.5 40t-41.5 60.5t-14.5 77q0 35 16 58
t42 23z" />
    <glyph glyph-name="T" unicode="T" horiz-adv-x="778" 
d="M651 494q1 -10 1 -19v-18q0 -39 -18.5 -74.5t-52 -63t-79.5 -43.5t-101 -16q-82 0 -122.5 37t-40.5 96q0 48 32.5 99t107.5 93t198 69.5t305 27.5q56 0 102 -3t79 -3q29 0 48.5 3t33.5 3q12 0 22 -7.5t10 -21.5q0 -9 -5.5 -14.5t-19.5 -7.5t-37.5 -2.5t-59.5 -0.5
q-70 0 -116.5 -24.5t-86.5 -74t-83 -124t-107 -173.5q-22 -34 -55.5 -77t-79.5 -81t-105 -64t-133 -26q-28 0 -59 6.5t-56.5 21t-42 38.5t-16.5 59q0 22 12.5 37.5t35.5 15.5q16 0 26.5 -10.5t10.5 -26.5q0 -15 -10 -24t-23 -9q-7 0 -12 2q5 -48 45 -73t99 -25q56 0 103 25
t87.5 66t76.5 93.5l71.5 109l71.5 112t76 101.5t85.5 78.5t100.5 42.5v2q-45 0 -98 4t-98 4q-126 0 -223.5 -18.5t-164.5 -51t-101.5 -76.5t-34.5 -95q0 -60 40.5 -90.5t114.5 -30.5q52 0 95 15.5t74 41t48.5 58.5t17.5 68v19q0 10 -1 20h12z" />
    <glyph glyph-name="U" unicode="U" horiz-adv-x="833" 
d="M976 696l-154.5 -240l-122 -183.5t-80 -132.5t-28.5 -87q0 -22 10.5 -35.5t34.5 -13.5q36 0 78 25.5t84 64.5t82 85l73 87l8 -3l-80.5 -98.5t-84.5 -87t-86.5 -62t-86.5 -23.5q-42 0 -61 24t-19 63q0 22 10.5 47t21.5 42l-2 2q-24 -26 -57 -57t-70 -58t-76 -45t-76 -18
q-35 0 -55.5 18t-20.5 52t24 82t59.5 103t77.5 113.5t77.5 113.5t59.5 102t24 80q0 25 -17.5 34.5t-40.5 9.5q-50 0 -101.5 -23.5t-93 -61t-68 -84t-26.5 -91.5q0 -32 16.5 -53t56.5 -21q20 0 37.5 7t32.5 18t26.5 24t19.5 26l11 -2q-9 -15 -23 -30.5t-30.5 -27.5
t-35.5 -19.5t-39 -7.5q-39 0 -61.5 21.5t-22.5 63.5q0 45 26.5 93.5t70 88.5t99.5 65.5t116 25.5q42 0 68.5 -20t26.5 -59q0 -33 -23.5 -80.5t-58.5 -102t-76 -112l-76 -111t-58.5 -99t-23.5 -76.5q0 -24 12 -34t26 -10q36 0 80 25t86 60t77.5 72.5t53.5 62.5
q48 65 122 182.5l180 285.5h67z" />
    <glyph glyph-name="V" unicode="V" horiz-adv-x="722" 
d="M706 707q-54 -42 -91 -95.5t-64.5 -112.5t-49.5 -122t-46.5 -124t-55.5 -118.5t-77 -106.5l2 -2l111.5 67.5l100.5 63.5q126 81 199 155t110 135.5t47 107.5t10 69q-13 4 -17.5 13t-4.5 22q0 17 11 28t28 11q26 0 35.5 -17.5t9.5 -46.5q0 -39 -18.5 -82.5t-51 -88
t-75.5 -89.5t-91.5 -87t-101 -80t-102.5 -69l-118 -72l-123 -74l-5 5q35 51 60.5 109.5t47.5 120.5l44.5 124t51.5 119.5t69 107.5t97 87l-2 2q-42 -22 -91 -33.5t-100 -25.5q-33 -9 -71.5 -24t-71.5 -38.5t-55.5 -55t-22.5 -73.5q0 -35 22 -54t52 -19q18 0 35.5 7.5t31 20
t21.5 30.5t8 39v18t-2 17h11q1 -8 2 -17t1 -20q0 -21 -8.5 -40t-23.5 -34t-35.5 -24t-43.5 -9q-42 0 -70.5 24.5t-28.5 67.5q0 47 24.5 79.5t60.5 55t77 36.5t74 23q26 8 60.5 15.5t69.5 17.5t68.5 24.5t58.5 36.5z" />
    <glyph glyph-name="W" unicode="W" horiz-adv-x="944" 
d="M675 696q-45 -34 -78 -79.5t-59.5 -97.5t-48 -108l-42.5 -112.5t-44.5 -110t-54.5 -100.5l2 -2l67.5 65l75 75l76.5 79l72.5 78l63.5 72.5t48 61.5l18.5 27l27.5 39.5t33 44.5t36 41.5t35 30.5t31 12q5 0 9 -3.5t4 -10.5q0 -6 -5 -13.5t-11.5 -15t-14.5 -14.5l-14 -12
q-42 -37 -70 -81.5t-49.5 -94.5t-38.5 -102.5t-36.5 -105t-44 -103t-61.5 -95.5l2 -2l101 68t110.5 79.5t108 90.5t94.5 100.5t70 109.5t34 118q-11 6 -16.5 17.5t-5.5 24.5q0 16 11.5 26.5t28.5 10.5q12 0 20.5 -5.5t14 -14t7.5 -19t2 -20.5q0 -44 -24.5 -93t-63.5 -98
t-88.5 -97.5t-100 -90.5t-97.5 -77t-81 -58l-52 -34.5l-54.5 -37l-49.5 -36t-37 -31.5l-6 8q36 50 62 108.5t48 121l44.5 125.5t50.5 120l-2 1q-33 -41 -79 -93l-99 -107.5l-108.5 -110l-107.5 -101.5q-15 -14 -26.5 -27l-20.5 -23t-17.5 -16t-19.5 -6q-14 0 -14 10
q0 6 7 12t16 13l17.5 13.5t12.5 13.5q29 50 49.5 105t38.5 110.5t38 111t47.5 107.5t67 99.5t97.5 86.5l-2 2q-33 -15 -77 -28t-90.5 -28.5t-91.5 -33.5t-80.5 -41.5t-57 -54t-21.5 -70.5q0 -37 20 -57t52 -20q23 0 42 9t32.5 24t20.5 34t7 38q0 6 -0.5 12t-1.5 12h12
q1 -6 1.5 -12t0.5 -12q0 -25 -9 -46.5t-24.5 -37.5t-37 -24.5t-46.5 -8.5q-42 0 -69.5 24t-27.5 69t24.5 77.5t66.5 57.5t99 45t121 38q53 15 85.5 25t51.5 17t27.5 11.5t11.5 8.5z" />
    <glyph glyph-name="X" unicode="X" horiz-adv-x="833" 
d="M527 421q-12 -27 -29.5 -53t-40 -46t-49.5 -32t-57 -12q-58 0 -91.5 35.5t-33.5 92.5q0 47 21.5 101t61 99.5t95 75.5t123.5 30q69 0 111.5 -35t42.5 -113q0 -26 -5.5 -52t-13.5 -49l2 -2q50 73 101 120t99 74.5t91.5 38t80.5 10.5q38 0 62 -10t24 -39q0 -13 -8 -22.5
t-22 -9.5q-22 0 -26 10t-7.5 22.5t-14.5 22.5t-46 10q-48 0 -98.5 -26t-99 -70t-92 -100.5t-76.5 -117.5t-52 -122t-19 -114q0 -22 2.5 -45.5t10 -42t21.5 -30.5t38 -12q43 0 89.5 28t89 68.5t79 85t59.5 76.5l7 -3q-38 -54 -80.5 -103t-86 -86.5t-87.5 -59.5t-86 -22
q-32 0 -54 10.5t-36 28.5t-20 41t-6 48q0 27 5 55t14 57l-2 2q-25 -42 -66 -85t-90 -78t-102.5 -57t-104.5 -22t-85 17t-34 47q0 20 11 32t26 12q17 0 27 -11t10 -28q0 -14 -5.5 -20t-10.5 -10q2 -11 19.5 -19t43.5 -8q54 0 109 26.5t106.5 71t97 102.5t79 121t53 126
t19.5 117q0 27 -6.5 51t-20.5 42t-35.5 28.5t-51.5 10.5q-43 0 -87.5 -22.5t-79.5 -61.5t-57.5 -92t-22.5 -114q0 -22 6 -43.5t18 -38.5t30.5 -27.5t43.5 -10.5q26 0 49.5 11.5t44.5 30t38 42t28 47.5h9z" />
    <glyph glyph-name="Y" unicode="Y" horiz-adv-x="778" 
d="M1012 696l-429 -660q-45 -63 -93 -122t-101 -105t-112 -73.5t-125 -27.5q-33 0 -63.5 8t-54 24.5t-37.5 41.5t-14 59q0 27 10 48.5t26 36t37.5 22.5t43.5 8q23 0 47 -8t41 -19l-4 -8q-17 7 -35 13t-36 6q-29 0 -52.5 -26t-23.5 -80q0 -53 35.5 -83.5t92.5 -30.5
q47 0 93 26t89 68.5t83.5 95.5t76.5 107l67.5 104t57.5 85l-2 2q-29 -35 -67.5 -73.5t-80.5 -70t-84.5 -52t-80.5 -20.5q-44 0 -64 20t-20 58q0 31 24.5 77t61 99.5l79.5 111.5t79.5 113t61 103t24.5 81q0 20 -12.5 32.5t-36.5 12.5q-42 0 -93 -22t-95.5 -59t-74.5 -84
t-30 -97q0 -31 14.5 -51.5t45.5 -20.5q23 0 42 6t34.5 16.5t28.5 24.5t25 29l8 -1q-23 -35 -58.5 -61t-83.5 -26q-42 0 -60 26.5t-18 59.5q0 46 31 94t78 87.5t103.5 65t108.5 25.5q48 0 72.5 -19.5t24.5 -64.5q0 -31 -24.5 -78t-61 -101.5t-79.5 -113l-79.5 -112.5
t-61 -100t-24.5 -75q0 -26 12 -35t25 -9q32 0 78 23.5t95.5 63.5t98 93t87.5 112l261 400h68z" />
    <glyph glyph-name="Z" unicode="Z" horiz-adv-x="667" 
d="M790 262q-30 -53 -68.5 -102t-83 -86.5t-93.5 -59.5t-99 -22q-34 0 -64.5 14t-59 30.5t-56 30t-56.5 13.5q-37 0 -64.5 -15t-47 -33t-32 -33t-18.5 -15t-7 3.5t-1 6.5q0 10 8.5 18.5t17.5 16.5l69.5 58.5l104 89l127 109.5l138.5 119.5l138 119l126 107.5l-2 2
q-28 -17 -66.5 -31.5t-75.5 -14.5q-40 0 -75 12.5t-66.5 27.5t-60.5 27.5t-57 12.5q-29 0 -53.5 -10.5t-42.5 -29.5t-28.5 -44.5t-10.5 -54.5q0 -49 28 -75.5t66 -26.5q19 0 34.5 4.5t29.5 11.5l2 -11q-12 -6 -29 -11.5t-36 -5.5q-44 0 -75.5 29t-31.5 83q0 41 16.5 72.5
t43.5 53t62.5 32.5t73.5 11q36 0 69.5 -11t66.5 -24t67.5 -24t73.5 -11q48 0 75 13.5t43.5 29.5t27.5 29.5t26 13.5q12 0 12 -10q0 -5 -7 -11t-17 -12.5l-22 -14.5l-23 -16q-21 -16 -68 -57.5l-108.5 -96l-132 -116.5l-139.5 -121.5l-131 -109.5t-105 -81l2 -2
q31 16 64.5 30t75.5 14q27 0 57 -11t61 -24.5t62.5 -25t61.5 -11.5q43 0 82 20.5t73.5 53t65 73.5t55.5 82z" />
    <glyph glyph-name="bracketleft" unicode="[" horiz-adv-x="389" 
d="M469 699h204l-5 -12h-159l-619 -964h163l-4 -12h-213z" />
    <glyph glyph-name="backslash" unicode="\" horiz-adv-x="311" 
d="M299 5h-20l-276 559l20 -1z" />
    <glyph glyph-name="bracketright" unicode="]" horiz-adv-x="389" 
d="M585 699l-633 -988h-205l4 12h159l621 964h-163l5 12h212z" />
    <glyph glyph-name="asciicircum" unicode="^" horiz-adv-x="600" 
d="M208 166l184 364h20l184 -364h-39l-155 306l-154 -306h-40z" />
    <glyph glyph-name="underscore" unicode="_" horiz-adv-x="500" 
d="M0 -125v50h500v-50h-500z" />
    <glyph glyph-name="grave" unicode="`" horiz-adv-x="222" 
d="M96 572q17 0 26.5 -18t11.5 -44q2 -18 14 -34.5t26 -30t25.5 -22.5t11.5 -13t-5 -4q-4 0 -25.5 14t-45 35t-42.5 45t-19 45q0 8 5.5 17.5t16.5 9.5z" />
    <glyph glyph-name="a" unicode="a" 
d="M387 344h65l-71 -101l-60.5 -90.5t-42.5 -73t-16 -49.5q0 -26 27 -26q21 0 53.5 20.5t70.5 56.5t78 84t76 102l6 -2q-27 -41 -63.5 -88.5t-76.5 -88.5t-80 -68.5t-75 -27.5q-29 0 -42.5 14.5t-13.5 34.5q0 14 4.5 27.5l9.5 27.5l-2 1q-13 -14 -32.5 -32.5t-42 -34.5
t-46.5 -27t-46 -11q-37 0 -52 23t-15 52q0 41 26 90.5t66 93t87 72.5t89 29q20 0 35 -5.5t25 -15t15.5 -21.5t8.5 -25h2zM60 64q0 -23 9.5 -35.5t26.5 -12.5t40 12.5t48 33.5t49.5 48.5t43.5 58.5t31 63t12 61q0 23 -13 35t-32 12q-30 0 -67 -26t-70 -66.5t-55.5 -89.5
t-22.5 -94z" />
    <glyph glyph-name="b" unicode="b" 
d="M450 692l-148.5 -228.5l-106 -162l-70 -108.5t-40.5 -69t-19 -43.5t-5 -31.5q0 -20 12 -32.5t31 -12.5q36 0 77.5 30t76.5 73t58.5 89t23.5 79q0 11 -5 21.5t-5 22.5q0 14 6.5 23.5t21.5 9.5q17 0 26.5 -18t9.5 -47q0 -24 -4 -44q9 -12 30 -23t47 -11q29 0 53.5 15
t41.5 37l7 -7q-16 -20 -43 -37.5t-60 -17.5q-23 0 -43 8.5t-37 22.5q-13 -41 -43.5 -83.5t-71 -77t-86 -56t-88.5 -21.5q-35 0 -59.5 20.5t-24.5 58.5q0 16 6 35.5t21 48.5t41.5 72l67.5 106.5l99 151l136 205.5z" />
    <glyph glyph-name="c" unicode="c" horiz-adv-x="333" 
d="M455 251q-23 -37 -60.5 -79.5t-81.5 -79.5q-54 -45 -108 -72.5t-106 -27.5q-37 0 -62 19.5t-25 57.5q0 48 27.5 98t69 91.5t91 67.5t93.5 26q29 0 50.5 -10.5t21.5 -36.5q0 -12 -6.5 -20t-16 -13t-21 -7.5t-20.5 -3.5q4 10 7 20.5t3 21.5q0 37 -35 37q-26 0 -61.5 -25.5
t-67 -64.5t-53.5 -86t-22 -91q0 -27 12.5 -46t38.5 -19q35 0 80.5 23t88.5 57q45 35 86.5 80.5t69.5 88.5z" />
    <glyph glyph-name="d" unicode="d" 
d="M677 692l-85 -131l-92 -137l-88.5 -131.5l-75.5 -116.5t-52.5 -91.5t-19.5 -56.5q0 -11 5.5 -17.5t16.5 -6.5q25 0 57 20t77 63q39 38 76 84.5t64 91.5l8 -4q-9 -16 -23.5 -37.5t-32 -44.5t-37.5 -46.5t-41 -44.5q-40 -41 -79 -67.5t-72 -26.5q-32 0 -47.5 13.5
t-15.5 34.5q0 19 8 37t16 32l-2 1l-35.5 -38.5t-41.5 -38.5t-46.5 -29.5t-50.5 -11.5q-36 0 -55.5 22t-19.5 52q0 42 29 92t72.5 93t93.5 72t93 29q32 0 51 -20t18 -51h3l258 411h66zM322 280q0 24 -8 42t-37 18q-20 0 -44.5 -14t-49.5 -37t-48.5 -52.5t-41.5 -60t-29 -59.5
t-11 -52q0 -21 8 -35t29 -14q18 0 41.5 14t49.5 36.5t51 51.5t45 58t32.5 56.5t12.5 47.5z" />
    <glyph glyph-name="e" unicode="e" horiz-adv-x="333" 
d="M300 312q0 14 -7.5 21t-18.5 7q-21 0 -45.5 -16.5t-48.5 -41t-43.5 -52.5t-29.5 -50q22 4 55 15.5t63.5 28.5t52.5 39.5t22 48.5zM462 259q-15 -25 -37.5 -55t-51 -59.5t-61 -57t-67.5 -49t-70.5 -34t-69.5 -12.5q-42 0 -65 21.5t-23 61.5q0 44 26.5 92.5t67.5 89.5
t90 68t94 27q25 0 39 -10.5t14 -30.5q0 -24 -26 -46.5t-63.5 -41t-80.5 -33t-76 -21.5q-11 -20 -18 -45t-7 -50q0 -12 2.5 -23.5t8 -21t15 -15.5t23.5 -6q33 0 77.5 21.5t90.5 57.5t88 82t72 95z" />
    <glyph glyph-name="f" unicode="f" horiz-adv-x="222" 
d="M72 332v12h77l80 125t86 113.5t94 82t103 31.5q32 0 52 -13.5t20 -41.5q0 -24 -15 -39.5t-38 -17.5q4 14 6.5 26.5t2.5 29.5q0 20 -9.5 32t-32.5 12q-37 0 -75.5 -33.5t-76 -84.5t-73 -110.5l-67.5 -111.5h226v-12h-232q-96 -164 -172 -281t-146 -192t-140 -110t-155 -35
q-30 0 -57.5 7.5t-48.5 22.5t-34 37.5t-13 52.5q0 39 24.5 66.5t82.5 27.5h9v-8q-30 -2 -51 -23t-21 -58q0 -52 29 -82.5t85 -30.5q54 0 103 24.5t94.5 67.5t89 101t87 125.5l87.5 141l90 146.5h-71z" />
    <glyph glyph-name="g" unicode="g" 
d="M459 344q-60 -81 -113.5 -165l-110.5 -167q50 11 98.5 36t91.5 60t79.5 77t61.5 85l4 -6q-44 -75 -96.5 -125t-101.5 -80t-88 -43.5t-56 -15.5q-5 -3 -20 -26t-40 -56t-59.5 -70t-78 -68.5t-96.5 -52.5t-114 -21q-36 0 -67 8t-53.5 23t-35 36t-12.5 47q0 43 31 71.5
t78 28.5q10 0 16.5 -1t13.5 -3v-8h-8q-39 0 -58 -24.5t-19 -65.5q0 -27 9.5 -46t26 -31t38.5 -17.5t48 -5.5q44 0 86.5 20.5t81.5 54t74.5 75.5t67 84.5t57.5 82l46 67.5l-2 2q-16 -19 -35.5 -38.5t-41.5 -36t-46 -27t-50 -10.5q-19 0 -33 7t-23 18.5t-13 25.5t-4 27
q0 31 13.5 64t35.5 64.5t51 59t60.5 48.5t63.5 33.5t59 12.5q39 0 56.5 -19.5t17.5 -45.5h3l37 57h69zM274 340q-33 0 -71.5 -27.5t-72 -68.5t-55.5 -89t-22 -90q0 -22 11.5 -35.5t29.5 -13.5q14 0 36.5 11.5t47 32t49.5 48t44.5 58.5t32 64.5t12.5 66.5q0 17 -9.5 30
t-32.5 13z" />
    <glyph glyph-name="h" unicode="h" 
d="M454 692l-354 -526l2 -2l47 57.5t58.5 61.5t66.5 49t70 20q61 0 61 -61q0 -16 -11.5 -38t-29 -46.5t-37.5 -49.5l-37.5 -48.5t-29 -44t-11.5 -34.5q0 -11 6.5 -18.5t17.5 -7.5q23 0 50.5 14.5t57 38t58.5 52.5t53.5 57.5t44 54t28.5 41.5l6 -2q-11 -19 -31 -46t-45.5 -57
t-55 -59.5t-59 -53t-58.5 -38t-54 -14.5q-26 0 -42.5 16t-16.5 44q0 20 11.5 44t29 48.5t37.5 49l37.5 46.5t29 40.5t11.5 31.5q0 16 -9 22t-22 6q-25 0 -55.5 -18.5t-63 -48.5t-64.5 -67.5t-60.5 -75.5t-50 -72t-33.5 -58h-65l113 175l115.5 177l112.5 173.5l104 163.5z
" />
    <glyph glyph-name="i" unicode="i" horiz-adv-x="222" 
d="M232 344l-93 -133l-61.5 -90t-34 -57t-10.5 -34q0 -26 21 -26q20 0 46.5 14.5t55.5 37.5t58 52t54.5 57.5t45 55t28.5 43.5l8 -5q-12 -20 -32.5 -48t-46.5 -57.5t-55 -58.5t-59 -52t-58.5 -37t-52.5 -14q-27 0 -40 15t-13 33q0 21 9.5 44.5t30.5 57.5t54.5 82.5
l80.5 119.5h64zM290 530q14 0 23 -9.5t9 -23.5t-9 -23.5t-23 -9.5t-23 9.5t-9 23.5t9 23.5t23 9.5z" />
    <glyph glyph-name="j" unicode="j" horiz-adv-x="222" 
d="M218 344l-211 -333q45 7 90.5 28.5t89 55t83 77.5t73.5 95l9 -4q-31 -47 -69.5 -91t-82.5 -79.5t-94.5 -60t-105.5 -32.5q-33 -53 -75 -105.5t-92.5 -94.5t-110 -68t-127.5 -26q-32 0 -62 7t-53 22t-37 37t-14 52q0 22 9.5 40t25.5 30.5t35.5 19t39.5 6.5q8 0 15 -1
t12 -2v-9h-7q-41 0 -61.5 -25t-20.5 -55q0 -59 34 -84.5t90 -25.5q62 0 116.5 33t101.5 84t88 112l76 118l173 279h62zM280 530q14 0 23 -9.5t9 -23.5t-9 -23.5t-23 -9.5t-23 9.5t-9 23.5t9 23.5t23 9.5z" />
    <glyph glyph-name="k" unicode="k" 
d="M446 692l-164 -255.5t-170 -247.5l2 -2l51.5 58.5t53 53t57 38.5t61.5 15q33 0 47.5 -16t14.5 -39q0 -24 -14.5 -42.5t-36 -32t-47 -21.5t-46.5 -12v-2q12 -6 20.5 -22.5t8.5 -34.5q0 -12 -4.5 -25t-10.5 -27t-10.5 -27.5t-4.5 -27.5q0 -19 16 -19q27 0 68 24t87 70
q32 32 65 71t71 94l9 -6q-19 -27 -55.5 -74t-85.5 -96q-47 -47 -89 -71t-77 -24q-30 0 -46.5 13t-16.5 40q0 14 7 31.5t15 34l15 31t7 23.5q0 19 -17 19q-10 0 -23.5 -4t-30.5 -4q-15 0 -15 9t15 9q6 0 13.5 -1t18.5 -1q30 0 55.5 7t44.5 20.5t29.5 32.5t10.5 43
q0 21 -10 31t-24 10q-19 0 -44 -15.5t-53.5 -42t-58 -61t-57 -72t-51.5 -75t-41 -70.5h-66l221.5 343.5l222.5 345.5z" />
    <glyph glyph-name="l" unicode="l" horiz-adv-x="222" 
d="M455 696l-155 -233.5l-113 -168.5l-77 -115.5t-47 -74.5t-23.5 -46t-6.5 -29q0 -25 22 -25q25 0 58.5 20.5t72 56t78.5 83t78 101.5l11 -4q-36 -51 -76 -98.5t-77 -82.5q-49 -46 -84.5 -67t-64.5 -21q-31 0 -44.5 14t-13.5 37q0 21 7.5 43.5t25.5 54t47.5 76.5l73 110.5
l102.5 156l136 212.5h70z" />
    <glyph glyph-name="m" unicode="m" horiz-adv-x="667" 
d="M-58 0l50.5 81l58 89.5l58 90l51.5 83.5h61l-132 -186l2 -2l46 56.5t59.5 64.5t69.5 53t76 22q24 0 39.5 -12.5t15.5 -36.5q0 -14 -10 -34t-23.5 -40.5t-27.5 -39.5t-22 -31l2 -2q21 30 50.5 64t63 63.5t69 49t68.5 19.5q29 0 43.5 -14t14.5 -39q0 -17 -11.5 -40
t-29 -48.5t-37.5 -51.5l-37.5 -50t-29 -44.5t-11.5 -34.5q0 -12 7.5 -19t18.5 -7q24 0 56.5 19t70 53t78.5 81.5t83 104.5l8 -4q-41 -56 -82 -104.5t-79.5 -84.5t-74 -56.5t-65.5 -20.5q-31 0 -46 17.5t-15 43.5q0 19 11.5 42.5t29 48.5t37.5 50l37.5 48t29 42t11.5 31
q0 14 -7.5 19.5t-18.5 5.5q-20 0 -47 -13.5t-56.5 -38t-60.5 -57t-60.5 -70t-55.5 -79t-45 -82.5h-64q28 50 60.5 100l60.5 92.5t47 74t19 46.5q0 27 -28 27q-25 0 -56 -18.5t-63 -48t-63 -67t-58.5 -75.5t-48.5 -72.5t-33 -58.5h-65z" />
    <glyph glyph-name="n" unicode="n" 
d="M220 344l-132 -183l2 -2l49 58.5t60 63.5t66.5 50.5t68.5 20.5q30 0 46.5 -16.5t16.5 -42.5q0 -16 -11.5 -38t-28.5 -47t-37 -51l-37 -49.5t-28.5 -43t-11.5 -32.5q0 -28 28 -28q32 0 68 21.5t86 72.5q20 20 40.5 44l39.5 47.5t34.5 44.5t24.5 35l7 -4
q-20 -30 -51.5 -71.5t-68.5 -81.5q-22 -24 -45 -46t-46 -38.5t-45.5 -26t-44.5 -9.5q-29 0 -48 16t-19 44q0 30 24 65.5t53 71.5t53 69t24 58q0 12 -8 18t-21 6q-25 0 -56 -18.5t-63.5 -49t-65 -68t-60.5 -75t-50 -72t-33 -57.5h-62l55.5 89.5l58.5 90l55.5 86l47.5 75.5z
" />
    <glyph glyph-name="o" unicode="o" 
d="M569 253q-24 -27 -54 -43t-59 -16q-28 0 -48 12.5t-31 29.5h-2q-10 -38 -37 -81t-64.5 -79t-82.5 -60t-92 -24q-43 0 -65 25t-22 67q0 22 11 51t30.5 58.5t46 58t57.5 51t65.5 36t69.5 13.5q41 0 63.5 -24t24.5 -62q2 -23 21.5 -42.5t53.5 -19.5q30 0 56.5 15t49.5 39z
M66 60q0 -26 10 -41t30 -15q27 0 53.5 14.5t51 38t45.5 53.5t36.5 62t24.5 62.5t9 55.5q0 21 -10.5 35.5t-32.5 14.5q-21 0 -45 -13.5t-48.5 -35.5t-46.5 -51t-39.5 -60t-27.5 -62t-10 -58z" />
    <glyph glyph-name="p" unicode="p" 
d="M358 538q-53 -81 -110 -159t-109 -160l2 -2q15 20 35 43.5t43 44t50 34t55 13.5q32 0 54 -17t22 -59q0 -26 -7 -49.5t-18.5 -44t-26 -38t-29.5 -32.5l2 -2q72 13 130.5 49t116.5 108l8 -4q-45 -55 -84 -86t-72 -46.5t-61 -21.5t-53 -12q-17 -13 -38.5 -31t-45.5 -34.5
t-50 -28t-53 -11.5q-14 0 -27.5 7.5t-13.5 24.5q0 21 20.5 35t50 22.5t61.5 13t54 6.5q13 15 26.5 36.5t24.5 45.5t18 49.5t7 47.5q0 35 -10 45.5t-24 10.5q-23 0 -48.5 -16.5t-51.5 -43t-51.5 -59t-47.5 -64.5l-40 -59.5t-30 -43.5l-26 -38l-38 -57l-44.5 -69l-46.5 -74.5
l-44 -72.5l-37 -63h-62l275.5 430.5l277.5 431.5h66zM133 4q15 0 33.5 10t36 24t31.5 28t20 21l-2 2q-17 -3 -42.5 -6.5t-49 -9.5t-40 -16.5t-16.5 -28.5q0 -12 9 -18t20 -6z" />
    <glyph glyph-name="q" unicode="q" 
d="M446 344l-215 -332q61 12 111.5 39t92 62t74 74.5t57.5 76.5l6 -5q-25 -41 -60.5 -82.5t-79.5 -77t-96 -61.5t-112 -37l-106.5 -161l-103.5 -164h-64l145 217t149 214l-2 2l-37 -40t-40.5 -38t-46.5 -28t-55 -11q-38 0 -56 23t-18 58q0 28 14 59.5t37 62.5t53 59.5
t62.5 50t64.5 34.5t59 13q33 0 52 -21t19 -44h2l34 57h60zM274 340q-24 0 -50 -14.5t-51 -38.5t-47.5 -54.5t-39.5 -62t-27 -61t-10 -52.5q0 -49 40 -49q17 0 41 14t49 37.5t50 53.5t45 61t32 61t12 53t-9 37.5t-35 14.5z" />
    <glyph glyph-name="r" unicode="r" horiz-adv-x="333" 
d="M222 344l-127 -185l2 -2q14 17 35.5 39.5t47 46t53.5 46.5t55 41q5 10 11 16t24 6q11 0 19.5 -0.5t17.5 -1.5q-17 -17 -33 -41.5t-16 -53.5q0 -23 11.5 -36t28.5 -13q15 0 29.5 6t27.5 15t25 19l21 18l6 -4q-10 -10 -23 -21.5t-28 -21.5t-32 -16.5t-35 -6.5
q-32 0 -51.5 19.5t-19.5 54.5q0 24 11 43l-2 2q-41 -28 -90 -73.5t-104 -107.5q-20 -22 -41.5 -58t-37.5 -74h-65l108 171l111 173h61z" />
    <glyph glyph-name="s" unicode="s" horiz-adv-x="333" 
d="M459 258q-30 -48 -69.5 -95.5t-86.5 -85.5t-102.5 -61.5t-118.5 -23.5q-24 0 -45 6t-36.5 18t-25 30.5t-9.5 43.5q0 26 17 47t46 21q15 0 24.5 -7.5t9.5 -22.5q0 -14 -7 -24t-21 -10q-11 0 -17.5 6t-8.5 15q-11 -6 -15 -17.5t-4 -23.5q0 -35 26.5 -52.5t59.5 -17.5
q21 0 36.5 8.5t26 22t15.5 31.5t5 36q0 19 -6.5 39.5t-14.5 40.5t-15 39.5t-7 36.5q0 22 9 39.5t24.5 29.5t35.5 18.5t42 6.5q40 0 65 -17.5t25 -46.5q0 -26 -19.5 -38t-43.5 -12q6 11 10.5 26.5t4.5 28.5q0 20 -12.5 33.5t-35.5 13.5q-29 0 -43 -17.5t-14 -42.5
q0 -22 7.5 -42t17.5 -40q9 -20 16.5 -41t7.5 -47q0 -19 -8.5 -36.5t-22.5 -32t-31.5 -24.5t-35.5 -13l2 -2q54 6 103 31.5t91.5 62t78.5 80t63 85.5z" />
    <glyph glyph-name="t" unicode="t" horiz-adv-x="278" 
d="M296 460l-79 -116h132l-6 -12h-134l-71.5 -112.5l-53 -82t-32.5 -58t-11 -41.5q0 -19 13 -26.5t30 -7.5q36 0 79.5 27.5t86.5 67.5t82 85t66 81l6 -4l-74.5 -90.5t-83.5 -87t-86.5 -65.5t-82.5 -26q-31 0 -53.5 19t-22.5 53q0 23 13 51.5t34 61.5l47.5 72l54.5 83h-54
l6 12h56l78 116h60z" />
    <glyph glyph-name="u" unicode="u" 
d="M232 344l-75 -101l-64 -88t-44.5 -69.5t-16.5 -46.5q0 -16 8 -23.5t21 -7.5q19 0 41.5 12t46 31t46 42t42 45.5t34 41.5t21.5 30l88 134h69l-91.5 -125.5t-61 -87.5t-33.5 -58.5t-10 -39.5q0 -12 7 -20.5t20 -8.5q20 0 46 14.5t54 38t55.5 53t52 58.5l44.5 54.5t31 41.5
l10 -3l-32 -43.5t-45 -56l-53 -60t-57.5 -54.5t-58 -39.5t-53.5 -15.5q-28 0 -44.5 15.5t-16.5 41.5q0 20 6.5 38.5t9.5 23.5l-2 2q-21 -24 -44 -46t-46 -38.5t-46.5 -26.5t-46.5 -10q-32 0 -46 14.5t-14 34.5q0 25 13.5 54t37.5 65t57.5 81l73.5 103h66z" />
    <glyph glyph-name="v" unicode="v" 
d="M231 344l-48 -63t-56.5 -79.5t-47.5 -82.5t-20 -71q0 -18 11 -31t37 -13q39 0 80 31t75 75.5t56 92t22 80.5q0 8 -4 17t-4 20q0 12 7 22t20 10q14 0 24.5 -16t10.5 -55q0 -11 -1.5 -20.5t-2.5 -18.5q11 -15 32 -24.5t41 -9.5q26 0 55.5 13.5t48.5 44.5l8 -5
q-7 -15 -19.5 -27t-27.5 -20.5t-32 -13t-34 -4.5q-22 0 -42 9.5t-34 21.5q-12 -39 -42.5 -80.5t-70.5 -76t-85.5 -56.5t-89.5 -22q-42 0 -64.5 19.5t-22.5 64.5q0 30 18.5 65.5t43.5 72t51 70.5t42 60h65z" />
    <glyph glyph-name="w" unicode="w" horiz-adv-x="667" 
d="M235 344q-42 -58 -77 -101.5t-60 -78t-38.5 -63t-13.5 -55.5q0 -42 35 -42q33 0 70 29.5t75.5 77.5t79 109l80.5 124h69l-46.5 -63t-56.5 -81.5t-48 -83t-20 -68.5q0 -20 10.5 -32t30.5 -12q36 0 76 27t74.5 68.5t58.5 90.5t28 92q-7 10 -9.5 20t-2.5 18q0 32 30 32
q21 0 28.5 -18t7.5 -44q0 -13 -2 -25.5t-4 -23.5q13 -12 30.5 -22.5t44.5 -10.5q36 0 61 14.5t39 40.5l9 -6q-34 -61 -111 -61q-22 0 -41.5 8.5t-34.5 22.5q-16 -42 -49 -83.5t-74 -75.5t-85.5 -55t-83.5 -21q-33 0 -56 18t-23 53q0 19 5 33.5t7 21.5l-2 2
q-20 -26 -41 -49.5t-42.5 -41t-43.5 -27.5t-45 -10q-38 0 -57 19.5t-19 52.5q0 24 12 50.5t34 60t53.5 75l71.5 94.5h66z" />
    <glyph glyph-name="x" unicode="x" horiz-adv-x="500" 
d="M628 266q-22 -39 -62 -86.5t-87 -89.5t-96.5 -70t-92.5 -28q-36 0 -55 17t-19 43q0 25 11 47l-2 2q-16 -21 -36.5 -40.5t-44 -35t-49.5 -24.5t-53 -9q-47 0 -73.5 23t-26.5 61q0 26 15 44t36 18q19 0 27 -10t8 -23t-7.5 -22t-21.5 -9q-19 0 -25 14q-12 -10 -12 -26
q0 -28 22.5 -43t57.5 -15q26 0 54.5 14.5t55 38t50.5 54t42 62.5t28.5 63t10.5 55t-11.5 40.5t-35.5 16.5q-19 0 -35.5 -9.5t-30.5 -24t-24.5 -30l-18.5 -27.5l-9 6q12 19 24.5 36.5t27.5 31t34 21.5t43 8q23 0 39.5 -7.5t27.5 -20.5t17 -29t6 -34q12 13 29.5 27.5t38.5 27
t45 20.5t49 8q32 0 50.5 -15.5t18.5 -37.5q0 -14 -13 -26t-34 -12q-4 0 -14 2l9 25.5t4 21.5q0 30 -28 30q-23 0 -49 -13.5t-51 -36t-48.5 -51t-41 -59t-28 -59.5t-10.5 -53q0 -29 11.5 -44.5t37.5 -15.5q22 0 49 13t57 34t60 48.5t57 56.5t49 57.5t35 51.5z" />
    <glyph glyph-name="y" unicode="y" 
d="M232 344l-72 -100l-64.5 -88t-46.5 -70.5t-18 -48.5q0 -29 28 -29q29 0 67.5 28t81.5 74.5t87.5 107t85.5 126.5h62q-59 -81 -110 -166.5t-107 -169.5q95 17 181.5 83.5t153.5 165.5l7 -3q-72 -110 -163.5 -176.5t-185.5 -81.5l-79.5 -107.5t-89 -98t-106.5 -71
t-131 -27.5q-33 0 -62.5 8.5t-51.5 23.5t-35 36t-13 45q0 52 34.5 76t83.5 24v-3q-36 -8 -53 -32.5t-17 -61.5q0 -25 10 -44.5t26 -32.5t36.5 -20t42.5 -7q47 0 91 22t84.5 58t77.5 81.5t70 94t61.5 95l52.5 83.5l-2 2l-39 -44.5t-50.5 -48.5t-58.5 -39t-64 -16
q-32 0 -46 13t-14 35q0 20 10.5 42.5t33.5 56.5l58.5 83l85.5 122h67z" />
    <glyph glyph-name="z" unicode="z" horiz-adv-x="389" 
d="M519 263q-21 -40 -55.5 -87.5t-75 -88t-83.5 -68t-81 -27.5q-23 0 -41 7.5t-35 16.5t-35 16.5t-41 7.5q-14 0 -25.5 -7.5t-20.5 -15.5t-16 -15.5t-14 -7.5q-6 0 -6 7q0 6 35.5 33.5l91.5 69.5l125.5 95.5l138.5 110.5l-2 2q-12 -10 -33 -17t-42 -7q-11 0 -24.5 5t-28 11
t-29.5 11t-29 5q-12 0 -22 -7t-18.5 -17.5t-16 -22.5t-14.5 -22l-7 3l22.5 39t23.5 31t29.5 20.5t38.5 7.5q23 0 41 -5t33 -11l28 -11t24 -5q25 0 39 7.5t22.5 16.5t14 16.5t11.5 7.5t6 -8q0 -4 -23 -25t-59 -50.5l-80 -65l-87.5 -68.5l-81 -60t-59.5 -41l2 -2q20 8 38.5 13
t35.5 5q21 0 39.5 -6.5t34.5 -14.5l29.5 -14.5t24.5 -6.5q27 0 60.5 21.5t67 56t66 78t58.5 87.5z" />
    <glyph glyph-name="braceleft" unicode="{" horiz-adv-x="389" 
d="M287 352q-19 -30 -37 -54t-38 -42t-43.5 -30t-54.5 -20l-1 -2q34 -11 34 -44q0 -21 -11.5 -44t-33.5 -58l-121 -191q-23 -37 -34.5 -61.5t-11.5 -41.5q0 -14 12 -26t29 -12l-9 -12q-43 0 -60.5 16t-17.5 36t13 47.5t33 59.5l127 202q20 29 29.5 49.5t9.5 37.5t-8.5 26.5
t-24.5 16.5q29 8 50.5 19t39.5 26.5t34.5 36.5t33.5 48l128 202q32 51 61.5 82t58 48.5t56.5 23t57 5.5l-8 -12q-25 0 -46 -8t-41 -25.5t-40.5 -44t-43.5 -63.5z" />
    <glyph glyph-name="bar" unicode="|" horiz-adv-x="222" 
d="M487 712h34l-462 -712h-34z" />
    <glyph glyph-name="braceright" unicode="}" horiz-adv-x="389" 
d="M108 58q19 30 37 54t38 42t43.5 30.5t54.5 19.5l1 2q-34 11 -34 44q0 21 11.5 44t33.5 58l121 191q23 37 34.5 61.5t11.5 41.5q0 14 -12 26t-29 12l9 12q43 0 60.5 -16t17.5 -36t-13 -47.5t-33 -59.5l-127 -202q-20 -29 -29.5 -49.5t-9.5 -37.5t8.5 -26.5t24.5 -16.5
q-28 -8 -50 -19t-40 -26.5t-34.5 -36.5t-33.5 -48l-128 -202q-32 -51 -61.5 -82t-58 -48.5t-56.5 -23t-57 -5.5l8 12q25 0 46 8t41 25.5t40.5 44t43.5 63.5z" />
    <glyph glyph-name="asciitilde" unicode="~" horiz-adv-x="600" 
d="M95 153q20 23 45 41q21 16 48.5 29t59.5 13q31 0 63.5 -12.5t63.5 -27.5t61 -27.5t57 -12.5q19 0 36 10.5t31 24.5q16 16 30 36l8 -6q-21 -28 -46 -49q-22 -19 -50.5 -34t-62.5 -15q-27 0 -57.5 12t-62 26.5t-64 26.5t-64.5 12q-20 0 -35.5 -8.5t-27.5 -18.5
q-14 -11 -25 -26z" />
    <glyph glyph-name="Adieresis" unicode="&#xc4;" horiz-adv-x="944" 
d="M597 311q-49 -62 -101 -119.5t-104.5 -102t-104.5 -71t-100 -26.5q-33 0 -52.5 7.5t-30 18t-14 22t-3.5 20.5q0 17 10 29t28 12q16 0 25 -11t9 -26q0 -9 -5 -18t-14 -11q9 -14 25 -18.5t33 -4.5q43 0 90.5 25t96 65.5t96.5 92t92 105.5l47.5 59l64.5 76t78.5 83.5
t90.5 80.5t100 68t106 45l3 -4q-34 -31 -71 -77t-72.5 -99.5t-67.5 -112.5t-56.5 -117.5t-39 -112.5t-14.5 -99q0 -31 10.5 -52.5t42.5 -21.5q19 0 43.5 14t51.5 37t53.5 51l50.5 55.5t43 52l30 39.5l7 -3l-72 -91t-77 -87.5t-78.5 -65.5t-75.5 -26q-24 0 -40.5 8.5
t-27.5 23.5t-16 34t-5 40q0 57 16 109.5t36 103.5h-137zM739 323q45 93 106.5 182t145.5 169l-2 2q-53 -26 -103.5 -64t-98.5 -84t-93.5 -98t-88.5 -107h134zM1132 842q12 0 18.5 -12t6.5 -23q0 -15 -10.5 -26t-27.5 -11q-13 0 -19.5 11t-6.5 23q0 17 11 27.5t28 10.5z
M988 842q12 0 18.5 -12t6.5 -23q0 -15 -10.5 -26t-27.5 -11q-13 0 -19.5 11t-6.5 23q0 17 11 27.5t28 10.5z" />
    <glyph glyph-name="Aring" unicode="&#xc5;" horiz-adv-x="944" 
d="M597 311q-49 -62 -101 -119.5t-104.5 -102t-104.5 -71t-100 -26.5q-33 0 -52.5 7.5t-30 18t-14 22t-3.5 20.5q0 17 10 29t28 12q16 0 25 -11t9 -26q0 -9 -5 -18t-14 -11q9 -14 25 -18.5t33 -4.5q43 0 90.5 25t96 65.5t96.5 92t92 105.5l47.5 59l64.5 76t78.5 83.5
t90.5 80.5t100 68t106 45l3 -4q-34 -31 -71 -77t-72.5 -99.5t-67.5 -112.5t-56.5 -117.5t-39 -112.5t-14.5 -99q0 -31 10.5 -52.5t42.5 -21.5q19 0 43.5 14t51.5 37t53.5 51l50.5 55.5t43 52l30 39.5l7 -3l-72 -91t-77 -87.5t-78.5 -65.5t-75.5 -26q-24 0 -40.5 8.5
t-27.5 23.5t-16 34t-5 40q0 57 16 109.5t36 103.5h-137zM739 323q45 93 106.5 182t145.5 169l-2 2q-53 -26 -103.5 -64t-98.5 -84t-93.5 -98t-88.5 -107h134zM968 781q0 21 9 40.5t24 33.5t35 22.5t42 8.5q25 0 43.5 -16.5t18.5 -46.5q0 -21 -9 -40.5t-24 -33.5t-35 -22.5
t-42 -8.5q-25 0 -43.5 16t-18.5 47zM1116 841q0 16 -9.5 26.5t-27.5 10.5q-17 0 -32.5 -12t-27.5 -29.5t-19.5 -37.5t-7.5 -36t10 -26.5t27 -10.5t32.5 12t27.5 29.5t19.5 37.5t7.5 36z" />
    <glyph glyph-name="Ccedilla" unicode="&#xc7;" horiz-adv-x="667" 
d="M546 556q-1 -6 -1 -12v-12q0 -21 7.5 -35t19.5 -22.5t27.5 -12t31.5 -3.5q27 0 55 13.5t51 37t37.5 54.5t14.5 65q0 42 -23 56.5t-62 14.5q-45 0 -99 -21.5t-109.5 -59.5t-107 -90t-92 -113t-64.5 -128t-24 -136q0 -28 7 -56t22 -50.5t39 -36t58 -13.5q49 0 93.5 22.5
t78 58.5t53.5 80.5t20 88.5q0 40 -23.5 61t-63.5 21l-1 12q63 0 93.5 -25t30.5 -85q0 -35 -18.5 -78t-54.5 -80.5t-89.5 -62.5t-122.5 -25q-52 0 -87.5 18t-57.5 45t-31.5 58.5t-9.5 58.5q0 63 27 128.5t71.5 126.5t102.5 114.5t119.5 93t123 62.5t112.5 23q63 0 94 -26
t31 -76q0 -35 -16.5 -65t-44 -51.5t-62.5 -34t-72 -12.5q-39 0 -67 18.5t-30 63.5v13q0 8 1 14h12zM115 -167q17 -3 34 -4t34 -1q13 0 31.5 2.5t34.5 8.5t27.5 17.5t11.5 29.5q0 24 -17 29.5t-60 6.5l45 74h11l-33 -54q16 -1 33 -2.5t31.5 -7t24 -15.5t9.5 -27
q0 -23 -16.5 -37.5t-39 -22.5t-46.5 -11t-40 -3q-20 0 -39 1t-37 8z" />
    <glyph glyph-name="Eacute" unicode="&#xc9;" horiz-adv-x="667" 
d="M335 185q31 43 72.5 69t95.5 26t81 -27.5t27 -67.5q0 -36 -27 -71.5t-69 -64.5t-93.5 -47t-101.5 -18q-55 0 -97.5 12t-72 34t-45 52t-15.5 66q0 50 19.5 86t51 63t73 48t84.5 40q17 8 27 14.5t15.5 17.5t7.5 28.5t2 46.5q0 44 14 83.5t42.5 70t72 48.5t101.5 18
q24 0 48 -5.5t43.5 -18t32 -32t12.5 -46.5q0 -33 -15 -59t-39 -44t-53 -27t-57 -9q-14 0 -27 2t-18 4l1 11q13 -5 44 -5q30 0 52.5 14t37.5 34t22.5 42t7.5 39q0 46 -27 67t-75 21q-44 0 -74 -19.5t-48 -49t-26 -64t-8 -63.5q0 -38 -16 -64t-51 -42l-77.5 -36t-68.5 -43.5
t-48.5 -62t-18.5 -92.5q0 -31 13 -61t36 -52.5t55.5 -36.5t71.5 -14q36 0 76 11t73.5 33t55.5 55.5t22 78.5q0 44 -18 67t-58 23q-21 0 -41 -7.5t-38 -20t-33.5 -28.5t-26.5 -32zM699 892q11 0 16.5 -9.5t5.5 -17.5q0 -21 -19 -45t-42.5 -45t-44.5 -35t-26 -14t-5 4t11.5 13
t25.5 22.5t26.5 30t13.5 34.5q2 26 11.5 44t26.5 18z" />
    <glyph glyph-name="Ntilde" unicode="&#xd1;" horiz-adv-x="722" 
d="M1004 549q19 11 27.5 33.5t8.5 42.5t-13.5 32.5t-35.5 12.5q-33 0 -68 -22t-68 -54t-61 -69t-48 -67q-63 -98 -122.5 -218t-115.5 -248h-7q12 59 12 115q0 50 -6 99t-13 99q-7 49 -13 98t-6 99q0 18 0.5 35.5t0.5 36.5h-2l-45.5 -98.5t-60 -123.5t-74 -129t-86 -115.5
t-95.5 -83.5t-104 -32q-12 0 -25.5 3t-25 9t-19 16t-7.5 24q0 16 11 26.5t27 10.5q13 0 21.5 -8.5t8.5 -21.5q0 -7 -2.5 -14.5t-10.5 -9.5q1 -5 10 -12t28 -7q46 0 91.5 30.5t89 80.5t84 115.5t77 134.5t68.5 137.5l57 125.5q2 10 5.5 23.5t10.5 26t17.5 21.5t24.5 9
q-3 -10 -8 -20.5t-9 -25.5t-7 -36.5t-3 -55.5q0 -41 6 -81.5t13 -83.5t13 -89t6 -98q0 -29 -4 -60t-14 -67l2 -2l41 89.5l48.5 99.5t52.5 98t51 85q35 53 70 96.5t70 75.5t69 49.5t66 17.5q34 0 54.5 -18.5t20.5 -46.5q0 -18 -7.5 -33t-19.5 -27.5t-27 -21.5t-30 -14v6z
M828 776q-18 0 -35.5 5.5t-34.5 12.5t-33.5 12.5t-33.5 5.5q-14 0 -23 -7t-14.5 -15t-9 -15t-7.5 -7t-4 10q0 12 4.5 24.5t13.5 23t23 17.5t33 7q12 0 28.5 -5.5t35.5 -13.5t37.5 -13.5t32.5 -5.5q21 0 36.5 11t15.5 24q0 9 7 9q5 0 5 -6q0 -14 -5.5 -28.5t-16 -25
t-24.5 -16.5t-31 -4z" />
    <glyph glyph-name="Odieresis" unicode="&#xd6;" horiz-adv-x="778" 
d="M686 583q0 17 -3 32t-11 26.5t-23.5 18.5t-39.5 7h-12q-6 0 -12 -2q-14 -15 -28 -36.5t-25 -47.5t-18 -55t-7 -59q0 -155 124 -232q48 77 76.5 166t28.5 180q0 19 -2 40t-9 38.5t-21.5 29t-39.5 11.5q-18 0 -35.5 -5.5t-28.5 -13.5l2 -2h14q25 0 41 -8t25 -21.5t12.5 -31
t3.5 -35.5h-12zM232 146q0 -24 6.5 -48.5t20 -44.5t34 -32.5t47.5 -12.5q37 0 79 21.5t81.5 54t72.5 70.5t52 71q-66 39 -100 99.5t-34 134.5q0 22 4 47.5t13 51.5t23 52.5t35 49.5l-2 2q-63 -19 -122.5 -71.5t-106 -124.5t-75 -155.5t-28.5 -164.5zM903 263
q-15 -16 -34.5 -29t-40.5 -22t-42 -14t-40 -5q-32 0 -55 6t-43 14q-24 -35 -60.5 -74t-79.5 -71.5t-90 -54t-92 -21.5q-79 0 -118.5 45.5t-39.5 122.5q0 62 20.5 122.5t54.5 116t77.5 103.5t89.5 85t90.5 60.5t80.5 29.5q15 14 37.5 24.5t48.5 10.5q61 0 89 -39t28 -115
q0 -40 -12 -85.5t-30.5 -90.5t-41.5 -86t-46 -73q20 -9 42.5 -13.5t50.5 -4.5q40 0 79 18t71 47zM777 842q12 0 18.5 -12t6.5 -23q0 -15 -10.5 -26t-27.5 -11q-13 0 -19.5 11t-6.5 23q0 17 11 27.5t28 10.5zM633 842q12 0 18.5 -12t6.5 -23q0 -15 -10.5 -26t-27.5 -11
q-13 0 -19.5 11t-6.5 23q0 17 11 27.5t28 10.5z" />
    <glyph glyph-name="Udieresis" unicode="&#xdc;" horiz-adv-x="833" 
d="M976 696l-154.5 -240l-122 -183.5t-80 -132.5t-28.5 -87q0 -22 10.5 -35.5t34.5 -13.5q36 0 78 25.5t84 64.5t82 85l73 87l8 -3l-80.5 -98.5t-84.5 -87t-86.5 -62t-86.5 -23.5q-42 0 -61 24t-19 63q0 22 10.5 47t21.5 42l-2 2q-24 -26 -57 -57t-70 -58t-76 -45t-76 -18
q-35 0 -55.5 18t-20.5 52t24 82t59.5 103t77.5 113.5t77.5 113.5t59.5 102t24 80q0 25 -17.5 34.5t-40.5 9.5q-50 0 -101.5 -23.5t-93 -61t-68 -84t-26.5 -91.5q0 -32 16.5 -53t56.5 -21q20 0 37.5 7t32.5 18t26.5 24t19.5 26l11 -2q-9 -15 -23 -30.5t-30.5 -27.5
t-35.5 -19.5t-39 -7.5q-39 0 -61.5 21.5t-22.5 63.5q0 45 26.5 93.5t70 88.5t99.5 65.5t116 25.5q42 0 68.5 -20t26.5 -59q0 -33 -23.5 -80.5t-58.5 -102t-76 -112l-76 -111t-58.5 -99t-23.5 -76.5q0 -24 12 -34t26 -10q36 0 80 25t86 60t77.5 72.5t53.5 62.5
q48 65 122 182.5l180 285.5h67zM857 842q12 0 18.5 -12t6.5 -23q0 -15 -10.5 -26t-27.5 -11q-13 0 -19.5 11t-6.5 23q0 17 11 27.5t28 10.5zM713 842q12 0 18.5 -12t6.5 -23q0 -15 -10.5 -26t-27.5 -11q-13 0 -19.5 11t-6.5 23q0 17 11 27.5t28 10.5z" />
    <glyph glyph-name="aacute" unicode="&#xe1;" 
d="M387 344h65l-71 -101l-60.5 -90.5t-42.5 -73t-16 -49.5q0 -26 27 -26q21 0 53.5 20.5t70.5 56.5t78 84t76 102l6 -2q-27 -41 -63.5 -88.5t-76.5 -88.5t-80 -68.5t-75 -27.5q-29 0 -42.5 14.5t-13.5 34.5q0 14 4.5 27.5l9.5 27.5l-2 1q-13 -14 -32.5 -32.5t-42 -34.5
t-46.5 -27t-46 -11q-37 0 -52 23t-15 52q0 41 26 90.5t66 93t87 72.5t89 29q20 0 35 -5.5t25 -15t15.5 -21.5t8.5 -25h2zM60 64q0 -23 9.5 -35.5t26.5 -12.5t40 12.5t48 33.5t49.5 48.5t43.5 58.5t31 63t12 61q0 23 -13 35t-32 12q-30 0 -67 -26t-70 -66.5t-55.5 -89.5
t-22.5 -94zM425 572q11 0 16.5 -9.5t5.5 -17.5q0 -21 -19 -45t-42.5 -45t-44.5 -35t-26 -14t-5 4t11.5 13t25.5 22.5t26.5 30t13.5 34.5q2 26 11.5 44t26.5 18z" />
    <glyph glyph-name="agrave" unicode="&#xe0;" 
d="M387 344h65l-71 -101l-60.5 -90.5t-42.5 -73t-16 -49.5q0 -26 27 -26q21 0 53.5 20.5t70.5 56.5t78 84t76 102l6 -2q-27 -41 -63.5 -88.5t-76.5 -88.5t-80 -68.5t-75 -27.5q-29 0 -42.5 14.5t-13.5 34.5q0 14 4.5 27.5l9.5 27.5l-2 1q-13 -14 -32.5 -32.5t-42 -34.5
t-46.5 -27t-46 -11q-37 0 -52 23t-15 52q0 41 26 90.5t66 93t87 72.5t89 29q20 0 35 -5.5t25 -15t15.5 -21.5t8.5 -25h2zM60 64q0 -23 9.5 -35.5t26.5 -12.5t40 12.5t48 33.5t49.5 48.5t43.5 58.5t31 63t12 61q0 23 -13 35t-32 12q-30 0 -67 -26t-70 -66.5t-55.5 -89.5
t-22.5 -94zM230 572q17 0 26.5 -18t11.5 -44q2 -18 14 -34.5t26 -30t25.5 -22.5t11.5 -13t-5 -4q-4 0 -25.5 14t-45 35t-42.5 45t-19 45q0 8 5.5 17.5t16.5 9.5z" />
    <glyph glyph-name="acircumflex" unicode="&#xe2;" 
d="M387 344h65l-71 -101l-60.5 -90.5t-42.5 -73t-16 -49.5q0 -26 27 -26q21 0 53.5 20.5t70.5 56.5t78 84t76 102l6 -2q-27 -41 -63.5 -88.5t-76.5 -88.5t-80 -68.5t-75 -27.5q-29 0 -42.5 14.5t-13.5 34.5q0 14 4.5 27.5l9.5 27.5l-2 1q-13 -14 -32.5 -32.5t-42 -34.5
t-46.5 -27t-46 -11q-37 0 -52 23t-15 52q0 41 26 90.5t66 93t87 72.5t89 29q20 0 35 -5.5t25 -15t15.5 -21.5t8.5 -25h2zM60 64q0 -23 9.5 -35.5t26.5 -12.5t40 12.5t48 33.5t49.5 48.5t43.5 58.5t31 63t12 61q0 23 -13 35t-32 12q-30 0 -67 -26t-70 -66.5t-55.5 -89.5
t-22.5 -94zM226 413q39 37 75.5 76.5t68.5 82.5h16q0 -44 15 -82.5t41 -80.5l-8 -5q-26 29 -43.5 54.5t-32.5 54.5q-30 -29 -61.5 -56.5t-66.5 -50.5z" />
    <glyph glyph-name="adieresis" unicode="&#xe4;" 
d="M387 344h65l-71 -101l-60.5 -90.5t-42.5 -73t-16 -49.5q0 -26 27 -26q21 0 53.5 20.5t70.5 56.5t78 84t76 102l6 -2q-27 -41 -63.5 -88.5t-76.5 -88.5t-80 -68.5t-75 -27.5q-29 0 -42.5 14.5t-13.5 34.5q0 14 4.5 27.5l9.5 27.5l-2 1q-13 -14 -32.5 -32.5t-42 -34.5
t-46.5 -27t-46 -11q-37 0 -52 23t-15 52q0 41 26 90.5t66 93t87 72.5t89 29q20 0 35 -5.5t25 -15t15.5 -21.5t8.5 -25h2zM60 64q0 -23 9.5 -35.5t26.5 -12.5t40 12.5t48 33.5t49.5 48.5t43.5 58.5t31 63t12 61q0 23 -13 35t-32 12q-30 0 -67 -26t-70 -66.5t-55.5 -89.5
t-22.5 -94zM430 522q12 0 18.5 -12t6.5 -23q0 -15 -10.5 -26t-27.5 -11q-13 0 -19.5 11t-6.5 23q0 17 11 27.5t28 10.5zM286 522q12 0 18.5 -12t6.5 -23q0 -15 -10.5 -26t-27.5 -11q-13 0 -19.5 11t-6.5 23q0 17 11 27.5t28 10.5z" />
    <glyph glyph-name="atilde" unicode="&#xe3;" 
d="M387 344h65l-71 -101l-60.5 -90.5t-42.5 -73t-16 -49.5q0 -26 27 -26q21 0 53.5 20.5t70.5 56.5t78 84t76 102l6 -2q-27 -41 -63.5 -88.5t-76.5 -88.5t-80 -68.5t-75 -27.5q-29 0 -42.5 14.5t-13.5 34.5q0 14 4.5 27.5l9.5 27.5l-2 1q-13 -14 -32.5 -32.5t-42 -34.5
t-46.5 -27t-46 -11q-37 0 -52 23t-15 52q0 41 26 90.5t66 93t87 72.5t89 29q20 0 35 -5.5t25 -15t15.5 -21.5t8.5 -25h2zM60 64q0 -23 9.5 -35.5t26.5 -12.5t40 12.5t48 33.5t49.5 48.5t43.5 58.5t31 63t12 61q0 23 -13 35t-32 12q-30 0 -67 -26t-70 -66.5t-55.5 -89.5
t-22.5 -94zM411 456q-18 0 -35.5 5.5t-34.5 12.5t-33.5 12.5t-33.5 5.5q-14 0 -23 -7t-14.5 -15t-9 -15t-7.5 -7t-4 10q0 12 4.5 24.5t13.5 23t23 17.5t33 7q12 0 28.5 -5.5t35.5 -13.5t37.5 -13.5t32.5 -5.5q21 0 36.5 11t15.5 24q0 9 7 9q5 0 5 -6q0 -14 -5.5 -28.5
t-16 -25t-24.5 -16.5t-31 -4z" />
    <glyph glyph-name="aring" unicode="&#xe5;" 
d="M387 344h65l-71 -101l-60.5 -90.5t-42.5 -73t-16 -49.5q0 -26 27 -26q21 0 53.5 20.5t70.5 56.5t78 84t76 102l6 -2q-27 -41 -63.5 -88.5t-76.5 -88.5t-80 -68.5t-75 -27.5q-29 0 -42.5 14.5t-13.5 34.5q0 14 4.5 27.5l9.5 27.5l-2 1q-13 -14 -32.5 -32.5t-42 -34.5
t-46.5 -27t-46 -11q-37 0 -52 23t-15 52q0 41 26 90.5t66 93t87 72.5t89 29q20 0 35 -5.5t25 -15t15.5 -21.5t8.5 -25h2zM60 64q0 -23 9.5 -35.5t26.5 -12.5t40 12.5t48 33.5t49.5 48.5t43.5 58.5t31 63t12 61q0 23 -13 35t-32 12q-30 0 -67 -26t-70 -66.5t-55.5 -89.5
t-22.5 -94zM266 461q0 21 9 40.5t24 33.5t35 22.5t42 8.5q25 0 43.5 -16.5t18.5 -46.5q0 -21 -9 -40.5t-24 -33.5t-35 -22.5t-42 -8.5q-25 0 -43.5 16t-18.5 47zM414 521q0 16 -9.5 26.5t-27.5 10.5q-17 0 -32.5 -12t-27.5 -29.5t-19.5 -37.5t-7.5 -36t10 -26.5t27 -10.5
t32.5 12t27.5 29.5t19.5 37.5t7.5 36z" />
    <glyph glyph-name="ccedilla" unicode="&#xe7;" horiz-adv-x="333" 
d="M455 251q-23 -37 -60.5 -79.5t-81.5 -79.5q-54 -45 -108 -72.5t-106 -27.5q-37 0 -62 19.5t-25 57.5q0 48 27.5 98t69 91.5t91 67.5t93.5 26q29 0 50.5 -10.5t21.5 -36.5q0 -12 -6.5 -20t-16 -13t-21 -7.5t-20.5 -3.5q4 10 7 20.5t3 21.5q0 37 -35 37q-26 0 -61.5 -25.5
t-67 -64.5t-53.5 -86t-22 -91q0 -27 12.5 -46t38.5 -19q35 0 80.5 23t88.5 57q45 35 86.5 80.5t69.5 88.5zM-52 -167q17 -3 34 -4t34 -1q13 0 31.5 2.5t34.5 8.5t27.5 17.5t11.5 29.5q0 24 -17 29.5t-60 6.5l45 74h11l-33 -54q16 -1 33 -2.5t31.5 -7t24 -15.5t9.5 -27
q0 -23 -16.5 -37.5t-39 -22.5t-46.5 -11t-40 -3q-20 0 -39 1t-37 8z" />
    <glyph glyph-name="eacute" unicode="&#xe9;" horiz-adv-x="333" 
d="M300 312q0 14 -7.5 21t-18.5 7q-21 0 -45.5 -16.5t-48.5 -41t-43.5 -52.5t-29.5 -50q22 4 55 15.5t63.5 28.5t52.5 39.5t22 48.5zM462 259q-15 -25 -37.5 -55t-51 -59.5t-61 -57t-67.5 -49t-70.5 -34t-69.5 -12.5q-42 0 -65 21.5t-23 61.5q0 44 26.5 92.5t67.5 89.5
t90 68t94 27q25 0 39 -10.5t14 -30.5q0 -24 -26 -46.5t-63.5 -41t-80.5 -33t-76 -21.5q-11 -20 -18 -45t-7 -50q0 -12 2.5 -23.5t8 -21t15 -15.5t23.5 -6q33 0 77.5 21.5t90.5 57.5t88 82t72 95zM388 572q11 0 16.5 -9.5t5.5 -17.5q0 -21 -19 -45t-42.5 -45t-44.5 -35
t-26 -14t-5 4t11.5 13t25.5 22.5t26.5 30t13.5 34.5q2 26 11.5 44t26.5 18z" />
    <glyph glyph-name="egrave" unicode="&#xe8;" horiz-adv-x="333" 
d="M300 312q0 14 -7.5 21t-18.5 7q-21 0 -45.5 -16.5t-48.5 -41t-43.5 -52.5t-29.5 -50q22 4 55 15.5t63.5 28.5t52.5 39.5t22 48.5zM462 259q-15 -25 -37.5 -55t-51 -59.5t-61 -57t-67.5 -49t-70.5 -34t-69.5 -12.5q-42 0 -65 21.5t-23 61.5q0 44 26.5 92.5t67.5 89.5
t90 68t94 27q25 0 39 -10.5t14 -30.5q0 -24 -26 -46.5t-63.5 -41t-80.5 -33t-76 -21.5q-11 -20 -18 -45t-7 -50q0 -12 2.5 -23.5t8 -21t15 -15.5t23.5 -6q33 0 77.5 21.5t90.5 57.5t88 82t72 95zM193 572q17 0 26.5 -18t11.5 -44q2 -18 14 -34.5t26 -30t25.5 -22.5t11.5 -13
t-5 -4q-4 0 -25.5 14t-45 35t-42.5 45t-19 45q0 8 5.5 17.5t16.5 9.5z" />
    <glyph glyph-name="ecircumflex" unicode="&#xea;" horiz-adv-x="333" 
d="M300 312q0 14 -7.5 21t-18.5 7q-21 0 -45.5 -16.5t-48.5 -41t-43.5 -52.5t-29.5 -50q22 4 55 15.5t63.5 28.5t52.5 39.5t22 48.5zM462 259q-15 -25 -37.5 -55t-51 -59.5t-61 -57t-67.5 -49t-70.5 -34t-69.5 -12.5q-42 0 -65 21.5t-23 61.5q0 44 26.5 92.5t67.5 89.5
t90 68t94 27q25 0 39 -10.5t14 -30.5q0 -24 -26 -46.5t-63.5 -41t-80.5 -33t-76 -21.5q-11 -20 -18 -45t-7 -50q0 -12 2.5 -23.5t8 -21t15 -15.5t23.5 -6q33 0 77.5 21.5t90.5 57.5t88 82t72 95zM189 413q39 37 75.5 76.5t68.5 82.5h16q0 -44 15 -82.5t41 -80.5l-8 -5
q-26 29 -43.5 54.5t-32.5 54.5q-30 -29 -61.5 -56.5t-66.5 -50.5z" />
    <glyph glyph-name="edieresis" unicode="&#xeb;" horiz-adv-x="333" 
d="M300 312q0 14 -7.5 21t-18.5 7q-21 0 -45.5 -16.5t-48.5 -41t-43.5 -52.5t-29.5 -50q22 4 55 15.5t63.5 28.5t52.5 39.5t22 48.5zM462 259q-15 -25 -37.5 -55t-51 -59.5t-61 -57t-67.5 -49t-70.5 -34t-69.5 -12.5q-42 0 -65 21.5t-23 61.5q0 44 26.5 92.5t67.5 89.5
t90 68t94 27q25 0 39 -10.5t14 -30.5q0 -24 -26 -46.5t-63.5 -41t-80.5 -33t-76 -21.5q-11 -20 -18 -45t-7 -50q0 -12 2.5 -23.5t8 -21t15 -15.5t23.5 -6q33 0 77.5 21.5t90.5 57.5t88 82t72 95zM393 522q12 0 18.5 -12t6.5 -23q0 -15 -10.5 -26t-27.5 -11q-13 0 -19.5 11
t-6.5 23q0 17 11 27.5t28 10.5zM249 522q12 0 18.5 -12t6.5 -23q0 -15 -10.5 -26t-27.5 -11q-13 0 -19.5 11t-6.5 23q0 17 11 27.5t28 10.5z" />
    <glyph glyph-name="iacute" unicode="&#xed;" horiz-adv-x="222" 
d="M232 344l-93 -133l-61.5 -90t-34 -57t-10.5 -34q0 -26 21 -26q20 0 46.5 14.5t55.5 37.5t58 52t54.5 57.5t45 55t28.5 43.5l8 -5q-12 -20 -32.5 -48t-46.5 -57.5t-55 -58.5t-59 -52t-58.5 -37t-52.5 -14q-27 0 -40 15t-13 33q0 21 9.5 44.5t30.5 57.5t54.5 82.5
l80.5 119.5h64zM332 572q11 0 16.5 -9.5t5.5 -17.5q0 -21 -19 -45t-42.5 -45t-44.5 -35t-26 -14t-5 4t11.5 13t25.5 22.5t26.5 30t13.5 34.5q2 26 11.5 44t26.5 18z" />
    <glyph glyph-name="igrave" unicode="&#xec;" horiz-adv-x="222" 
d="M232 344l-93 -133l-61.5 -90t-34 -57t-10.5 -34q0 -26 21 -26q20 0 46.5 14.5t55.5 37.5t58 52t54.5 57.5t45 55t28.5 43.5l8 -5q-12 -20 -32.5 -48t-46.5 -57.5t-55 -58.5t-59 -52t-58.5 -37t-52.5 -14q-27 0 -40 15t-13 33q0 21 9.5 44.5t30.5 57.5t54.5 82.5
l80.5 119.5h64zM137 572q17 0 26.5 -18t11.5 -44q2 -18 14 -34.5t26 -30t25.5 -22.5t11.5 -13t-5 -4q-4 0 -25.5 14t-45 35t-42.5 45t-19 45q0 8 5.5 17.5t16.5 9.5z" />
    <glyph glyph-name="icircumflex" unicode="&#xee;" horiz-adv-x="222" 
d="M232 344l-93 -133l-61.5 -90t-34 -57t-10.5 -34q0 -26 21 -26q20 0 46.5 14.5t55.5 37.5t58 52t54.5 57.5t45 55t28.5 43.5l8 -5q-12 -20 -32.5 -48t-46.5 -57.5t-55 -58.5t-59 -52t-58.5 -37t-52.5 -14q-27 0 -40 15t-13 33q0 21 9.5 44.5t30.5 57.5t54.5 82.5
l80.5 119.5h64zM133 413q39 37 75.5 76.5t68.5 82.5h16q0 -44 15 -82.5t41 -80.5l-8 -5q-26 29 -43.5 54.5t-32.5 54.5q-30 -29 -61.5 -56.5t-66.5 -50.5z" />
    <glyph glyph-name="idieresis" unicode="&#xef;" horiz-adv-x="222" 
d="M232 344l-93 -133l-61.5 -90t-34 -57t-10.5 -34q0 -26 21 -26q20 0 46.5 14.5t55.5 37.5t58 52t54.5 57.5t45 55t28.5 43.5l8 -5q-12 -20 -32.5 -48t-46.5 -57.5t-55 -58.5t-59 -52t-58.5 -37t-52.5 -14q-27 0 -40 15t-13 33q0 21 9.5 44.5t30.5 57.5t54.5 82.5
l80.5 119.5h64zM337 522q12 0 18.5 -12t6.5 -23q0 -15 -10.5 -26t-27.5 -11q-13 0 -19.5 11t-6.5 23q0 17 11 27.5t28 10.5zM193 522q12 0 18.5 -12t6.5 -23q0 -15 -10.5 -26t-27.5 -11q-13 0 -19.5 11t-6.5 23q0 17 11 27.5t28 10.5z" />
    <glyph glyph-name="ntilde" unicode="&#xf1;" 
d="M220 344l-132 -183l2 -2l49 58.5t60 63.5t66.5 50.5t68.5 20.5q30 0 46.5 -16.5t16.5 -42.5q0 -16 -11.5 -38t-28.5 -47t-37 -51l-37 -49.5t-28.5 -43t-11.5 -32.5q0 -28 28 -28q32 0 68 21.5t86 72.5q20 20 40.5 44l39.5 47.5t34.5 44.5t24.5 35l7 -4
q-20 -30 -51.5 -71.5t-68.5 -81.5q-22 -24 -45 -46t-46 -38.5t-45.5 -26t-44.5 -9.5q-29 0 -48 16t-19 44q0 30 24 65.5t53 71.5t53 69t24 58q0 12 -8 18t-21 6q-25 0 -56 -18.5t-63.5 -49t-65 -68t-60.5 -75t-50 -72t-33 -57.5h-62l55.5 89.5l58.5 90l55.5 86l47.5 75.5z
M388 456q-18 0 -35.5 5.5t-34.5 12.5t-33.5 12.5t-33.5 5.5q-14 0 -23 -7t-14.5 -15t-9 -15t-7.5 -7t-4 10q0 12 4.5 24.5t13.5 23t23 17.5t33 7q12 0 28.5 -5.5t35.5 -13.5t37.5 -13.5t32.5 -5.5q21 0 36.5 11t15.5 24q0 9 7 9q5 0 5 -6q0 -14 -5.5 -28.5t-16 -25
t-24.5 -16.5t-31 -4z" />
    <glyph glyph-name="oacute" unicode="&#xf3;" 
d="M569 253q-24 -27 -54 -43t-59 -16q-28 0 -48 12.5t-31 29.5h-2q-10 -38 -37 -81t-64.5 -79t-82.5 -60t-92 -24q-43 0 -65 25t-22 67q0 22 11 51t30.5 58.5t46 58t57.5 51t65.5 36t69.5 13.5q41 0 63.5 -24t24.5 -62q2 -23 21.5 -42.5t53.5 -19.5q30 0 56.5 15t49.5 39z
M66 60q0 -26 10 -41t30 -15q27 0 53.5 14.5t51 38t45.5 53.5t36.5 62t24.5 62.5t9 55.5q0 21 -10.5 35.5t-32.5 14.5q-21 0 -45 -13.5t-48.5 -35.5t-46.5 -51t-39.5 -60t-27.5 -62t-10 -58zM402 572q11 0 16.5 -9.5t5.5 -17.5q0 -21 -19 -45t-42.5 -45t-44.5 -35t-26 -14
t-5 4t11.5 13t25.5 22.5t26.5 30t13.5 34.5q2 26 11.5 44t26.5 18z" />
    <glyph glyph-name="ograve" unicode="&#xf2;" 
d="M569 253q-24 -27 -54 -43t-59 -16q-28 0 -48 12.5t-31 29.5h-2q-10 -38 -37 -81t-64.5 -79t-82.5 -60t-92 -24q-43 0 -65 25t-22 67q0 22 11 51t30.5 58.5t46 58t57.5 51t65.5 36t69.5 13.5q41 0 63.5 -24t24.5 -62q2 -23 21.5 -42.5t53.5 -19.5q30 0 56.5 15t49.5 39z
M66 60q0 -26 10 -41t30 -15q27 0 53.5 14.5t51 38t45.5 53.5t36.5 62t24.5 62.5t9 55.5q0 21 -10.5 35.5t-32.5 14.5q-21 0 -45 -13.5t-48.5 -35.5t-46.5 -51t-39.5 -60t-27.5 -62t-10 -58zM207 572q17 0 26.5 -18t11.5 -44q2 -18 14 -34.5t26 -30t25.5 -22.5t11.5 -13
t-5 -4q-4 0 -25.5 14t-45 35t-42.5 45t-19 45q0 8 5.5 17.5t16.5 9.5z" />
    <glyph glyph-name="ocircumflex" unicode="&#xf4;" 
d="M569 253q-24 -27 -54 -43t-59 -16q-28 0 -48 12.5t-31 29.5h-2q-10 -38 -37 -81t-64.5 -79t-82.5 -60t-92 -24q-43 0 -65 25t-22 67q0 22 11 51t30.5 58.5t46 58t57.5 51t65.5 36t69.5 13.5q41 0 63.5 -24t24.5 -62q2 -23 21.5 -42.5t53.5 -19.5q30 0 56.5 15t49.5 39z
M66 60q0 -26 10 -41t30 -15q27 0 53.5 14.5t51 38t45.5 53.5t36.5 62t24.5 62.5t9 55.5q0 21 -10.5 35.5t-32.5 14.5q-21 0 -45 -13.5t-48.5 -35.5t-46.5 -51t-39.5 -60t-27.5 -62t-10 -58zM203 413q39 37 75.5 76.5t68.5 82.5h16q0 -44 15 -82.5t41 -80.5l-8 -5
q-26 29 -43.5 54.5t-32.5 54.5q-30 -29 -61.5 -56.5t-66.5 -50.5z" />
    <glyph glyph-name="odieresis" unicode="&#xf6;" 
d="M569 253q-24 -27 -54 -43t-59 -16q-28 0 -48 12.5t-31 29.5h-2q-10 -38 -37 -81t-64.5 -79t-82.5 -60t-92 -24q-43 0 -65 25t-22 67q0 22 11 51t30.5 58.5t46 58t57.5 51t65.5 36t69.5 13.5q41 0 63.5 -24t24.5 -62q2 -23 21.5 -42.5t53.5 -19.5q30 0 56.5 15t49.5 39z
M66 60q0 -26 10 -41t30 -15q27 0 53.5 14.5t51 38t45.5 53.5t36.5 62t24.5 62.5t9 55.5q0 21 -10.5 35.5t-32.5 14.5q-21 0 -45 -13.5t-48.5 -35.5t-46.5 -51t-39.5 -60t-27.5 -62t-10 -58zM407 522q12 0 18.5 -12t6.5 -23q0 -15 -10.5 -26t-27.5 -11q-13 0 -19.5 11
t-6.5 23q0 17 11 27.5t28 10.5zM263 522q12 0 18.5 -12t6.5 -23q0 -15 -10.5 -26t-27.5 -11q-13 0 -19.5 11t-6.5 23q0 17 11 27.5t28 10.5z" />
    <glyph glyph-name="otilde" unicode="&#xf5;" 
d="M569 253q-24 -27 -54 -43t-59 -16q-28 0 -48 12.5t-31 29.5h-2q-10 -38 -37 -81t-64.5 -79t-82.5 -60t-92 -24q-43 0 -65 25t-22 67q0 22 11 51t30.5 58.5t46 58t57.5 51t65.5 36t69.5 13.5q41 0 63.5 -24t24.5 -62q2 -23 21.5 -42.5t53.5 -19.5q30 0 56.5 15t49.5 39z
M66 60q0 -26 10 -41t30 -15q27 0 53.5 14.5t51 38t45.5 53.5t36.5 62t24.5 62.5t9 55.5q0 21 -10.5 35.5t-32.5 14.5q-21 0 -45 -13.5t-48.5 -35.5t-46.5 -51t-39.5 -60t-27.5 -62t-10 -58zM388 456q-18 0 -35.5 5.5t-34.5 12.5t-33.5 12.5t-33.5 5.5q-14 0 -23 -7
t-14.5 -15t-9 -15t-7.5 -7t-4 10q0 12 4.5 24.5t13.5 23t23 17.5t33 7q12 0 28.5 -5.5t35.5 -13.5t37.5 -13.5t32.5 -5.5q21 0 36.5 11t15.5 24q0 9 7 9q5 0 5 -6q0 -14 -5.5 -28.5t-16 -25t-24.5 -16.5t-31 -4z" />
    <glyph glyph-name="uacute" unicode="&#xfa;" 
d="M232 344l-75 -101l-64 -88t-44.5 -69.5t-16.5 -46.5q0 -16 8 -23.5t21 -7.5q19 0 41.5 12t46 31t46 42t42 45.5t34 41.5t21.5 30l88 134h69l-91.5 -125.5t-61 -87.5t-33.5 -58.5t-10 -39.5q0 -12 7 -20.5t20 -8.5q20 0 46 14.5t54 38t55.5 53t52 58.5l44.5 54.5t31 41.5
l10 -3l-32 -43.5t-45 -56l-53 -60t-57.5 -54.5t-58 -39.5t-53.5 -15.5q-28 0 -44.5 15.5t-16.5 41.5q0 20 6.5 38.5t9.5 23.5l-2 2q-21 -24 -44 -46t-46 -38.5t-46.5 -26.5t-46.5 -10q-32 0 -46 14.5t-14 34.5q0 25 13.5 54t37.5 65t57.5 81l73.5 103h66zM437 572
q11 0 16.5 -9.5t5.5 -17.5q0 -21 -19 -45t-42.5 -45t-44.5 -35t-26 -14t-5 4t11.5 13t25.5 22.5t26.5 30t13.5 34.5q2 26 11.5 44t26.5 18z" />
    <glyph glyph-name="ugrave" unicode="&#xf9;" 
d="M232 344l-75 -101l-64 -88t-44.5 -69.5t-16.5 -46.5q0 -16 8 -23.5t21 -7.5q19 0 41.5 12t46 31t46 42t42 45.5t34 41.5t21.5 30l88 134h69l-91.5 -125.5t-61 -87.5t-33.5 -58.5t-10 -39.5q0 -12 7 -20.5t20 -8.5q20 0 46 14.5t54 38t55.5 53t52 58.5l44.5 54.5t31 41.5
l10 -3l-32 -43.5t-45 -56l-53 -60t-57.5 -54.5t-58 -39.5t-53.5 -15.5q-28 0 -44.5 15.5t-16.5 41.5q0 20 6.5 38.5t9.5 23.5l-2 2q-21 -24 -44 -46t-46 -38.5t-46.5 -26.5t-46.5 -10q-32 0 -46 14.5t-14 34.5q0 25 13.5 54t37.5 65t57.5 81l73.5 103h66zM242 572
q17 0 26.5 -18t11.5 -44q2 -18 14 -34.5t26 -30t25.5 -22.5t11.5 -13t-5 -4q-4 0 -25.5 14t-45 35t-42.5 45t-19 45q0 8 5.5 17.5t16.5 9.5z" />
    <glyph glyph-name="ucircumflex" unicode="&#xfb;" 
d="M232 344l-75 -101l-64 -88t-44.5 -69.5t-16.5 -46.5q0 -16 8 -23.5t21 -7.5q19 0 41.5 12t46 31t46 42t42 45.5t34 41.5t21.5 30l88 134h69l-91.5 -125.5t-61 -87.5t-33.5 -58.5t-10 -39.5q0 -12 7 -20.5t20 -8.5q20 0 46 14.5t54 38t55.5 53t52 58.5l44.5 54.5t31 41.5
l10 -3l-32 -43.5t-45 -56l-53 -60t-57.5 -54.5t-58 -39.5t-53.5 -15.5q-28 0 -44.5 15.5t-16.5 41.5q0 20 6.5 38.5t9.5 23.5l-2 2q-21 -24 -44 -46t-46 -38.5t-46.5 -26.5t-46.5 -10q-32 0 -46 14.5t-14 34.5q0 25 13.5 54t37.5 65t57.5 81l73.5 103h66zM238 413
q39 37 75.5 76.5t68.5 82.5h16q0 -44 15 -82.5t41 -80.5l-8 -5q-26 29 -43.5 54.5t-32.5 54.5q-30 -29 -61.5 -56.5t-66.5 -50.5z" />
    <glyph glyph-name="udieresis" unicode="&#xfc;" 
d="M232 344l-75 -101l-64 -88t-44.5 -69.5t-16.5 -46.5q0 -16 8 -23.5t21 -7.5q19 0 41.5 12t46 31t46 42t42 45.5t34 41.5t21.5 30l88 134h69l-91.5 -125.5t-61 -87.5t-33.5 -58.5t-10 -39.5q0 -12 7 -20.5t20 -8.5q20 0 46 14.5t54 38t55.5 53t52 58.5l44.5 54.5t31 41.5
l10 -3l-32 -43.5t-45 -56l-53 -60t-57.5 -54.5t-58 -39.5t-53.5 -15.5q-28 0 -44.5 15.5t-16.5 41.5q0 20 6.5 38.5t9.5 23.5l-2 2q-21 -24 -44 -46t-46 -38.5t-46.5 -26.5t-46.5 -10q-32 0 -46 14.5t-14 34.5q0 25 13.5 54t37.5 65t57.5 81l73.5 103h66zM442 522
q12 0 18.5 -12t6.5 -23q0 -15 -10.5 -26t-27.5 -11q-13 0 -19.5 11t-6.5 23q0 17 11 27.5t28 10.5zM298 522q12 0 18.5 -12t6.5 -23q0 -15 -10.5 -26t-27.5 -11q-13 0 -19.5 11t-6.5 23q0 17 11 27.5t28 10.5z" />
    <glyph glyph-name="dagger" unicode="&#x2020;" horiz-adv-x="500" 
d="M658 472l-6 -12h-205l-330 -534h-27l307 534h-196l6 12h198l99 178q17 32 30 47t28 15q11 0 16.5 -6.5t5.5 -15.5t-5.5 -20t-13.5 -22l-109 -176h202z" />
    <glyph glyph-name="degree" unicode="&#xb0;" horiz-adv-x="400" 
d="M346 252q-30 0 -56 11t-45 30.5t-30 45.5t-11 56t11 56t30 45.5t45 30.5t56 11t56 -11t45 -30.5t30 -45.5t11 -56t-11 -56t-30 -45.5t-45 -30.5t-56 -11zM346 510q-23 0 -43 -9t-35 -25t-23.5 -37t-8.5 -44t8.5 -44t23.5 -36.5t35 -25t43 -9.5t43 9.5t35 25t23.5 36.5
t8.5 44t-8.5 44t-23.5 37t-35 25t-43 9z" />
    <glyph glyph-name="cent" unicode="&#xa2;" horiz-adv-x="500" 
d="M456 456l-57 -104q29 -1 47 -12t18 -32q0 -15 -13 -28.5t-33 -13.5q-6 0 -14 2l4 16t2 18q0 14 -4.5 24t-14.5 12l-179 -323q9 -3 19 -3q22 0 49 10.5t52.5 25t47.5 30.5t35 27l5 -6q-21 -20 -48.5 -39t-57 -34t-59.5 -24.5t-56 -9.5l-67 -120l-8 2l66 118q-80 2 -80 80
q0 45 25.5 93.5t66 89t90 67.5t97.5 30l59 106zM383 340q-38 0 -75.5 -30t-67 -72t-48 -86.5t-18.5 -74.5q0 -20 7.5 -35.5t22.5 -23.5z" />
    <glyph glyph-name="sterling" unicode="&#xa3;" horiz-adv-x="741" 
d="M166 266v12h286l40 82.5t49 89.5t58.5 87.5t68.5 75t80.5 52t93.5 19.5q62 0 94 -35.5t32 -87.5q0 -39 -15.5 -76t-41 -65.5t-58.5 -46t-68 -17.5t-59.5 19.5t-24.5 54.5q0 29 13 54t34 45t47 34.5t52 23.5l2 -6q-21 -7 -45 -21t-44.5 -33.5t-33.5 -44t-13 -51.5
q0 -30 21 -46.5t50 -16.5q32 0 61 20.5t51.5 51t36 66.5t13.5 66q0 51 -26 75.5t-74 24.5q-40 0 -76.5 -21t-68.5 -55t-59.5 -77.5t-51.5 -87t-43.5 -84l-34.5 -69.5h244v-12h-249q-36 -73 -92.5 -132.5t-129.5 -97.5q43 -20 89 -28t93 -8q84 0 141 37t99 108l7 -4
q-47 -83 -117 -126t-162 -43q-24 0 -49.5 4.5t-50 12t-46.5 16l-40 15.5q-34 -12 -74 -21t-90 -9q-29 0 -56 4t-47.5 12t-33 19.5t-12.5 27.5q0 24 21 36.5t55 12.5q29 0 62.5 -6t68 -15.5t67.5 -20.5l60 -20q31 20 56.5 45.5t47 55t39.5 61.5t34 64h-281zM2 90
q-23 0 -38.5 -9t-15.5 -28q0 -21 36.5 -36t99.5 -15q44 0 79.5 5.5t70.5 16.5q-29 13 -63.5 25t-66.5 21t-59.5 14.5t-42.5 5.5z" />
    <glyph glyph-name="section" unicode="&#xa7;" horiz-adv-x="500" 
d="M513 712q26 0 51.5 -5.5t45.5 -17.5t33 -32.5t13 -50.5q0 -12 -4.5 -24t-12.5 -22t-19 -16t-24 -6q-5 0 -13 2q7 9 16 24t9 46q0 47 -28 68.5t-71 21.5q-28 0 -50 -10t-37 -27t-23 -40.5t-8 -49.5q0 -37 20.5 -73t44.5 -72t44.5 -72t20.5 -73q0 -32 -14.5 -59.5
t-39.5 -48.5t-56.5 -34.5t-66.5 -18.5q6 -25 6 -51q0 -35 -16 -64t-43 -49t-63 -31t-77 -11q-36 0 -66.5 8.5t-53 24.5t-35.5 40t-13 55q0 21 8 38.5t21.5 30.5t31.5 20t37 7q13 0 20 -6q-32 -18 -45 -43.5t-13 -60.5q0 -45 31 -73.5t81 -28.5q29 0 55.5 7.5t46.5 23
t32.5 39.5t12.5 57q0 36 -21 72.5t-45.5 73t-45.5 73.5t-21 73q0 38 16 66.5t41.5 47.5t58 29t65.5 11q-7 14 -10 28t-3 26q0 36 14.5 65t39 49.5t56.5 31.5t66 11zM223 366q0 -35 14 -64t33 -56.5l38.5 -54.5t30.5 -57q54 9 91 40.5t37 88.5q0 28 -11.5 55t-28 54.5
t-36 56.5t-35.5 60q-59 0 -96 -34.5t-37 -88.5z" />
    <glyph glyph-name="bullet" unicode="&#x2022;" horiz-adv-x="500" 
d="M208 348q0 36 13.5 67.5t37.5 55.5t55.5 37.5t67.5 13.5t67.5 -13.5t55.5 -37.5t37.5 -55.5t13.5 -67.5t-13.5 -67.5t-37.5 -55.5t-55.5 -37.5t-67.5 -13.5t-67.5 13.5t-55.5 37.5t-37.5 55.5t-13.5 67.5z" />
    <glyph glyph-name="paragraph" unicode="&#xb6;" horiz-adv-x="600" 
d="M96 -166l272 452q-63 0 -90.5 26.5t-27.5 79.5q0 36 24 88t72.5 100t121.5 82t170 34h222l-13 -22q-16 0 -33 -2t-33 -8.5t-30.5 -19.5t-27.5 -34l-467 -776h-52l501 832h-56l-501 -832h-52z" />
    <glyph glyph-name="germandbls" unicode="&#xdf;" horiz-adv-x="556" 
d="M-435 -86q-43 0 -65 -19t-22 -63q0 -51 35 -79.5t84 -28.5q45 0 91 24t87.5 60.5t77 79t60.5 80.5q58 86 110.5 172.5l102.5 165t99 146.5t99.5 118.5t104 79t111.5 28.5q56 0 88 -30.5t32 -75.5q0 -51 -38 -89t-119 -73q-33 -14 -54 -27t-33 -27t-16.5 -30t-4.5 -37
q0 -22 7 -43l15 -43t15 -44t7 -46q0 -19 -7.5 -35.5t-20 -29.5t-28 -23.5t-30.5 -17.5l2 -2q53 9 99 35t86 62t74.5 78t65.5 84l9 -4q-36 -49 -76 -97.5t-87 -86t-102.5 -61t-121.5 -23.5q-25 0 -45.5 8.5t-34.5 22t-22 31.5t-8 37q0 32 17 52.5t46 20.5q15 0 25 -9t10 -24
t-9 -23t-24 -8q-18 0 -29 18q-14 -16 -14 -39q0 -13 4.5 -26.5t14 -24t24 -17.5t34.5 -7q25 0 42.5 8.5t29 23t17 32.5t5.5 36q0 22 -7 44t-15 43l-15 43t-7 41q0 25 10 43.5t29 34.5t47 30.5l63 31.5q37 18 62.5 39.5t41.5 44t23 45.5t7 43q0 35 -20.5 57t-60.5 22
q-46 0 -89 -27.5t-86.5 -77.5t-89 -119l-97.5 -152l-112 -176.5t-133 -193.5q-31 -43 -69.5 -80.5t-82 -66t-91.5 -45t-98 -16.5q-28 0 -57.5 6.5t-53.5 21t-39 37.5t-15 56q0 24 9 41.5t24.5 29t36.5 17t44 5.5q7 0 11.5 -0.5t9.5 -1.5v-10z" />
    <glyph glyph-name="registered" unicode="&#xae;" horiz-adv-x="800" 
d="M640 156q-32 0 -44.5 14.5t-11.5 32.5q0 11 5 24.5t11 27t10.5 27.5t4.5 27q0 19 -10 25t-26 8l1 4q5 0 10.5 -1t10.5 -1q22 0 39.5 8.5t30 22.5t19.5 33t7 40q0 11 -4.5 22.5t-14.5 19.5q-23 -15 -45 -45.5t-45 -67.5l-47 -76t-51.5 -71.5t-58.5 -53t-66 -20.5
q-17 0 -32 8t-15 27q0 20 21 20q6 0 10.5 -5t4.5 -11q0 -5 -3.5 -11t-11.5 -5q2 -7 11 -12t20 -5q18 0 36.5 20t39.5 51t44 69.5t50 75.5t58.5 68.5t69.5 49.5q-17 8 -35 10.5t-38 2.5q-37 0 -79 -12t-77 -35t-58.5 -56t-23.5 -75q0 -28 10 -43.5t30 -15.5q21 0 35 10
t22.5 25.5t12 34t3.5 36.5h5q0 -21 -4 -40.5t-13.5 -35.5t-24.5 -25.5t-36 -9.5q-32 0 -53 18t-21 49q0 37 26 70t66.5 58t88.5 39t93 14q21 0 41.5 -2.5t37.5 -11.5q8 4 25.5 9.5t28.5 5.5l1 -4q-11 -2 -22.5 -6t-22.5 -9q20 -11 37.5 -28t17.5 -45q0 -23 -13 -39
t-32.5 -26t-43.5 -15t-46 -5v-1q18 -8 32 -22.5t14 -31.5q0 -12 -3 -24t-10 -29q-5 -11 -7 -22t0.5 -20t9.5 -15t22 -6q22 0 51 10.5t60 31.5t61 52.5t54 73.5q19 33 27.5 72.5t4.5 79t-20.5 76t-47 64.5t-75.5 45t-105 17q-81 0 -151 -22t-128 -61t-103.5 -92t-78.5 -115
q-40 -76 -45 -156.5t23 -146.5t88 -108.5t150 -42.5q100 0 195.5 35.5t179 92.5t150.5 128.5t110 143.5l8 -4q-36 -65 -100.5 -137t-150 -132t-187.5 -99t-212 -39q-77 0 -133.5 20.5t-94.5 55t-58.5 79.5t-25.5 94.5t4.5 99.5t32.5 95q42 83 102 143.5t132 100.5t153.5 59
t166.5 19q91 0 154.5 -31.5t95 -82.5t30 -114t-38.5 -126q-20 -33 -55.5 -67t-78 -61.5t-87 -45t-81.5 -17.5z" />
    <glyph glyph-name="copyright" unicode="&#xa9;" horiz-adv-x="800" 
d="M516 142q34 0 83.5 13.5t101.5 41.5t101 70.5t84 100.5t38.5 116t-23.5 103.5t-84.5 74t-142.5 28.5q-77 0 -146 -22t-128.5 -61t-106.5 -92t-80 -115q-40 -76 -45 -156.5t23 -146.5t88 -108.5t150 -42.5q100 0 195.5 35.5t179 92.5t150.5 128.5t110 143.5l8 -4
q-36 -65 -100.5 -137t-150 -132t-187.5 -99t-212 -39q-77 0 -133.5 20.5t-94.5 55t-58.5 79.5t-25.5 94.5t4.5 99.5t32.5 95q42 83 102 143.5t132 100.5t153.5 59t166.5 19q91 0 155 -24.5t96 -68t29.5 -102t-43.5 -127.5q-38 -64 -96.5 -110t-121.5 -76t-123.5 -44
t-102.5 -14q-76 0 -107.5 26.5t-31.5 76.5q0 55 30 103t75 84t97.5 56.5t96.5 20.5q36 0 58.5 -14.5t22.5 -43.5q0 -20 -11 -37t-28.5 -29.5t-39 -19.5t-42.5 -7q-23 0 -39 10.5t-17 36.5v7q0 5 1 8h7q-1 -3 -1 -7v-7q0 -25 15.5 -33t33.5 -8q16 0 32 7.5t29 21t21.5 31
t8.5 37.5q0 24 -13.5 32.5t-35.5 8.5q-39 0 -84 -19.5t-82.5 -54.5t-62.5 -83.5t-25 -107.5q0 -17 4.5 -32.5t16.5 -28.5t34.5 -20.5t58.5 -7.5z" />
    <glyph glyph-name="trademark" unicode="&#x2122;" horiz-adv-x="990" 
d="M478 593v-11v-10q0 -23 -10.5 -43t-30 -36t-46 -25.5t-58.5 -9.5q-46 0 -69.5 21.5t-23.5 55.5q0 27 18.5 56.5t61.5 54t114 40t176 15.5q32 0 58.5 -1.5t45.5 -1.5q16 0 27.5 1.5t19.5 1.5q7 0 13 -4.5t6 -11.5q0 -6 -3.5 -9t-11.5 -4.5t-22 -1.5h-34q-40 0 -67 -14
t-50 -42.5t-47.5 -71t-61.5 -99.5q-12 -20 -31.5 -44.5t-46 -46.5t-60.5 -37t-76 -15q-17 0 -34.5 3.5t-32 12t-24 22.5t-9.5 34q0 12 7 21t20 9q10 0 16 -5.5t6 -15.5q0 -9 -6 -14t-13 -5q-5 0 -7 1q2 -28 25.5 -42t56.5 -14t60 14t50 38t44 54t41 62.5l41 64.5t44 58.5
t49 45t58 24.5v1q-26 0 -56.5 2.5t-56.5 2.5q-72 0 -128.5 -11t-94.5 -29.5t-58 -44t-20 -54.5q0 -34 23.5 -52t65.5 -18q30 0 54.5 9t42.5 24t28.5 34t10.5 39v11t-1 11h7zM1106 464q-17 -40 -42.5 -69.5t-56.5 -48.5t-67 -28t-76 -9q-11 0 -19.5 -1t-13.5 -1.5t-8.5 -1.5
t-6.5 -1q-5 0 -9 1.5t-4 5.5q0 5 5 6t8 1q9 0 16.5 -1.5t14.5 -2.5q35 17 59 48t43 70t35.5 81.5t36 81t45.5 68.5t63 46l-1 1q-24 -3 -52.5 -21.5t-57 -44.5t-56 -59.5t-53.5 -68.5l-39.5 -56.5t-42.5 -55.5t-46.5 -53t-53.5 -47l-4 7q20 31 32 67t23 73.5l22 74t27.5 70
t42 61.5t64.5 48l-2 2q-38 -14 -69.5 -37.5t-58.5 -53.5t-50 -65l-44.5 -69.5l-41 -66.5t-40 -56.5t-44 -39.5t-52.5 -15q-7 0 -14.5 1.5t-13.5 5t-10 9t-4 14.5t6 15t14 6q7 0 12 -6t5 -14q0 -4 -2 -9t-7 -7q1 -3 7.5 -5.5t12.5 -2.5q24 0 46 16t43.5 42t42 60l42.5 70
q26 42 52.5 78.5t57.5 65.5t67.5 49.5t82.5 28.5v-4q-35 -11 -58.5 -35t-41 -56t-29.5 -70l-25 -77t-28.5 -76.5t-38.5 -68.5l1 -1q21 18 42.5 43t42 52.5l40 54.5l36.5 50q44 62 81.5 99.5t69.5 57.5t58 27t48 7q9 0 17 -2.5t8 -7.5q0 -6 -3.5 -6.5t-7.5 -0.5
q-8 0 -17.5 1.5t-17.5 1.5q-13 0 -26.5 -11.5t-27 -30t-26.5 -41t-23.5 -44.5t-18 -41t-12.5 -30q-9 -25 -21 -52.5t-30 -54.5t-43.5 -50.5t-62.5 -39.5v-1q87 0 148 38t96 113z" />
    <glyph glyph-name="acute" unicode="&#xb4;" horiz-adv-x="222" 
d="M291 572q11 0 16.5 -9.5t5.5 -17.5q0 -21 -19 -45t-42.5 -45t-44.5 -35t-26 -14t-5 4t11.5 13t25.5 22.5t26.5 30t13.5 34.5q2 26 11.5 44t26.5 18z" />
    <glyph glyph-name="dieresis" unicode="&#xa8;" horiz-adv-x="222" 
d="M296 522q12 0 18.5 -12t6.5 -23q0 -15 -10.5 -26t-27.5 -11q-13 0 -19.5 11t-6.5 23q0 17 11 27.5t28 10.5zM152 522q12 0 18.5 -12t6.5 -23q0 -15 -10.5 -26t-27.5 -11q-13 0 -19.5 11t-6.5 23q0 17 11 27.5t28 10.5z" />
    <glyph glyph-name="AE" unicode="&#xc6;" horiz-adv-x="1000" 
d="M448 530q16 -15 25 -35t9 -42q0 -37 -17.5 -71t-45 -59.5t-62 -40.5t-67.5 -15q-48 0 -74.5 29.5t-26.5 76.5t33 99.5t100 96.5t169 72.5t241 28.5q39 0 73 -2.5t71 -7.5q48 29 101 50.5t119 21.5q15 0 33.5 -2t34.5 -8t26.5 -18t10.5 -32q0 -28 -16.5 -44t-40 -24
t-50 -10t-47.5 -2q-20 0 -39 1.5t-39 3.5q-36 -15 -66.5 -44.5t-54.5 -67t-41.5 -79t-28.5 -79.5q17 1 36.5 3t38 6t36 8.5t30.5 10.5q9 15 15.5 24.5t12 14.5t11.5 6.5t13 1.5q16 0 27 -1t22 -1q-51 -41 -92 -92t-61 -114l-6 2q9 35 20 69t27 66q-10 -1 -29 -4t-39 -5.5
t-38.5 -4.5t-26.5 -2q-16 -42 -36.5 -84t-47.5 -79t-61.5 -67.5t-77.5 -49.5v-3q11 2 23.5 3t24.5 1q38 0 76 -4t76 -4q71 0 122 17.5t92 49t77 75l76 95.5l7 -2l-73 -95.5t-82 -90t-90.5 -67t-100.5 -26.5q-8 0 -24.5 2.5t-34.5 6.5l-34.5 7.5t-24.5 6.5q-46 17 -94 17
q-20 0 -41 -4.5t-41 -10.5t-38 -10.5t-32 -4.5q-11 0 -18.5 1t-7.5 9q0 9 9 13.5t25.5 6.5t40.5 3.5t53 4.5q35 4 64.5 31.5t54 68.5t43.5 89.5t33 93.5q-47 0 -87.5 1t-82.5 9l-43.5 -63.5t-50.5 -72.5t-57 -72.5t-63.5 -63t-70 -44.5t-76.5 -17q-15 0 -32 3.5t-32 12
t-24.5 21.5t-9.5 32t10 33.5t29 14.5q15 0 24.5 -10t9.5 -25q0 -8 -4.5 -18t-14.5 -10q3 -20 20 -29t43 -9q31 0 62.5 16t62 42t59 59t53.5 66.5t46 65l37 54.5q25 39 61.5 84.5t76.5 89t80 79.5t73 55v2q-38 5 -84 10t-85 5q-81 0 -145 -13t-113 -34t-84 -49t-57 -57
t-32.5 -58t-10.5 -53q0 -44 24 -66.5t66 -22.5q36 0 68.5 16.5t57 42t39 56.5t14.5 59q0 19 -6.5 37t-20.5 31zM1096 720q-52 0 -103 -15t-105 -48l34.5 -6t52 -7.5t62.5 -6.5t66 -3q48 0 67 8t19 31q0 15 -7.5 24t-20 14.5t-29.5 7t-36 1.5zM825 618q-77 -51 -147.5 -125.5
t-127.5 -155.5q8 -3 26.5 -5t41.5 -3t49 -1.5t50 -0.5q34 93 90.5 161t143.5 111v2q-31 3 -67 8t-59 9z" />
    <glyph glyph-name="Oslash" unicode="&#xd8;" horiz-adv-x="741" 
d="M658 574q-11 22 -31.5 35t-45.5 13q-45 0 -88 -23.5t-81 -61.5t-70.5 -86.5t-55.5 -99.5t-36 -99.5t-13 -86.5q0 -26 3.5 -46.5t10.5 -46.5zM796 736l7 -7l-63 -74q13 -18 20 -33.5t10.5 -32t4.5 -34t1 -38.5q0 -49 -18.5 -107.5t-51 -117.5t-76.5 -114.5t-94.5 -98.5
t-105 -69t-108.5 -26q-27 0 -54.5 8.5t-42.5 27.5l-62 -70l-7 7l61 70q-20 26 -30 57.5t-10 64.5q0 43 16 96t44.5 107t67 105t83 90t93 63t96.5 24q34 0 55.5 -14.5t33.5 -37.5l48 58q-20 27 -48 43.5t-69 16.5q-40 0 -77 -16.5t-71 -42t-63.5 -56.5t-53.5 -59l-9 5
q65 81 133.5 131t140.5 50q38 0 72.5 -10.5t64.5 -38.5zM255 61q8 -28 33 -44.5t52 -16.5q50 0 99 27t93 71.5t81.5 101.5t64.5 116.5t42.5 117t15.5 102.5q0 52 -18 92l-47 -57q4 -7 5.5 -20t1.5 -24q0 -18 -5 -36t-11 -32l-11 2q7 17 11 34.5t4 30.5q0 11 -0.5 19.5
t-3.5 16.5z" />
    <glyph glyph-name="plusminus" unicode="&#xb1;" horiz-adv-x="600" 
d="M445 360l66 8l-92 -139h142l-9 -14h-141l-86 -129l-69 -13l95 142h-143l9 14h142zM427 13l-14 -13h-318l13 13h319z" />
    <glyph glyph-name="yen" unicode="&#xa5;" horiz-adv-x="500" 
d="M419 303l-50 -76l-54.5 -85.5l-47.5 -78.5t-27 -55l-77 -8l39.5 61.5l50.5 76l55 83t52 82.5h-144l8 12h144l38 61h-167l7 12h167q30 45 45 89.5t15 98.5q0 40 -13 64t-33.5 37.5t-46 18t-49.5 4.5q-46 0 -81 -11.5t-58.5 -30.5t-35 -43.5t-11.5 -50.5q0 -23 17 -38.5
t43 -15.5q12 0 19.5 3t18.5 8l4 -3q-11 -20 -30 -33t-43 -13q-31 0 -54 20.5t-23 51.5q0 46 23 78t57.5 52t76 29t78.5 9q98 0 139.5 -39.5t41.5 -104.5q0 -33 -7 -59t-16 -53l2 -2q29 46 64.5 92t80.5 83t101.5 60t126.5 23q53 0 75.5 -15.5t22.5 -32.5t-10.5 -31.5
t-35.5 -14.5q-17 0 -27 5.5t-17 14.5q23 1 32.5 12t9.5 25q0 11 -15 18t-41 7q-69 0 -127 -32.5t-106 -80t-86 -101.5t-66 -98h149l-7 -12h-150l-39 -61h170l-8 -12h-170z" />
    <glyph glyph-name="mu" unicode="&#xb5;" 
d="M232 344l-75 -101l-64 -88t-44.5 -69.5t-16.5 -46.5q0 -16 8 -23.5t21 -7.5q19 0 41.5 12t46 31t46 42t42 45.5t34 41.5t21.5 30l88 134h69l-91.5 -125.5t-61 -87.5t-33.5 -58.5t-10 -39.5q0 -12 7 -20.5t20 -8.5q20 0 46 14.5t54 38t55.5 53t52 58.5l44.5 54.5t31 41.5
l10 -3l-32 -43.5t-45 -56l-53 -60t-57.5 -54.5t-58 -39.5t-53.5 -15.5q-28 0 -44.5 15.5t-16.5 41.5q0 20 6.5 38.5t9.5 23.5l-2 2q-21 -24 -44 -46t-46 -38.5t-46.5 -26.5t-46.5 -10q-19 0 -31 5.5t-19 13.5l-237 -335h-68l477 668h66z" />
    <glyph glyph-name="ordfeminine" unicode="&#xaa;" horiz-adv-x="266" 
d="M407 534h42l-46 -61l-39.5 -54.5t-27.5 -43.5t-10 -30q0 -13 17 -13t44 18l2 -9q-30 -19 -53 -19q-19 0 -27.5 8.5t-8.5 20.5q0 9 2.5 18t4.5 14h-2l-19.5 -17.5t-25 -20t-29 -16.5t-32.5 -7q-28 0 -36 15t-8 34q0 23 17 52t43 54.5t56.5 43t57.5 17.5t39 -12.5t17 -27.5
h1zM331 528q-18 0 -41.5 -15.5t-44.5 -39t-35.5 -52.5t-14.5 -56q0 -14 3.5 -21.5t14.5 -7.5q14 0 39 17.5t49.5 43.5t43 55t18.5 52q0 14 -8 19t-24 5z" />
    <glyph glyph-name="ordmasculine" unicode="&#xba;" horiz-adv-x="266" 
d="M187 377q0 20 15.5 48t41 53t58.5 42.5t67 17.5q28 0 42.5 -15t14.5 -40q0 -20 -15.5 -48t-42 -53t-60 -42.5t-69.5 -17.5q-24 0 -38 15t-14 40zM390 496q0 14 -5.5 23t-16.5 9q-21 0 -46.5 -17t-47.5 -41.5t-36.5 -53.5t-14.5 -53q0 -14 6 -22.5t19 -8.5q26 0 51.5 18
t45.5 43.5t32.5 54t12.5 48.5z" />
    <glyph glyph-name="ae" unicode="&#xe6;" horiz-adv-x="574" 
d="M61 64q0 -23 9.5 -35.5t26.5 -12.5t40 12.5t48 33.5t49.5 48.5t43.5 58.5t31 63t12 61q0 23 -13 35t-32 12q-30 0 -67 -26t-70 -66.5t-55.5 -89.5t-22.5 -94zM536 312q0 14 -7.5 21t-18.5 7q-21 0 -45.5 -16.5t-48.5 -41t-43.5 -52.5t-29.5 -50q22 4 55 15.5t63.5 28.5
t52.5 39.5t22 48.5zM443 344l-18 -24l2 -2q25 16 51.5 25t52.5 9q25 0 39 -10.5t14 -30.5q0 -24 -26 -46.5t-63.5 -41t-80.5 -33t-76 -21.5q-11 -20 -18 -45t-7 -50q0 -23 11 -44.5t36 -21.5q33 0 77.5 21.5t90.5 57.5t88 82t72 95l8 -5q-15 -25 -37.5 -55t-51 -59.5
t-61 -57t-67.5 -49t-70.5 -34t-69.5 -12.5q-42 0 -64 21.5t-22 61.5q0 27 10 49l-2 2q-50 -63 -100 -98.5t-93 -35.5q-37 0 -52 23t-15 52q0 41 26 90.5t66 93t87 72.5t89 29q20 0 35 -5.5t25 -15t15.5 -21.5t8.5 -25h2l33 59h55z" />
    <glyph glyph-name="oslash" unicode="&#xf8;" 
d="M311 329q-11 11 -28 11q-21 0 -45 -13.5t-48.5 -35.5t-46.5 -51t-39.5 -60t-27.5 -62t-10 -58q0 -13 3 -24zM73 26q9 -22 33 -22q27 0 53.5 14.5t51 38t45.5 53.5t36.5 62t24.5 62.5t9 55.5q0 20 -8 31zM388 405l-52 -63q41 -21 44 -76q2 -23 21.5 -42.5t53.5 -19.5
q30 0 56.5 15t49.5 39l8 -5q-24 -27 -54 -43t-59 -16q-28 0 -48 12.5t-31 29.5h-2q-10 -38 -37 -81t-64.5 -79t-82.5 -60t-92 -24q-26 0 -45 11l-55 -66l-7 8l53 63q-33 24 -33 76q0 22 11 51t30.5 58.5t46 58t57.5 51t65.5 36t69.5 13.5q17 0 34 -5l54 65z" />
    <glyph glyph-name="questiondown" unicode="&#xbf;" 
d="M331 220q-18 -29 -44.5 -48t-55.5 -34l-58.5 -29.5t-53.5 -34.5q-35 -29 -50 -64.5t-15 -79.5q0 -48 26 -76t73 -28q26 0 53 11t49 30.5t36 45t14 55.5q0 14 -2.5 29t-9.5 27t-19 20t-31 8q-21 0 -42.5 -10t-37.5 -30l-7 5q14 20 38 33.5t51 13.5q42 0 66 -24.5t24 -66.5
q0 -33 -18 -62t-46.5 -50.5t-63 -34t-68.5 -12.5q-60 0 -99.5 30t-39.5 93q0 29 13 54.5t35 47.5t49.5 40.5t56.5 31.5l46.5 21.5t49.5 25.5t43.5 30.5t28.5 34.5zM372 278q-15 0 -26 11t-11 26t11 26t26 11t26 -11t11 -26t-11 -26t-26 -11z" />
    <glyph glyph-name="exclamdown" unicode="&#xa1;" horiz-adv-x="333" 
d="M222 209l-92.5 -152t-77.5 -159q-17 -44 -30 -60t-33 -16q-14 0 -23.5 10t-9.5 24q0 20 14.5 37.5t27.5 31.5q122 137 218 288zM275 278q-15 0 -26 11t-11 26t11 26t26 11t26 -11t11 -26t-11 -26t-26 -11z" />
    <glyph glyph-name="logicalnot" unicode="&#xac;" horiz-adv-x="600" 
d="M469 231h-280l8 12h344l-105 -160l-68 -8z" />
    <glyph glyph-name="florin" unicode="&#x192;" horiz-adv-x="500" 
d="M189 322v12h160l20 58t29 74t37.5 78t45 70t52 50.5t57.5 19.5q27 0 47 -15.5t20 -40.5q0 -30 -18.5 -44t-42.5 -14q11 10 16 25t5 28q0 24 -10 34.5t-25 10.5q-22 0 -42.5 -20.5t-39 -52.5t-34.5 -71.5t-29 -76.5t-22 -67.5t-14 -45.5h151v-12h-155l-67 -207.5
t-75 -204.5l-22.5 -51t-29.5 -52t-39.5 -40.5t-52.5 -16.5q-32 0 -51 15t-19 42q0 23 15 38t41 15q-3 -14 -5.5 -27.5t-2.5 -28.5q0 -17 8.5 -29.5t28.5 -12.5q23 0 40 21t30.5 52.5t24 67.5l19.5 66l104 353h-155z" />
    <glyph glyph-name="guillemotleft" unicode="&#xab;" 
d="M416 327l-83.5 -82.5t-85.5 -79.5l43 -73.5t32 -78.5l-7 -3q-27 42 -58.5 79.5l-63.5 75.5q57 40 110 83.5l108 85.5zM291 327l-83.5 -82.5t-85.5 -79.5l43 -73.5t32 -78.5l-7 -3q-27 42 -58.5 79.5l-63.5 75.5q57 40 110 83.5l108 85.5z" />
    <glyph glyph-name="guillemotright" unicode="&#xbb;" 
d="M159 17l83 83t86 79q-24 36 -44.5 73.5t-31.5 79.5l7 2q27 -42 58 -80l63 -75q-56 -40 -108.5 -83.5t-108.5 -85.5zM34 17l83 83t86 79q-24 36 -44.5 73.5t-31.5 79.5l7 2q27 -42 58 -80l64 -75q-57 -40 -109.5 -83.5t-108.5 -85.5z" />
    <glyph glyph-name="ellipsis" unicode="&#x2026;" horiz-adv-x="1000" 
d="M179 74q15 0 26 -11t11 -26t-11 -26t-26 -11t-26 11t-11 26t11 26t26 11zM512 74q15 0 26 -11t11 -26t-11 -26t-26 -11t-26 11t-11 26t11 26t26 11zM845 74q15 0 26 -11t11 -26t-11 -26t-26 -11t-26 11t-11 26t11 26t26 11z" />
    <glyph glyph-name="Agrave" unicode="&#xc0;" horiz-adv-x="944" 
d="M597 311q-49 -62 -101 -119.5t-104.5 -102t-104.5 -71t-100 -26.5q-33 0 -52.5 7.5t-30 18t-14 22t-3.5 20.5q0 17 10 29t28 12q16 0 25 -11t9 -26q0 -9 -5 -18t-14 -11q9 -14 25 -18.5t33 -4.5q43 0 90.5 25t96 65.5t96.5 92t92 105.5l47.5 59l64.5 76t78.5 83.5
t90.5 80.5t100 68t106 45l3 -4q-34 -31 -71 -77t-72.5 -99.5t-67.5 -112.5t-56.5 -117.5t-39 -112.5t-14.5 -99q0 -31 10.5 -52.5t42.5 -21.5q19 0 43.5 14t51.5 37t53.5 51l50.5 55.5t43 52l30 39.5l7 -3l-72 -91t-77 -87.5t-78.5 -65.5t-75.5 -26q-24 0 -40.5 8.5
t-27.5 23.5t-16 34t-5 40q0 57 16 109.5t36 103.5h-137zM739 323q45 93 106.5 182t145.5 169l-2 2q-53 -26 -103.5 -64t-98.5 -84t-93.5 -98t-88.5 -107h134zM932 892q17 0 26.5 -18t11.5 -44q2 -18 14 -34.5t26 -30t25.5 -22.5t11.5 -13t-5 -4q-4 0 -25.5 14t-45 35
t-42.5 45t-19 45q0 8 5.5 17.5t16.5 9.5z" />
    <glyph glyph-name="Atilde" unicode="&#xc3;" horiz-adv-x="944" 
d="M597 311q-49 -62 -101 -119.5t-104.5 -102t-104.5 -71t-100 -26.5q-33 0 -52.5 7.5t-30 18t-14 22t-3.5 20.5q0 17 10 29t28 12q16 0 25 -11t9 -26q0 -9 -5 -18t-14 -11q9 -14 25 -18.5t33 -4.5q43 0 90.5 25t96 65.5t96.5 92t92 105.5l47.5 59l64.5 76t78.5 83.5
t90.5 80.5t100 68t106 45l3 -4q-34 -31 -71 -77t-72.5 -99.5t-67.5 -112.5t-56.5 -117.5t-39 -112.5t-14.5 -99q0 -31 10.5 -52.5t42.5 -21.5q19 0 43.5 14t51.5 37t53.5 51l50.5 55.5t43 52l30 39.5l7 -3l-72 -91t-77 -87.5t-78.5 -65.5t-75.5 -26q-24 0 -40.5 8.5
t-27.5 23.5t-16 34t-5 40q0 57 16 109.5t36 103.5h-137zM739 323q45 93 106.5 182t145.5 169l-2 2q-53 -26 -103.5 -64t-98.5 -84t-93.5 -98t-88.5 -107h134zM1113 776q-18 0 -35.5 5.5t-34.5 12.5t-33.5 12.5t-33.5 5.5q-14 0 -23 -7t-14.5 -15t-9 -15t-7.5 -7t-4 10
q0 12 4.5 24.5t13.5 23t23 17.5t33 7q12 0 28.5 -5.5t35.5 -13.5t37.5 -13.5t32.5 -5.5q21 0 36.5 11t15.5 24q0 9 7 9q5 0 5 -6q0 -14 -5.5 -28.5t-16 -25t-24.5 -16.5t-31 -4z" />
    <glyph glyph-name="Otilde" unicode="&#xd5;" horiz-adv-x="778" 
d="M686 583q0 17 -3 32t-11 26.5t-23.5 18.5t-39.5 7h-12q-6 0 -12 -2q-14 -15 -28 -36.5t-25 -47.5t-18 -55t-7 -59q0 -155 124 -232q48 77 76.5 166t28.5 180q0 19 -2 40t-9 38.5t-21.5 29t-39.5 11.5q-18 0 -35.5 -5.5t-28.5 -13.5l2 -2h14q25 0 41 -8t25 -21.5t12.5 -31
t3.5 -35.5h-12zM232 146q0 -24 6.5 -48.5t20 -44.5t34 -32.5t47.5 -12.5q37 0 79 21.5t81.5 54t72.5 70.5t52 71q-66 39 -100 99.5t-34 134.5q0 22 4 47.5t13 51.5t23 52.5t35 49.5l-2 2q-63 -19 -122.5 -71.5t-106 -124.5t-75 -155.5t-28.5 -164.5zM903 263
q-15 -16 -34.5 -29t-40.5 -22t-42 -14t-40 -5q-32 0 -55 6t-43 14q-24 -35 -60.5 -74t-79.5 -71.5t-90 -54t-92 -21.5q-79 0 -118.5 45.5t-39.5 122.5q0 62 20.5 122.5t54.5 116t77.5 103.5t89.5 85t90.5 60.5t80.5 29.5q15 14 37.5 24.5t48.5 10.5q61 0 89 -39t28 -115
q0 -40 -12 -85.5t-30.5 -90.5t-41.5 -86t-46 -73q20 -9 42.5 -13.5t50.5 -4.5q40 0 79 18t71 47zM758 776q-18 0 -35.5 5.5t-34.5 12.5t-33.5 12.5t-33.5 5.5q-14 0 -23 -7t-14.5 -15t-9 -15t-7.5 -7t-4 10q0 12 4.5 24.5t13.5 23t23 17.5t33 7q12 0 28.5 -5.5t35.5 -13.5
t37.5 -13.5t32.5 -5.5q21 0 36.5 11t15.5 24q0 9 7 9q5 0 5 -6q0 -14 -5.5 -28.5t-16 -25t-24.5 -16.5t-31 -4z" />
    <glyph glyph-name="OE" unicode="&#x152;" horiz-adv-x="1000" 
d="M691 180q16 19 34.5 37.5t39.5 33t44.5 23.5t49.5 9q22 0 42 -6t35.5 -18t25 -30t9.5 -42q0 -42 -24.5 -78.5t-64.5 -64.5t-92 -44t-108 -16q-74 0 -127 23.5t-76 65.5q-40 -36 -85.5 -62.5t-106.5 -26.5q-71 0 -108.5 44.5t-37.5 113.5q0 57 19.5 115.5t52 112.5
t74.5 101.5t86 82.5t87 55.5t78 20.5q53 0 77 -33.5t24 -83.5q0 -14 -2.5 -33t-4.5 -30h-11q6 36 6 63q0 105 -90 105q-32 0 -69 -19.5t-74.5 -53.5t-72 -79.5t-61.5 -97t-43 -106t-16 -107.5q0 -27 6 -55t19.5 -50t35.5 -36t53 -14q21 0 43 8t43 20t39.5 27t32.5 29
q-8 20 -10 38t-2 35q0 42 17.5 76t46 59.5t63.5 44t71 28.5q14 37 24.5 77t10.5 80q0 37 -7.5 68.5t-24 55t-42.5 37t-64 13.5q-40 0 -75 -15t-67.5 -39t-62 -54.5l-58.5 -60.5l-8 8l70.5 73t65 54.5t68 34t78.5 11.5q82 0 124.5 -47.5t42.5 -129.5q0 -38 -8 -75t-21 -72
q47 14 64.5 35t20.5 64q3 47 15.5 88.5t38 73t65.5 49.5t98 18q24 0 47.5 -6.5t41.5 -20t29.5 -33t11.5 -46.5q0 -33 -15 -59t-39 -43.5t-54 -27t-59 -9.5q-14 0 -24 1t-19 3v11q13 -2 22 -2.5t20 -0.5q29 0 53 10t40.5 27.5t25.5 40.5t9 50q0 47 -27.5 70t-73.5 23
q-39 0 -66 -17t-44 -44.5t-25.5 -61t-10.5 -66.5q-2 -36 -15 -58t-33.5 -36t-46.5 -24l-55 -21q-29 -72 -74.5 -136t-101.5 -121q7 -23 22.5 -44.5t38 -38t52.5 -26.5t66 -10q43 0 83 14t70.5 39t48.5 59.5t18 76.5q0 38 -19.5 60t-58.5 22q-20 0 -41 -9t-40.5 -22.5
t-37 -29.5t-29.5 -31zM515 172q0 -11 1.5 -23.5t4.5 -21.5q46 50 76.5 108t56.5 118q-30 -7 -55.5 -25t-44 -42.5t-29 -53.5t-10.5 -60z" />
    <glyph glyph-name="oe" unicode="&#x153;" horiz-adv-x="574" 
d="M66 60q0 -26 10 -41t30 -15q27 0 53.5 14.5t51 38t45.5 53.5t36.5 62t24.5 62.5t9 55.5q0 21 -10.5 35.5t-32.5 14.5q-21 0 -45 -13.5t-48.5 -35.5t-46.5 -51t-39.5 -60t-27.5 -62t-10 -58zM540 312q0 14 -7.5 21t-18.5 7q-21 0 -45.5 -16.5t-48.5 -41t-43.5 -52.5
t-29.5 -50q22 4 55 15.5t63.5 28.5t52.5 39.5t22 48.5zM12 84q0 22 11 51t30.5 58.5t46 58t57.5 51t65.5 36t69.5 13.5t56 -18.5t28 -50.5q37 32 79 50.5t80 18.5q25 0 39 -10.5t14 -30.5q0 -24 -26 -46.5t-63.5 -41t-80.5 -33t-76 -21.5q-11 -20 -18 -45t-7 -50
q0 -23 11 -44.5t36 -21.5q33 0 77.5 21.5t90.5 57.5t88.5 82t72.5 95l8 -5q-15 -25 -38 -55t-51.5 -59.5t-61 -57t-67.5 -49t-70.5 -34t-69.5 -12.5q-39 0 -62 17.5t-27 50.5q-34 -30 -74 -49t-81 -19q-43 0 -65 25t-22 67z" />
    <glyph glyph-name="endash" unicode="&#x2013;" horiz-adv-x="500" 
d="M-14 158l12 28h500l-12 -28h-500z" />
    <glyph glyph-name="emdash" unicode="&#x2014;" horiz-adv-x="1000" 
d="M-14 158l12 28h1000l-12 -28h-1000z" />
    <glyph glyph-name="quotedblleft" unicode="&#x201c;" horiz-adv-x="389" 
d="M287 583q-15 -6 -33 -15.5t-33.5 -22t-27 -29.5t-14.5 -40q15 -1 28.5 -8.5t13.5 -27.5t-11 -29t-29 -9q-17 0 -27.5 14t-10.5 30q0 29 15 52.5t36.5 42.5t46.5 32t45 19zM454 583q-15 -6 -33 -15.5t-33.5 -22t-27 -29.5t-14.5 -40q15 -1 28.5 -8.5t13.5 -27.5t-11 -29
t-29 -9q-17 0 -27.5 14t-10.5 30q0 29 15 52.5t36.5 42.5t46.5 32t45 19z" />
    <glyph glyph-name="quotedblright" unicode="&#x201d;" horiz-adv-x="389" 
d="M259 407q15 6 33 15.5t33.5 22t27 30t14.5 39.5q-15 1 -28.5 8.5t-13.5 27.5t11 29t29 9q17 0 27.5 -14t10.5 -30q0 -28 -15 -52t-36.5 -43t-46.5 -32t-45 -19zM92 407q15 6 33 15.5t33.5 22t27 30t14.5 39.5q-15 1 -28.5 8.5t-13.5 27.5t11 29t29 9q17 0 27.5 -14
t10.5 -30q0 -28 -15 -52t-36.5 -43t-46.5 -32t-45 -19z" />
    <glyph glyph-name="quoteleft" unicode="&#x2018;" horiz-adv-x="222" 
d="M298 583q-15 -6 -33 -15.5t-33.5 -22t-27 -30t-14.5 -40.5q15 0 28.5 -7.5t13.5 -27.5t-11 -29t-29 -9q-17 0 -27.5 14t-10.5 30q0 29 15 52.5t36.5 42.5t46.5 32t45 19z" />
    <glyph glyph-name="quoteright" unicode="&#x2019;" horiz-adv-x="222" 
d="M162 407q15 6 33 15.5t33.5 22t27 30t14.5 40.5q-15 0 -28.5 7.5t-13.5 27.5t11 29t29 9q17 0 27.5 -14t10.5 -30q0 -28 -15 -52t-36.5 -43t-46.5 -32t-45 -19z" />
    <glyph glyph-name="divide" unicode="&#xf7;" horiz-adv-x="600" 
d="M523 189l-14 -13h-318l13 13h319zM245 41q0 14 8.5 22.5t22.5 8.5q11 0 20 -10t9 -21t-9.5 -20t-20.5 -9q-13 0 -21.5 8t-8.5 21zM415 318q0 13 8.5 20.5t21.5 7.5q11 0 18.5 -9t7.5 -20q0 -12 -8.5 -19.5t-19.5 -7.5q-13 0 -20.5 7.5t-7.5 20.5z" />
    <glyph glyph-name="ydieresis" unicode="&#xff;" 
d="M232 344l-72 -100l-64.5 -88t-46.5 -70.5t-18 -48.5q0 -29 28 -29q29 0 67.5 28t81.5 74.5t87.5 107t85.5 126.5h62q-59 -81 -110 -166.5t-107 -169.5q95 17 181.5 83.5t153.5 165.5l7 -3q-72 -110 -163.5 -176.5t-185.5 -81.5l-79.5 -107.5t-89 -98t-106.5 -71
t-131 -27.5q-33 0 -62.5 8.5t-51.5 23.5t-35 36t-13 45q0 52 34.5 76t83.5 24v-3q-36 -8 -53 -32.5t-17 -61.5q0 -25 10 -44.5t26 -32.5t36.5 -20t42.5 -7q47 0 91 22t84.5 58t77.5 81.5t70 94t61.5 95l52.5 83.5l-2 2l-39 -44.5t-50.5 -48.5t-58.5 -39t-64 -16
q-32 0 -46 13t-14 35q0 20 10.5 42.5t33.5 56.5l58.5 83l85.5 122h67zM430 522q12 0 18.5 -12t6.5 -23q0 -15 -10.5 -26t-27.5 -11q-13 0 -19.5 11t-6.5 23q0 17 11 27.5t28 10.5zM286 522q12 0 18.5 -12t6.5 -23q0 -15 -10.5 -26t-27.5 -11q-13 0 -19.5 11t-6.5 23
q0 17 11 27.5t28 10.5z" />
    <glyph glyph-name="Ydieresis" unicode="&#x178;" horiz-adv-x="778" 
d="M1012 696l-429 -660q-45 -63 -93 -122t-101 -105t-112 -73.5t-125 -27.5q-33 0 -63.5 8t-54 24.5t-37.5 41.5t-14 59q0 27 10 48.5t26 36t37.5 22.5t43.5 8q23 0 47 -8t41 -19l-4 -8q-17 7 -35 13t-36 6q-29 0 -52.5 -26t-23.5 -80q0 -53 35.5 -83.5t92.5 -30.5
q47 0 93 26t89 68.5t83.5 95.5t76.5 107l67.5 104t57.5 85l-2 2q-29 -35 -67.5 -73.5t-80.5 -70t-84.5 -52t-80.5 -20.5q-44 0 -64 20t-20 58q0 31 24.5 77t61 99.5l79.5 111.5t79.5 113t61 103t24.5 81q0 20 -12.5 32.5t-36.5 12.5q-42 0 -93 -22t-95.5 -59t-74.5 -84
t-30 -97q0 -31 14.5 -51.5t45.5 -20.5q23 0 42 6t34.5 16.5t28.5 24.5t25 29l8 -1q-23 -35 -58.5 -61t-83.5 -26q-42 0 -60 26.5t-18 59.5q0 46 31 94t78 87.5t103.5 65t108.5 25.5q48 0 72.5 -19.5t24.5 -64.5q0 -31 -24.5 -78t-61 -101.5t-79.5 -113l-79.5 -112.5
t-61 -100t-24.5 -75q0 -26 12 -35t25 -9q32 0 78 23.5t95.5 63.5t98 93t87.5 112l261 400h68zM854 842q12 0 18.5 -12t6.5 -23q0 -15 -10.5 -26t-27.5 -11q-13 0 -19.5 11t-6.5 23q0 17 11 27.5t28 10.5zM710 842q12 0 18.5 -12t6.5 -23q0 -15 -10.5 -26t-27.5 -11
q-13 0 -19.5 11t-6.5 23q0 17 11 27.5t28 10.5z" />
    <glyph glyph-name="guilsinglleft" unicode="&#x2039;" horiz-adv-x="333" 
d="M310 327l-83 -83t-86 -80q24 -35 44.5 -72t31.5 -79l-7 -3q-28 42 -59 79.5l-63 75.5q57 41 110 84l108 85z" />
    <glyph glyph-name="guilsinglright" unicode="&#x203a;" horiz-adv-x="333" 
d="M38 17l83 83t86 79l-45 74t-30 79l7 2q26 -42 57.5 -79.5l63.5 -75.5q-57 -39 -109.5 -83l-107.5 -86z" />
    <glyph glyph-name="fi" unicode="&#xfb01;" 
d="M199 332l-3 -4q-94 -162 -169.5 -278.5t-145 -191t-139.5 -109.5t-155 -35q-30 0 -57.5 7.5t-48.5 22.5t-34 37.5t-13 52.5q0 39 24.5 66.5t82.5 27.5h9v-8q-30 -2 -51 -23t-21 -58q0 -52 29 -82.5t85 -30.5q54 0 103 24.5t94.5 67.5t89 101t87 125.5l87.5 141l90 146.5
h-71v12h77l80 125t86 113.5t94 82t103 31.5q32 0 52 -13.5t20 -41.5q0 -24 -15 -39.5t-38 -17.5q4 14 6.5 26.5t2.5 29.5q0 20 -9.5 32t-32.5 12q-37 0 -75.5 -33.5t-76 -84.5t-73.5 -110.5l-68 -111.5h111q17 0 53 2t78 4q-28 -46 -62 -95.5l-64 -94t-50.5 -80t-20.5 -53.5
q0 -12 7 -17.5t16 -5.5q20 0 46.5 14.5t55.5 37.5t58 52t54.5 57.5t45 55t28.5 43.5l8 -5q-12 -20 -32.5 -48t-46.5 -57.5t-55 -58.5t-59 -52t-58.5 -37t-52.5 -14q-29 0 -44 15.5t-15 41.5q0 23 14 50t37 61.5l53.5 77l64.5 94.5h-176z" />
    <glyph glyph-name="fl" unicode="&#xfb02;" 
d="M379 344l146 234q9 15 12 30t3 32q0 20 -9.5 32t-32.5 12q-37 0 -75.5 -33.5t-76 -84.5t-73 -110.5l-67.5 -111.5h173zM664 696l-234 -364l-82 -127t-55.5 -89.5t-32 -58t-10.5 -32.5q0 -8 6 -14.5t19 -6.5q21 0 59 25t80 63.5t82 84.5t65 88l7 -4q-11 -20 -31.5 -48
t-47 -58t-56.5 -59t-59.5 -52t-56.5 -37.5t-47 -14.5q-32 0 -46 15.5t-14 38.5q0 20 14.5 50.5t37 67t50 77l52.5 80.5l7 11h-171q-96 -164 -172 -281t-146 -192t-140 -110t-155 -35q-30 0 -57.5 7.5t-48.5 22.5t-34 37.5t-13 52.5q0 39 24.5 66.5t82.5 27.5h9v-8
q-30 -2 -51 -23t-21 -58q0 -52 29 -82.5t85 -30.5q54 0 103 24.5t94.5 67.5t89 101t87 125.5l87.5 141l90 146.5h-71v12h77l80 125t86 113.5t94 82t103 31.5q36 0 56 -17z" />
    <glyph glyph-name="daggerdbl" unicode="&#x2021;" horiz-adv-x="500" 
d="M447 460l-73 -118h207l-6 -12h-208l-250 -404h-27l232 404h-198l6 12h199l68 118h-196l6 12h198l99 178q17 32 30 47t28 15q11 0 16.5 -6.5t5.5 -15.5t-5.5 -20t-13.5 -22l-109 -176h202l-6 -12h-205z" />
    <glyph glyph-name="periodcentered" unicode="&#xb7;" horiz-adv-x="250" 
d="M204 209q15 0 26 -11t11 -26t-11 -26t-26 -11t-26 11t-11 26t11 26t26 11z" />
    <glyph glyph-name="quotesinglbase" unicode="&#x201a;" horiz-adv-x="222" 
d="M-12 -111q15 6 33 15.5t33.5 22t27 30t14.5 40.5q-15 0 -28.5 7.5t-13.5 27.5t11 29t29 9q17 0 27.5 -14t10.5 -30q0 -29 -15 -52.5t-36.5 -42.5t-46.5 -32t-45 -19z" />
    <glyph glyph-name="quotedblbase" unicode="&#x201e;" horiz-adv-x="389" 
d="M129 -111q15 6 33 15.5t33.5 22t27 30t14.5 40.5q-15 0 -28.5 7.5t-13.5 27.5t11 29t29 9q17 0 27.5 -14t10.5 -30q0 -29 -15 -52.5t-36.5 -42.5t-46.5 -32t-45 -19zM-38 -111q15 6 33 15.5t33.5 22t27 30t14.5 40.5q-15 0 -28.5 7.5t-13.5 27.5t11 29t29 9
q17 0 27.5 -14t10.5 -30q0 -29 -15 -52.5t-36.5 -42.5t-46.5 -32t-45 -19z" />
    <glyph glyph-name="perthousand" unicode="&#x2030;" horiz-adv-x="1130" 
d="M1085 298q45 0 65 -25.5t20 -57.5q0 -30 -19 -67.5t-50 -70.5t-70.5 -55t-80.5 -22q-44 0 -67.5 22.5t-23.5 69.5q0 39 21.5 76.5t54.5 66t73 46t77 17.5zM1083 286q-31 0 -63 -24.5t-58 -60.5t-42.5 -76t-16.5 -72q0 -22 13 -31.5t33 -9.5q32 0 63.5 26t57 62.5t41 77
t15.5 69.5q0 21 -11 30t-32 9zM731 298q45 0 65 -25.5t20 -57.5q0 -30 -19 -67.5t-50 -70.5t-70.5 -55t-80.5 -22q-44 0 -67.5 22.5t-23.5 69.5q0 39 21.5 76.5t54.5 66t73 46t77 17.5zM729 286q-31 0 -63 -24.5t-58 -60.5t-42.5 -76t-16.5 -72q0 -22 13 -31.5t33 -9.5
q32 0 63.5 26t57 62.5t41 77t15.5 69.5q0 21 -11 30t-32 9zM639 462q-16 -14 -39.5 -25t-50.5 -11q-20 0 -37 10.5t-28 25.5l-2 -2q1 -25 -8.5 -52t-26 -52.5t-39.5 -49t-48.5 -41t-52 -27.5t-51.5 -10q-41 0 -64.5 23.5t-23.5 65.5q0 38 21 76.5t54 69t73 50t77 19.5
q40 0 58.5 -14.5t30.5 -32.5t26 -32.5t44 -14.5q23 0 43.5 8.5t36 20.5t26.5 24.5t16 19.5q15 23 23.5 29t20.5 6q11 0 11 -14q0 -3 -10 -16.5t-25.5 -32.5l-34 -41l-35.5 -42l-30 -35l-18 -21l-69.5 -82.5l-72 -86.5l-68.5 -82l-58 -69l-40 -47.5t-16 -17.5q-5 0 -5 5
q0 1 27.5 36l78.5 99l124 155.5l164 205.5zM212 285q0 -19 8.5 -32t30.5 -13q33 0 66.5 26t60.5 63t43.5 77.5t16.5 70.5q0 20 -10.5 31.5t-31.5 11.5q-31 0 -64 -23.5t-59.5 -58.5t-43.5 -76t-17 -77z" />
    <glyph glyph-name="Acircumflex" unicode="&#xc2;" horiz-adv-x="944" 
d="M597 311q-49 -62 -101 -119.5t-104.5 -102t-104.5 -71t-100 -26.5q-33 0 -52.5 7.5t-30 18t-14 22t-3.5 20.5q0 17 10 29t28 12q16 0 25 -11t9 -26q0 -9 -5 -18t-14 -11q9 -14 25 -18.5t33 -4.5q43 0 90.5 25t96 65.5t96.5 92t92 105.5l47.5 59l64.5 76t78.5 83.5
t90.5 80.5t100 68t106 45l3 -4q-34 -31 -71 -77t-72.5 -99.5t-67.5 -112.5t-56.5 -117.5t-39 -112.5t-14.5 -99q0 -31 10.5 -52.5t42.5 -21.5q19 0 43.5 14t51.5 37t53.5 51l50.5 55.5t43 52l30 39.5l7 -3l-72 -91t-77 -87.5t-78.5 -65.5t-75.5 -26q-24 0 -40.5 8.5
t-27.5 23.5t-16 34t-5 40q0 57 16 109.5t36 103.5h-137zM739 323q45 93 106.5 182t145.5 169l-2 2q-53 -26 -103.5 -64t-98.5 -84t-93.5 -98t-88.5 -107h134zM928 733q39 37 75.5 76.5t68.5 82.5h16q0 -44 15 -82.5t41 -80.5l-8 -5q-26 29 -43.5 54.5t-32.5 54.5
q-30 -29 -61.5 -56.5t-66.5 -50.5z" />
    <glyph glyph-name="Ecircumflex" unicode="&#xca;" horiz-adv-x="667" 
d="M335 185q31 43 72.5 69t95.5 26t81 -27.5t27 -67.5q0 -36 -27 -71.5t-69 -64.5t-93.5 -47t-101.5 -18q-55 0 -97.5 12t-72 34t-45 52t-15.5 66q0 50 19.5 86t51 63t73 48t84.5 40q17 8 27 14.5t15.5 17.5t7.5 28.5t2 46.5q0 44 14 83.5t42.5 70t72 48.5t101.5 18
q24 0 48 -5.5t43.5 -18t32 -32t12.5 -46.5q0 -33 -15 -59t-39 -44t-53 -27t-57 -9q-14 0 -27 2t-18 4l1 11q13 -5 44 -5q30 0 52.5 14t37.5 34t22.5 42t7.5 39q0 46 -27 67t-75 21q-44 0 -74 -19.5t-48 -49t-26 -64t-8 -63.5q0 -38 -16 -64t-51 -42l-77.5 -36t-68.5 -43.5
t-48.5 -62t-18.5 -92.5q0 -31 13 -61t36 -52.5t55.5 -36.5t71.5 -14q36 0 76 11t73.5 33t55.5 55.5t22 78.5q0 44 -18 67t-58 23q-21 0 -41 -7.5t-38 -20t-33.5 -28.5t-26.5 -32zM500 733q39 37 75.5 76.5t68.5 82.5h16q0 -44 15 -82.5t41 -80.5l-8 -5q-26 29 -43.5 54.5
t-32.5 54.5q-30 -29 -61.5 -56.5t-66.5 -50.5z" />
    <glyph glyph-name="Aacute" unicode="&#xc1;" horiz-adv-x="944" 
d="M597 311q-49 -62 -101 -119.5t-104.5 -102t-104.5 -71t-100 -26.5q-33 0 -52.5 7.5t-30 18t-14 22t-3.5 20.5q0 17 10 29t28 12q16 0 25 -11t9 -26q0 -9 -5 -18t-14 -11q9 -14 25 -18.5t33 -4.5q43 0 90.5 25t96 65.5t96.5 92t92 105.5l47.5 59l64.5 76t78.5 83.5
t90.5 80.5t100 68t106 45l3 -4q-34 -31 -71 -77t-72.5 -99.5t-67.5 -112.5t-56.5 -117.5t-39 -112.5t-14.5 -99q0 -31 10.5 -52.5t42.5 -21.5q19 0 43.5 14t51.5 37t53.5 51l50.5 55.5t43 52l30 39.5l7 -3l-72 -91t-77 -87.5t-78.5 -65.5t-75.5 -26q-24 0 -40.5 8.5
t-27.5 23.5t-16 34t-5 40q0 57 16 109.5t36 103.5h-137zM739 323q45 93 106.5 182t145.5 169l-2 2q-53 -26 -103.5 -64t-98.5 -84t-93.5 -98t-88.5 -107h134zM1127 892q11 0 16.5 -9.5t5.5 -17.5q0 -21 -19 -45t-42.5 -45t-44.5 -35t-26 -14t-5 4t11.5 13t25.5 22.5t26.5 30
t13.5 34.5q2 26 11.5 44t26.5 18z" />
    <glyph glyph-name="Edieresis" unicode="&#xcb;" horiz-adv-x="667" 
d="M335 185q31 43 72.5 69t95.5 26t81 -27.5t27 -67.5q0 -36 -27 -71.5t-69 -64.5t-93.5 -47t-101.5 -18q-55 0 -97.5 12t-72 34t-45 52t-15.5 66q0 50 19.5 86t51 63t73 48t84.5 40q17 8 27 14.5t15.5 17.5t7.5 28.5t2 46.5q0 44 14 83.5t42.5 70t72 48.5t101.5 18
q24 0 48 -5.5t43.5 -18t32 -32t12.5 -46.5q0 -33 -15 -59t-39 -44t-53 -27t-57 -9q-14 0 -27 2t-18 4l1 11q13 -5 44 -5q30 0 52.5 14t37.5 34t22.5 42t7.5 39q0 46 -27 67t-75 21q-44 0 -74 -19.5t-48 -49t-26 -64t-8 -63.5q0 -38 -16 -64t-51 -42l-77.5 -36t-68.5 -43.5
t-48.5 -62t-18.5 -92.5q0 -31 13 -61t36 -52.5t55.5 -36.5t71.5 -14q36 0 76 11t73.5 33t55.5 55.5t22 78.5q0 44 -18 67t-58 23q-21 0 -41 -7.5t-38 -20t-33.5 -28.5t-26.5 -32zM704 842q12 0 18.5 -12t6.5 -23q0 -15 -10.5 -26t-27.5 -11q-13 0 -19.5 11t-6.5 23
q0 17 11 27.5t28 10.5zM560 842q12 0 18.5 -12t6.5 -23q0 -15 -10.5 -26t-27.5 -11q-13 0 -19.5 11t-6.5 23q0 17 11 27.5t28 10.5z" />
    <glyph glyph-name="Egrave" unicode="&#xc8;" horiz-adv-x="667" 
d="M335 185q31 43 72.5 69t95.5 26t81 -27.5t27 -67.5q0 -36 -27 -71.5t-69 -64.5t-93.5 -47t-101.5 -18q-55 0 -97.5 12t-72 34t-45 52t-15.5 66q0 50 19.5 86t51 63t73 48t84.5 40q17 8 27 14.5t15.5 17.5t7.5 28.5t2 46.5q0 44 14 83.5t42.5 70t72 48.5t101.5 18
q24 0 48 -5.5t43.5 -18t32 -32t12.5 -46.5q0 -33 -15 -59t-39 -44t-53 -27t-57 -9q-14 0 -27 2t-18 4l1 11q13 -5 44 -5q30 0 52.5 14t37.5 34t22.5 42t7.5 39q0 46 -27 67t-75 21q-44 0 -74 -19.5t-48 -49t-26 -64t-8 -63.5q0 -38 -16 -64t-51 -42l-77.5 -36t-68.5 -43.5
t-48.5 -62t-18.5 -92.5q0 -31 13 -61t36 -52.5t55.5 -36.5t71.5 -14q36 0 76 11t73.5 33t55.5 55.5t22 78.5q0 44 -18 67t-58 23q-21 0 -41 -7.5t-38 -20t-33.5 -28.5t-26.5 -32zM504 892q17 0 26.5 -18t11.5 -44q2 -18 14 -34.5t26 -30t25.5 -22.5t11.5 -13t-5 -4
q-4 0 -25.5 14t-45 35t-42.5 45t-19 45q0 8 5.5 17.5t16.5 9.5z" />
    <glyph glyph-name="Iacute" unicode="&#xcd;" horiz-adv-x="611" 
d="M-15 108q0 21 13 36.5t36 15.5q17 0 27 -9.5t10 -25.5t-10.5 -27t-26.5 -8q-4 -18 2.5 -34.5t23 -30t41 -21.5t55.5 -8q48 0 91 20t80.5 51.5t69 71t58 79t47.5 75t36 58.5l55.5 82t69.5 92.5t81.5 83.5t89.5 55v2q-45 0 -104 -3t-121.5 -11.5t-123 -24.5t-108 -43
t-76.5 -66t-29 -93q0 -42 23.5 -65t63.5 -23q28 0 55.5 11t49.5 30t35.5 43t13.5 49q0 23 -5 38l11 2q2 -6 4 -18t2 -20q0 -30 -13.5 -56.5t-37 -46.5t-54 -32t-64.5 -12q-59 0 -95.5 29.5t-36.5 86.5q0 44 26.5 79t71.5 62t103 46t121 30.5t127 16t119 3.5q66 0 105 9t50 9
q7 0 12 -1.5t5 -9.5q0 -10 -18 -13.5t-71 -3.5q-25 0 -56.5 -24.5t-67.5 -68.5t-76.5 -106.5t-83.5 -137.5q-42 -74 -89 -137.5t-100 -110t-114.5 -73t-133.5 -26.5q-28 0 -57.5 7t-54.5 22t-41 38.5t-16 56.5zM839 892q11 0 16.5 -9.5t5.5 -17.5q0 -21 -19 -45t-42.5 -45
t-44.5 -35t-26 -14t-5 4t11.5 13t25.5 22.5t26.5 30t13.5 34.5q2 26 11.5 44t26.5 18z" />
    <glyph glyph-name="Icircumflex" unicode="&#xce;" horiz-adv-x="611" 
d="M-15 108q0 21 13 36.5t36 15.5q17 0 27 -9.5t10 -25.5t-10.5 -27t-26.5 -8q-4 -18 2.5 -34.5t23 -30t41 -21.5t55.5 -8q48 0 91 20t80.5 51.5t69 71t58 79t47.5 75t36 58.5l55.5 82t69.5 92.5t81.5 83.5t89.5 55v2q-45 0 -104 -3t-121.5 -11.5t-123 -24.5t-108 -43
t-76.5 -66t-29 -93q0 -42 23.5 -65t63.5 -23q28 0 55.5 11t49.5 30t35.5 43t13.5 49q0 23 -5 38l11 2q2 -6 4 -18t2 -20q0 -30 -13.5 -56.5t-37 -46.5t-54 -32t-64.5 -12q-59 0 -95.5 29.5t-36.5 86.5q0 44 26.5 79t71.5 62t103 46t121 30.5t127 16t119 3.5q66 0 105 9t50 9
q7 0 12 -1.5t5 -9.5q0 -10 -18 -13.5t-71 -3.5q-25 0 -56.5 -24.5t-67.5 -68.5t-76.5 -106.5t-83.5 -137.5q-42 -74 -89 -137.5t-100 -110t-114.5 -73t-133.5 -26.5q-28 0 -57.5 7t-54.5 22t-41 38.5t-16 56.5zM640 733q39 37 75.5 76.5t68.5 82.5h16q0 -44 15 -82.5
t41 -80.5l-8 -5q-26 29 -43.5 54.5t-32.5 54.5q-30 -29 -61.5 -56.5t-66.5 -50.5z" />
    <glyph glyph-name="Idieresis" unicode="&#xcf;" horiz-adv-x="611" 
d="M-15 108q0 21 13 36.5t36 15.5q17 0 27 -9.5t10 -25.5t-10.5 -27t-26.5 -8q-4 -18 2.5 -34.5t23 -30t41 -21.5t55.5 -8q48 0 91 20t80.5 51.5t69 71t58 79t47.5 75t36 58.5l55.5 82t69.5 92.5t81.5 83.5t89.5 55v2q-45 0 -104 -3t-121.5 -11.5t-123 -24.5t-108 -43
t-76.5 -66t-29 -93q0 -42 23.5 -65t63.5 -23q28 0 55.5 11t49.5 30t35.5 43t13.5 49q0 23 -5 38l11 2q2 -6 4 -18t2 -20q0 -30 -13.5 -56.5t-37 -46.5t-54 -32t-64.5 -12q-59 0 -95.5 29.5t-36.5 86.5q0 44 26.5 79t71.5 62t103 46t121 30.5t127 16t119 3.5q66 0 105 9t50 9
q7 0 12 -1.5t5 -9.5q0 -10 -18 -13.5t-71 -3.5q-25 0 -56.5 -24.5t-67.5 -68.5t-76.5 -106.5t-83.5 -137.5q-42 -74 -89 -137.5t-100 -110t-114.5 -73t-133.5 -26.5q-28 0 -57.5 7t-54.5 22t-41 38.5t-16 56.5zM844 842q12 0 18.5 -12t6.5 -23q0 -15 -10.5 -26t-27.5 -11
q-13 0 -19.5 11t-6.5 23q0 17 11 27.5t28 10.5zM700 842q12 0 18.5 -12t6.5 -23q0 -15 -10.5 -26t-27.5 -11q-13 0 -19.5 11t-6.5 23q0 17 11 27.5t28 10.5z" />
    <glyph glyph-name="Igrave" unicode="&#xcc;" horiz-adv-x="611" 
d="M-15 108q0 21 13 36.5t36 15.5q17 0 27 -9.5t10 -25.5t-10.5 -27t-26.5 -8q-4 -18 2.5 -34.5t23 -30t41 -21.5t55.5 -8q48 0 91 20t80.5 51.5t69 71t58 79t47.5 75t36 58.5l55.5 82t69.5 92.5t81.5 83.5t89.5 55v2q-45 0 -104 -3t-121.5 -11.5t-123 -24.5t-108 -43
t-76.5 -66t-29 -93q0 -42 23.5 -65t63.5 -23q28 0 55.5 11t49.5 30t35.5 43t13.5 49q0 23 -5 38l11 2q2 -6 4 -18t2 -20q0 -30 -13.5 -56.5t-37 -46.5t-54 -32t-64.5 -12q-59 0 -95.5 29.5t-36.5 86.5q0 44 26.5 79t71.5 62t103 46t121 30.5t127 16t119 3.5q66 0 105 9t50 9
q7 0 12 -1.5t5 -9.5q0 -10 -18 -13.5t-71 -3.5q-25 0 -56.5 -24.5t-67.5 -68.5t-76.5 -106.5t-83.5 -137.5q-42 -74 -89 -137.5t-100 -110t-114.5 -73t-133.5 -26.5q-28 0 -57.5 7t-54.5 22t-41 38.5t-16 56.5zM644 892q17 0 26.5 -18t11.5 -44q2 -18 14 -34.5t26 -30
t25.5 -22.5t11.5 -13t-5 -4q-4 0 -25.5 14t-45 35t-42.5 45t-19 45q0 8 5.5 17.5t16.5 9.5z" />
    <glyph glyph-name="Oacute" unicode="&#xd3;" horiz-adv-x="778" 
d="M686 583q0 17 -3 32t-11 26.5t-23.5 18.5t-39.5 7h-12q-6 0 -12 -2q-14 -15 -28 -36.5t-25 -47.5t-18 -55t-7 -59q0 -155 124 -232q48 77 76.5 166t28.5 180q0 19 -2 40t-9 38.5t-21.5 29t-39.5 11.5q-18 0 -35.5 -5.5t-28.5 -13.5l2 -2h14q25 0 41 -8t25 -21.5t12.5 -31
t3.5 -35.5h-12zM232 146q0 -24 6.5 -48.5t20 -44.5t34 -32.5t47.5 -12.5q37 0 79 21.5t81.5 54t72.5 70.5t52 71q-66 39 -100 99.5t-34 134.5q0 22 4 47.5t13 51.5t23 52.5t35 49.5l-2 2q-63 -19 -122.5 -71.5t-106 -124.5t-75 -155.5t-28.5 -164.5zM903 263
q-15 -16 -34.5 -29t-40.5 -22t-42 -14t-40 -5q-32 0 -55 6t-43 14q-24 -35 -60.5 -74t-79.5 -71.5t-90 -54t-92 -21.5q-79 0 -118.5 45.5t-39.5 122.5q0 62 20.5 122.5t54.5 116t77.5 103.5t89.5 85t90.5 60.5t80.5 29.5q15 14 37.5 24.5t48.5 10.5q61 0 89 -39t28 -115
q0 -40 -12 -85.5t-30.5 -90.5t-41.5 -86t-46 -73q20 -9 42.5 -13.5t50.5 -4.5q40 0 79 18t71 47zM772 892q11 0 16.5 -9.5t5.5 -17.5q0 -21 -19 -45t-42.5 -45t-44.5 -35t-26 -14t-5 4t11.5 13t25.5 22.5t26.5 30t13.5 34.5q2 26 11.5 44t26.5 18z" />
    <glyph glyph-name="Ocircumflex" unicode="&#xd4;" horiz-adv-x="778" 
d="M686 583q0 17 -3 32t-11 26.5t-23.5 18.5t-39.5 7h-12q-6 0 -12 -2q-14 -15 -28 -36.5t-25 -47.5t-18 -55t-7 -59q0 -155 124 -232q48 77 76.5 166t28.5 180q0 19 -2 40t-9 38.5t-21.5 29t-39.5 11.5q-18 0 -35.5 -5.5t-28.5 -13.5l2 -2h14q25 0 41 -8t25 -21.5t12.5 -31
t3.5 -35.5h-12zM232 146q0 -24 6.5 -48.5t20 -44.5t34 -32.5t47.5 -12.5q37 0 79 21.5t81.5 54t72.5 70.5t52 71q-66 39 -100 99.5t-34 134.5q0 22 4 47.5t13 51.5t23 52.5t35 49.5l-2 2q-63 -19 -122.5 -71.5t-106 -124.5t-75 -155.5t-28.5 -164.5zM903 263
q-15 -16 -34.5 -29t-40.5 -22t-42 -14t-40 -5q-32 0 -55 6t-43 14q-24 -35 -60.5 -74t-79.5 -71.5t-90 -54t-92 -21.5q-79 0 -118.5 45.5t-39.5 122.5q0 62 20.5 122.5t54.5 116t77.5 103.5t89.5 85t90.5 60.5t80.5 29.5q15 14 37.5 24.5t48.5 10.5q61 0 89 -39t28 -115
q0 -40 -12 -85.5t-30.5 -90.5t-41.5 -86t-46 -73q20 -9 42.5 -13.5t50.5 -4.5q40 0 79 18t71 47zM573 733q39 37 75.5 76.5t68.5 82.5h16q0 -44 15 -82.5t41 -80.5l-8 -5q-26 29 -43.5 54.5t-32.5 54.5q-30 -29 -61.5 -56.5t-66.5 -50.5z" />
    <glyph glyph-name="Ograve" unicode="&#xd2;" horiz-adv-x="778" 
d="M686 583q0 17 -3 32t-11 26.5t-23.5 18.5t-39.5 7h-12q-6 0 -12 -2q-14 -15 -28 -36.5t-25 -47.5t-18 -55t-7 -59q0 -155 124 -232q48 77 76.5 166t28.5 180q0 19 -2 40t-9 38.5t-21.5 29t-39.5 11.5q-18 0 -35.5 -5.5t-28.5 -13.5l2 -2h14q25 0 41 -8t25 -21.5t12.5 -31
t3.5 -35.5h-12zM232 146q0 -24 6.5 -48.5t20 -44.5t34 -32.5t47.5 -12.5q37 0 79 21.5t81.5 54t72.5 70.5t52 71q-66 39 -100 99.5t-34 134.5q0 22 4 47.5t13 51.5t23 52.5t35 49.5l-2 2q-63 -19 -122.5 -71.5t-106 -124.5t-75 -155.5t-28.5 -164.5zM903 263
q-15 -16 -34.5 -29t-40.5 -22t-42 -14t-40 -5q-32 0 -55 6t-43 14q-24 -35 -60.5 -74t-79.5 -71.5t-90 -54t-92 -21.5q-79 0 -118.5 45.5t-39.5 122.5q0 62 20.5 122.5t54.5 116t77.5 103.5t89.5 85t90.5 60.5t80.5 29.5q15 14 37.5 24.5t48.5 10.5q61 0 89 -39t28 -115
q0 -40 -12 -85.5t-30.5 -90.5t-41.5 -86t-46 -73q20 -9 42.5 -13.5t50.5 -4.5q40 0 79 18t71 47zM577 892q17 0 26.5 -18t11.5 -44q2 -18 14 -34.5t26 -30t25.5 -22.5t11.5 -13t-5 -4q-4 0 -25.5 14t-45 35t-42.5 45t-19 45q0 8 5.5 17.5t16.5 9.5z" />
    <glyph glyph-name="Uacute" unicode="&#xda;" horiz-adv-x="833" 
d="M976 696l-154.5 -240l-122 -183.5t-80 -132.5t-28.5 -87q0 -22 10.5 -35.5t34.5 -13.5q36 0 78 25.5t84 64.5t82 85l73 87l8 -3l-80.5 -98.5t-84.5 -87t-86.5 -62t-86.5 -23.5q-42 0 -61 24t-19 63q0 22 10.5 47t21.5 42l-2 2q-24 -26 -57 -57t-70 -58t-76 -45t-76 -18
q-35 0 -55.5 18t-20.5 52t24 82t59.5 103t77.5 113.5t77.5 113.5t59.5 102t24 80q0 25 -17.5 34.5t-40.5 9.5q-50 0 -101.5 -23.5t-93 -61t-68 -84t-26.5 -91.5q0 -32 16.5 -53t56.5 -21q20 0 37.5 7t32.5 18t26.5 24t19.5 26l11 -2q-9 -15 -23 -30.5t-30.5 -27.5
t-35.5 -19.5t-39 -7.5q-39 0 -61.5 21.5t-22.5 63.5q0 45 26.5 93.5t70 88.5t99.5 65.5t116 25.5q42 0 68.5 -20t26.5 -59q0 -33 -23.5 -80.5t-58.5 -102t-76 -112l-76 -111t-58.5 -99t-23.5 -76.5q0 -24 12 -34t26 -10q36 0 80 25t86 60t77.5 72.5t53.5 62.5
q48 65 122 182.5l180 285.5h67zM852 892q11 0 16.5 -9.5t5.5 -17.5q0 -21 -19 -45t-42.5 -45t-44.5 -35t-26 -14t-5 4t11.5 13t25.5 22.5t26.5 30t13.5 34.5q2 26 11.5 44t26.5 18z" />
    <glyph glyph-name="Ucircumflex" unicode="&#xdb;" horiz-adv-x="833" 
d="M976 696l-154.5 -240l-122 -183.5t-80 -132.5t-28.5 -87q0 -22 10.5 -35.5t34.5 -13.5q36 0 78 25.5t84 64.5t82 85l73 87l8 -3l-80.5 -98.5t-84.5 -87t-86.5 -62t-86.5 -23.5q-42 0 -61 24t-19 63q0 22 10.5 47t21.5 42l-2 2q-24 -26 -57 -57t-70 -58t-76 -45t-76 -18
q-35 0 -55.5 18t-20.5 52t24 82t59.5 103t77.5 113.5t77.5 113.5t59.5 102t24 80q0 25 -17.5 34.5t-40.5 9.5q-50 0 -101.5 -23.5t-93 -61t-68 -84t-26.5 -91.5q0 -32 16.5 -53t56.5 -21q20 0 37.5 7t32.5 18t26.5 24t19.5 26l11 -2q-9 -15 -23 -30.5t-30.5 -27.5
t-35.5 -19.5t-39 -7.5q-39 0 -61.5 21.5t-22.5 63.5q0 45 26.5 93.5t70 88.5t99.5 65.5t116 25.5q42 0 68.5 -20t26.5 -59q0 -33 -23.5 -80.5t-58.5 -102t-76 -112l-76 -111t-58.5 -99t-23.5 -76.5q0 -24 12 -34t26 -10q36 0 80 25t86 60t77.5 72.5t53.5 62.5
q48 65 122 182.5l180 285.5h67zM653 733q39 37 75.5 76.5t68.5 82.5h16q0 -44 15 -82.5t41 -80.5l-8 -5q-26 29 -43.5 54.5t-32.5 54.5q-30 -29 -61.5 -56.5t-66.5 -50.5z" />
    <glyph glyph-name="Ugrave" unicode="&#xd9;" horiz-adv-x="833" 
d="M976 696l-154.5 -240l-122 -183.5t-80 -132.5t-28.5 -87q0 -22 10.5 -35.5t34.5 -13.5q36 0 78 25.5t84 64.5t82 85l73 87l8 -3l-80.5 -98.5t-84.5 -87t-86.5 -62t-86.5 -23.5q-42 0 -61 24t-19 63q0 22 10.5 47t21.5 42l-2 2q-24 -26 -57 -57t-70 -58t-76 -45t-76 -18
q-35 0 -55.5 18t-20.5 52t24 82t59.5 103t77.5 113.5t77.5 113.5t59.5 102t24 80q0 25 -17.5 34.5t-40.5 9.5q-50 0 -101.5 -23.5t-93 -61t-68 -84t-26.5 -91.5q0 -32 16.5 -53t56.5 -21q20 0 37.5 7t32.5 18t26.5 24t19.5 26l11 -2q-9 -15 -23 -30.5t-30.5 -27.5
t-35.5 -19.5t-39 -7.5q-39 0 -61.5 21.5t-22.5 63.5q0 45 26.5 93.5t70 88.5t99.5 65.5t116 25.5q42 0 68.5 -20t26.5 -59q0 -33 -23.5 -80.5t-58.5 -102t-76 -112l-76 -111t-58.5 -99t-23.5 -76.5q0 -24 12 -34t26 -10q36 0 80 25t86 60t77.5 72.5t53.5 62.5
q48 65 122 182.5l180 285.5h67zM677 892q17 0 26.5 -18t11.5 -44q2 -18 14 -34.5t26 -30t25.5 -22.5t11.5 -13t-5 -4q-4 0 -25.5 14t-45 35t-42.5 45t-19 45q0 8 5.5 17.5t16.5 9.5z" />
    <glyph glyph-name="dotlessi" unicode="&#x131;" horiz-adv-x="222" 
d="M232 344l-93 -133l-61.5 -90t-34 -57t-10.5 -34q0 -26 21 -26q20 0 46.5 14.5t55.5 37.5t58 52t54.5 57.5t45 55t28.5 43.5l8 -5q-12 -20 -32.5 -48t-46.5 -57.5t-55 -58.5t-59 -52t-58.5 -37t-52.5 -14q-27 0 -40 15t-13 33q0 21 9.5 44.5t30.5 57.5t54.5 82.5
l80.5 119.5h64z" />
    <glyph glyph-name="circumflex" unicode="&#x2c6;" horiz-adv-x="222" 
d="M92 413q39 37 75.5 76.5t68.5 82.5h16q0 -44 15 -82.5t41 -80.5l-8 -5q-26 29 -43.5 54.5t-32.5 54.5q-30 -29 -61.5 -56.5t-66.5 -50.5z" />
    <glyph glyph-name="tilde" unicode="&#x2dc;" horiz-adv-x="222" 
d="M277 456q-18 0 -35.5 5.5t-34.5 12.5t-33.5 12.5t-33.5 5.5q-14 0 -23 -7t-14.5 -15t-9 -15t-7.5 -7t-4 10q0 12 4.5 24.5t13.5 23t23 17.5t33 7q12 0 28.5 -5.5t35.5 -13.5t37.5 -13.5t32.5 -5.5q21 0 36.5 11t15.5 24q0 9 7 9q5 0 5 -6q0 -14 -5.5 -28.5t-16 -25
t-24.5 -16.5t-31 -4z" />
    <glyph glyph-name="macron" unicode="&#xaf;" horiz-adv-x="222" 
d="M313 491q14 0 19 -1t5 -6q0 -8 -7.5 -13.5t-29.5 -5.5h-200q-5 0 -9 0.5t-4 5.5q0 8 10.5 14t33.5 6h182z" />
    <glyph glyph-name="breve" unicode="&#x2d8;" horiz-adv-x="222" 
d="M199 456q35 0 61.5 11.5t45 25t29.5 25t15 11.5q5 0 5 -7q0 -5 -14.5 -21.5t-36.5 -34t-47.5 -31t-46.5 -13.5q-27 0 -46.5 10.5t-32.5 25.5t-19 31.5t-6 27.5q0 5 0.5 9t5.5 4q3 0 7 -11.5t12.5 -25.5t24.5 -25.5t43 -11.5z" />
    <glyph glyph-name="dotaccent" unicode="&#x2d9;" horiz-adv-x="222" 
d="M222 523q12 0 18.5 -12t6.5 -23q0 -15 -10.5 -26t-27.5 -11q-13 0 -19.5 11t-6.5 23q0 17 11 27.5t28 10.5z" />
    <glyph glyph-name="ring" unicode="&#x2da;" horiz-adv-x="222" 
d="M132 461q0 21 9 40.5t24 33.5t35 22.5t42 8.5q25 0 43.5 -16.5t18.5 -46.5q0 -21 -9 -40.5t-24 -33.5t-35 -22.5t-42 -8.5q-25 0 -43.5 16t-18.5 47zM280 521q0 16 -9.5 26.5t-27.5 10.5q-17 0 -32.5 -12t-27.5 -29.5t-19.5 -37.5t-7.5 -36t10 -26.5t27 -10.5t32.5 12
t27.5 29.5t19.5 37.5t7.5 36z" />
    <glyph glyph-name="cedilla" unicode="&#xb8;" horiz-adv-x="222" 
d="M-154 -167q17 -3 34 -4t34 -1q13 0 31.5 2.5t34.5 8.5t27.5 17.5t11.5 29.5q0 24 -17 29.5t-60 6.5l45 74h11l-33 -54q16 -1 33 -2.5t31.5 -7t24 -15.5t9.5 -27q0 -23 -16.5 -37.5t-39 -22.5t-46.5 -11t-40 -3q-20 0 -39 1t-37 8z" />
    <glyph glyph-name="hungarumlaut" unicode="&#x2dd;" horiz-adv-x="222" 
d="M286 572q11 0 18 -9t7 -18q0 -27 -18.5 -52t-42 -44.5t-45.5 -31t-29 -11.5v10q17 11 31.5 22t25.5 24t17.5 28.5t6.5 36.5q0 20 8 32.5t21 12.5zM181 562q11 0 16.5 -9.5t5.5 -17.5q0 -21 -19 -45t-42.5 -45t-44.5 -35t-26 -14t-5 4t11.5 13t25.5 22.5t26.5 30
t13.5 34.5q2 26 11.5 44t26.5 18z" />
    <glyph glyph-name="ogonek" unicode="&#x2db;" horiz-adv-x="222" 
d="M51 -183q-27 0 -42 18.5t-15 46.5t14.5 51.5t34.5 44.5q7 7 14.5 15.5t10.5 8.5q5 0 6 -3q-1 -3 -10.5 -14t-17.5 -25q-8 -12 -16 -28.5t-8 -35.5q0 -20 12.5 -35.5t38.5 -15.5q12 0 23.5 3.5t19.5 8.5q-2 -6 -4.5 -15t-4.5 -11q-3 -5 -17.5 -9.5t-38.5 -4.5z" />
    <glyph glyph-name="caron" unicode="&#x2c7;" horiz-adv-x="222" 
d="M339 565q-39 -37 -75.5 -76.5t-68.5 -82.5h-16q0 44 -15 82.5t-41 80.5l8 5q26 -29 43.5 -54.5t32.5 -54.5q30 29 61.5 56.5t66.5 50.5z" />
    <glyph glyph-name="divisionslash" unicode="&#x2215;" horiz-adv-x="167" 
d="M376 538h29l-414 -546h-28z" />
    <glyph glyph-name="uni2216" unicode="&#x2216;" horiz-adv-x="167" 
d="M405 -8h-28l-414 546h29z" />
    <glyph glyph-name="currency" unicode="&#xa4;" horiz-adv-x="500" 
d="M198 482l36 -71q32 22 65.5 33.5t63.5 11.5q35 0 57.5 -11.5t35.5 -32.5l89 75l6 -10l-89 -76q12 -30 12 -71q0 -47 -27.5 -100t-73.5 -94l44 -60l-47 -38l-37 67q-26 -16 -55 -25t-60 -9q-47 0 -77 28l-91 -78l-5 12l88 75q-25 31 -25 79q0 59 25 108t63 85l-48 64z
M335 442q-30 0 -61 -20t-56.5 -53t-41.5 -75t-16 -85q0 -25 4 -47.5t13.5 -39.5t26.5 -27t44 -10q31 0 62.5 18.5t56.5 51t40.5 75t15.5 90.5q0 21 -3.5 42.5t-13 39.5t-27 29t-44.5 11z" />
    <glyph glyph-name="Lslash" unicode="&#x141;" horiz-adv-x="556" 
d="M681 259l-85.5 -78.5l-106 -96.5l-103.5 -98t-79 -83q-11 -29 -29 -50t-35 -21q-13 0 -13 11q0 7 4 12t8.5 10t8 11.5t3.5 15.5q0 32 -11 56.5t-30.5 41.5t-46 25.5t-56.5 8.5q-10 0 -28.5 -5.5t-41.5 -13.5t-48.5 -14.5t-48.5 -6.5q-12 0 -20.5 4t-8.5 12t12 13.5
t31 9.5t41.5 6t44.5 3.5t40 2t27 1.5q32 11 61 32.5t56 51.5t52.5 67t50.5 79l-168 -51v12l177 53l50.5 84.5l53.5 87.5q-31 5 -59 17.5t-49.5 32.5t-34 46.5t-12.5 58.5q0 21 8.5 40.5t22.5 33.5t34 22.5t42 8.5q19 0 36.5 -4.5t29.5 -10.5l-4 -11q-12 6 -28 10t-35 4
q-21 0 -38.5 -8t-29.5 -21.5t-19 -30t-7 -33.5q0 -28 12.5 -53t33.5 -44.5t48.5 -31.5t57.5 -14q28 43 67.5 87t86.5 80t99 58.5t106 22.5q38 0 60.5 -17t22.5 -53q0 -33 -26 -68t-71.5 -64.5t-107.5 -48t-133 -18.5q-17 0 -29 0.5t-25 1.5l-45 -71t-47 -71l2 -2l178 54v-12
l-189 -56q-26 -40 -55 -77.5t-63 -70.5t-73 -60t-85 -45l2 -2q8 1 17.5 2t22.5 1q68 0 101.5 -33t40.5 -81q40 45 86 89l94 87l95.5 85.5l91.5 82.5zM800 700q-45 0 -89 -24.5t-82 -61t-69.5 -79t-52.5 -78.5q11 -1 23 -1.5t28 -0.5q45 0 97.5 12t98 35.5t76 58t30.5 80.5
q0 29 -15.5 44t-44.5 15z" />
    <glyph glyph-name="lslash" unicode="&#x142;" horiz-adv-x="222" 
d="M401 454l-155 -72l-109.5 -165l-64.5 -100.5t-31 -56t-8 -31.5q0 -25 24 -25q25 0 58.5 20.5t72 56t78.5 83t78 101.5l11 -4q-36 -51 -76 -98.5t-77 -82.5q-49 -46 -84.5 -67t-64.5 -21q-32 0 -46 14t-14 37q0 21 8 43.5t26.5 55.5t49.5 79.5l77 115.5l-2 2l-131 -62
l6 17l141 66l93 141l124 195h70l-71 -107.5l-58.5 -87.5l-42.5 -63l-23 -34l2 -2l146 69z" />
    <glyph glyph-name="onesuperior" unicode="&#xb9;" horiz-adv-x="300" 
d="M375 471l-2 2q-22 -14 -58.5 -28.5t-70.5 -22.5l-2 8q59 13 112 41.5t99 61.5l11 -2l-50.5 -71l-59.5 -84l-57 -84t-45 -72l-67 -10z" />
    <glyph glyph-name="Eth" unicode="&#xd0;" horiz-adv-x="889" 
d="M496 345q-6 0 -6 6t6 6h92q47 80 97.5 155.5t116.5 129.5q-42 35 -96.5 49.5t-116.5 14.5q-90 0 -171.5 -28t-143.5 -78t-98.5 -118t-36.5 -148q0 -30 5.5 -58.5t18.5 -50.5t35 -35.5t55 -13.5q44 0 79.5 21.5t61.5 58t40 85t14 101.5v34h12v-29q0 -62 -16 -114.5
t-45 -91t-70 -60t-91 -21.5q-34 0 -60.5 13.5t-43.5 37.5t-26 56t-9 69q0 62 35.5 129t100 123.5t154 93t197.5 36.5q77 0 131 -17.5t96 -49.5q42 32 89 55.5t100 31.5l2 -8q-50 -9 -95.5 -32t-82.5 -58q23 -22 39 -50t26 -58.5t14.5 -62.5t4.5 -62q0 -90 -39 -167.5
t-102.5 -134t-143.5 -89t-162 -32.5q-31 0 -55 1.5t-43.5 4t-36 6t-33.5 7.5q-14 -2 -26.5 -4.5t-25 -4.5t-28 -3t-35.5 -1q-24 0 -37 4.5t-13 16.5t10.5 16.5t27.5 4.5q12 0 23.5 -1.5t26 -4.5l32.5 -6.5t44 -7.5q45 12 83 44t72.5 77t66.5 100l65 112h-85zM639 345
q-31 -55 -64 -107.5t-72 -97t-86 -79t-105 -53.5v-2q31 -6 62.5 -8t71.5 -2q70 0 128 21t104.5 56.5t80.5 83.5t57 101.5t34.5 110t11.5 109.5q0 40 -11 80.5t-36 67.5q-48 -55 -88 -125.5l-81 -143.5h116q6 0 6 -6t-6 -6h-123z" />
    <glyph glyph-name="onehalf" unicode="&#xbd;" horiz-adv-x="750" 
d="M716 103q-10 -17 -22.5 -35.5t-29 -33.5t-36.5 -24.5t-44 -9.5q-16 0 -30 6t-28 13t-29 12t-32 5q-18 0 -30 -5t-20 -12t-13.5 -13t-9.5 -6q-8 0 -8 6q0 10 45 36.5t138 64.5q44 18 71.5 35.5t42.5 34.5t20.5 35t5.5 38q0 29 -15.5 47.5t-44.5 18.5q-18 0 -33 -6t-26 -16
t-17 -21.5t-6 -23.5q0 -18 10 -29t24 -11q8 0 13 2t11 5l4 -6q-18 -29 -48 -29q-20 0 -34 13.5t-14 36.5q0 25 13 43.5t32.5 30.5t42.5 17.5t44 5.5q19 0 37 -5t32 -15t22.5 -24.5t8.5 -33.5q0 -29 -15.5 -51t-40 -39t-56.5 -31t-65.5 -26.5l-65 -25t-56.5 -27.5l2 -2
q8 5 18 9t23 4q11 0 25 -5t28 -11q16 -7 31 -12t25 -5q15 0 29 8t26 19.5t21 24.5t15 24zM616 538h29l-414 -546h-28zM375 471l-2 2q-22 -14 -58.5 -28.5t-70.5 -22.5l-2 8q59 13 112 41.5t99 61.5l11 -2l-50.5 -71l-59.5 -84l-57 -84t-45 -72l-67 -10z" />
    <glyph glyph-name="Thorn" unicode="&#xde;" horiz-adv-x="778" 
d="M447 528q24 53 66 88.5t94 56.5t110 30t114 9q26 0 51 -1t47 -3v-8q-43 -4 -85.5 -29t-80 -60.5t-69 -75t-51.5 -73.5l2 -2q9 10 24.5 22t34.5 22.5t40 18t42 7.5q34 0 53 -18t19 -54q0 -29 -13.5 -69t-45.5 -77t-83.5 -62.5t-128.5 -25.5q-18 0 -32.5 2t-23.5 4l4 10
q11 -2 21.5 -3t24.5 -1q64 0 106.5 23.5t68.5 56t37 67.5t11 57q0 9 -1.5 19t-7 18.5t-15 13.5t-26.5 5q-20 0 -42 -10t-42.5 -26t-38.5 -36t-31 -40l-56.5 -92l-56 -91.5t-58.5 -84t-65.5 -69t-76.5 -46.5t-91 -17q-20 0 -39 4t-33.5 12.5t-23.5 22t-9 31.5t11 29t30 11
q14 0 22.5 -9t8.5 -22q0 -12 -7 -23t-21 -10q3 -13 21 -23.5t41 -10.5q42 0 80 27.5t74 73t72 104l74 121l78.5 124.5t86 113.5t97.5 88.5t112 50v2h-49q-50 0 -95.5 -9t-84.5 -29t-71 -53t-55 -81h-69z" />
    <glyph glyph-name="onequarter" unicode="&#xbc;" horiz-adv-x="750" 
d="M656 128h70l-5 -18h-73l-74 -104l-53 -6l78 110h-183l330 256h30l-311 -236v-2h142l130 178l47 4zM627 538h29l-414 -546h-28zM375 471l-2 2q-22 -14 -58.5 -28.5t-70.5 -22.5l-2 8q59 13 112 41.5t99 61.5l11 -2l-50.5 -71l-59.5 -84l-57 -84t-45 -72l-67 -10z" />
    <glyph glyph-name="brokenbar" unicode="&#xa6;" horiz-adv-x="222" 
d="M202 259h34l-168 -259h-34zM496 712h34l-169 -259h-34z" />
    <glyph glyph-name="thorn" unicode="&#xfe;" 
d="M432 642l-226 -324l2 -2q23 19 44 27.5t47 8.5q35 0 56.5 -24t23.5 -62q2 -26 23.5 -44t51.5 -18t58 15t49 40l6 -7q-25 -29 -54 -43.5t-58 -14.5q-28 0 -48 12t-31 31h-2q-10 -38 -36.5 -81t-63 -79.5t-79.5 -60.5t-85 -24q-29 0 -44 17.5t-15 42.5q0 11 0.5 19.5
t2.5 16.5l-2 2l-65.5 -105.5l-66.5 -108l-63.5 -104.5l-55.5 -96h-62l137.5 217l146 226.5l158.5 246.5l175 276h76zM326 288v16t-3 17t-10 13.5t-21 5.5q-23 0 -49 -14.5t-51 -38t-48 -54t-40.5 -62t-28 -61.5t-10.5 -54q0 -26 14 -39t33 -13q25 0 50.5 14.5t49.5 38
t44.5 53.5t36 61.5t24.5 62t9 54.5z" />
    <glyph glyph-name="threequarters" unicode="&#xbe;" horiz-adv-x="750" 
d="M686 538h29l-414 -546h-28zM266 384q24 3 52.5 5t54 10.5t42.5 25t17 47.5q0 24 -10 39t-37 15q-26 0 -45 -17t-19 -39q0 -13 6.5 -22t18.5 -9q8 0 12 1.5t11 3.5q-1 -11 -14.5 -18t-27.5 -7q-17 0 -28.5 11t-11.5 26q0 16 9 31t24.5 26t36 18t42.5 7q40 0 62.5 -19.5
t22.5 -46.5q0 -21 -15 -37t-37.5 -26.5t-49.5 -17t-50 -8.5v-2q32 0 54 -15.5t22 -47.5q0 -24 -15 -44t-39.5 -34.5t-55.5 -22t-63 -7.5q-21 0 -41.5 5t-36.5 14.5t-25.5 23.5t-9.5 33q0 25 16 43t44 18q9 0 18.5 -4t16.5 -9l-1 -4q-26 0 -39 -13.5t-13 -32.5
q0 -27 18.5 -44.5t53.5 -17.5q24 0 46.5 6t40 18.5t27.5 30.5t10 42q0 27 -14 42t-43 15q-9 0 -18.5 -0.5t-18.5 -1.5v10zM696 128h70l-5 -18h-73l-74 -104l-53 -6l78 110h-183l330 256h30l-311 -236v-2h142l130 178l47 4z" />
    <glyph glyph-name="twosuperior" unicode="&#xb2;" horiz-adv-x="300" 
d="M416 313q-10 -17 -22.5 -35.5t-29 -33.5t-36.5 -24.5t-44 -9.5q-16 0 -30 6t-28 13t-29 12t-32 5q-18 0 -30 -5t-20 -12t-13.5 -13t-9.5 -6q-8 0 -8 6q0 10 45 36.5t138 64.5q44 18 71.5 35.5t42.5 34.5t20.5 35t5.5 38q0 29 -15.5 47.5t-44.5 18.5q-18 0 -33 -6t-26 -16
t-17 -21.5t-6 -23.5q0 -18 10 -29t24 -11q8 0 13 2t11 5l4 -6q-18 -29 -48 -29q-20 0 -34 13.5t-14 36.5q0 25 13 43.5t32.5 30.5t42.5 17.5t44 5.5q19 0 37 -5t32 -15t22.5 -24.5t8.5 -33.5q0 -29 -15.5 -51t-40 -39t-56.5 -31t-65.5 -26.5l-65 -25t-56.5 -27.5l2 -2
q8 5 18 9t23 4q11 0 25 -5t28 -11q16 -7 31 -12t25 -5q15 0 29 8t26 19.5t21 24.5t15 24z" />
    <glyph glyph-name="minus" unicode="&#x2212;" horiz-adv-x="600" 
d="M523 189l-14 -13h-318l13 13h319z" />
    <glyph glyph-name="eth" unicode="&#xf0;" 
d="M380 510q5 54 21 92.5t39.5 62.5t53 35.5t60.5 11.5q32 0 55 -14t37 -27v-15q-17 14 -39 29t-54 15q-30 0 -51.5 -15.5t-35 -42t-20 -60.5t-6.5 -72h97q6 0 6 -6t-6 -6h-98q-8 -59 -21 -123.5t-35 -115.5q0 -19 21 -37t51 -18t56.5 15t49.5 39l8 -5q-24 -27 -54 -43
t-59 -16q-28 0 -48 12.5t-31 29.5h-2q-12 -39 -39 -82t-64 -79t-81.5 -59.5t-91.5 -23.5q-43 0 -65 25t-22 67q0 22 11 51t30.5 58.5t46 58t57.5 51t65.5 36t69.5 13.5q20 0 36 -6t27 -17q16 57 19.5 100l5.5 69h-92q-6 0 -6 6t6 6h92zM66 60q0 -26 10 -41t30 -15
q27 0 53.5 14.5t51 38t45.5 53.5t36.5 62t24.5 62.5t9 55.5q0 21 -10.5 35.5t-32.5 14.5q-21 0 -45 -13.5t-48.5 -35.5t-46.5 -51t-39.5 -60t-27.5 -62t-10 -58z" />
    <glyph glyph-name="multiply" unicode="&#xd7;" horiz-adv-x="600" 
d="M287 330l47 21l56 -163l272 164l8 -9l-276 -166l58 -157l-50 -21l-52 155l-253 -154l-6 11l256 154z" />
    <glyph glyph-name="threesuperior" unicode="&#xb3;" horiz-adv-x="300" 
d="M266 384q24 3 52.5 5t54 10.5t42.5 25t17 47.5q0 24 -10 39t-37 15q-26 0 -45 -17t-19 -39q0 -13 6.5 -22t18.5 -9q8 0 12 1.5t11 3.5q-1 -11 -14.5 -18t-27.5 -7q-17 0 -28.5 11t-11.5 26q0 16 9 31t24.5 26t36 18t42.5 7q40 0 62.5 -19.5t22.5 -46.5q0 -21 -15 -37
t-37.5 -26.5t-49.5 -17t-50 -8.5v-2q32 0 54 -15.5t22 -47.5q0 -24 -15 -44t-39.5 -34.5t-55.5 -22t-63 -7.5q-21 0 -41.5 5t-36.5 14.5t-25.5 23.5t-9.5 33q0 25 16 43t44 18q9 0 18.5 -4t16.5 -9l-1 -4q-26 0 -39 -13.5t-13 -32.5q0 -27 18.5 -44.5t53.5 -17.5
q24 0 46.5 6t40 18.5t27.5 30.5t10 42q0 27 -14 42t-43 15q-9 0 -18.5 -0.5t-18.5 -1.5v10z" />
    <glyph glyph-name="Scaron" unicode="&#x160;" horiz-adv-x="556" 
d="M32 257q23 0 34.5 -10.5t11.5 -27.5q0 -15 -9 -25.5t-24 -10.5q-5 0 -11.5 2.5t-9.5 7.5q-11 -12 -14.5 -29t-3.5 -36q0 -26 12.5 -50t36 -42t56.5 -29t73 -11q68 0 115 31t76 79.5t42 107.5t14 114q1 89 17.5 160t47 120.5t76 76.5t104.5 27q53 0 86 -25.5t33 -66.5
q0 -32 -22.5 -48t-53.5 -16q11 17 16.5 33t5.5 40q0 36 -21 53.5t-50 17.5q-39 0 -66.5 -15.5t-46.5 -42.5t-30.5 -63t-18.5 -76.5t-10.5 -83.5t-6.5 -85q-7 -103 -36.5 -170.5t-72.5 -107.5t-96 -56t-109 -16q-45 0 -82.5 14.5t-64.5 40t-41.5 60.5t-14.5 77q0 35 16 58
t42 23zM796 885q-39 -37 -75.5 -76.5t-68.5 -82.5h-16q0 44 -15 82.5t-41 80.5l8 5q26 -29 43.5 -54.5t32.5 -54.5q30 29 61.5 56.5t66.5 50.5z" />
    <glyph glyph-name="Yacute" unicode="&#xdd;" horiz-adv-x="778" 
d="M1012 696l-429 -660q-45 -63 -93 -122t-101 -105t-112 -73.5t-125 -27.5q-33 0 -63.5 8t-54 24.5t-37.5 41.5t-14 59q0 27 10 48.5t26 36t37.5 22.5t43.5 8q23 0 47 -8t41 -19l-4 -8q-17 7 -35 13t-36 6q-29 0 -52.5 -26t-23.5 -80q0 -53 35.5 -83.5t92.5 -30.5
q47 0 93 26t89 68.5t83.5 95.5t76.5 107l67.5 104t57.5 85l-2 2q-29 -35 -67.5 -73.5t-80.5 -70t-84.5 -52t-80.5 -20.5q-44 0 -64 20t-20 58q0 31 24.5 77t61 99.5l79.5 111.5t79.5 113t61 103t24.5 81q0 20 -12.5 32.5t-36.5 12.5q-42 0 -93 -22t-95.5 -59t-74.5 -84
t-30 -97q0 -31 14.5 -51.5t45.5 -20.5q23 0 42 6t34.5 16.5t28.5 24.5t25 29l8 -1q-23 -35 -58.5 -61t-83.5 -26q-42 0 -60 26.5t-18 59.5q0 46 31 94t78 87.5t103.5 65t108.5 25.5q48 0 72.5 -19.5t24.5 -64.5q0 -31 -24.5 -78t-61 -101.5t-79.5 -113l-79.5 -112.5
t-61 -100t-24.5 -75q0 -26 12 -35t25 -9q32 0 78 23.5t95.5 63.5t98 93t87.5 112l261 400h68zM844 892q11 0 16.5 -9.5t5.5 -17.5q0 -21 -19 -45t-42.5 -45t-44.5 -35t-26 -14t-5 4t11.5 13t25.5 22.5t26.5 30t13.5 34.5q2 26 11.5 44t26.5 18z" />
    <glyph glyph-name="Zcaron" unicode="&#x17d;" horiz-adv-x="667" 
d="M790 262q-30 -53 -68.5 -102t-83 -86.5t-93.5 -59.5t-99 -22q-34 0 -64.5 14t-59 30.5t-56 30t-56.5 13.5q-37 0 -64.5 -15t-47 -33t-32 -33t-18.5 -15t-7 3.5t-1 6.5q0 10 8.5 18.5t17.5 16.5l69.5 58.5l104 89l127 109.5l138.5 119.5l138 119l126 107.5l-2 2
q-28 -17 -66.5 -31.5t-75.5 -14.5q-40 0 -75 12.5t-66.5 27.5t-60.5 27.5t-57 12.5q-29 0 -53.5 -10.5t-42.5 -29.5t-28.5 -44.5t-10.5 -54.5q0 -49 28 -75.5t66 -26.5q19 0 34.5 4.5t29.5 11.5l2 -11q-12 -6 -29 -11.5t-36 -5.5q-44 0 -75.5 29t-31.5 83q0 41 16.5 72.5
t43.5 53t62.5 32.5t73.5 11q36 0 69.5 -11t66.5 -24t67.5 -24t73.5 -11q48 0 75 13.5t43.5 29.5t27.5 29.5t26 13.5q12 0 12 -10q0 -5 -7 -11t-17 -12.5l-22 -14.5l-23 -16q-21 -16 -68 -57.5l-108.5 -96l-132 -116.5l-139.5 -121.5l-131 -109.5t-105 -81l2 -2
q31 16 64.5 30t75.5 14q27 0 57 -11t61 -24.5t62.5 -25t61.5 -11.5q43 0 82 20.5t73.5 53t65 73.5t55.5 82zM782 885q-39 -37 -75.5 -76.5t-68.5 -82.5h-16q0 44 -15 82.5t-41 80.5l8 5q26 -29 43.5 -54.5t32.5 -54.5q30 29 61.5 56.5t66.5 50.5z" />
    <glyph glyph-name="scaron" unicode="&#x161;" horiz-adv-x="333" 
d="M459 258q-30 -48 -69.5 -95.5t-86.5 -85.5t-102.5 -61.5t-118.5 -23.5q-24 0 -45 6t-36.5 18t-25 30.5t-9.5 43.5q0 26 17 47t46 21q15 0 24.5 -7.5t9.5 -22.5q0 -14 -7 -24t-21 -10q-11 0 -17.5 6t-8.5 15q-11 -6 -15 -17.5t-4 -23.5q0 -35 26.5 -52.5t59.5 -17.5
q21 0 36.5 8.5t26 22t15.5 31.5t5 36q0 19 -6.5 39.5t-14.5 40.5t-15 39.5t-7 36.5q0 22 9 39.5t24.5 29.5t35.5 18.5t42 6.5q40 0 65 -17.5t25 -46.5q0 -26 -19.5 -38t-43.5 -12q6 11 10.5 26.5t4.5 28.5q0 20 -12.5 33.5t-35.5 13.5q-29 0 -43 -17.5t-14 -42.5
q0 -22 7.5 -42t17.5 -40q9 -20 16.5 -41t7.5 -47q0 -19 -8.5 -36.5t-22.5 -32t-31.5 -24.5t-35.5 -13l2 -2q54 6 103 31.5t91.5 62t78.5 80t63 85.5zM395 565q-39 -37 -75.5 -76.5t-68.5 -82.5h-16q0 44 -15 82.5t-41 80.5l8 5q26 -29 43.5 -54.5t32.5 -54.5
q30 29 61.5 56.5t66.5 50.5z" />
    <glyph glyph-name="yacute" unicode="&#xfd;" 
d="M232 344l-72 -100l-64.5 -88t-46.5 -70.5t-18 -48.5q0 -29 28 -29q29 0 67.5 28t81.5 74.5t87.5 107t85.5 126.5h62q-59 -81 -110 -166.5t-107 -169.5q95 17 181.5 83.5t153.5 165.5l7 -3q-72 -110 -163.5 -176.5t-185.5 -81.5l-79.5 -107.5t-89 -98t-106.5 -71
t-131 -27.5q-33 0 -62.5 8.5t-51.5 23.5t-35 36t-13 45q0 52 34.5 76t83.5 24v-3q-36 -8 -53 -32.5t-17 -61.5q0 -25 10 -44.5t26 -32.5t36.5 -20t42.5 -7q47 0 91 22t84.5 58t77.5 81.5t70 94t61.5 95l52.5 83.5l-2 2l-39 -44.5t-50.5 -48.5t-58.5 -39t-64 -16
q-32 0 -46 13t-14 35q0 20 10.5 42.5t33.5 56.5l58.5 83l85.5 122h67zM402 572q11 0 16.5 -9.5t5.5 -17.5q0 -21 -19 -45t-42.5 -45t-44.5 -35t-26 -14t-5 4t11.5 13t25.5 22.5t26.5 30t13.5 34.5q2 26 11.5 44t26.5 18z" />
    <glyph glyph-name="zcaron" unicode="&#x17e;" horiz-adv-x="389" 
d="M519 263q-21 -40 -55.5 -87.5t-75 -88t-83.5 -68t-81 -27.5q-23 0 -41 7.5t-35 16.5t-35 16.5t-41 7.5q-14 0 -25.5 -7.5t-20.5 -15.5t-16 -15.5t-14 -7.5q-6 0 -6 7q0 6 35.5 33.5l91.5 69.5l125.5 95.5l138.5 110.5l-2 2q-12 -10 -33 -17t-42 -7q-11 0 -24.5 5t-28 11
t-29.5 11t-29 5q-12 0 -22 -7t-18.5 -17.5t-16 -22.5t-14.5 -22l-7 3l22.5 39t23.5 31t29.5 20.5t38.5 7.5q23 0 41 -5t33 -11l28 -11t24 -5q25 0 39 7.5t22.5 16.5t14 16.5t11.5 7.5t6 -8q0 -4 -23 -25t-59 -50.5l-80 -65l-87.5 -68.5l-81 -60t-59.5 -41l2 -2q20 8 38.5 13
t35.5 5q21 0 39.5 -6.5t34.5 -14.5l29.5 -14.5t24.5 -6.5q27 0 60.5 21.5t67 56t66 78t58.5 87.5zM446 565q-39 -37 -75.5 -76.5t-68.5 -82.5h-16q0 44 -15 82.5t-41 80.5l8 5q26 -29 43.5 -54.5t32.5 -54.5q30 29 61.5 56.5t66.5 50.5z" />
    <glyph glyph-name="commaturnedmod" unicode="&#x2bb;" horiz-adv-x="222" 
d="M298 583q-15 -6 -33 -15.5t-33.5 -22t-27 -30t-14.5 -40.5q15 0 28.5 -7.5t13.5 -27.5t-11 -29t-29 -9q-17 0 -27.5 14t-10.5 30q0 29 15 52.5t36.5 42.5t46.5 32t45 19z" />
    <glyph glyph-name="apostrophemod" unicode="&#x2bc;" horiz-adv-x="222" 
d="M162 407q15 6 33 15.5t33.5 22t27 30t14.5 40.5q-15 0 -28.5 7.5t-13.5 27.5t11 29t29 9q17 0 27.5 -14t10.5 -30q0 -28 -15 -52t-36.5 -43t-46.5 -32t-45 -19z" />
    <glyph glyph-name="zerowidthspace" unicode="&#x200b;" horiz-adv-x="0" 
 />
    <glyph glyph-name="zerowidthnonjoiner" unicode="&#x200c;" horiz-adv-x="0" 
 />
    <glyph glyph-name="zerowidthjoiner" unicode="&#xfeff;" horiz-adv-x="0" 
 />
    <glyph glyph-name="secondtonechinese" unicode="&#x2ca;" horiz-adv-x="222" 
d="M291 572q11 0 16.5 -9.5t5.5 -17.5q0 -21 -19 -45t-42.5 -45t-44.5 -35t-26 -14t-5 4t11.5 13t25.5 22.5t26.5 30t13.5 34.5q2 26 11.5 44t26.5 18z" />
    <glyph glyph-name="fourthtonechinese" unicode="&#x2cb;" horiz-adv-x="222" 
d="M96 572q17 0 26.5 -18t11.5 -44q2 -18 14 -34.5t26 -30t25.5 -22.5t11.5 -13t-5 -4q-4 0 -25.5 14t-45 35t-42.5 45t-19 45q0 8 5.5 17.5t16.5 9.5z" />
    <glyph glyph-name="firsttonechinese" unicode="&#x2c9;" horiz-adv-x="222" 
d="M313 491q14 0 19 -1t5 -6q0 -8 -7.5 -13.5t-29.5 -5.5h-200q-5 0 -9 0.5t-4 5.5q0 8 10.5 14t33.5 6h182z" />
    <glyph glyph-name="macronlowmod" unicode="&#x2cd;" horiz-adv-x="222" 
d="M313 -69q14 0 19 -1t5 -6q0 -8 -7.5 -13.5t-29.5 -5.5h-200q-5 0 -9 0.5t-4 5.5q0 8 10.5 14t33.5 6h182z" />
    <glyph glyph-name="gravelowmod" unicode="&#x2ce;" horiz-adv-x="222" 
d="M96 12q17 0 26.5 -18t11.5 -44q2 -18 14 -34.5t26 -30t25.5 -22.5t11.5 -13t-5 -4q-4 0 -25.5 14t-45 35t-42.5 45t-19 45q0 8 5.5 17.5t16.5 9.5z" />
    <glyph glyph-name="acutelowmod" unicode="&#x2cf;" horiz-adv-x="222" 
d="M291 12q11 0 16.5 -9.5t5.5 -17.5q0 -21 -19 -45t-42.5 -45t-44.5 -35t-26 -14t-5 4t11.5 13t25.5 22.5t26.5 30t13.5 34.5q2 26 11.5 44t26.5 18z" />
    <glyph glyph-name="gravecmb" unicode="&#x300;" horiz-adv-x="0" 
d="M-268 572q17 0 26.5 -18t11.5 -44q2 -18 14 -34.5t26 -30t25.5 -22.5t11.5 -13t-5 -4q-4 0 -25.5 14t-45 35t-42.5 45t-19 45q0 8 5.5 17.5t16.5 9.5z" />
    <glyph glyph-name="acutecmb" unicode="&#x301;" horiz-adv-x="0" 
d="M-175 572q11 0 16.5 -9.5t5.5 -17.5q0 -21 -19 -45t-42.5 -45t-44.5 -35t-26 -14t-5 4t11.5 13t25.5 22.5t26.5 30t13.5 34.5q2 26 11.5 44t26.5 18z" />
    <glyph glyph-name="circumflexcmb" unicode="&#x302;" horiz-adv-x="0" 
d="M-330 413q39 37 75.5 76.5t68.5 82.5h16q0 -44 15 -82.5t41 -80.5l-8 -5q-26 29 -43.5 54.5t-32.5 54.5q-30 -29 -61.5 -56.5t-66.5 -50.5z" />
    <glyph glyph-name="tildecmb" unicode="&#x303;" horiz-adv-x="0" 
d="M-163 456q-18 0 -35.5 5.5t-34.5 12.5t-33.5 12.5t-33.5 5.5q-14 0 -23 -7t-14.5 -15t-9 -15t-7.5 -7t-4 10q0 12 4.5 24.5t13.5 23t23 17.5t33 7q12 0 28.5 -5.5t35.5 -13.5t37.5 -13.5t32.5 -5.5q21 0 36.5 11t15.5 24q0 9 7 9q5 0 5 -6q0 -14 -5.5 -28.5t-16 -25
t-24.5 -16.5t-31 -4z" />
    <glyph glyph-name="macroncmb" unicode="&#x304;" horiz-adv-x="0" 
d="M-121 491q14 0 19 -1t5 -6q0 -8 -7.5 -13.5t-29.5 -5.5h-200q-5 0 -9 0.5t-4 5.5q0 8 10.5 14t33.5 6h182z" />
    <glyph glyph-name="brevecmb" unicode="&#x306;" horiz-adv-x="0" 
d="M-253 456q35 0 61.5 11.5t45 25t29.5 25t15 11.5q5 0 5 -7q0 -5 -14.5 -21.5t-36.5 -34t-47.5 -31t-46.5 -13.5q-27 0 -46.5 10.5t-32.5 25.5t-19 31.5t-6 27.5q0 5 0.5 9t5.5 4q3 0 7 -11.5t12.5 -25.5t24.5 -25.5t43 -11.5z" />
    <glyph glyph-name="dotaccentcmb" unicode="&#x307;" horiz-adv-x="0" 
d="M-215 523q12 0 18.5 -12t6.5 -23q0 -15 -10.5 -26t-27.5 -11q-13 0 -19.5 11t-6.5 23q0 17 11 27.5t28 10.5z" />
    <glyph glyph-name="dieresiscmb" unicode="&#x308;" horiz-adv-x="0" 
d="M-143 522q12 0 18.5 -12t6.5 -23q0 -15 -10.5 -26t-27.5 -11q-13 0 -19.5 11t-6.5 23q0 17 11 27.5t28 10.5zM-287 522q12 0 18.5 -12t6.5 -23q0 -15 -10.5 -26t-27.5 -11q-13 0 -19.5 11t-6.5 23q0 17 11 27.5t28 10.5z" />
    <glyph glyph-name="ringcmb" unicode="&#x30a;" horiz-adv-x="0" 
d="M-308 461q0 21 9 40.5t24 33.5t35 22.5t42 8.5q25 0 43.5 -16.5t18.5 -46.5q0 -21 -9 -40.5t-24 -33.5t-35 -22.5t-42 -8.5q-25 0 -43.5 16t-18.5 47zM-160 521q0 16 -9.5 26.5t-27.5 10.5q-17 0 -32.5 -12t-27.5 -29.5t-19.5 -37.5t-7.5 -36t10 -26.5t27 -10.5t32.5 12
t27.5 29.5t19.5 37.5t7.5 36z" />
    <glyph glyph-name="hungarumlautcmb" unicode="&#x30b;" horiz-adv-x="0" 
d="M-124 572q11 0 18 -9t7 -18q0 -27 -18.5 -52t-42 -44.5t-45.5 -31t-29 -11.5v10q17 11 31.5 22t25.5 24t17.5 28.5t6.5 36.5q0 20 8 32.5t21 12.5zM-229 562q11 0 16.5 -9.5t5.5 -17.5q0 -21 -19 -45t-42.5 -45t-44.5 -35t-26 -14t-5 4t11.5 13t25.5 22.5t26.5 30
t13.5 34.5q2 26 11.5 44t26.5 18z" />
    <glyph glyph-name="caroncmb" unicode="&#x30c;" horiz-adv-x="0" 
d="M-114 565q-39 -37 -75.5 -76.5t-68.5 -82.5h-16q0 44 -15 82.5t-41 80.5l8 5q26 -29 43.5 -54.5t32.5 -54.5q30 29 61.5 56.5t66.5 50.5z" />
    <glyph glyph-name="breveinvertedcmb" unicode="&#x311;" horiz-adv-x="0" 
d="M-190 496q-35 0 -61.5 -11.5t-45 -25t-29.5 -25t-15 -11.5q-5 0 -5 7q0 5 14.5 21.5t36.5 34t47.5 31t46.5 13.5q27 0 46.5 -10.5t32.5 -25.5t19 -31.5t6 -27.5q0 -5 -0.5 -9t-5.5 -4q-3 0 -7 11.5t-12.5 25.5t-24.5 25.5t-43 11.5z" />
    <glyph glyph-name="commaturnedabovecmb" unicode="&#x312;" horiz-adv-x="0" 
d="M-150 583q-15 -6 -33 -15.5t-33.5 -22t-27 -30t-14.5 -40.5q15 0 28.5 -7.5t13.5 -27.5t-11 -29t-29 -9q-17 0 -27.5 14t-10.5 30q0 29 15 52.5t36.5 42.5t46.5 32t45 19z" />
    <glyph glyph-name="commaabovecmb" unicode="&#x313;" horiz-adv-x="0" 
d="M-294 407q15 6 33 15.5t33.5 22t27 30t14.5 40.5q-15 0 -28.5 7.5t-13.5 27.5t11 29t29 9q17 0 27.5 -14t10.5 -30q0 -28 -15 -52t-36.5 -43t-46.5 -32t-45 -19z" />
    <glyph glyph-name="gravebelowcmb" unicode="&#x316;" horiz-adv-x="0" 
d="M-268 12q17 0 26.5 -18t11.5 -44q2 -18 14 -34.5t26 -30t25.5 -22.5t11.5 -13t-5 -4q-4 0 -25.5 14t-45 35t-42.5 45t-19 45q0 8 5.5 17.5t16.5 9.5z" />
    <glyph glyph-name="acutebelowcmb" unicode="&#x317;" horiz-adv-x="0" 
d="M-175 12q11 0 16.5 -9.5t5.5 -17.5q0 -21 -19 -45t-42.5 -45t-44.5 -35t-26 -14t-5 4t11.5 13t25.5 22.5t26.5 30t13.5 34.5q2 26 11.5 44t26.5 18z" />
    <glyph glyph-name="dotbelowcmb" unicode="&#x323;" horiz-adv-x="0" 
d="M-215 -37q12 0 18.5 -12t6.5 -23q0 -15 -10.5 -26t-27.5 -11q-13 0 -19.5 11t-6.5 23q0 17 11 27.5t28 10.5z" />
    <glyph glyph-name="dieresisbelowcmb" unicode="&#x324;" horiz-adv-x="0" 
d="M-143 -38q12 0 18.5 -12t6.5 -23q0 -15 -10.5 -26t-27.5 -11q-13 0 -19.5 11t-6.5 23q0 17 11 27.5t28 10.5zM-287 -38q12 0 18.5 -12t6.5 -23q0 -15 -10.5 -26t-27.5 -11q-13 0 -19.5 11t-6.5 23q0 17 11 27.5t28 10.5z" />
    <glyph glyph-name="ringbelowcmb" unicode="&#x325;" horiz-adv-x="0" 
d="M-308 -99q0 21 9 40.5t24 33.5t35 22.5t42 8.5q25 0 43.5 -16.5t18.5 -46.5q0 -21 -9 -40.5t-24 -33.5t-35 -22.5t-42 -8.5q-25 0 -43.5 16t-18.5 47zM-160 -39q0 16 -9.5 26.5t-27.5 10.5q-17 0 -32.5 -12t-27.5 -29.5t-19.5 -37.5t-7.5 -36t10 -26.5t27 -10.5t32.5 12
t27.5 29.5t19.5 37.5t7.5 36z" />
    <glyph glyph-name="commaaccent" unicode="&#xf6c3;" horiz-adv-x="0" 
d="M-284 -144q17 3 34 10t32 17.5t25 25t12 32.5q-3 -1 -9 -1q-8 0 -16 5.5t-8 17.5q0 13 7.5 21.5t20.5 8.5t20 -10.5t7 -22.5q0 -21 -11 -39.5t-29 -33t-40.5 -23.5t-44.5 -12v4z" />
    <glyph glyph-name="cedillacmb" unicode="&#x327;" horiz-adv-x="0" 
d="M-330 -167q17 -3 34 -4t34 -1q13 0 31.5 2.5t34.5 8.5t27.5 17.5t11.5 29.5q0 24 -17 29.5t-60 6.5l45 74h11l-33 -54q16 -1 33 -2.5t31.5 -7t24 -15.5t9.5 -27q0 -23 -16.5 -37.5t-39 -22.5t-46.5 -11t-40 -3q-20 0 -39 1t-37 8z" />
    <glyph glyph-name="ogonekcmb" unicode="&#x328;" horiz-adv-x="0" 
d="M-226 -183q-27 0 -42 18.5t-15 46.5t14.5 51.5t34.5 44.5q7 7 14.5 15.5t10.5 8.5q5 0 6 -3q-1 -3 -10.5 -14t-17.5 -25q-8 -12 -16 -28.5t-8 -35.5q0 -20 12.5 -35.5t38.5 -15.5q12 0 23.5 3.5t19.5 8.5q-2 -6 -4.5 -15t-4.5 -11q-3 -5 -17.5 -9.5t-38.5 -4.5z" />
    <glyph glyph-name="caronbelowcmb" unicode="&#x32c;" horiz-adv-x="0" 
d="M-114 5q-39 -37 -75.5 -76.5t-68.5 -82.5h-16q0 44 -15 82.5t-41 80.5l8 5q26 -29 43.5 -54.5t32.5 -54.5q30 29 61.5 56.5t66.5 50.5z" />
    <glyph glyph-name="circumflexbelowcmb" unicode="&#x32d;" horiz-adv-x="0" 
d="M-330 -147q39 37 75.5 76.5t68.5 82.5h16q0 -44 15 -82.5t41 -80.5l-8 -5q-26 29 -43.5 54.5t-32.5 54.5q-30 -29 -61.5 -56.5t-66.5 -50.5z" />
    <glyph glyph-name="brevebelowcmb" unicode="&#x32e;" horiz-adv-x="0" 
d="M-253 -104q35 0 61.5 11.5t45 25t29.5 25t15 11.5q5 0 5 -7q0 -5 -14.5 -21.5t-36.5 -34t-47.5 -31t-46.5 -13.5q-27 0 -46.5 10.5t-32.5 25.5t-19 31.5t-6 27.5q0 5 0.5 9t5.5 4q3 0 7 -11.5t12.5 -25.5t24.5 -25.5t43 -11.5z" />
    <glyph glyph-name="breveinvertedbelowcmb" unicode="&#x32f;" horiz-adv-x="0" 
d="M-190 -64q-35 0 -61.5 -11.5t-45 -25t-29.5 -25t-15 -11.5q-5 0 -5 7q0 5 14.5 21.5t36.5 34t47.5 31t46.5 13.5q27 0 46.5 -10.5t32.5 -25.5t19 -31.5t6 -27.5q0 -5 -0.5 -9t-5.5 -4q-3 0 -7 11.5t-12.5 25.5t-24.5 25.5t-43 11.5z" />
    <glyph glyph-name="tildebelowcmb" unicode="&#x330;" horiz-adv-x="0" 
d="M-163 -104q-18 0 -35.5 5.5t-34.5 12.5t-33.5 12.5t-33.5 5.5q-14 0 -23 -7t-14.5 -15t-9 -15t-7.5 -7t-4 10q0 12 4.5 24.5t13.5 23t23 17.5t33 7q12 0 28.5 -5.5t35.5 -13.5t37.5 -13.5t32.5 -5.5q21 0 36.5 11t15.5 24q0 9 7 9q5 0 5 -6q0 -14 -5.5 -28.5t-16 -25
t-24.5 -16.5t-31 -4z" />
    <glyph glyph-name="macronbelowcmb" unicode="&#x331;" horiz-adv-x="0" 
d="M-121 -69q14 0 19 -1t5 -6q0 -8 -7.5 -13.5t-29.5 -5.5h-200q-5 0 -9 0.5t-4 5.5q0 8 10.5 14t33.5 6h182z" />
    <glyph glyph-name="soliduslongoverlaycmb" unicode="&#x338;" horiz-adv-x="0" 
d="M-382 -16l283 728h37l-283 -728h-37z" />
    <glyph glyph-name="angstrom" unicode="&#x212b;" horiz-adv-x="944" 
d="M597 311q-49 -62 -101 -119.5t-104.5 -102t-104.5 -71t-100 -26.5q-33 0 -52.5 7.5t-30 18t-14 22t-3.5 20.5q0 17 10 29t28 12q16 0 25 -11t9 -26q0 -9 -5 -18t-14 -11q9 -14 25 -18.5t33 -4.5q43 0 90.5 25t96 65.5t96.5 92t92 105.5l47.5 59l64.5 76t78.5 83.5
t90.5 80.5t100 68t106 45l3 -4q-34 -31 -71 -77t-72.5 -99.5t-67.5 -112.5t-56.5 -117.5t-39 -112.5t-14.5 -99q0 -31 10.5 -52.5t42.5 -21.5q19 0 43.5 14t51.5 37t53.5 51l50.5 55.5t43 52l30 39.5l7 -3l-72 -91t-77 -87.5t-78.5 -65.5t-75.5 -26q-24 0 -40.5 8.5
t-27.5 23.5t-16 34t-5 40q0 57 16 109.5t36 103.5h-137zM739 323q45 93 106.5 182t145.5 169l-2 2q-53 -26 -103.5 -64t-98.5 -84t-93.5 -98t-88.5 -107h134zM968 781q0 21 9 40.5t24 33.5t35 22.5t42 8.5q25 0 43.5 -16.5t18.5 -46.5q0 -21 -9 -40.5t-24 -33.5t-35 -22.5
t-42 -8.5q-25 0 -43.5 16t-18.5 47zM1116 841q0 16 -9.5 26.5t-27.5 10.5q-17 0 -32.5 -12t-27.5 -29.5t-19.5 -37.5t-7.5 -36t10 -26.5t27 -10.5t32.5 12t27.5 29.5t19.5 37.5t7.5 36z" />
    <glyph glyph-name="combininggraphemejoiner" unicode="&#x34f;" horiz-adv-x="0" 
 />
    <glyph glyph-name="Euro" unicode="&#x20ac;" horiz-adv-x="516" 
d="M495 267l-7 -14h-260l-10 -22.5t-9 -22.5h258l-7 -14h-255q-12 -41 -12 -83q0 -21 5 -40.5t16.5 -35t29.5 -25t44 -9.5q51 0 97 23.5t73 65.5l7 -15q-28 -37 -71.5 -64t-107.5 -27q-81 0 -116.5 35.5t-35.5 101.5q0 35 12 73h-112l6 14h110q9 22 21 45h-109l6 14h111
q31 54 79 103t102 86.5t108.5 59.5t99.5 22q94 0 94 -77q0 -27 -12.5 -50t-33 -39.5t-47.5 -26t-56 -9.5q-28 0 -50.5 14t-22.5 49v13q0 3 1 4l14 3q-1 -1 -1 -4v-14q0 -28 19 -40t44 -12q21 0 39 8t31 22t20 31.5t7 37.5q0 37 -15 55.5t-53 18.5q-30 0 -71.5 -19.5
t-85.5 -54t-85 -81t-69 -100.5h260z" />
    <glyph glyph-name="uni29F5" unicode="&#x29f5;" horiz-adv-x="167" 
d="M204 -8h-28l-414 546h29z" />
    <glyph glyph-name="uni115F" unicode="&#x115f;" horiz-adv-x="0" 
 />
    <glyph glyph-name="uni1160" unicode="&#x1160;" horiz-adv-x="0" 
 />
    <glyph glyph-name="hangulfiller" unicode="&#x3164;" horiz-adv-x="0" 
 />
    <glyph glyph-name="clickdental" unicode="&#x1c0;" horiz-adv-x="222" 
d="M487 712h34l-462 -712h-34z" />
    <glyph glyph-name="clicklateral" unicode="&#x1c1;" 
d="M487 712h34l-462 -712h-34zM709 712h34l-462 -712h-34z" />
    <glyph glyph-name="centigrade" unicode="&#x2103;" horiz-adv-x="1067" 
d="M444 424q-30 0 -56 11t-45 30.5t-30 45.5t-11 56t11 56t30 45.5t45 30.5t56 11t56 -11t45 -30.5t30 -45.5t11 -56t-11 -56t-30 -45.5t-45 -30.5t-56 -11zM444 682q-23 0 -43 -9t-35 -25t-23.5 -37t-8.5 -44t8.5 -44t23.5 -36.5t35 -25t43 -9.5t43 9.5t35 25t23.5 36.5
t8.5 44t-8.5 44t-23.5 37t-35 25t-43 9zM946 556q-1 -6 -1 -12v-12q0 -21 7.5 -35t19.5 -22.5t27.5 -12t31.5 -3.5q27 0 55 13.5t51 37t37.5 54.5t14.5 65q0 42 -23 56.5t-62 14.5q-45 0 -99 -21.5t-109.5 -59.5t-107 -90t-92 -113t-64.5 -128t-24 -136q0 -28 7 -56
t22 -50.5t39 -36t58 -13.5q49 0 93.5 22.5t78 58.5t53.5 80.5t20 88.5q0 40 -23.5 61t-63.5 21l-1 12q63 0 93.5 -25t30.5 -85q0 -35 -18.5 -78t-54.5 -80.5t-89.5 -62.5t-122.5 -25q-52 0 -87.5 18t-57.5 45t-31.5 58.5t-9.5 58.5q0 63 27 128.5t71.5 126.5t102.5 114.5
t119.5 93t123 62.5t112.5 23q63 0 94 -26t31 -76q0 -35 -16.5 -65t-44 -51.5t-62.5 -34t-72 -12.5q-39 0 -67 18.5t-30 63.5v13q0 8 1 14h12z" />
    <glyph glyph-name="fahrenheit" unicode="&#x2109;" horiz-adv-x="1178" 
d="M406 438q-30 0 -56 11t-45 30.5t-30 45.5t-11 56t11 56t30 45.5t45 30.5t56 11t56 -11t45 -30.5t30 -45.5t11 -56t-11 -56t-30 -45.5t-45 -30.5t-56 -11zM406 696q-23 0 -43 -9t-35 -25t-23.5 -37t-8.5 -44t8.5 -44t23.5 -36.5t35 -25t43 -9.5t43 9.5t35 25t23.5 36.5
t8.5 44t-8.5 44t-23.5 37t-35 25t-43 9zM963 323l2 12h43l59.5 91t67 86.5t81 72t99.5 45.5v2q-26 0 -53 0.5t-58.5 1.5t-70 1.5t-87.5 0.5q-99 0 -180 -17t-138.5 -48t-89.5 -72.5t-34 -91.5q-2 -48 34.5 -76.5t99.5 -28.5q41 0 84 13.5t78 38t57.5 58.5t22.5 74
q0 17 -3 30.5t-6 24.5l10 2q11 -28 11 -58q0 -36 -21 -71t-56 -62.5t-81.5 -44.5t-96.5 -17q-67 0 -106 30t-39 84q0 55 37.5 105.5t108.5 89.5t174.5 62t235.5 23q88 0 153.5 -2t97.5 -2q23 0 41.5 2t33.5 2q20 0 34 -2.5t14 -17.5q0 -13 -5 -20t-24.5 -10t-57.5 -3.5
t-103 -0.5q-58 -21 -97 -55.5t-67.5 -75t-51 -83t-49.5 -79.5q12 2 30.5 3t36.5 3t33 5t19 9q9 12 21.5 24t33.5 12q13 0 25 -4q-41 -35 -77 -75.5t-65 -86.5l-6 3q10 28 24 53.5l28 51.5q-13 -2 -28.5 -3.5l-30.5 -3t-28 -2.5t-21 -2q-36 -60 -77.5 -119t-92.5 -106.5
t-114 -77t-142 -29.5q-27 0 -57.5 7t-56.5 22t-43 38t-17 55q0 20 11.5 37t33.5 17q16 0 24.5 -10t8.5 -25q0 -14 -7 -24.5t-21 -10.5q-6 0 -10 1q0 -3 2.5 -18.5t15.5 -32.5t41.5 -30.5t79.5 -13.5q65 0 119 32.5t98 80.5t79.5 104l64.5 102h-39z" />
    <glyph glyph-name="kelvin" unicode="&#x212a;" horiz-adv-x="889" 
d="M1014 262q-15 -20 -38.5 -48t-51.5 -58t-60 -59.5t-64 -52.5t-63 -37.5t-58 -14.5q-29 0 -52 16t-23 48q0 26 14 57.5t30.5 64t30 64t13.5 58.5q0 29 -16 40t-31 11q-5 0 -11 -1t-11 -1q-14 0 -14 9q0 5 4 6.5t6 1.5q8 0 18.5 -1.5t19.5 -1.5q48 0 90 25.5t80.5 63t76 82
t76.5 82t81.5 63t91.5 25.5q40 0 65 -14.5t25 -40.5q0 -17 -11 -30t-26 -13t-17 8q8 6 11 15t3 20q0 19 -13 31t-38 12q-30 0 -58.5 -24t-60 -60.5l-67.5 -79t-80 -80t-97.5 -63.5t-121.5 -30v-2q33 -17 47 -42t14 -65q0 -25 -11 -54t-24 -57.5l-24 -53.5t-11 -42
q0 -20 8.5 -27.5t22.5 -7.5q23 0 52 14.5t60 37.5t62 52t59 58t50.5 55.5t35.5 44.5zM463 498q9 -22 9 -47q0 -22 -12 -47t-35 -46t-56 -34.5t-75 -13.5q-25 0 -48 8.5t-40.5 23.5t-28 36t-10.5 47q0 43 26 79.5t73 66t111.5 52t140.5 37.5t162 22.5t175 7.5q18 0 34.5 3.5
l29.5 6.5l28 8.5t17 3.5t10.5 -2.5t4.5 -7.5q0 -9 -13.5 -11.5t-38.5 -2.5q-60 0 -109.5 -34t-92 -87.5t-81 -118l-76.5 -124.5l-70 -107t-85.5 -108t-100.5 -83.5t-116 -33.5q-16 0 -34 3.5t-33.5 11.5t-25.5 21.5t-10 32.5q0 17 11 28.5t28 11.5q15 0 24 -10t9 -24
q0 -10 -7 -20t-18 -10q0 -14 18.5 -23.5t43.5 -9.5q30 0 59 15t56 40.5t52.5 59.5t49.5 70.5t46.5 74.5l43.5 72l80 124.5t78 100.5t85 74t100 45v2q-40 0 -102.5 -5t-132.5 -16t-140.5 -30.5t-127.5 -49.5t-92.5 -72.5t-35.5 -100.5q0 -40 24 -63t56 -23q33 0 61.5 11.5
t50.5 30t34.5 42t12.5 47.5q0 11 -2.5 22.5t-4.5 19.5z" />
    <glyph glyph-name="Oneroman" unicode="&#x2160;" horiz-adv-x="611" 
d="M-15 108q0 21 13 36.5t36 15.5q17 0 27 -9.5t10 -25.5t-10.5 -27t-26.5 -8q-4 -18 2.5 -34.5t23 -30t41 -21.5t55.5 -8q48 0 91 20t80.5 51.5t69 71t58 79t47.5 75t36 58.5l55.5 82t69.5 92.5t81.5 83.5t89.5 55v2q-45 0 -104 -3t-121.5 -11.5t-123 -24.5t-108 -43
t-76.5 -66t-29 -93q0 -42 23.5 -65t63.5 -23q28 0 55.5 11t49.5 30t35.5 43t13.5 49q0 23 -5 38l11 2q2 -6 4 -18t2 -20q0 -30 -13.5 -56.5t-37 -46.5t-54 -32t-64.5 -12q-59 0 -95.5 29.5t-36.5 86.5q0 44 26.5 79t71.5 62t103 46t121 30.5t127 16t119 3.5q66 0 105 9t50 9
q7 0 12 -1.5t5 -9.5q0 -10 -18 -13.5t-71 -3.5q-25 0 -56.5 -24.5t-67.5 -68.5t-76.5 -106.5t-83.5 -137.5q-42 -74 -89 -137.5t-100 -110t-114.5 -73t-133.5 -26.5q-28 0 -57.5 7t-54.5 22t-41 38.5t-16 56.5z" />
    <glyph glyph-name="Tworoman" unicode="&#x2161;" horiz-adv-x="1222" 
d="M-15 108q0 21 13 36.5t36 15.5q17 0 27 -9.5t10 -25.5t-10.5 -27t-26.5 -8q-4 -18 2.5 -34.5t23 -30t41 -21.5t55.5 -8q48 0 91 20t80.5 51.5t69 71t58 79t47.5 75t36 58.5l55.5 82t69.5 92.5t81.5 83.5t89.5 55v2q-45 0 -104 -3t-121.5 -11.5t-123 -24.5t-108 -43
t-76.5 -66t-29 -93q0 -42 23.5 -65t63.5 -23q28 0 55.5 11t49.5 30t35.5 43t13.5 49q0 23 -5 38l11 2q2 -6 4 -18t2 -20q0 -30 -13.5 -56.5t-37 -46.5t-54 -32t-64.5 -12q-59 0 -95.5 29.5t-36.5 86.5q0 44 26.5 79t71.5 62t103 46t121 30.5t127 16t119 3.5q66 0 105 9t50 9
q7 0 12 -1.5t5 -9.5q0 -10 -18 -13.5t-71 -3.5q-25 0 -56.5 -24.5t-67.5 -68.5t-76.5 -106.5t-83.5 -137.5q-42 -74 -89 -137.5t-100 -110t-114.5 -73t-133.5 -26.5q-28 0 -57.5 7t-54.5 22t-41 38.5t-16 56.5zM596 108q0 21 13 36.5t36 15.5q17 0 27 -9.5t10 -25.5
t-10.5 -27t-26.5 -8q-4 -18 2.5 -34.5t23 -30t41 -21.5t55.5 -8q48 0 91 20t80.5 51.5t69 71t58 79t47.5 75t36 58.5l55.5 82t69.5 92.5t81.5 83.5t89.5 55v2q-45 0 -104 -3t-121.5 -11.5t-123 -24.5t-108 -43t-76.5 -66t-29 -93q0 -42 23.5 -65t63.5 -23q28 0 55.5 11
t49.5 30t35.5 43t13.5 49q0 23 -5 38l11 2q2 -6 4 -18t2 -20q0 -30 -13.5 -56.5t-37 -46.5t-54 -32t-64.5 -12q-59 0 -95.5 29.5t-36.5 86.5q0 44 26.5 79t71.5 62t103 46t121 30.5t127 16t119 3.5q66 0 105 9t50 9q7 0 12 -1.5t5 -9.5q0 -10 -18 -13.5t-71 -3.5
q-25 0 -56.5 -24.5t-67.5 -68.5t-76.5 -106.5t-83.5 -137.5q-42 -74 -89 -137.5t-100 -110t-114.5 -73t-133.5 -26.5q-28 0 -57.5 7t-54.5 22t-41 38.5t-16 56.5z" />
    <glyph glyph-name="Threeroman" unicode="&#x2162;" horiz-adv-x="1833" 
d="M-15 108q0 21 13 36.5t36 15.5q17 0 27 -9.5t10 -25.5t-10.5 -27t-26.5 -8q-4 -18 2.5 -34.5t23 -30t41 -21.5t55.5 -8q48 0 91 20t80.5 51.5t69 71t58 79t47.5 75t36 58.5l55.5 82t69.5 92.5t81.5 83.5t89.5 55v2q-45 0 -104 -3t-121.5 -11.5t-123 -24.5t-108 -43
t-76.5 -66t-29 -93q0 -42 23.5 -65t63.5 -23q28 0 55.5 11t49.5 30t35.5 43t13.5 49q0 23 -5 38l11 2q2 -6 4 -18t2 -20q0 -30 -13.5 -56.5t-37 -46.5t-54 -32t-64.5 -12q-59 0 -95.5 29.5t-36.5 86.5q0 44 26.5 79t71.5 62t103 46t121 30.5t127 16t119 3.5q66 0 105 9t50 9
q7 0 12 -1.5t5 -9.5q0 -10 -18 -13.5t-71 -3.5q-25 0 -56.5 -24.5t-67.5 -68.5t-76.5 -106.5t-83.5 -137.5q-42 -74 -89 -137.5t-100 -110t-114.5 -73t-133.5 -26.5q-28 0 -57.5 7t-54.5 22t-41 38.5t-16 56.5zM596 108q0 21 13 36.5t36 15.5q17 0 27 -9.5t10 -25.5
t-10.5 -27t-26.5 -8q-4 -18 2.5 -34.5t23 -30t41 -21.5t55.5 -8q48 0 91 20t80.5 51.5t69 71t58 79t47.5 75t36 58.5l55.5 82t69.5 92.5t81.5 83.5t89.5 55v2q-45 0 -104 -3t-121.5 -11.5t-123 -24.5t-108 -43t-76.5 -66t-29 -93q0 -42 23.5 -65t63.5 -23q28 0 55.5 11
t49.5 30t35.5 43t13.5 49q0 23 -5 38l11 2q2 -6 4 -18t2 -20q0 -30 -13.5 -56.5t-37 -46.5t-54 -32t-64.5 -12q-59 0 -95.5 29.5t-36.5 86.5q0 44 26.5 79t71.5 62t103 46t121 30.5t127 16t119 3.5q66 0 105 9t50 9q7 0 12 -1.5t5 -9.5q0 -10 -18 -13.5t-71 -3.5
q-25 0 -56.5 -24.5t-67.5 -68.5t-76.5 -106.5t-83.5 -137.5q-42 -74 -89 -137.5t-100 -110t-114.5 -73t-133.5 -26.5q-28 0 -57.5 7t-54.5 22t-41 38.5t-16 56.5zM1207 108q0 21 13 36.5t36 15.5q17 0 27 -9.5t10 -25.5t-10.5 -27t-26.5 -8q-4 -18 2.5 -34.5t23 -30
t41 -21.5t55.5 -8q48 0 91 20t80.5 51.5t69 71t58 79t47.5 75t36 58.5l55.5 82t69.5 92.5t81.5 83.5t89.5 55v2q-45 0 -104 -3t-121.5 -11.5t-123 -24.5t-108 -43t-76.5 -66t-29 -93q0 -42 23.5 -65t63.5 -23q28 0 55.5 11t49.5 30t35.5 43t13.5 49q0 23 -5 38l11 2
q2 -6 4 -18t2 -20q0 -30 -13.5 -56.5t-37 -46.5t-54 -32t-64.5 -12q-59 0 -95.5 29.5t-36.5 86.5q0 44 26.5 79t71.5 62t103 46t121 30.5t127 16t119 3.5q66 0 105 9t50 9q7 0 12 -1.5t5 -9.5q0 -10 -18 -13.5t-71 -3.5q-25 0 -56.5 -24.5t-67.5 -68.5t-76.5 -106.5
t-83.5 -137.5q-42 -74 -89 -137.5t-100 -110t-114.5 -73t-133.5 -26.5q-28 0 -57.5 7t-54.5 22t-41 38.5t-16 56.5z" />
    <glyph glyph-name="Fourroman" unicode="&#x2163;" horiz-adv-x="1333" 
d="M-15 108q0 21 13 36.5t36 15.5q17 0 27 -9.5t10 -25.5t-10.5 -27t-26.5 -8q-4 -18 2.5 -34.5t23 -30t41 -21.5t55.5 -8q48 0 91 20t80.5 51.5t69 71t58 79t47.5 75t36 58.5l55.5 82t69.5 92.5t81.5 83.5t89.5 55v2q-45 0 -104 -3t-121.5 -11.5t-123 -24.5t-108 -43
t-76.5 -66t-29 -93q0 -42 23.5 -65t63.5 -23q28 0 55.5 11t49.5 30t35.5 43t13.5 49q0 23 -5 38l11 2q2 -6 4 -18t2 -20q0 -30 -13.5 -56.5t-37 -46.5t-54 -32t-64.5 -12q-59 0 -95.5 29.5t-36.5 86.5q0 44 26.5 79t71.5 62t103 46t121 30.5t127 16t119 3.5q66 0 105 9t50 9
q7 0 12 -1.5t5 -9.5q0 -10 -18 -13.5t-71 -3.5q-25 0 -56.5 -24.5t-67.5 -68.5t-76.5 -106.5t-83.5 -137.5q-42 -74 -89 -137.5t-100 -110t-114.5 -73t-133.5 -26.5q-28 0 -57.5 7t-54.5 22t-41 38.5t-16 56.5zM1317 707q-54 -42 -91 -95.5t-64.5 -112.5t-49.5 -122
t-46.5 -124t-55.5 -118.5t-77 -106.5l2 -2l111.5 67.5l100.5 63.5q126 81 199 155t110 135.5t47 107.5t10 69q-13 4 -17.5 13t-4.5 22q0 17 11 28t28 11q26 0 35.5 -17.5t9.5 -46.5q0 -39 -18.5 -82.5t-51 -88t-75.5 -89.5t-91.5 -87t-101 -80t-102.5 -69l-118 -72l-123 -74
l-5 5q35 51 60.5 109.5t47.5 120.5l44.5 124t51.5 119.5t69 107.5t97 87l-2 2q-42 -22 -91 -33.5t-100 -25.5q-33 -9 -71.5 -24t-71.5 -38.5t-55.5 -55t-22.5 -73.5q0 -35 22 -54t52 -19q18 0 35.5 7.5t31 20t21.5 30.5t8 39v18t-2 17h11q1 -8 2 -17t1 -20q0 -21 -8.5 -40
t-23.5 -34t-35.5 -24t-43.5 -9q-42 0 -70.5 24.5t-28.5 67.5q0 47 24.5 79.5t60.5 55t77 36.5t74 23q26 8 60.5 15.5t69.5 17.5t68.5 24.5t58.5 36.5z" />
    <glyph glyph-name="Fiveroman" unicode="&#x2164;" horiz-adv-x="722" 
d="M706 707q-54 -42 -91 -95.5t-64.5 -112.5t-49.5 -122t-46.5 -124t-55.5 -118.5t-77 -106.5l2 -2l111.5 67.5l100.5 63.5q126 81 199 155t110 135.5t47 107.5t10 69q-13 4 -17.5 13t-4.5 22q0 17 11 28t28 11q26 0 35.5 -17.5t9.5 -46.5q0 -39 -18.5 -82.5t-51 -88
t-75.5 -89.5t-91.5 -87t-101 -80t-102.5 -69l-118 -72l-123 -74l-5 5q35 51 60.5 109.5t47.5 120.5l44.5 124t51.5 119.5t69 107.5t97 87l-2 2q-42 -22 -91 -33.5t-100 -25.5q-33 -9 -71.5 -24t-71.5 -38.5t-55.5 -55t-22.5 -73.5q0 -35 22 -54t52 -19q18 0 35.5 7.5t31 20
t21.5 30.5t8 39v18t-2 17h11q1 -8 2 -17t1 -20q0 -21 -8.5 -40t-23.5 -34t-35.5 -24t-43.5 -9q-42 0 -70.5 24.5t-28.5 67.5q0 47 24.5 79.5t60.5 55t77 36.5t74 23q26 8 60.5 15.5t69.5 17.5t68.5 24.5t58.5 36.5z" />
    <glyph glyph-name="Sixroman" unicode="&#x2165;" horiz-adv-x="1333" 
d="M706 707q-54 -42 -91 -95.5t-64.5 -112.5t-49.5 -122t-46.5 -124t-55.5 -118.5t-77 -106.5l2 -2l111.5 67.5l100.5 63.5q126 81 199 155t110 135.5t47 107.5t10 69q-13 4 -17.5 13t-4.5 22q0 17 11 28t28 11q26 0 35.5 -17.5t9.5 -46.5q0 -39 -18.5 -82.5t-51 -88
t-75.5 -89.5t-91.5 -87t-101 -80t-102.5 -69l-118 -72l-123 -74l-5 5q35 51 60.5 109.5t47.5 120.5l44.5 124t51.5 119.5t69 107.5t97 87l-2 2q-42 -22 -91 -33.5t-100 -25.5q-33 -9 -71.5 -24t-71.5 -38.5t-55.5 -55t-22.5 -73.5q0 -35 22 -54t52 -19q18 0 35.5 7.5t31 20
t21.5 30.5t8 39v18t-2 17h11q1 -8 2 -17t1 -20q0 -21 -8.5 -40t-23.5 -34t-35.5 -24t-43.5 -9q-42 0 -70.5 24.5t-28.5 67.5q0 47 24.5 79.5t60.5 55t77 36.5t74 23q26 8 60.5 15.5t69.5 17.5t68.5 24.5t58.5 36.5zM707 108q0 21 13 36.5t36 15.5q17 0 27 -9.5t10 -25.5
t-10.5 -27t-26.5 -8q-4 -18 2.5 -34.5t23 -30t41 -21.5t55.5 -8q48 0 91 20t80.5 51.5t69 71t58 79t47.5 75t36 58.5l55.5 82t69.5 92.5t81.5 83.5t89.5 55v2q-45 0 -104 -3t-121.5 -11.5t-123 -24.5t-108 -43t-76.5 -66t-29 -93q0 -42 23.5 -65t63.5 -23q28 0 55.5 11
t49.5 30t35.5 43t13.5 49q0 23 -5 38l11 2q2 -6 4 -18t2 -20q0 -30 -13.5 -56.5t-37 -46.5t-54 -32t-64.5 -12q-59 0 -95.5 29.5t-36.5 86.5q0 44 26.5 79t71.5 62t103 46t121 30.5t127 16t119 3.5q66 0 105 9t50 9q7 0 12 -1.5t5 -9.5q0 -10 -18 -13.5t-71 -3.5
q-25 0 -56.5 -24.5t-67.5 -68.5t-76.5 -106.5t-83.5 -137.5q-42 -74 -89 -137.5t-100 -110t-114.5 -73t-133.5 -26.5q-28 0 -57.5 7t-54.5 22t-41 38.5t-16 56.5z" />
    <glyph glyph-name="Sevenroman" unicode="&#x2166;" horiz-adv-x="1944" 
d="M706 707q-54 -42 -91 -95.5t-64.5 -112.5t-49.5 -122t-46.5 -124t-55.5 -118.5t-77 -106.5l2 -2l111.5 67.5l100.5 63.5q126 81 199 155t110 135.5t47 107.5t10 69q-13 4 -17.5 13t-4.5 22q0 17 11 28t28 11q26 0 35.5 -17.5t9.5 -46.5q0 -39 -18.5 -82.5t-51 -88
t-75.5 -89.5t-91.5 -87t-101 -80t-102.5 -69l-118 -72l-123 -74l-5 5q35 51 60.5 109.5t47.5 120.5l44.5 124t51.5 119.5t69 107.5t97 87l-2 2q-42 -22 -91 -33.5t-100 -25.5q-33 -9 -71.5 -24t-71.5 -38.5t-55.5 -55t-22.5 -73.5q0 -35 22 -54t52 -19q18 0 35.5 7.5t31 20
t21.5 30.5t8 39v18t-2 17h11q1 -8 2 -17t1 -20q0 -21 -8.5 -40t-23.5 -34t-35.5 -24t-43.5 -9q-42 0 -70.5 24.5t-28.5 67.5q0 47 24.5 79.5t60.5 55t77 36.5t74 23q26 8 60.5 15.5t69.5 17.5t68.5 24.5t58.5 36.5zM707 108q0 21 13 36.5t36 15.5q17 0 27 -9.5t10 -25.5
t-10.5 -27t-26.5 -8q-4 -18 2.5 -34.5t23 -30t41 -21.5t55.5 -8q48 0 91 20t80.5 51.5t69 71t58 79t47.5 75t36 58.5l55.5 82t69.5 92.5t81.5 83.5t89.5 55v2q-45 0 -104 -3t-121.5 -11.5t-123 -24.5t-108 -43t-76.5 -66t-29 -93q0 -42 23.5 -65t63.5 -23q28 0 55.5 11
t49.5 30t35.5 43t13.5 49q0 23 -5 38l11 2q2 -6 4 -18t2 -20q0 -30 -13.5 -56.5t-37 -46.5t-54 -32t-64.5 -12q-59 0 -95.5 29.5t-36.5 86.5q0 44 26.5 79t71.5 62t103 46t121 30.5t127 16t119 3.5q66 0 105 9t50 9q7 0 12 -1.5t5 -9.5q0 -10 -18 -13.5t-71 -3.5
q-25 0 -56.5 -24.5t-67.5 -68.5t-76.5 -106.5t-83.5 -137.5q-42 -74 -89 -137.5t-100 -110t-114.5 -73t-133.5 -26.5q-28 0 -57.5 7t-54.5 22t-41 38.5t-16 56.5zM1318 108q0 21 13 36.5t36 15.5q17 0 27 -9.5t10 -25.5t-10.5 -27t-26.5 -8q-4 -18 2.5 -34.5t23 -30
t41 -21.5t55.5 -8q48 0 91 20t80.5 51.5t69 71t58 79t47.5 75t36 58.5l55.5 82t69.5 92.5t81.5 83.5t89.5 55v2q-45 0 -104 -3t-121.5 -11.5t-123 -24.5t-108 -43t-76.5 -66t-29 -93q0 -42 23.5 -65t63.5 -23q28 0 55.5 11t49.5 30t35.5 43t13.5 49q0 23 -5 38l11 2
q2 -6 4 -18t2 -20q0 -30 -13.5 -56.5t-37 -46.5t-54 -32t-64.5 -12q-59 0 -95.5 29.5t-36.5 86.5q0 44 26.5 79t71.5 62t103 46t121 30.5t127 16t119 3.5q66 0 105 9t50 9q7 0 12 -1.5t5 -9.5q0 -10 -18 -13.5t-71 -3.5q-25 0 -56.5 -24.5t-67.5 -68.5t-76.5 -106.5
t-83.5 -137.5q-42 -74 -89 -137.5t-100 -110t-114.5 -73t-133.5 -26.5q-28 0 -57.5 7t-54.5 22t-41 38.5t-16 56.5z" />
    <glyph glyph-name="Eightroman" unicode="&#x2167;" horiz-adv-x="2555" 
d="M706 707q-54 -42 -91 -95.5t-64.5 -112.5t-49.5 -122t-46.5 -124t-55.5 -118.5t-77 -106.5l2 -2l111.5 67.5l100.5 63.5q126 81 199 155t110 135.5t47 107.5t10 69q-13 4 -17.5 13t-4.5 22q0 17 11 28t28 11q26 0 35.5 -17.5t9.5 -46.5q0 -39 -18.5 -82.5t-51 -88
t-75.5 -89.5t-91.5 -87t-101 -80t-102.5 -69l-118 -72l-123 -74l-5 5q35 51 60.5 109.5t47.5 120.5l44.5 124t51.5 119.5t69 107.5t97 87l-2 2q-42 -22 -91 -33.5t-100 -25.5q-33 -9 -71.5 -24t-71.5 -38.5t-55.5 -55t-22.5 -73.5q0 -35 22 -54t52 -19q18 0 35.5 7.5t31 20
t21.5 30.5t8 39v18t-2 17h11q1 -8 2 -17t1 -20q0 -21 -8.5 -40t-23.5 -34t-35.5 -24t-43.5 -9q-42 0 -70.5 24.5t-28.5 67.5q0 47 24.5 79.5t60.5 55t77 36.5t74 23q26 8 60.5 15.5t69.5 17.5t68.5 24.5t58.5 36.5zM707 108q0 21 13 36.5t36 15.5q17 0 27 -9.5t10 -25.5
t-10.5 -27t-26.5 -8q-4 -18 2.5 -34.5t23 -30t41 -21.5t55.5 -8q48 0 91 20t80.5 51.5t69 71t58 79t47.5 75t36 58.5l55.5 82t69.5 92.5t81.5 83.5t89.5 55v2q-45 0 -104 -3t-121.5 -11.5t-123 -24.5t-108 -43t-76.5 -66t-29 -93q0 -42 23.5 -65t63.5 -23q28 0 55.5 11
t49.5 30t35.5 43t13.5 49q0 23 -5 38l11 2q2 -6 4 -18t2 -20q0 -30 -13.5 -56.5t-37 -46.5t-54 -32t-64.5 -12q-59 0 -95.5 29.5t-36.5 86.5q0 44 26.5 79t71.5 62t103 46t121 30.5t127 16t119 3.5q66 0 105 9t50 9q7 0 12 -1.5t5 -9.5q0 -10 -18 -13.5t-71 -3.5
q-25 0 -56.5 -24.5t-67.5 -68.5t-76.5 -106.5t-83.5 -137.5q-42 -74 -89 -137.5t-100 -110t-114.5 -73t-133.5 -26.5q-28 0 -57.5 7t-54.5 22t-41 38.5t-16 56.5zM1318 108q0 21 13 36.5t36 15.5q17 0 27 -9.5t10 -25.5t-10.5 -27t-26.5 -8q-4 -18 2.5 -34.5t23 -30
t41 -21.5t55.5 -8q48 0 91 20t80.5 51.5t69 71t58 79t47.5 75t36 58.5l55.5 82t69.5 92.5t81.5 83.5t89.5 55v2q-45 0 -104 -3t-121.5 -11.5t-123 -24.5t-108 -43t-76.5 -66t-29 -93q0 -42 23.5 -65t63.5 -23q28 0 55.5 11t49.5 30t35.5 43t13.5 49q0 23 -5 38l11 2
q2 -6 4 -18t2 -20q0 -30 -13.5 -56.5t-37 -46.5t-54 -32t-64.5 -12q-59 0 -95.5 29.5t-36.5 86.5q0 44 26.5 79t71.5 62t103 46t121 30.5t127 16t119 3.5q66 0 105 9t50 9q7 0 12 -1.5t5 -9.5q0 -10 -18 -13.5t-71 -3.5q-25 0 -56.5 -24.5t-67.5 -68.5t-76.5 -106.5
t-83.5 -137.5q-42 -74 -89 -137.5t-100 -110t-114.5 -73t-133.5 -26.5q-28 0 -57.5 7t-54.5 22t-41 38.5t-16 56.5zM1929 108q0 21 13 36.5t36 15.5q17 0 27 -9.5t10 -25.5t-10.5 -27t-26.5 -8q-4 -18 2.5 -34.5t23 -30t41 -21.5t55.5 -8q48 0 91 20t80.5 51.5t69 71t58 79
t47.5 75t36 58.5l55.5 82t69.5 92.5t81.5 83.5t89.5 55v2q-45 0 -104 -3t-121.5 -11.5t-123 -24.5t-108 -43t-76.5 -66t-29 -93q0 -42 23.5 -65t63.5 -23q28 0 55.5 11t49.5 30t35.5 43t13.5 49q0 23 -5 38l11 2q2 -6 4 -18t2 -20q0 -30 -13.5 -56.5t-37 -46.5t-54 -32
t-64.5 -12q-59 0 -95.5 29.5t-36.5 86.5q0 44 26.5 79t71.5 62t103 46t121 30.5t127 16t119 3.5q66 0 105 9t50 9q7 0 12 -1.5t5 -9.5q0 -10 -18 -13.5t-71 -3.5q-25 0 -56.5 -24.5t-67.5 -68.5t-76.5 -106.5t-83.5 -137.5q-42 -74 -89 -137.5t-100 -110t-114.5 -73
t-133.5 -26.5q-28 0 -57.5 7t-54.5 22t-41 38.5t-16 56.5z" />
    <glyph glyph-name="Nineroman" unicode="&#x2168;" horiz-adv-x="1444" 
d="M-15 108q0 21 13 36.5t36 15.5q17 0 27 -9.5t10 -25.5t-10.5 -27t-26.5 -8q-4 -18 2.5 -34.5t23 -30t41 -21.5t55.5 -8q48 0 91 20t80.5 51.5t69 71t58 79t47.5 75t36 58.5l55.5 82t69.5 92.5t81.5 83.5t89.5 55v2q-45 0 -104 -3t-121.5 -11.5t-123 -24.5t-108 -43
t-76.5 -66t-29 -93q0 -42 23.5 -65t63.5 -23q28 0 55.5 11t49.5 30t35.5 43t13.5 49q0 23 -5 38l11 2q2 -6 4 -18t2 -20q0 -30 -13.5 -56.5t-37 -46.5t-54 -32t-64.5 -12q-59 0 -95.5 29.5t-36.5 86.5q0 44 26.5 79t71.5 62t103 46t121 30.5t127 16t119 3.5q66 0 105 9t50 9
q7 0 12 -1.5t5 -9.5q0 -10 -18 -13.5t-71 -3.5q-25 0 -56.5 -24.5t-67.5 -68.5t-76.5 -106.5t-83.5 -137.5q-42 -74 -89 -137.5t-100 -110t-114.5 -73t-133.5 -26.5q-28 0 -57.5 7t-54.5 22t-41 38.5t-16 56.5zM1138 421q-12 -27 -29.5 -53t-40 -46t-49.5 -32t-57 -12
q-58 0 -91.5 35.5t-33.5 92.5q0 47 21.5 101t61 99.5t95 75.5t123.5 30q69 0 111.5 -35t42.5 -113q0 -26 -5.5 -52t-13.5 -49l2 -2q50 73 101 120t99 74.5t91.5 38t80.5 10.5q38 0 62 -10t24 -39q0 -13 -8 -22.5t-22 -9.5q-22 0 -26 10t-7.5 22.5t-14.5 22.5t-46 10
q-48 0 -98.5 -26t-99 -70t-92 -100.5t-76.5 -117.5t-52 -122t-19 -114q0 -22 2.5 -45.5t10 -42t21.5 -30.5t38 -12q43 0 89.5 28t89 68.5t79 85t59.5 76.5l7 -3q-38 -54 -80.5 -103t-86 -86.5t-87.5 -59.5t-86 -22q-32 0 -54 10.5t-36 28.5t-20 41t-6 48q0 27 5 55t14 57
l-2 2q-25 -42 -66 -85t-90 -78t-102.5 -57t-104.5 -22t-85 17t-34 47q0 20 11 32t26 12q17 0 27 -11t10 -28q0 -14 -5.5 -20t-10.5 -10q2 -11 19.5 -19t43.5 -8q54 0 109 26.5t106.5 71t97 102.5t79 121t53 126t19.5 117q0 27 -6.5 51t-20.5 42t-35.5 28.5t-51.5 10.5
q-43 0 -87.5 -22.5t-79.5 -61.5t-57.5 -92t-22.5 -114q0 -22 6 -43.5t18 -38.5t30.5 -27.5t43.5 -10.5q26 0 49.5 11.5t44.5 30t38 42t28 47.5h9z" />
    <glyph glyph-name="Tenroman" unicode="&#x2169;" horiz-adv-x="833" 
d="M527 421q-12 -27 -29.5 -53t-40 -46t-49.5 -32t-57 -12q-58 0 -91.5 35.5t-33.5 92.5q0 47 21.5 101t61 99.5t95 75.5t123.5 30q69 0 111.5 -35t42.5 -113q0 -26 -5.5 -52t-13.5 -49l2 -2q50 73 101 120t99 74.5t91.5 38t80.5 10.5q38 0 62 -10t24 -39q0 -13 -8 -22.5
t-22 -9.5q-22 0 -26 10t-7.5 22.5t-14.5 22.5t-46 10q-48 0 -98.5 -26t-99 -70t-92 -100.5t-76.5 -117.5t-52 -122t-19 -114q0 -22 2.5 -45.5t10 -42t21.5 -30.5t38 -12q43 0 89.5 28t89 68.5t79 85t59.5 76.5l7 -3q-38 -54 -80.5 -103t-86 -86.5t-87.5 -59.5t-86 -22
q-32 0 -54 10.5t-36 28.5t-20 41t-6 48q0 27 5 55t14 57l-2 2q-25 -42 -66 -85t-90 -78t-102.5 -57t-104.5 -22t-85 17t-34 47q0 20 11 32t26 12q17 0 27 -11t10 -28q0 -14 -5.5 -20t-10.5 -10q2 -11 19.5 -19t43.5 -8q54 0 109 26.5t106.5 71t97 102.5t79 121t53 126
t19.5 117q0 27 -6.5 51t-20.5 42t-35.5 28.5t-51.5 10.5q-43 0 -87.5 -22.5t-79.5 -61.5t-57.5 -92t-22.5 -114q0 -22 6 -43.5t18 -38.5t30.5 -27.5t43.5 -10.5q26 0 49.5 11.5t44.5 30t38 42t28 47.5h9z" />
    <glyph glyph-name="Elevenroman" unicode="&#x216a;" horiz-adv-x="1444" 
d="M527 421q-12 -27 -29.5 -53t-40 -46t-49.5 -32t-57 -12q-58 0 -91.5 35.5t-33.5 92.5q0 47 21.5 101t61 99.5t95 75.5t123.5 30q69 0 111.5 -35t42.5 -113q0 -26 -5.5 -52t-13.5 -49l2 -2q50 73 101 120t99 74.5t91.5 38t80.5 10.5q38 0 62 -10t24 -39q0 -13 -8 -22.5
t-22 -9.5q-22 0 -26 10t-7.5 22.5t-14.5 22.5t-46 10q-48 0 -98.5 -26t-99 -70t-92 -100.5t-76.5 -117.5t-52 -122t-19 -114q0 -22 2.5 -45.5t10 -42t21.5 -30.5t38 -12q43 0 89.5 28t89 68.5t79 85t59.5 76.5l7 -3q-38 -54 -80.5 -103t-86 -86.5t-87.5 -59.5t-86 -22
q-32 0 -54 10.5t-36 28.5t-20 41t-6 48q0 27 5 55t14 57l-2 2q-25 -42 -66 -85t-90 -78t-102.5 -57t-104.5 -22t-85 17t-34 47q0 20 11 32t26 12q17 0 27 -11t10 -28q0 -14 -5.5 -20t-10.5 -10q2 -11 19.5 -19t43.5 -8q54 0 109 26.5t106.5 71t97 102.5t79 121t53 126
t19.5 117q0 27 -6.5 51t-20.5 42t-35.5 28.5t-51.5 10.5q-43 0 -87.5 -22.5t-79.5 -61.5t-57.5 -92t-22.5 -114q0 -22 6 -43.5t18 -38.5t30.5 -27.5t43.5 -10.5q26 0 49.5 11.5t44.5 30t38 42t28 47.5h9zM818 108q0 21 13 36.5t36 15.5q17 0 27 -9.5t10 -25.5t-10.5 -27
t-26.5 -8q-4 -18 2.5 -34.5t23 -30t41 -21.5t55.5 -8q48 0 91 20t80.5 51.5t69 71t58 79t47.5 75t36 58.5l55.5 82t69.5 92.5t81.5 83.5t89.5 55v2q-45 0 -104 -3t-121.5 -11.5t-123 -24.5t-108 -43t-76.5 -66t-29 -93q0 -42 23.5 -65t63.5 -23q28 0 55.5 11t49.5 30
t35.5 43t13.5 49q0 23 -5 38l11 2q2 -6 4 -18t2 -20q0 -30 -13.5 -56.5t-37 -46.5t-54 -32t-64.5 -12q-59 0 -95.5 29.5t-36.5 86.5q0 44 26.5 79t71.5 62t103 46t121 30.5t127 16t119 3.5q66 0 105 9t50 9q7 0 12 -1.5t5 -9.5q0 -10 -18 -13.5t-71 -3.5q-25 0 -56.5 -24.5
t-67.5 -68.5t-76.5 -106.5t-83.5 -137.5q-42 -74 -89 -137.5t-100 -110t-114.5 -73t-133.5 -26.5q-28 0 -57.5 7t-54.5 22t-41 38.5t-16 56.5z" />
    <glyph glyph-name="Twelveroman" unicode="&#x216b;" horiz-adv-x="2055" 
d="M527 421q-12 -27 -29.5 -53t-40 -46t-49.5 -32t-57 -12q-58 0 -91.5 35.5t-33.5 92.5q0 47 21.5 101t61 99.5t95 75.5t123.5 30q69 0 111.5 -35t42.5 -113q0 -26 -5.5 -52t-13.5 -49l2 -2q50 73 101 120t99 74.5t91.5 38t80.5 10.5q38 0 62 -10t24 -39q0 -13 -8 -22.5
t-22 -9.5q-22 0 -26 10t-7.5 22.5t-14.5 22.5t-46 10q-48 0 -98.5 -26t-99 -70t-92 -100.5t-76.5 -117.5t-52 -122t-19 -114q0 -22 2.5 -45.5t10 -42t21.5 -30.5t38 -12q43 0 89.5 28t89 68.5t79 85t59.5 76.5l7 -3q-38 -54 -80.5 -103t-86 -86.5t-87.5 -59.5t-86 -22
q-32 0 -54 10.5t-36 28.5t-20 41t-6 48q0 27 5 55t14 57l-2 2q-25 -42 -66 -85t-90 -78t-102.5 -57t-104.5 -22t-85 17t-34 47q0 20 11 32t26 12q17 0 27 -11t10 -28q0 -14 -5.5 -20t-10.5 -10q2 -11 19.5 -19t43.5 -8q54 0 109 26.5t106.5 71t97 102.5t79 121t53 126
t19.5 117q0 27 -6.5 51t-20.5 42t-35.5 28.5t-51.5 10.5q-43 0 -87.5 -22.5t-79.5 -61.5t-57.5 -92t-22.5 -114q0 -22 6 -43.5t18 -38.5t30.5 -27.5t43.5 -10.5q26 0 49.5 11.5t44.5 30t38 42t28 47.5h9zM818 108q0 21 13 36.5t36 15.5q17 0 27 -9.5t10 -25.5t-10.5 -27
t-26.5 -8q-4 -18 2.5 -34.5t23 -30t41 -21.5t55.5 -8q48 0 91 20t80.5 51.5t69 71t58 79t47.5 75t36 58.5l55.5 82t69.5 92.5t81.5 83.5t89.5 55v2q-45 0 -104 -3t-121.5 -11.5t-123 -24.5t-108 -43t-76.5 -66t-29 -93q0 -42 23.5 -65t63.5 -23q28 0 55.5 11t49.5 30
t35.5 43t13.5 49q0 23 -5 38l11 2q2 -6 4 -18t2 -20q0 -30 -13.5 -56.5t-37 -46.5t-54 -32t-64.5 -12q-59 0 -95.5 29.5t-36.5 86.5q0 44 26.5 79t71.5 62t103 46t121 30.5t127 16t119 3.5q66 0 105 9t50 9q7 0 12 -1.5t5 -9.5q0 -10 -18 -13.5t-71 -3.5q-25 0 -56.5 -24.5
t-67.5 -68.5t-76.5 -106.5t-83.5 -137.5q-42 -74 -89 -137.5t-100 -110t-114.5 -73t-133.5 -26.5q-28 0 -57.5 7t-54.5 22t-41 38.5t-16 56.5zM1429 108q0 21 13 36.5t36 15.5q17 0 27 -9.5t10 -25.5t-10.5 -27t-26.5 -8q-4 -18 2.5 -34.5t23 -30t41 -21.5t55.5 -8
q48 0 91 20t80.5 51.5t69 71t58 79t47.5 75t36 58.5l55.5 82t69.5 92.5t81.5 83.5t89.5 55v2q-45 0 -104 -3t-121.5 -11.5t-123 -24.5t-108 -43t-76.5 -66t-29 -93q0 -42 23.5 -65t63.5 -23q28 0 55.5 11t49.5 30t35.5 43t13.5 49q0 23 -5 38l11 2q2 -6 4 -18t2 -20
q0 -30 -13.5 -56.5t-37 -46.5t-54 -32t-64.5 -12q-59 0 -95.5 29.5t-36.5 86.5q0 44 26.5 79t71.5 62t103 46t121 30.5t127 16t119 3.5q66 0 105 9t50 9q7 0 12 -1.5t5 -9.5q0 -10 -18 -13.5t-71 -3.5q-25 0 -56.5 -24.5t-67.5 -68.5t-76.5 -106.5t-83.5 -137.5
q-42 -74 -89 -137.5t-100 -110t-114.5 -73t-133.5 -26.5q-28 0 -57.5 7t-54.5 22t-41 38.5t-16 56.5z" />
    <glyph glyph-name="uni216C" unicode="&#x216c;" horiz-adv-x="556" 
d="M681 259l-85.5 -78.5l-106 -96.5l-103.5 -98t-79 -83q-11 -29 -29 -50t-35 -21q-13 0 -13 11q0 7 4 12t8.5 10t8 11.5t3.5 15.5q0 32 -11 56.5t-30.5 41.5t-46 25.5t-56.5 8.5q-10 0 -28.5 -5.5t-41.5 -13.5t-48.5 -14.5t-48.5 -6.5q-12 0 -20.5 4t-8.5 12t12 13.5
t31 9.5t41.5 6t44.5 3.5t40 2t27 1.5q50 16 92 57.5t81 98.5t78 124.5l82 135.5q-31 5 -59 17.5t-49.5 32.5t-34 46.5t-12.5 58.5q0 21 8.5 40.5t22.5 33.5t34 22.5t42 8.5q19 0 36.5 -4.5t29.5 -10.5l-4 -11q-12 6 -28 10t-35 4q-21 0 -38.5 -8t-29.5 -21.5t-19 -30
t-7 -33.5q0 -28 12.5 -53t33.5 -44.5t48.5 -31.5t57.5 -14q28 43 67.5 87t86.5 80t99 58.5t106 22.5q38 0 60.5 -17t22.5 -53q0 -33 -26 -68t-71.5 -64.5t-107.5 -48t-133 -18.5q-17 0 -29 0.5t-25 1.5l-74.5 -119.5t-82 -117t-98 -101.5t-122.5 -73l2 -2q8 1 17.5 2t22.5 1
q68 0 101.5 -33t40.5 -81q40 45 86 89l94 87l95.5 85.5l91.5 82.5zM800 700q-45 0 -89 -24.5t-82 -61t-69.5 -79t-52.5 -78.5q11 -1 23 -1.5t28 -0.5q45 0 97.5 12t98 35.5t76 58t30.5 80.5q0 29 -15.5 44t-44.5 15z" />
    <glyph glyph-name="uni216D" unicode="&#x216d;" horiz-adv-x="667" 
d="M546 556q-1 -6 -1 -12v-12q0 -21 7.5 -35t19.5 -22.5t27.5 -12t31.5 -3.5q27 0 55 13.5t51 37t37.5 54.5t14.5 65q0 42 -23 56.5t-62 14.5q-45 0 -99 -21.5t-109.5 -59.5t-107 -90t-92 -113t-64.5 -128t-24 -136q0 -28 7 -56t22 -50.5t39 -36t58 -13.5q49 0 93.5 22.5
t78 58.5t53.5 80.5t20 88.5q0 40 -23.5 61t-63.5 21l-1 12q63 0 93.5 -25t30.5 -85q0 -35 -18.5 -78t-54.5 -80.5t-89.5 -62.5t-122.5 -25q-52 0 -87.5 18t-57.5 45t-31.5 58.5t-9.5 58.5q0 63 27 128.5t71.5 126.5t102.5 114.5t119.5 93t123 62.5t112.5 23q63 0 94 -26
t31 -76q0 -35 -16.5 -65t-44 -51.5t-62.5 -34t-72 -12.5q-39 0 -67 18.5t-30 63.5v13q0 8 1 14h12z" />
    <glyph glyph-name="uni216E" unicode="&#x216e;" horiz-adv-x="889" 
d="M994 730q-50 -9 -95.5 -32t-82.5 -58q23 -22 39 -50t26 -58.5t14.5 -62.5t4.5 -62q0 -90 -39 -167.5t-102.5 -134t-143.5 -89t-162 -32.5q-31 0 -55 1.5t-43.5 4t-36 6t-33.5 7.5q-14 -2 -26.5 -4.5t-25 -4.5t-28 -3t-35.5 -1q-24 0 -37 4.5t-13 16.5t10.5 16.5t27.5 4.5
q12 0 23.5 -1.5t26 -4.5l32.5 -6.5t44 -7.5q51 13 93.5 53t81 95t75.5 121l76.5 131.5t84 125.5t97.5 104q-42 35 -93.5 49.5t-94.5 14.5q-81 0 -157.5 -28t-136 -78t-95.5 -118t-36 -148q0 -32 6 -60.5t21 -50.5t39 -34.5t60 -12.5q45 0 82.5 21.5t64 58t41.5 85t15 101.5
v34h12v-29q0 -62 -17 -114.5t-48 -91t-73 -60t-92 -21.5q-38 0 -66.5 14.5t-47 38.5t-28 56t-9.5 67q0 62 35.5 129t97.5 123.5t146.5 93t182.5 36.5q58 0 109 -17.5t93 -49.5q42 32 89 55.5t100 31.5zM436 -4q70 0 128 21t104.5 56.5t80.5 83.5t57 101.5t34.5 110
t11.5 109.5q0 40 -11 80.5t-36 67.5q-41 -46 -75.5 -104l-68.5 -120l-70 -123t-78 -114t-93.5 -94.5t-117.5 -62.5v-2q31 -6 62.5 -8t71.5 -2z" />
    <glyph glyph-name="uni216F" unicode="&#x216f;" horiz-adv-x="1000" 
d="M1123 269q-31 -69 -75 -120t-98 -84t-117 -49t-131 -16q-21 0 -35 -1.5t-23 -3l-15 -2.5t-12 -1q-9 0 -15 2.5t-6 8.5q0 8 8.5 9.5t13.5 1.5q14 0 27 -2l27 -4q60 29 102 83.5t75 122t61.5 141.5t63 140.5t79.5 120t110 80.5l-2 2q-43 -7 -92 -38t-98.5 -77.5t-98 -104
t-92.5 -118.5l-69.5 -98t-73.5 -97.5t-81 -91.5t-94 -81l-7 10q35 55 56.5 118t40 128l37.5 129t48.5 122t73.5 107t111 83l-2 2q-66 -22 -121 -63.5t-102 -94t-87 -113l-77 -120.5l-71 -116t-70 -98.5t-77 -68t-92 -25.5q-13 0 -25.5 2t-23 8t-17 16t-6.5 26q0 15 10 25
t25 10q13 0 21 -10t8 -23q0 -8 -3.5 -17t-11.5 -11q1 -6 12 -10t21 -4q44 0 82 27.5t74.5 73t72.5 104l75 121.5q46 73 92 137t99 114.5t116.5 85.5t144.5 51l1 -9q-62 -19 -103 -60.5t-70.5 -97.5t-51 -122l-44 -133.5t-49.5 -132.5t-68 -120l2 -2q37 32 74.5 75.5t73.5 91
l69.5 95l62.5 87.5q78 107 143 172t120 100.5t100.5 47.5t84.5 12q15 0 29 -4.5t14 -14.5q0 -8 -6 -10t-14 -2q-14 0 -29.5 3.5t-30.5 3.5q-23 0 -46.5 -20t-47 -52t-45.5 -71.5t-40.5 -78t-32 -71.5l-21.5 -52q-16 -43 -37 -91.5t-52 -95t-75.5 -87.5t-108.5 -69v-2
q152 0 257.5 66t166.5 197z" />
    <glyph glyph-name="oneroman" unicode="&#x2170;" horiz-adv-x="222" 
d="M232 344l-93 -133l-61.5 -90t-34 -57t-10.5 -34q0 -26 21 -26q20 0 46.5 14.5t55.5 37.5t58 52t54.5 57.5t45 55t28.5 43.5l8 -5q-12 -20 -32.5 -48t-46.5 -57.5t-55 -58.5t-59 -52t-58.5 -37t-52.5 -14q-27 0 -40 15t-13 33q0 21 9.5 44.5t30.5 57.5t54.5 82.5
l80.5 119.5h64zM290 530q14 0 23 -9.5t9 -23.5t-9 -23.5t-23 -9.5t-23 9.5t-9 23.5t9 23.5t23 9.5z" />
    <glyph glyph-name="tworoman" unicode="&#x2171;" 
d="M232 344l-93 -133l-61.5 -90t-34 -57t-10.5 -34q0 -26 21 -26q20 0 46.5 14.5t55.5 37.5t58 52t54.5 57.5t45 55t28.5 43.5l8 -5q-12 -20 -32.5 -48t-46.5 -57.5t-55 -58.5t-59 -52t-58.5 -37t-52.5 -14q-27 0 -40 15t-13 33q0 21 9.5 44.5t30.5 57.5t54.5 82.5
l80.5 119.5h64zM290 530q14 0 23 -9.5t9 -23.5t-9 -23.5t-23 -9.5t-23 9.5t-9 23.5t9 23.5t23 9.5zM454 344l-93 -133l-61.5 -90t-34 -57t-10.5 -34q0 -26 21 -26q20 0 46.5 14.5t55.5 37.5t58 52t54.5 57.5t45 55t28.5 43.5l8 -5q-12 -20 -32.5 -48t-46.5 -57.5t-55 -58.5
t-59 -52t-58.5 -37t-52.5 -14q-27 0 -40 15t-13 33q0 21 9.5 44.5t30.5 57.5t54.5 82.5l80.5 119.5h64zM512 530q14 0 23 -9.5t9 -23.5t-9 -23.5t-23 -9.5t-23 9.5t-9 23.5t9 23.5t23 9.5z" />
    <glyph glyph-name="threeroman" unicode="&#x2172;" horiz-adv-x="666" 
d="M232 344l-93 -133l-61.5 -90t-34 -57t-10.5 -34q0 -26 21 -26q20 0 46.5 14.5t55.5 37.5t58 52t54.5 57.5t45 55t28.5 43.5l8 -5q-12 -20 -32.5 -48t-46.5 -57.5t-55 -58.5t-59 -52t-58.5 -37t-52.5 -14q-27 0 -40 15t-13 33q0 21 9.5 44.5t30.5 57.5t54.5 82.5
l80.5 119.5h64zM290 530q14 0 23 -9.5t9 -23.5t-9 -23.5t-23 -9.5t-23 9.5t-9 23.5t9 23.5t23 9.5zM454 344l-93 -133l-61.5 -90t-34 -57t-10.5 -34q0 -26 21 -26q20 0 46.5 14.5t55.5 37.5t58 52t54.5 57.5t45 55t28.5 43.5l8 -5q-12 -20 -32.5 -48t-46.5 -57.5t-55 -58.5
t-59 -52t-58.5 -37t-52.5 -14q-27 0 -40 15t-13 33q0 21 9.5 44.5t30.5 57.5t54.5 82.5l80.5 119.5h64zM512 530q14 0 23 -9.5t9 -23.5t-9 -23.5t-23 -9.5t-23 9.5t-9 23.5t9 23.5t23 9.5zM676 344l-93 -133l-61.5 -90t-34 -57t-10.5 -34q0 -26 21 -26q20 0 46.5 14.5
t55.5 37.5t58 52t54.5 57.5t45 55t28.5 43.5l8 -5q-12 -20 -32.5 -48t-46.5 -57.5t-55 -58.5t-59 -52t-58.5 -37t-52.5 -14q-27 0 -40 15t-13 33q0 21 9.5 44.5t30.5 57.5t54.5 82.5l80.5 119.5h64zM734 530q14 0 23 -9.5t9 -23.5t-9 -23.5t-23 -9.5t-23 9.5t-9 23.5t9 23.5
t23 9.5z" />
    <glyph glyph-name="fourroman" unicode="&#x2173;" horiz-adv-x="666" 
d="M232 344l-93 -133l-61.5 -90t-34 -57t-10.5 -34q0 -26 21 -26q20 0 46.5 14.5t55.5 37.5t58 52t54.5 57.5t45 55t28.5 43.5l8 -5q-12 -20 -32.5 -48t-46.5 -57.5t-55 -58.5t-59 -52t-58.5 -37t-52.5 -14q-27 0 -40 15t-13 33q0 21 9.5 44.5t30.5 57.5t54.5 82.5
l80.5 119.5h64zM290 530q14 0 23 -9.5t9 -23.5t-9 -23.5t-23 -9.5t-23 9.5t-9 23.5t9 23.5t23 9.5zM453 344l-48 -63t-56.5 -79.5t-47.5 -82.5t-20 -71q0 -18 11 -31t37 -13q39 0 80 31t75 75.5t56 92t22 80.5q0 8 -4 17t-4 20q0 12 7 22t20 10q14 0 24.5 -16t10.5 -55
q0 -11 -1.5 -20.5t-2.5 -18.5q11 -15 32 -24.5t41 -9.5q26 0 55.5 13.5t48.5 44.5l8 -5q-7 -15 -19.5 -27t-27.5 -20.5t-32 -13t-34 -4.5q-22 0 -42 9.5t-34 21.5q-12 -39 -42.5 -80.5t-70.5 -76t-85.5 -56.5t-89.5 -22q-42 0 -64.5 19.5t-22.5 64.5q0 30 18.5 65.5t43.5 72
t51 70.5t42 60h65z" />
    <glyph glyph-name="fiveroman" unicode="&#x2174;" 
d="M231 344l-48 -63t-56.5 -79.5t-47.5 -82.5t-20 -71q0 -18 11 -31t37 -13q39 0 80 31t75 75.5t56 92t22 80.5q0 8 -4 17t-4 20q0 12 7 22t20 10q14 0 24.5 -16t10.5 -55q0 -11 -1.5 -20.5t-2.5 -18.5q11 -15 32 -24.5t41 -9.5q26 0 55.5 13.5t48.5 44.5l8 -5
q-7 -15 -19.5 -27t-27.5 -20.5t-32 -13t-34 -4.5q-22 0 -42 9.5t-34 21.5q-12 -39 -42.5 -80.5t-70.5 -76t-85.5 -56.5t-89.5 -22q-42 0 -64.5 19.5t-22.5 64.5q0 30 18.5 65.5t43.5 72t51 70.5t42 60h65z" />
    <glyph glyph-name="sixroman" unicode="&#x2175;" horiz-adv-x="666" 
d="M231 344l-48 -63t-56.5 -79.5t-47.5 -82.5t-20 -71q0 -18 11 -31t37 -13q39 0 80 31t75 75.5t56 92t22 80.5q0 8 -4 17t-4 20q0 12 7 22t20 10q14 0 24.5 -16t10.5 -55q0 -11 -1.5 -20.5t-2.5 -18.5q11 -15 32 -24.5t41 -9.5q26 0 55.5 13.5t48.5 44.5l8 -5
q-7 -15 -19.5 -27t-27.5 -20.5t-32 -13t-34 -4.5q-22 0 -42 9.5t-34 21.5q-12 -39 -42.5 -80.5t-70.5 -76t-85.5 -56.5t-89.5 -22q-42 0 -64.5 19.5t-22.5 64.5q0 30 18.5 65.5t43.5 72t51 70.5t42 60h65zM676 344l-93 -133l-61.5 -90t-34 -57t-10.5 -34q0 -26 21 -26
q20 0 46.5 14.5t55.5 37.5t58 52t54.5 57.5t45 55t28.5 43.5l8 -5q-12 -20 -32.5 -48t-46.5 -57.5t-55 -58.5t-59 -52t-58.5 -37t-52.5 -14q-27 0 -40 15t-13 33q0 21 9.5 44.5t30.5 57.5t54.5 82.5l80.5 119.5h64zM734 530q14 0 23 -9.5t9 -23.5t-9 -23.5t-23 -9.5t-23 9.5
t-9 23.5t9 23.5t23 9.5z" />
    <glyph glyph-name="sevenroman" unicode="&#x2176;" horiz-adv-x="888" 
d="M231 344l-48 -63t-56.5 -79.5t-47.5 -82.5t-20 -71q0 -18 11 -31t37 -13q39 0 80 31t75 75.5t56 92t22 80.5q0 8 -4 17t-4 20q0 12 7 22t20 10q14 0 24.5 -16t10.5 -55q0 -11 -1.5 -20.5t-2.5 -18.5q11 -15 32 -24.5t41 -9.5q26 0 55.5 13.5t48.5 44.5l8 -5
q-7 -15 -19.5 -27t-27.5 -20.5t-32 -13t-34 -4.5q-22 0 -42 9.5t-34 21.5q-12 -39 -42.5 -80.5t-70.5 -76t-85.5 -56.5t-89.5 -22q-42 0 -64.5 19.5t-22.5 64.5q0 30 18.5 65.5t43.5 72t51 70.5t42 60h65zM676 344l-93 -133l-61.5 -90t-34 -57t-10.5 -34q0 -26 21 -26
q20 0 46.5 14.5t55.5 37.5t58 52t54.5 57.5t45 55t28.5 43.5l8 -5q-12 -20 -32.5 -48t-46.5 -57.5t-55 -58.5t-59 -52t-58.5 -37t-52.5 -14q-27 0 -40 15t-13 33q0 21 9.5 44.5t30.5 57.5t54.5 82.5l80.5 119.5h64zM734 530q14 0 23 -9.5t9 -23.5t-9 -23.5t-23 -9.5t-23 9.5
t-9 23.5t9 23.5t23 9.5zM898 344l-93 -133l-61.5 -90t-34 -57t-10.5 -34q0 -26 21 -26q20 0 46.5 14.5t55.5 37.5t58 52t54.5 57.5t45 55t28.5 43.5l8 -5q-12 -20 -32.5 -48t-46.5 -57.5t-55 -58.5t-59 -52t-58.5 -37t-52.5 -14q-27 0 -40 15t-13 33q0 21 9.5 44.5
t30.5 57.5t54.5 82.5l80.5 119.5h64zM956 530q14 0 23 -9.5t9 -23.5t-9 -23.5t-23 -9.5t-23 9.5t-9 23.5t9 23.5t23 9.5z" />
    <glyph glyph-name="eightroman" unicode="&#x2177;" horiz-adv-x="1110" 
d="M231 344l-48 -63t-56.5 -79.5t-47.5 -82.5t-20 -71q0 -18 11 -31t37 -13q39 0 80 31t75 75.5t56 92t22 80.5q0 8 -4 17t-4 20q0 12 7 22t20 10q14 0 24.5 -16t10.5 -55q0 -11 -1.5 -20.5t-2.5 -18.5q11 -15 32 -24.5t41 -9.5q26 0 55.5 13.5t48.5 44.5l8 -5
q-7 -15 -19.5 -27t-27.5 -20.5t-32 -13t-34 -4.5q-22 0 -42 9.5t-34 21.5q-12 -39 -42.5 -80.5t-70.5 -76t-85.5 -56.5t-89.5 -22q-42 0 -64.5 19.5t-22.5 64.5q0 30 18.5 65.5t43.5 72t51 70.5t42 60h65zM676 344l-93 -133l-61.5 -90t-34 -57t-10.5 -34q0 -26 21 -26
q20 0 46.5 14.5t55.5 37.5t58 52t54.5 57.5t45 55t28.5 43.5l8 -5q-12 -20 -32.5 -48t-46.5 -57.5t-55 -58.5t-59 -52t-58.5 -37t-52.5 -14q-27 0 -40 15t-13 33q0 21 9.5 44.5t30.5 57.5t54.5 82.5l80.5 119.5h64zM734 530q14 0 23 -9.5t9 -23.5t-9 -23.5t-23 -9.5t-23 9.5
t-9 23.5t9 23.5t23 9.5zM898 344l-93 -133l-61.5 -90t-34 -57t-10.5 -34q0 -26 21 -26q20 0 46.5 14.5t55.5 37.5t58 52t54.5 57.5t45 55t28.5 43.5l8 -5q-12 -20 -32.5 -48t-46.5 -57.5t-55 -58.5t-59 -52t-58.5 -37t-52.5 -14q-27 0 -40 15t-13 33q0 21 9.5 44.5
t30.5 57.5t54.5 82.5l80.5 119.5h64zM956 530q14 0 23 -9.5t9 -23.5t-9 -23.5t-23 -9.5t-23 9.5t-9 23.5t9 23.5t23 9.5zM1120 344l-93 -133l-61.5 -90t-34 -57t-10.5 -34q0 -26 21 -26q20 0 46.5 14.5t55.5 37.5t58 52t54.5 57.5t45 55t28.5 43.5l8 -5q-12 -20 -32.5 -48
t-46.5 -57.5t-55 -58.5t-59 -52t-58.5 -37t-52.5 -14q-27 0 -40 15t-13 33q0 21 9.5 44.5t30.5 57.5t54.5 82.5l80.5 119.5h64zM1178 530q14 0 23 -9.5t9 -23.5t-9 -23.5t-23 -9.5t-23 9.5t-9 23.5t9 23.5t23 9.5z" />
    <glyph glyph-name="nineroman" unicode="&#x2178;" horiz-adv-x="722" 
d="M232 344l-93 -133l-61.5 -90t-34 -57t-10.5 -34q0 -26 21 -26q20 0 46.5 14.5t55.5 37.5t58 52t54.5 57.5t45 55t28.5 43.5l8 -5q-12 -20 -32.5 -48t-46.5 -57.5t-55 -58.5t-59 -52t-58.5 -37t-52.5 -14q-27 0 -40 15t-13 33q0 21 9.5 44.5t30.5 57.5t54.5 82.5
l80.5 119.5h64zM290 530q14 0 23 -9.5t9 -23.5t-9 -23.5t-23 -9.5t-23 9.5t-9 23.5t9 23.5t23 9.5zM850 266q-22 -39 -62 -86.5t-87 -89.5t-96.5 -70t-92.5 -28q-36 0 -55 17t-19 43q0 25 11 47l-2 2q-16 -21 -36.5 -40.5t-44 -35t-49.5 -24.5t-53 -9q-47 0 -73.5 23
t-26.5 61q0 26 15 44t36 18q19 0 27 -10t8 -23t-7.5 -22t-21.5 -9q-19 0 -25 14q-12 -10 -12 -26q0 -28 22.5 -43t57.5 -15q26 0 54.5 14.5t55 38t50.5 54t42 62.5t28.5 63t10.5 55t-11.5 40.5t-35.5 16.5q-19 0 -35.5 -9.5t-30.5 -24t-24.5 -30l-18.5 -27.5l-9 6
q12 19 24.5 36.5t27.5 31t34 21.5t43 8q23 0 39.5 -7.5t27.5 -20.5t17 -29t6 -34q12 13 29.5 27.5t38.5 27t45 20.5t49 8q32 0 50.5 -15.5t18.5 -37.5q0 -14 -13 -26t-34 -12q-4 0 -14 2l9 25.5t4 21.5q0 30 -28 30q-23 0 -49 -13.5t-51 -36t-48.5 -51t-41 -59t-28 -59.5
t-10.5 -53q0 -29 11.5 -44.5t37.5 -15.5q22 0 49 13t57 34t60 48.5t57 56.5t49 57.5t35 51.5z" />
    <glyph glyph-name="tenroman" unicode="&#x2179;" horiz-adv-x="500" 
d="M628 266q-22 -39 -62 -86.5t-87 -89.5t-96.5 -70t-92.5 -28q-36 0 -55 17t-19 43q0 25 11 47l-2 2q-16 -21 -36.5 -40.5t-44 -35t-49.5 -24.5t-53 -9q-47 0 -73.5 23t-26.5 61q0 26 15 44t36 18q19 0 27 -10t8 -23t-7.5 -22t-21.5 -9q-19 0 -25 14q-12 -10 -12 -26
q0 -28 22.5 -43t57.5 -15q26 0 54.5 14.5t55 38t50.5 54t42 62.5t28.5 63t10.5 55t-11.5 40.5t-35.5 16.5q-19 0 -35.5 -9.5t-30.5 -24t-24.5 -30l-18.5 -27.5l-9 6q12 19 24.5 36.5t27.5 31t34 21.5t43 8q23 0 39.5 -7.5t27.5 -20.5t17 -29t6 -34q12 13 29.5 27.5t38.5 27
t45 20.5t49 8q32 0 50.5 -15.5t18.5 -37.5q0 -14 -13 -26t-34 -12q-4 0 -14 2l9 25.5t4 21.5q0 30 -28 30q-23 0 -49 -13.5t-51 -36t-48.5 -51t-41 -59t-28 -59.5t-10.5 -53q0 -29 11.5 -44.5t37.5 -15.5q22 0 49 13t57 34t60 48.5t57 56.5t49 57.5t35 51.5z" />
    <glyph glyph-name="elevenroman" unicode="&#x217a;" horiz-adv-x="722" 
d="M628 266q-22 -39 -62 -86.5t-87 -89.5t-96.5 -70t-92.5 -28q-36 0 -55 17t-19 43q0 25 11 47l-2 2q-16 -21 -36.5 -40.5t-44 -35t-49.5 -24.5t-53 -9q-47 0 -73.5 23t-26.5 61q0 26 15 44t36 18q19 0 27 -10t8 -23t-7.5 -22t-21.5 -9q-19 0 -25 14q-12 -10 -12 -26
q0 -28 22.5 -43t57.5 -15q26 0 54.5 14.5t55 38t50.5 54t42 62.5t28.5 63t10.5 55t-11.5 40.5t-35.5 16.5q-19 0 -35.5 -9.5t-30.5 -24t-24.5 -30l-18.5 -27.5l-9 6q12 19 24.5 36.5t27.5 31t34 21.5t43 8q23 0 39.5 -7.5t27.5 -20.5t17 -29t6 -34q12 13 29.5 27.5t38.5 27
t45 20.5t49 8q32 0 50.5 -15.5t18.5 -37.5q0 -14 -13 -26t-34 -12q-4 0 -14 2l9 25.5t4 21.5q0 30 -28 30q-23 0 -49 -13.5t-51 -36t-48.5 -51t-41 -59t-28 -59.5t-10.5 -53q0 -29 11.5 -44.5t37.5 -15.5q22 0 49 13t57 34t60 48.5t57 56.5t49 57.5t35 51.5zM732 344
l-93 -133l-61.5 -90t-34 -57t-10.5 -34q0 -26 21 -26q20 0 46.5 14.5t55.5 37.5t58 52t54.5 57.5t45 55t28.5 43.5l8 -5q-12 -20 -32.5 -48t-46.5 -57.5t-55 -58.5t-59 -52t-58.5 -37t-52.5 -14q-27 0 -40 15t-13 33q0 21 9.5 44.5t30.5 57.5t54.5 82.5l80.5 119.5h64z
M790 530q14 0 23 -9.5t9 -23.5t-9 -23.5t-23 -9.5t-23 9.5t-9 23.5t9 23.5t23 9.5z" />
    <glyph glyph-name="twelveroman" unicode="&#x217b;" horiz-adv-x="944" 
d="M628 266q-22 -39 -62 -86.5t-87 -89.5t-96.5 -70t-92.5 -28q-36 0 -55 17t-19 43q0 25 11 47l-2 2q-16 -21 -36.5 -40.5t-44 -35t-49.5 -24.5t-53 -9q-47 0 -73.5 23t-26.5 61q0 26 15 44t36 18q19 0 27 -10t8 -23t-7.5 -22t-21.5 -9q-19 0 -25 14q-12 -10 -12 -26
q0 -28 22.5 -43t57.5 -15q26 0 54.5 14.5t55 38t50.5 54t42 62.5t28.5 63t10.5 55t-11.5 40.5t-35.5 16.5q-19 0 -35.5 -9.5t-30.5 -24t-24.5 -30l-18.5 -27.5l-9 6q12 19 24.5 36.5t27.5 31t34 21.5t43 8q23 0 39.5 -7.5t27.5 -20.5t17 -29t6 -34q12 13 29.5 27.5t38.5 27
t45 20.5t49 8q32 0 50.5 -15.5t18.5 -37.5q0 -14 -13 -26t-34 -12q-4 0 -14 2l9 25.5t4 21.5q0 30 -28 30q-23 0 -49 -13.5t-51 -36t-48.5 -51t-41 -59t-28 -59.5t-10.5 -53q0 -29 11.5 -44.5t37.5 -15.5q22 0 49 13t57 34t60 48.5t57 56.5t49 57.5t35 51.5zM732 344
l-93 -133l-61.5 -90t-34 -57t-10.5 -34q0 -26 21 -26q20 0 46.5 14.5t55.5 37.5t58 52t54.5 57.5t45 55t28.5 43.5l8 -5q-12 -20 -32.5 -48t-46.5 -57.5t-55 -58.5t-59 -52t-58.5 -37t-52.5 -14q-27 0 -40 15t-13 33q0 21 9.5 44.5t30.5 57.5t54.5 82.5l80.5 119.5h64z
M790 530q14 0 23 -9.5t9 -23.5t-9 -23.5t-23 -9.5t-23 9.5t-9 23.5t9 23.5t23 9.5zM954 344l-93 -133l-61.5 -90t-34 -57t-10.5 -34q0 -26 21 -26q20 0 46.5 14.5t55.5 37.5t58 52t54.5 57.5t45 55t28.5 43.5l8 -5q-12 -20 -32.5 -48t-46.5 -57.5t-55 -58.5t-59 -52
t-58.5 -37t-52.5 -14q-27 0 -40 15t-13 33q0 21 9.5 44.5t30.5 57.5t54.5 82.5l80.5 119.5h64zM1012 530q14 0 23 -9.5t9 -23.5t-9 -23.5t-23 -9.5t-23 9.5t-9 23.5t9 23.5t23 9.5z" />
    <glyph glyph-name="uni217C" unicode="&#x217c;" horiz-adv-x="222" 
d="M455 696l-155 -233.5l-113 -168.5l-77 -115.5t-47 -74.5t-23.5 -46t-6.5 -29q0 -25 22 -25q25 0 58.5 20.5t72 56t78.5 83t78 101.5l11 -4q-36 -51 -76 -98.5t-77 -82.5q-49 -46 -84.5 -67t-64.5 -21q-31 0 -44.5 14t-13.5 37q0 21 7.5 43.5t25.5 54t47.5 76.5l73 110.5
l102.5 156l136 212.5h70z" />
    <glyph glyph-name="uni217D" unicode="&#x217d;" horiz-adv-x="333" 
d="M455 251q-23 -37 -60.5 -79.5t-81.5 -79.5q-54 -45 -108 -72.5t-106 -27.5q-37 0 -62 19.5t-25 57.5q0 48 27.5 98t69 91.5t91 67.5t93.5 26q29 0 50.5 -10.5t21.5 -36.5q0 -12 -6.5 -20t-16 -13t-21 -7.5t-20.5 -3.5q4 10 7 20.5t3 21.5q0 37 -35 37q-26 0 -61.5 -25.5
t-67 -64.5t-53.5 -86t-22 -91q0 -27 12.5 -46t38.5 -19q35 0 80.5 23t88.5 57q45 35 86.5 80.5t69.5 88.5z" />
    <glyph glyph-name="uni217E" unicode="&#x217e;" 
d="M677 692l-85 -131l-92 -137l-88.5 -131.5l-75.5 -116.5t-52.5 -91.5t-19.5 -56.5q0 -11 5.5 -17.5t16.5 -6.5q25 0 57 20t77 63q39 38 76 84.5t64 91.5l8 -4q-9 -16 -23.5 -37.5t-32 -44.5t-37.5 -46.5t-41 -44.5q-40 -41 -79 -67.5t-72 -26.5q-32 0 -47.5 13.5
t-15.5 34.5q0 19 8 37t16 32l-2 1l-35.5 -38.5t-41.5 -38.5t-46.5 -29.5t-50.5 -11.5q-36 0 -55.5 22t-19.5 52q0 42 29 92t72.5 93t93.5 72t93 29q32 0 51 -20t18 -51h3l258 411h66zM322 280q0 24 -8 42t-37 18q-20 0 -44.5 -14t-49.5 -37t-48.5 -52.5t-41.5 -60t-29 -59.5
t-11 -52q0 -21 8 -35t29 -14q18 0 41.5 14t49.5 36.5t51 51.5t45 58t32.5 56.5t12.5 47.5z" />
    <glyph glyph-name="thousandroman" unicode="&#x217f;" horiz-adv-x="667" 
d="M-58 0l50.5 81l58 89.5l58 90l51.5 83.5h61l-132 -186l2 -2l46 56.5t59.5 64.5t69.5 53t76 22q24 0 39.5 -12.5t15.5 -36.5q0 -14 -10 -34t-23.5 -40.5t-27.5 -39.5t-22 -31l2 -2q21 30 50.5 64t63 63.5t69 49t68.5 19.5q29 0 43.5 -14t14.5 -39q0 -17 -11.5 -40
t-29 -48.5t-37.5 -51.5l-37.5 -50t-29 -44.5t-11.5 -34.5q0 -12 7.5 -19t18.5 -7q24 0 56.5 19t70 53t78.5 81.5t83 104.5l8 -4q-41 -56 -82 -104.5t-79.5 -84.5t-74 -56.5t-65.5 -20.5q-31 0 -46 17.5t-15 43.5q0 19 11.5 42.5t29 48.5t37.5 50l37.5 48t29 42t11.5 31
q0 14 -7.5 19.5t-18.5 5.5q-20 0 -47 -13.5t-56.5 -38t-60.5 -57t-60.5 -70t-55.5 -79t-45 -82.5h-64q28 50 60.5 100l60.5 92.5t47 74t19 46.5q0 27 -28 27q-25 0 -56 -18.5t-63 -48t-63 -67t-58.5 -75.5t-48.5 -72.5t-33 -58.5h-65z" />
    <glyph glyph-name="Dcroat" unicode="&#x110;" horiz-adv-x="889" 
d="M496 345q-6 0 -6 6t6 6h92q47 80 97.5 155.5t116.5 129.5q-42 35 -96.5 49.5t-116.5 14.5q-90 0 -171.5 -28t-143.5 -78t-98.5 -118t-36.5 -148q0 -30 5.5 -58.5t18.5 -50.5t35 -35.5t55 -13.5q44 0 79.5 21.5t61.5 58t40 85t14 101.5v34h12v-29q0 -62 -16 -114.5
t-45 -91t-70 -60t-91 -21.5q-34 0 -60.5 13.5t-43.5 37.5t-26 56t-9 69q0 62 35.5 129t100 123.5t154 93t197.5 36.5q77 0 131 -17.5t96 -49.5q42 32 89 55.5t100 31.5l2 -8q-50 -9 -95.5 -32t-82.5 -58q23 -22 39 -50t26 -58.5t14.5 -62.5t4.5 -62q0 -90 -39 -167.5
t-102.5 -134t-143.5 -89t-162 -32.5q-31 0 -55 1.5t-43.5 4t-36 6t-33.5 7.5q-14 -2 -26.5 -4.5t-25 -4.5t-28 -3t-35.5 -1q-24 0 -37 4.5t-13 16.5t10.5 16.5t27.5 4.5q12 0 23.5 -1.5t26 -4.5l32.5 -6.5t44 -7.5q45 12 83 44t72.5 77t66.5 100l65 112h-85zM639 345
q-31 -55 -64 -107.5t-72 -97t-86 -79t-105 -53.5v-2q31 -6 62.5 -8t71.5 -2q70 0 128 21t104.5 56.5t80.5 83.5t57 101.5t34.5 110t11.5 109.5q0 40 -11 80.5t-36 67.5q-48 -55 -88 -125.5l-81 -143.5h116q6 0 6 -6t-6 -6h-123z" />
    <glyph glyph-name="Ibreve" unicode="&#x12c;" horiz-adv-x="611" 
d="M-15 108q0 21 13 36.5t36 15.5q17 0 27 -9.5t10 -25.5t-10.5 -27t-26.5 -8q-4 -18 2.5 -34.5t23 -30t41 -21.5t55.5 -8q48 0 91 20t80.5 51.5t69 71t58 79t47.5 75t36 58.5l55.5 82t69.5 92.5t81.5 83.5t89.5 55v2q-45 0 -104 -3t-121.5 -11.5t-123 -24.5t-108 -43
t-76.5 -66t-29 -93q0 -42 23.5 -65t63.5 -23q28 0 55.5 11t49.5 30t35.5 43t13.5 49q0 23 -5 38l11 2q2 -6 4 -18t2 -20q0 -30 -13.5 -56.5t-37 -46.5t-54 -32t-64.5 -12q-59 0 -95.5 29.5t-36.5 86.5q0 44 26.5 79t71.5 62t103 46t121 30.5t127 16t119 3.5q66 0 105 9t50 9
q7 0 12 -1.5t5 -9.5q0 -10 -18 -13.5t-71 -3.5q-25 0 -56.5 -24.5t-67.5 -68.5t-76.5 -106.5t-83.5 -137.5q-42 -74 -89 -137.5t-100 -110t-114.5 -73t-133.5 -26.5q-28 0 -57.5 7t-54.5 22t-41 38.5t-16 56.5zM815 773q35 0 61.5 11.5t45 25t29.5 25t15 11.5q5 0 5 -7
q0 -5 -14.5 -21.5t-36.5 -34t-47.5 -31t-46.5 -13.5q-27 0 -46.5 10.5t-32.5 25.5t-19 31.5t-6 27.5q0 5 0.5 9t5.5 4q3 0 7 -11.5t12.5 -25.5t24.5 -25.5t43 -11.5z" />
    <glyph glyph-name="ibreve" unicode="&#x12d;" horiz-adv-x="222" 
d="M232 344l-93 -133l-61.5 -90t-34 -57t-10.5 -34q0 -26 21 -26q20 0 46.5 14.5t55.5 37.5t58 52t54.5 57.5t45 55t28.5 43.5l8 -5q-12 -20 -32.5 -48t-46.5 -57.5t-55 -58.5t-59 -52t-58.5 -37t-52.5 -14q-27 0 -40 15t-13 33q0 21 9.5 44.5t30.5 57.5t54.5 82.5
l80.5 119.5h64zM224 433q35 0 61.5 11.5t45 25t29.5 25t15 11.5q5 0 5 -7q0 -5 -14.5 -21.5t-36.5 -34t-47.5 -31t-46.5 -13.5q-27 0 -46.5 10.5t-32.5 25.5t-19 31.5t-6 27.5q0 5 0.5 9t5.5 4q3 0 7 -11.5t12.5 -25.5t24.5 -25.5t43 -11.5z" />
    <glyph glyph-name="Idotaccent" unicode="&#x130;" horiz-adv-x="611" 
d="M-15 108q0 21 13 36.5t36 15.5q17 0 27 -9.5t10 -25.5t-10.5 -27t-26.5 -8q-4 -18 2.5 -34.5t23 -30t41 -21.5t55.5 -8q48 0 91 20t80.5 51.5t69 71t58 79t47.5 75t36 58.5l55.5 82t69.5 92.5t81.5 83.5t89.5 55v2q-45 0 -104 -3t-121.5 -11.5t-123 -24.5t-108 -43
t-76.5 -66t-29 -93q0 -42 23.5 -65t63.5 -23q28 0 55.5 11t49.5 30t35.5 43t13.5 49q0 23 -5 38l11 2q2 -6 4 -18t2 -20q0 -30 -13.5 -56.5t-37 -46.5t-54 -32t-64.5 -12q-59 0 -95.5 29.5t-36.5 86.5q0 44 26.5 79t71.5 62t103 46t121 30.5t127 16t119 3.5q66 0 105 9t50 9
q7 0 12 -1.5t5 -9.5q0 -10 -18 -13.5t-71 -3.5q-25 0 -56.5 -24.5t-67.5 -68.5t-76.5 -106.5t-83.5 -137.5q-42 -74 -89 -137.5t-100 -110t-114.5 -73t-133.5 -26.5q-28 0 -57.5 7t-54.5 22t-41 38.5t-16 56.5zM826 809q12 0 18.5 -12t6.5 -23q0 -15 -10.5 -26t-27.5 -11
q-13 0 -19.5 11t-6.5 23q0 17 11 27.5t28 10.5z" />
    <glyph glyph-name="IJ" unicode="&#x132;" horiz-adv-x="1222" 
d="M-15 108q0 21 13 36.5t36 15.5q17 0 27 -9.5t10 -25.5t-10.5 -27t-26.5 -8q-4 -18 2.5 -34.5t23 -30t41 -21.5t55.5 -8q48 0 91 20t80.5 51.5t69 71t58 79t47.5 75t36 58.5l55.5 82t69.5 92.5t81.5 83.5t89.5 55v2q-45 0 -104 -3t-121.5 -11.5t-123 -24.5t-108 -43
t-76.5 -66t-29 -93q0 -42 23.5 -65t63.5 -23q28 0 55.5 11t49.5 30t35.5 43t13.5 49q0 23 -5 38l11 2q2 -6 4 -18t2 -20q0 -30 -13.5 -56.5t-37 -46.5t-54 -32t-64.5 -12q-59 0 -95.5 29.5t-36.5 86.5q0 44 26.5 79t71.5 62t103 46t121 30.5t127 16t119 3.5q66 0 105 9t50 9
q7 0 12 -1.5t5 -9.5q0 -10 -18 -13.5t-71 -3.5q-25 0 -56.5 -24.5t-67.5 -68.5t-76.5 -106.5t-83.5 -137.5q-42 -74 -89 -137.5t-100 -110t-114.5 -73t-133.5 -26.5q-28 0 -57.5 7t-54.5 22t-41 38.5t-16 56.5zM1121 501q4 -10 5.5 -21t1.5 -20q0 -31 -14.5 -58t-37.5 -46.5
t-53 -31t-62 -11.5q-64 0 -99.5 31t-35.5 81q0 54 33 93.5t86 67.5t119.5 45.5t132.5 27.5t125.5 13.5t99.5 3.5q41 0 74.5 10t53.5 10q5 0 11 -2.5t6 -9.5t-9 -11.5t-22.5 -6t-30 -2t-30.5 -0.5q-30 0 -67 -34.5t-77 -90t-81.5 -124l-81 -136l-74.5 -128t-62 -98.5l2 -2
q59 18 102 37t78 44t65 58t61 78l8 -5q-31 -46 -62 -80.5t-68.5 -61t-85.5 -47t-113 -38.5q-39 -59 -85 -118.5t-100.5 -107.5t-117.5 -78t-135 -30q-29 0 -57 8t-50 23.5t-35.5 37.5t-13.5 50q0 44 21.5 73.5t59.5 49t89.5 31.5t111 21.5t124.5 18t129 21.5
q32 50 65.5 109.5l70 121l75.5 122t82.5 113t91 94.5t100.5 66v2q-42 0 -100.5 -4t-122 -14t-126 -27.5t-112 -45.5t-80 -67.5t-30.5 -92.5q0 -35 21 -61.5t66 -26.5q30 0 58 10.5t49.5 29t34.5 43.5t13 53q0 17 -6 39zM579 -286q62 0 118.5 33t104.5 81t86 101.5t63 93.5
q-59 -12 -117.5 -20t-111.5 -16.5t-98.5 -20t-79 -30t-52.5 -47t-19 -70.5q0 -56 30.5 -80.5t75.5 -24.5z" />
    </font>
</defs>
</svg>
